<svg id="Layer_2" data-name="Layer 2" xmlns="http://www.w3.org/2000/svg" viewBox="0 0 1000 1000"><defs><style>.cls-1,.cls-3,.cls-8{fill:none;}.cls-1{stroke:#ccdde2;}.cls-1,.cls-3{stroke-miterlimit:10;stroke-width:5.14px;}.cls-2{fill:#3fbdf1;}.cls-3{stroke:#000;}.cls-4{fill:#d7e8f0;}.cls-5{fill:#fff;}.cls-6{opacity:0.72;}.cls-7{fill:#2e2e2e;}</style></defs><path class="cls-1" d="M531,250.07s125-69.22,190.09,18.27-32.24,155.82,53.27,207.3,19.47,150.27,97,183.09S925.87,833.36,835,866.08"/><path class="cls-1" d="M174.18,765.65c-.24,1-.44,1.92-.61,2.91-.41,2.06-.79,4.15-1.06,6.27-6,44.23,13.42,88.59,40.62,122.54"/><rect class="cls-2" x="144.39" y="259.21" width="548.75" height="526.49" rx="84.37"/><rect class="cls-3" x="136.38" y="251.52" width="556.77" height="534.18" rx="89.97"/><rect class="cls-2" x="155.18" y="269.56" width="527.17" height="505.78" rx="84.37"/><path class="cls-4" d="M620.07,296.11H509.69c-15,0-27.19,13.1-27.19,29.23V620.21c0,16.16,12.19,29.27,27.19,29.27H620.07c15,0,27.24-13.11,27.24-29.27V325.34C647.31,309.21,635.11,296.11,620.07,296.11ZM634.46,612c0,13.48-10.14,24.37-22.68,24.37H518c-12.54,0-22.68-10.89-22.68-24.37V333.62c0-13.47,10.14-24.37,22.68-24.37h93.76c12.54,0,22.68,10.9,22.68,24.37Z"/><path class="cls-2" d="M371.25,668.33,209.48,666a6.57,6.57,0,0,1-6.46-6.67,6.11,6.11,0,0,1,.26-1.77,6.6,6.6,0,0,1,6.4-4.69l161.77,2.38a12.25,12.25,0,0,0-2,6.28A12.47,12.47,0,0,0,371.25,668.33Z"/><path class="cls-4" d="M410.46,664.09a6.63,6.63,0,0,1-6.39,4.72l-11.68-.17a12.48,12.48,0,0,0,.2-13.13l11.68.17a6.59,6.59,0,0,1,6.47,6.67A6,6,0,0,1,410.46,664.09Z"/><path class="cls-4" d="M410.08,690.14a6.58,6.58,0,0,1-6.38,4.69l-160.77-2.35a12.21,12.21,0,0,0,2.88-7.53,12.07,12.07,0,0,0-1.11-5.56l159.18,2.3a6.59,6.59,0,0,1,6.46,6.67A6.18,6.18,0,0,1,410.08,690.14Z"/><path class="cls-2" d="M223.6,692.19,209.11,692a6.56,6.56,0,0,1-6.47-6.64,6.32,6.32,0,0,1,.27-1.8,6.52,6.52,0,0,1,6.37-4.67l12.91.21a12.93,12.93,0,0,0-1.24,5A12.26,12.26,0,0,0,223.6,692.19Z"/><path class="cls-2" d="M359.8,720.52l-150.1-2.18a6.62,6.62,0,0,1-6.46-6.67,6,6,0,0,1,.28-1.74,6.62,6.62,0,0,1,6.39-4.72l149.87,2.21a12.37,12.37,0,0,0,0,13.1Z"/><path class="cls-4" d="M410.71,716.49a6.56,6.56,0,0,1-6.41,4.68l-23.53-.36-21-.29a12.37,12.37,0,0,1,0-13.1l21.36.32,23.36.33a6.57,6.57,0,0,1,6.46,6.64A5.85,5.85,0,0,1,410.71,716.49Z"/><path class="cls-5" d="M392.39,668.64a12.43,12.43,0,0,1-22.9-7.16,12.43,12.43,0,0,1,12.87-12,12.41,12.41,0,0,1,12,12.87A12.54,12.54,0,0,1,392.39,668.64Z"/><g class="cls-6"><path class="cls-5" d="M387.7,661a8,8,0,0,1-2,4,12.07,12.07,0,0,1-1.65,1.55c-.32.23-2,1.6-2.36,1.43-2.24-1.13-5.08-4-5.43-6.77a5.22,5.22,0,0,1,0-1.31,3.18,3.18,0,0,1,3.23-2.66,3.24,3.24,0,0,1,2.51,1.39,3.22,3.22,0,0,1,5.71,2.4Z"/></g><path class="cls-5" d="M242.93,692.48a12.44,12.44,0,0,1-19.33-.29,12.26,12.26,0,0,1-2.65-8.12,12.93,12.93,0,0,1,1.24-5v0a12.46,12.46,0,0,1,11.62-7,12.31,12.31,0,0,1,10.88,7.31,12.07,12.07,0,0,1,1.11,5.56A12.21,12.21,0,0,1,242.93,692.48Z"/><g class="cls-6"><path class="cls-5" d="M239.17,683.61a8,8,0,0,1-2,4,11.05,11.05,0,0,1-1.66,1.55c-.32.23-2,1.61-2.35,1.43-2.25-1.13-5.08-4-5.43-6.77a5.22,5.22,0,0,1,0-1.31,3.19,3.19,0,0,1,3.23-2.66,3.24,3.24,0,0,1,2.51,1.39,3.22,3.22,0,0,1,5.71,2.41Z"/></g><path class="cls-5" d="M380.77,720.81a12.46,12.46,0,0,1-22.85-7.26,12.64,12.64,0,0,1,1.86-6.13,12.48,12.48,0,0,1,21.36.32,12.27,12.27,0,0,1,1.68,6.7A12.41,12.41,0,0,1,380.77,720.81Z"/><g class="cls-6"><path class="cls-5" d="M376.16,713.09a7.93,7.93,0,0,1-2,4,11.56,11.56,0,0,1-1.66,1.55c-.32.24-2,1.61-2.35,1.43-2.25-1.13-5.08-4-5.43-6.77a4.8,4.8,0,0,1,0-1.31,3.15,3.15,0,0,1,5.73-1.26,3.23,3.23,0,0,1,5.72,2.4Z"/></g><path class="cls-5" d="M201.78,327.12l.28,38.35a25.9,25.9,0,0,0,25.11,25.62l38,.66A24.39,24.39,0,0,0,289.87,367l-.29-38.34A25.9,25.9,0,0,0,264.47,303l-38-.67A24.39,24.39,0,0,0,201.78,327.12Z"/><path class="cls-2" d="M207.62,336.74l.2,27.76a22.51,22.51,0,0,0,21.82,22.26l33,.57a21.18,21.18,0,0,0,21.49-21.49l0-1.88c-4.63-9.47-13.65-23.64-23.27-15.17-13.87,12.19-20.22,2.91-28.3-9.05C225.75,329.73,215.49,322.42,207.62,336.74Z"/><ellipse class="cls-2" cx="264.47" cy="325.17" rx="9.1" ry="9.34" transform="translate(-135.75 200.65) rotate(-33.6)"/><path class="cls-5" d="M412.39,378.73a28.72,28.72,0,0,0-18.15,51L328.9,546.93a12.76,12.76,0,0,0-1.4-.14,12.9,12.9,0,0,0-3.54.55L275,486.54A18.73,18.73,0,1,0,249.09,491L214.8,588.6a13,13,0,1,0,9.45,3.31l34.3-97.6c.42,0,.83.06,1.25.06a18.77,18.77,0,0,0,7.43-1.53l48.92,60.79a12.86,12.86,0,0,0,11.35,19,12.88,12.88,0,0,0,10.16-20.88L403,434.59a28.72,28.72,0,1,0,9.39-55.86Z"/><path class="cls-5" d="M855.72,707.12c-.07-.31-.14-.61-.24-.92a59.48,59.48,0,0,0-19.08-29.57c-.11-.06-.24-.17-.35-.24-.85-.61-1.74-1.2-2.63-1.78-1.2-.75-2.44-1.47-3.67-2.19a1.35,1.35,0,0,0-.34-.17,80.35,80.35,0,0,1-13.53-8l-.21-.14c-5.72-3.8-10.89-8.22-14.46-14.35a2.2,2.2,0,0,1-.2-.41c-.07,0-.07-.11-.1-.14-3.29-5-5.28-10.48-4.87-16.17v-.17c-1-9.28,0-19.05-.38-28.47,0-.58,0-1.16-.1-1.75s-.1-1.3-.14-1.88a1.57,1.57,0,0,0,0-.58,50.08,50.08,0,0,0-.72-5.55c-3.25-17.61-14.56-33.3-28.4-44.36a7.51,7.51,0,0,0-1-.72c-15.52-11.38-32.51-15.8-43.64-17.51a1.09,1.09,0,0,0-.31,0c-4.18-.31-8.15-.24-11.82-1.07-.07,0-.14,0-.17,0a16.85,16.85,0,0,1-10.28-6.44,27.93,27.93,0,0,1-2.53-3.87.57.57,0,0,1-.21-.31,37.83,37.83,0,0,1-5.58-14.8c-.1-.51-.24-1-.31-1.51-2.4-11.4-2.47-23.8-2.53-34.05-.93-15.79-7.95-36.14-20.15-50.63,0,0,0-.07-.07-.07a57.61,57.61,0,0,0-11.85-9.11,61.22,61.22,0,0,0-36-7.5s0,0-.07,0a.1.1,0,0,0-.06,0,52.27,52.27,0,0,0-21.79,6.85A47,47,0,0,0,591,414.4c-13,11.16-20.45,28.6-22.51,45.8-.17,1.33-.27,2.64-.34,4a1.12,1.12,0,0,0,0,.48v0a14.46,14.46,0,0,0-2.77,7.57,15.18,15.18,0,0,0,8.7,14.66v.27c0,.89,0,1.82,0,2.71a49.28,49.28,0,0,0,3.91,17.68c4,9.45,11.13,20.24,23.22,21.95a63.89,63.89,0,0,0,6.48.59l5.72,24.46,4.9,21.2c21.37-12.16,47.82-15.83,70.39-8.73h.07a66.21,66.21,0,0,1,27.92,16.85c25.08,20.45,53.31,117.78,55,123.81a.44.44,0,0,0,.07.2s0,0,0,.07,0,.1.07.17a3.92,3.92,0,0,0,.31.82c.1.31.21.62.34.93l.72,1.85c5,12.91,21.14,55,24.73,65.39,4.29,12.27,7.64,13.23,7.64,13.23a1.78,1.78,0,0,0,.52-.21l.68-.27a107.76,107.76,0,0,0,29.74-18.12h0c.07,0,.07,0,.07-.07a69.09,69.09,0,0,0,17.3-29.91A71.19,71.19,0,0,0,855.72,707.12Z"/><path class="cls-2" d="M579.41,456.23s2.61-43.72,43.44-54,65.17,37.18,67,67.61,0,51.44,21.46,61c0,0,62-.75,84.82,56.23,0,0,3.09,27.9,1.83,45.86s21.15,33.71,33.36,39.26,33.44,28.1,27.67,64.93-51.5,53.21-51.5,53.21-3.37-1-7.65-13.25S773.65,708,773.65,708s-29.19-103-55.1-124.08c-14.26-11.62-29.55-16.88-39.62-23-10.61-6.45-15.71-13.56-19.25-18.12-6.91-8.89-19.16-22.32-10.3-54s-.07-15.71-8.41-20.17c0,0-10.34-16-25.94-4.68s-11.8-16.24-11.8-16.24l-6.85,9.22S585.64,459.06,579.41,456.23Z"/><path class="cls-2" d="M477.42,515.81c.44-.62,1-1.27,1.47-1.92s1.06-1.27,1.61-1.89a50.74,50.74,0,0,1,5.79-5.34c.65-.52,1.3-1,1.95-1.47Z"/><path class="cls-2" d="M168.94,957H137c-4.9,0-9.93,0-14.45-2s-8-5.58-11.31-9.14C88.16,921.5,73.09,903.76,50,879.33l7.74-8a22.54,22.54,0,0,1,30.05.9l32.71,32.13,0,0Z"/><path class="cls-5" d="M620.37,827.55q-23.83,5.15-47.89,9.8-28.37,5.5-56.76,10.76l-17.65-21.59-29,30.08q-78.06,14-156.42,26.24l.24-.24L449.46,744.79a72,72,0,0,1,73-17.95L576.25,744A234.62,234.62,0,0,0,620.37,827.55Z"/><path class="cls-7" d="M580.44,637.27c-6.75,23.37-8.33,48.24-5.55,73.07q1,9.55,3,19c1.23,6.3,2.81,12.5,4.59,18.7a244.1,244.1,0,0,0,38.19,77c-.68.14-1.33.31-1.92.44A234.89,234.89,0,0,1,576.26,744c-1.72-6-3.22-12-4.42-18s-2.2-12.19-2.88-18.32c-2.67-23.95-1.13-47.93,5.38-70.44a110.23,110.23,0,0,1,25.14-44.46A79.72,79.72,0,0,1,609,584l.17-.13,0,0,.55-.41.24-.21a88.06,88.06,0,0,1,10.11-6.64,93.52,93.52,0,0,1,24.56-9.7,96.75,96.75,0,0,0-16.75,7.51,90.91,90.91,0,0,0-10.49,6.92l-.24.2-.55.41-.06,0-.17.13a82.36,82.36,0,0,0-9.87,9.08A114.69,114.69,0,0,0,580.44,637.27Z"/><path class="cls-7" d="M689.61,750.32s27.82,35.35,51,77.56c-27.68-11.2-83.8-7-106.3-4.66a70.73,70.73,0,0,0-8.91,1,2.59,2.59,0,0,0-.55.07,1,1,0,0,1-.2,0c-1.44.28-2.78.52-4,.79a244.1,244.1,0,0,1-38.19-77c-1.78-6.2-3.36-12.4-4.59-18.7s-2.3-12.65-3-19c-2.78-24.83-1.2-49.7,5.55-73.07a114.69,114.69,0,0,1,26.1-46.11,82.36,82.36,0,0,1,9.87-9.08l.17-.13.06,0,.55-.41.24-.2a90.91,90.91,0,0,1,10.49-6.92,96.75,96.75,0,0,1,16.75-7.51c15.28-3.7,31.34-3.59,45.83,1h.07c8.53,4.22,18.47,9.15,27.92,16.86,13.33,13.63,20.38,32,27.1,49.88q13.92,37,27.92,73.92a.44.44,0,0,0,.07.21s0,0,0,.07,0,.1.07.17a3.92,3.92,0,0,0,.31.82,8.71,8.71,0,0,0,.34.93C712.56,697.91,689.61,750.32,689.61,750.32Z"/><path class="cls-5" d="M609,584a79.72,79.72,0,0,0-9.53,8.74,110.23,110.23,0,0,0-25.14,44.46c-6.51,22.51-8.05,46.49-5.38,70.44-.79.44-1.61.82-2.43,1.23-17.2,8.39-36.21,14.56-55.53,14.42a73.67,73.67,0,0,1-55.53-26.2c-10.79-12.78-17.61-28.23-22.65-44-5.31-16.65-9.35-33.37-15.93-49.57-4.21-10.32-8.42-21.9-17.5-29.16-4.66-3.7-10.49-5-15.11-8.7a30.26,30.26,0,0,1-10.17-15.38,39.38,39.38,0,0,1-1.44-8v0c-.86-10.69,2-21.86,5.51-31.76v0l-17.91-12.06c-4.87-3.29-7-10.41-4.12-15.52a11.6,11.6,0,0,1,7.88-5.68,11.48,11.48,0,0,1,8.84,1.95l37,26.58s2.85-9.21,11.58-6.37c8.16,2.67,37.21,14.08,36.21,49.3a27.83,27.83,0,0,0,4.08,15.24l34.74,57.48A34,34,0,0,0,546,631l60.81-45.35Z"/><path class="cls-8" d="M409.92,505.72s-5.77,14.06,14.13,23.42"/><path class="cls-8" d="M375,521.11s-2,17,20.58,23.36c8,2.24,14.49-7,9.61-13.72a3.55,3.55,0,0,0-.23-.31"/><path class="cls-8" d="M399.62,543s.2.59.41,1.51c.65,3,1,9.59-7.43,10.72-11.68,1.55-19-11.34-19.94-13"/><path class="cls-8" d="M372.66,542.23l-.07-.14"/><line class="cls-8" x1="378.17" y1="510.45" x2="391.3" y2="519.31"/><path class="cls-7" d="M620.38,600.14l-41,101.4-10.55,4.93-17.58,8.19c14.08-57.59-5.24-84.44-5.24-84.44l50.91-38c.75.28,1.5.52,2.29.79C609.69,596.47,620.38,600.14,620.38,600.14Z"/><path class="cls-3" d="M641.85,821.81c-17.85,4.42-3.46,1.07-21.41,4.94"/><path class="cls-3" d="M815.68,819.42c-1.92-5.07-3.84-10.14-5.72-15.21l-.21-.52q-32-85-64.09-169.91c-6.72-17.85-13.77-36.25-27.1-49.88-27.78-28.36-76.8-25.66-108.49-1.47l-.24.2-.21.14A82.66,82.66,0,0,0,599.55,592a110.26,110.26,0,0,0-25.14,44.47c-8.19,28.26-8.53,58.85-2.5,88.76,1.19,6.06,2.7,12.05,4.41,18a234.73,234.73,0,0,0,44.13,83.55q-23.85,5.13-47.89,9.8Q443.07,861.68,312.72,882C260.44,890.19,205.05,899,152.63,906l-20,2.47a14.86,14.86,0,0,1-12.12-4l0,0L87.79,872.28a22.54,22.54,0,0,0-30.05-.9l-7.74,8c23.09,24.43,38.16,42.17,61.25,66.6,3.36,3.56,6.82,7.19,11.31,9.14s9.55,2,14.45,2h28.64q36.33,0,72.7,0l490.93.1c20.11,0,40.9-.13,59.34-8.18a71.84,71.84,0,0,0,23.53-16.75"/><path class="cls-3" d="M650,691.44,821.11,945.56a26.09,26.09,0,0,0,21.62,11.51h74.51a11,11,0,0,0,11-11h0a11,11,0,0,0-11-11H882.1a28.48,28.48,0,0,1-26.41-17.81L808,799.42"/><path class="cls-3" d="M312.71,882l.24-.24L449.53,744a72.08,72.08,0,0,1,73-18l53.78,17.17"/><line class="cls-3" x1="816.15" y1="819.59" x2="815.67" y2="819.42"/><polyline class="cls-3" points="515.99 847.54 498.15 825.72 468.84 856.06"/><line class="cls-3" x1="721.06" y1="587.12" x2="721.06" y2="587.09"/><path class="cls-3" d="M839.4,937.3a97.42,97.42,0,0,1,13.45.43c3.65.37,7.46.59,10.91,2.29,2.87,1.42,5.86,4.83,5.71,9-.27,8.14-8.8,8.08-13.47,8.08"/><polyline class="cls-3" points="841.19 957.07 855.99 957.07 856.2 957.07 901.51 957.07"/><path class="cls-3" d="M569,706.85s-.1,0-.14.07c-.75.41-1.51.78-2.29,1.16a161.22,161.22,0,0,1-15.32,6.58c-12.88,4.83-26.48,8-40.21,7.84a73.71,73.71,0,0,1-55.54-26.2c-10.79-12.78-17.6-28.23-22.64-44-5.31-16.65-9.35-33.37-15.93-49.57-4.21-10.31-8.43-21.89-17.5-29.16-4.66-3.7-10.49-5-15.11-8.7a30.34,30.34,0,0,1-10.18-15.38,40.08,40.08,0,0,1-1.43-8v0c-.86-10.69,2-21.85,5.51-31.75v0l-17.92-12.06c-4.86-3.29-7-10.41-4.11-15.52a11.6,11.6,0,0,1,7.88-5.68,11.48,11.48,0,0,1,8.84,1.95l37,26.58s2.85-9.21,11.58-6.37c8.15,2.67,37.2,14.08,36.21,49.3a27.83,27.83,0,0,0,4.08,15.24l34.73,57.49A34,34,0,0,0,546,630.22l50.91-38,9.9-7.36,2.4-1.78,0,0,.55-.41.24-.2"/><path class="cls-3" d="M410,504.92s-5.77,14.05,14.13,23.41"/><path class="cls-3" d="M375.05,520.31s-2,17,20.59,23.35c8,2.25,14.48-7,9.61-13.72l-.24-.31"/><path class="cls-3" d="M372.66,541.3s7.54,14.77,20,13.13c11-1.45,7-12.2,7-12.2"/><line class="cls-3" x1="378.24" y1="509.65" x2="391.37" y2="518.5"/><path class="cls-3" d="M805,791.19c25.3-7.88,43.19-23.67,50.81-49.4,7.3-24.66,2.55-52.7-20.51-67.16-11.49-7.13-25.06-12.7-32.19-24.91-9.73-16.7-3.17-37.07-6.53-55.14-3.49-18.76-16.11-35.38-31.24-46.52a86,86,0,0,0-38-15.66c-10.15-1.53-19.39,1-26.33-8-11-14.21-11.08-37.43-11.17-54.54-.06-13.14-3.16-26.22-9.92-37.49l-.15-.25a62.79,62.79,0,0,0-22-22.06c-17-9.84-40.85-10.75-58-.63a49,49,0,0,0-6.92,5C577,428,569.42,450.93,569.79,471.35"/><path class="cls-3" d="M602,446.39c-.88,6-4.54,11.56-11,13.23-7.34,1.86-11.23,9-13.29,16.18a47.86,47.86,0,0,0,2.15,31.78c4,9.44,11.15,20.24,23.23,22,22.11,3.15,33.1-6.17,33.1-6.17"/><circle cx="620.42" cy="474.72" r="3.8"/><circle cx="587.04" cy="472.21" r="3.8"/><path class="cls-3" d="M602,446.39a20.89,20.89,0,0,0,.37,10.93,10.46,10.46,0,0,0,.66,1.68c2.63,6.2,8.76,11.13,19.62,10.52,23.64-1.31,32.07-2.85,30.15,8.05a64.27,64.27,0,0,1-3.43,11.2c-2.6,6.88-4.41,18.74-1.74,31.62,0,0,0,.07,0,.07,3.08,15.07,20.87,38.86,45.49,47.42"/><path class="cls-3" d="M604.08,475.64s-4,14.58-3.59,16.73,5.51.49,5.51.49"/><path class="cls-3" d="M606.83,506.21c7.63,4.12,16.47,1.52,19.93-5.37"/><ellipse class="cls-3" cx="626.22" cy="477.67" rx="17.31" ry="17.73" transform="translate(-151 605.15) rotate(-46.65)"/><ellipse class="cls-3" cx="581.94" cy="473.61" rx="17.31" ry="17.73" transform="translate(-161.93 571.68) rotate(-46.65)"/><path class="cls-5" d="M581.57,461.45c.37,0,.75,0,1.13.05a12.59,12.59,0,0,1,11.38,13.28,11.69,11.69,0,0,1-11.77,11,10.88,10.88,0,0,1-1.14-.06,12.58,12.58,0,0,1-11.38-13.27,11.68,11.68,0,0,1,11.78-11m0-2.57a14.31,14.31,0,0,0-14.35,13.38,15.16,15.16,0,0,0,13.72,16,12.57,12.57,0,0,0,1.37.07A14.31,14.31,0,0,0,596.65,475a15.16,15.16,0,0,0-13.72-16,12.52,12.52,0,0,0-1.36-.07Z"/><line class="cls-3" x1="608.72" y1="476.06" x2="599.43" y2="475.21"/><path class="cls-5" d="M625.84,465.14a11.27,11.27,0,0,1,1.16.06,13,13,0,0,1,11.73,13.67,12.05,12.05,0,0,1-12.14,11.32c-.38,0-.78,0-1.16-.05a13,13,0,0,1-11.73-13.68,12.05,12.05,0,0,1,12.14-11.32m0-2.57a14.66,14.66,0,0,0-14.7,13.71,15.52,15.52,0,0,0,14.05,16.41,13.26,13.26,0,0,0,1.4.07,14.66,14.66,0,0,0,14.7-13.71,15.52,15.52,0,0,0-14-16.41,13.26,13.26,0,0,0-1.4-.07Z"/><ellipse class="cls-2" cx="581.94" cy="473.61" rx="14.85" ry="15.21" transform="translate(-161.93 571.68) rotate(-46.65)"/><ellipse class="cls-2" cx="626.23" cy="477.65" rx="14.92" ry="15.28" transform="translate(-150.98 605.16) rotate(-46.65)"/><polyline class="cls-3" points="620.43 576.96 615.25 554.59 609.63 530.48"/><line class="cls-3" x1="950" y1="957.03" x2="62.74" y2="957.03"/></svg>