<svg id="Layer_2" data-name="Layer 2" xmlns="http://www.w3.org/2000/svg" viewBox="0 0 1000 1000"><defs><style>.cls-1{fill:#353642;}.cls-2,.cls-4{fill:none;stroke-miterlimit:10;stroke-width:4.52px;}.cls-2{stroke:#ccdde2;}.cls-3{fill:#3fbdf1;}.cls-4{stroke:#000;}.cls-5{fill:#d7e8f0;}.cls-6,.cls-7{fill:#fff;}.cls-7{opacity:0.53;}</style></defs><path class="cls-1" d="M768.56,718.63l-1.77,16.9q-6.91,16.51-13.81,33-2.41,5.79-4.84,11.56a16.77,16.77,0,0,1-3.08,4.9.77.77,0,0,1-.58.34c-.39,0-.53-.52-.56-.91A94.43,94.43,0,0,0,742.43,772c-4.31-19.81-27.31-27.07-45.35-26.62a50.81,50.81,0,0,0-20.86,4.83c-9.42,4.56-13.09,17.24-13.59,17.71l-.4,1.63-6.46,26.91c-1.36,6-2.4,9.17-7.94,10.77-.18.06-5.7,3-5.88,3-2.14.6,3.72-.69,1.4-1.08L636,808l-3.13-.72-45.67-10.81c1.77.3,3.58.63,5.42,1L603.22,800l-2.8-13.44c-7.29-41.84,4.79-79.8,25.37-100.41,5.42-5.42,8.11-6.81,14.43-10.42l3.55,8.41s36.32,10.83,44.88-22.4c3.46.3,10.11.25,13.54,1a83.17,83.17,0,0,1,45.95,27.12c1.05,1.2,2.08,2.44,3.1,3.7l.54.66c.63.79,1.3,1.6,1.93,2.41l.45.64A212.65,212.65,0,0,1,768.56,718.63Z"/><path class="cls-2" d="M337,543.71c5.76-28.8,30.22-56.7,100.08-63.09,155.28-14.19,71.34-57,121.9-103.85S800.71,407,750.7,527.38s115.08-13.23,185,139.25a157.89,157.89,0,0,1,14.25,70.62,172.47,172.47,0,0,1-19.37,73.69c-22.33,43.62-63.81,82.48-123.8,106.56q-13.28,5.41-27.8,9.73"/><path class="cls-1" d="M820.62,952.74h-189l-5.63-1.68s-1.14-64.17-8.68-80.59l28,9.52,27.12,7.8s37.31.78,58.64-37.3c0,0,3.59-9.09,6.81-25.48,2.78-14.22,17.56-92.62,23.76-110.13,6.69,11.69,17.17,31.8,22.23,44.06,5.48,13.31,10.09,26.57,13.86,38.86a0,0,0,0,0,0,0,487.85,487.85,0,0,1,14.82,61.73A541.13,541.13,0,0,1,820.62,952.74Z"/><path class="cls-3" d="M828.88,780.57v0C827.67,794.7,818.09,797,818.09,797c-8.1,4.79-20.54-.36-23.05-9.34a.89.89,0,0,1-.06-.3c-2-7.69-5.9-17.57-11.14-28.38-10.1-24.44-23.23-49.08-40.07-68.57a83.19,83.19,0,0,0-45.95-27.12c-.06,0-.09-.06-.15-.06-23.71-7.14-35.25-21.72-40.25-35.7,0,0,0,0,0-.06-2.14-8.83-4.32-17.44-3.15-22.65,2-9.13,3-19,.51-21-3.13-2.62-8.79-.68-23.19,2.22-12.47,2.56-19.12,1.11-20.62-6.51a18.44,18.44,0,0,1-.36-3.59c-.06.76-3-2.26-3.14-1.54-.94,3.89-2.82,5.45-6.92,7.16-6.09,2.53-8.58,12.3-9.48,18.81-.94,6.93,2.18,16.49,4.65,23-3.16-3.61-6.78-3.19-12.44-1-1.42.54-5,.39-7.83-.6a3.53,3.53,0,0,1,1.38-.73c.91-.3-5.69-3.58-4.73-3.79,9.61-2.17,15-10.18,13.86-17.23-2.83-17.75.94-38.63,12.93-52.46,13.22-15.21,34.79-18.37,53.05-11.41,14.34,5.45,27.9,16.63,32.87,31.54,0,.06,0,.12.06.18a38.86,38.86,0,0,1,1.45,5.81c1.83,11.09-2.08,22.33-4.25,33.29-.78,3.95,1.2,8.26,1.62,11.39,2.41,18.8,24.11,24.11,41.28,32.09,36.09,16.81,65.56,45.55,85.38,80.5C823.51,754.09,828.21,769.87,828.88,780.57Z"/><path class="cls-4" d="M638.62,672c-.39.21-.78.42-1.14.66a84.33,84.33,0,0,0-17.72,13.56c-20.57,20.61-32.65,58.57-25.36,100.41L597.2,800"/><path class="cls-4" d="M820.62,952.74a541.13,541.13,0,0,0-8.07-93.18,487.85,487.85,0,0,0-14.82-61.73,0,0,0,0,1,0,0c-3.77-12.29-8.38-25.55-13.86-38.86a316.29,316.29,0,0,0-17.6-36.28,203.69,203.69,0,0,0-22.47-32.29,83.19,83.19,0,0,0-45.95-27.12,87.73,87.73,0,0,0-10.39-1.56"/><path class="cls-4" d="M451,680.91l-.51-.09A37,37,0,0,0,417,692.42l-34.2,37.26-4,4.4a9.9,9.9,0,0,0-.7.85"/><polyline class="cls-4" points="401.61 744.66 420.38 723.84 420.41 723.81"/><path class="cls-4" d="M564.89,852.2l88.29,31.11a62.79,62.79,0,0,0,82.49-47.16l20.89-106.64a41.38,41.38,0,0,0-6.78-31.75,38.33,38.33,0,0,0-2.92-3.68"/><path class="cls-4" d="M506.46,847.9c-11.24,7.59-19.5,30.64-23.89,45.77a12.24,12.24,0,0,1-11.78,8.76,12.39,12.39,0,0,1-5.19-1.14,12.26,12.26,0,0,1-6.8-13.59c7.35-35.94,33.29-106.89,122.4-91.25,1.78.3,3.59.63,5.42,1L597.2,800l29.67,7.23,8,1.93a17,17,0,0,0,9.19-.33,3.63,3.63,0,0,0,.54-.15,17.21,17.21,0,0,0,11.15-12.26l6.75-28.08.39-1.63L671.73,730"/><path class="cls-4" d="M463,732.83H432.76a13,13,0,0,1-13-13h0a13,13,0,0,1,13-13H475.6"/><path class="cls-4" d="M439.79,732.82c-.43,5.3-2.45,9.22-5.43,11.93-7.68,7-21.75,6.2-31.54,1.41"/><path class="cls-4" d="M382.84,729.67c-8.67-10.48-6.9-24.69-.17-35.67,19.09-31.16,62.71-25.18,91-12.23,22.92,10.46,43,26.18,62.55,41.86,9.55,7.66,18.93,15.64,28,24a14.85,14.85,0,0,0,23-3.9c5-9.23,10.41-19.3,11.43-22.09"/><path class="cls-4" d="M434.37,744.75s45.11,24.47,78.62,59.63"/><path class="cls-4" d="M495.45,861.17c-5,8.54-.7,21.08,8.75,24.08A89.26,89.26,0,0,0,541.63,889c13.75-1.6,22.89-12.95,28.91-25.95A7.56,7.56,0,0,0,566,852.76h0a7.61,7.61,0,0,0-9.4,4.29c-2,4.62-5.09,10.4-9.19,13"/><path class="cls-4" d="M519,859.57s-12.35,13.28-2.61,27.34a8.23,8.23,0,0,0,1.5,1.58"/><path class="cls-4" d="M535.29,861.76s-11.42,25.7,3.23,27.58"/><line class="cls-4" x1="940.74" y1="952.76" x2="233.5" y2="952.76"/><path class="cls-4" d="M511.73,904.33H441.2a27.12,27.12,0,0,1-27,24.22H177.14a24.24,24.24,0,0,0,24.19,24.19h310.4A24.28,24.28,0,0,0,536,928.55V912.29a8,8,0,0,0-8-8Z"/><path class="cls-4" d="M402.82,746.16a27.17,27.17,0,0,1,4.4,9.58l33.41,139.34a26.21,26.21,0,0,1,.57,9.25,27.12,27.12,0,0,1-27,24.22H172.74a27.14,27.14,0,0,1-26.39-20.82L113,768.4a27.13,27.13,0,0,1,26.39-33.47H380.83a26.94,26.94,0,0,1,20.78,9.73Z"/><path class="cls-5" d="M365,572.75c-1.54-1.81-3.16-3.55-4.85-5.24a102,102,0,0,0-72.31-30H161.26A102.22,102.22,0,0,0,59,639.78v.73a55.82,55.82,0,0,0,7.05,27.23A55.75,55.75,0,0,0,106,684.43H230.1a14.28,14.28,0,0,1,14.28,14.28A14.31,14.31,0,0,0,258.69,713H259l30.64-.78c0-.3-.06-.57-.06-.84a13.44,13.44,0,0,1-9.07-12.72V698a14.29,14.29,0,0,1,14.28-14.28H325a56,56,0,0,0,56-56A101.5,101.5,0,0,0,365,572.75ZM145.8,632a24.48,24.48,0,1,1,24.47-24.46A24.49,24.49,0,0,1,145.8,632Zm79.87,0a24.48,24.48,0,1,1,24.49-24.46A24.46,24.46,0,0,1,225.67,632Zm76.07,0a24.48,24.48,0,1,1,24.5-24.46A24.46,24.46,0,0,1,301.74,632Z"/><path class="cls-4" d="M381,627.73a56,56,0,0,1-56,56H294.81A14.29,14.29,0,0,0,280.53,698v.66a13.44,13.44,0,0,0,9.07,12.72,13,13,0,0,0,4.34.72l-4.28.12L259,713h-.33a14.31,14.31,0,0,1-14.31-14.28,14.28,14.28,0,0,0-14.28-14.28H106a56,56,0,0,1-56-56v-.73A102.21,102.21,0,0,1,152.22,525.51H278.76A102.25,102.25,0,0,1,381,627.73Z"/><path class="cls-4" d="M697.82,663.25c-.06,0-.09-.06-.15-.06-23.71-7.14-35.25-21.72-40.25-35.7,0,0,0,0,0-.06-3.91-10.9-3.82-21.45-2.41-27.75a56.15,56.15,0,0,0,1.6-10.18c.33-9.73-6.81-7.35-27.23-3.28C620,588.12,614,584.56,611,579.5a9.38,9.38,0,0,1-.76-1.39,18.15,18.15,0,0,1-1.68-9.46"/><path class="cls-4" d="M596.81,624.69c-.36-.51-.73-1-1.09-1.39-3.16-3.61-6.78-3.19-12.44-1-1.42.54-5,.39-7.83-.6-2.38-.85-4.16-2.32-3.35-4.52a3.25,3.25,0,0,1,2.23-1.81,28.93,28.93,0,0,1,2.86-.57c9.71-2.17,7.54-13.41,6.36-20.46-2.86-17.74.94-38.62,13.05-52.45,13.34-15.21,35.16-18.38,53.59-11.42,16.21,6.12,31.46,19.4,34.62,37.15,0,.06,0,.12.06.18s0,.15,0,.21c1.87,11.09,0,23.11-2.17,34.08-1.3,6.5-.81,11.81,1,16.2,5.67,14.37,24.8,19.38,40.22,26.49,36.49,16.81,66.22,45.55,86.26,80.5C826,753,829.75,770.05,828.88,780.57v0C827.67,794.7,818.09,797,818.09,797c-8.1,4.79-20.55-.36-23.05-9.34a.89.89,0,0,1-.06-.3c-2-7.69-5.9-17.57-11.14-28.38"/><path class="cls-4" d="M608.52,568.65c0,5.35-2.52,10.63-8,12.88-6.16,2.54-8.66,9.23-9.56,15.74a42,42,0,0,0,5.81,27.41c4.65,7.72,12.22,16.23,22.94,16.23,19.64,0,28.06-9.47,28.06-9.47"/><circle cx="628.91" cy="597" r="3.34"/><circle cx="599.53" cy="598.95" r="3.34"/><path class="cls-4" d="M613.94,593.86s-1.67,13.19-1,15,4.85-.26,4.85-.26"/><path class="cls-4" d="M620.13,620.14c7.15,2.63,14.53-.72,16.69-7.15"/><ellipse class="cls-4" cx="633.47" cy="592.88" rx="15.22" ry="15.59" transform="translate(-216.28 768.12) rotate(-54.76)"/><ellipse class="cls-4" cx="594.41" cy="594.84" rx="15.22" ry="15.59" transform="translate(-234.4 737.05) rotate(-54.76)"/><path class="cls-6" d="M594.13,584.19a11,11,0,0,1,11,10.16,10.25,10.25,0,0,1-2.54,7.62,10.37,10.37,0,0,1-7.34,3.5l-.56,0a11,11,0,0,1-11-10.17,10.27,10.27,0,0,1,2.55-7.62,10.41,10.41,0,0,1,7.33-3.5h.56m0-2.26-.67,0a12.6,12.6,0,0,0-12,13.54,13.34,13.34,0,0,0,13.26,12.26l.67,0a12.6,12.6,0,0,0,12-13.54,13.34,13.34,0,0,0-13.26-12.26Z"/><line class="cls-4" x1="618.04" y1="593.65" x2="609.84" y2="594.07"/><ellipse class="cls-7" cx="633.47" cy="592.88" rx="12.89" ry="13.2" transform="translate(-216.28 768.12) rotate(-54.76)"/><ellipse class="cls-7" cx="594.41" cy="594.84" rx="12.89" ry="13.2" transform="translate(-234.4 737.05) rotate(-54.76)"/><path class="cls-4" d="M625.56,640.91l18.21,43.26s35.13,9.45,43.67-23.79"/><ellipse class="cls-5" cx="271.19" cy="837.16" rx="26.11" ry="29.34" transform="translate(-239.15 120.27) rotate(-17.5)"/><path class="cls-4" d="M620.7,952.74c-.39-35.21-6.6-70-9.46-84.2"/></svg>