<svg id="Layer_2" data-name="Layer 2" xmlns="http://www.w3.org/2000/svg" viewBox="0 0 1000 1000"><defs><style>.cls-1{fill:#2e2e2e;}.cls-2{fill:none;stroke:#000;stroke-miterlimit:10;stroke-width:4.21px;}.cls-3{fill:#3fbdf1;}.cls-4{fill:#d7e8f0;}.cls-5{fill:#fff;}</style></defs><path class="cls-1" d="M643.06,481.3c-67.17,40-149.11-7.13-145.26-7.95C624.78,445.74,636,365.63,636,365.63c-25.35-61.94-94.45-42-94.45-42-2,87.9-106.62,92.85-106.62,92.85-6.72-28.52-6.35-95.11-6.35-95.11-31.71-22.17-38.13-12.76-38.13-12.76,10-88,50.27-116.37,50.27-116.37,6.71-6.25,36.7-20.3,52.1-22.12l.55,2.44S477.8,211.44,507.64,214c25.11,2.2,39.38-28.71,43.27-38.52,32.65,10.12,63.81,32.77,84.54,70.87C684.49,336.49,643.06,481.3,643.06,481.3Z"/><path class="cls-2" d="M650.32,443.37l0,0,163.21,108c31.65,20.94,27.58,68.6-7.13,83.87l-191,84.06a113.08,113.08,0,0,1-110.28-10.79l-73.35-51.28"/><path class="cls-2" d="M650.32,478.2l-5.49-3.64L813.56,586.18c31.65,20.94,27.58,68.6-7.13,83.87l-191,84.06a113.08,113.08,0,0,1-110.28-10.79L411.89,676.9"/><path class="cls-3" d="M792.35,629.28,616.8,706.55a103.94,103.94,0,0,1-101.35-9.92l-67.27-47.26a105.25,105.25,0,0,1,30.71-16.3,650,650,0,0,0,81-33.77,150.74,150.74,0,0,0,79.88-100.53c3.52-14.95,6.61-30.07,9.14-45.27L803.41,555.63C832.49,574.87,824.24,615.26,792.35,629.28Z"/><path class="cls-3" d="M340,853.22s30.78-12.76,36.68-22.38c0,0,1.11,21.84-4.65,29.3S331.85,887.32,330,884.85,340,853.22,340,853.22Z"/><path class="cls-3" d="M245.25,905.26s5.6,7.6,25.47,0,63.1-35.59,63.1-35.59-12.06,32.38-16.43,35.94-86.93,44-86.93,44-36.91,5.25-23-21Z"/><path class="cls-2" d="M364.07,482.18c-45.5,17.71-93.65,59.32-79.8,174.55l3.85,29.94"/><path class="cls-2" d="M364,406.93c7.44-10.62,14.16-22.1,18.28-34.46s4.33-25.75,5.48-38.75c3.06-34.86,7.8-63.69,21.25-96.16,11.65-28.1,46.84-64.3,81.85-67.73l3.15-.27"/><path class="cls-2" d="M452,479.63c-.17-.49-.34-.95-.52-1.43"/><path class="cls-2" d="M434.93,414.32c-1.72-10.11-3-19.91-4-29.21a2,2,0,0,0-.06-.52c-5.24-51.93.06-89.71.06-89.71"/><path class="cls-3" d="M557.24,99.14l-8,3.12c0,.25,0,3.37-.34,7.74a89.31,89.31,0,0,1-2.48,15.47c.71-3.46,1.74-11.68-2.78-17.4a2.29,2.29,0,0,0-.24-.33c-3-3.61-6.7-2.18-9.67.3a28.11,28.11,0,0,0-5.32,6,39.32,39.32,0,0,0-3.48-19.47v0a46.64,46.64,0,0,0-7.19-11.47c4.53,15.6-1.28,25.81-1.28,25.81-15.35,3.61-26,2.84-33.94,1.47-6.69-6.24-4.37-28.71-4.37-28.71-6.73,5.5-5.11,26.78-5.11,26.78a48.86,48.86,0,0,1,.31-16.73,30.57,30.57,0,0,0-5.57,16.09l-.12-.06a13.56,13.56,0,0,1-1.37-.43,24,24,0,0,1-2.39-1.44l-4.43-3c6.69-34.13,30.08-55.59,66.22-49.29a43.18,43.18,0,0,1,6.94,1.8C556.44,67.8,557.24,99.14,557.24,99.14Z"/><path class="cls-3" d="M351,431.54l-9.11-27.42a3.94,3.94,0,0,0-2.78-2.63c-.08,0-.17,0-.26-.06s-.11,0-.17,0a4.83,4.83,0,0,0-.63,0,4,4,0,0,0-2.72,1.08,7.31,7.31,0,0,0-2.35,5.36,7.5,7.5,0,0,0,.37,2.32c2,5.79,5.56,16.24,7.25,21"/><path class="cls-3" d="M348.94,431.54l-9.82-30.05c-.08,0-.17,0-.26-.06s-.11,0-.17,0l-5.15-1c-2.75-.51-5.5-1.06-8.25-1.57-3.3-.66-6.62-1.21-9.91-2a11.07,11.07,0,0,0-2.38-.4,3.91,3.91,0,0,0-2.72,1.09,7.23,7.23,0,0,0-2.35,5.38,7,7,0,0,0,.37,2.29c2.21,6.48,6.42,18.74,7.76,22.46Z"/><path class="cls-2" d="M543.1,294.87c-1,11.13-1.52,24.6-1.87,41.53,0,36-39.8,65.81-75.17,72.63L401.2,423.68c-8.57,1.66-16.16-3.69-22.12-7.24-6.13-3.65-12.41-8-16.83-11.23-6.36-4.65-18.61-.91-16.1,10.18a14.14,14.14,0,0,0,8.19,9.51,26.82,26.82,0,0,0,3.48,1.28,2.07,2.07,0,0,1,.06,4c-5.62,1.94-15.91,3.09-32.51-3-21.27-7.83-22.92,40.71,6.16,49.16l.11,0c26.79,8.1,55.62,7.06,83.31,5.9a564.88,564.88,0,0,0,93.54-11.41c15.67-3.32,31.77-6.77,46.11-13.86,24.7-12.21,42.5-26.21,59.43-48,19-24.43,27.11-56.48,31.69-86.53,5.24-34.38-2-63.41-20.43-93l-.68-1.08"/><path class="cls-2" d="M351,431.54l-9.11-27.42a3.94,3.94,0,0,0-2.78-2.63c-.08,0-.17,0-.26-.06s-.11,0-.17,0a4.83,4.83,0,0,0-.63,0,4,4,0,0,0-2.72,1.08,7.31,7.31,0,0,0-2.35,5.36,7.5,7.5,0,0,0,.37,2.32c2,5.79,5.56,16.24,7.25,21"/><path class="cls-2" d="M339.12,401.49c-.08,0-.17,0-.26-.06s-.11,0-.17,0l-5.15-1c-2.75-.51-5.5-1.06-8.25-1.57-3.3-.66-6.62-1.21-9.91-2a11.07,11.07,0,0,0-2.38-.4,3.91,3.91,0,0,0-2.72,1.09,7.23,7.23,0,0,0-2.35,5.38,7,7,0,0,0,.37,2.29c2.21,6.48,6.42,18.74,7.76,22.46"/><path class="cls-2" d="M464.67,106.83c0,13,2.53,25.43,8.77,36.91,5,9.22,12.34,18.51,22.84,21.56a25.53,25.53,0,0,0,7.16,1c17.82-.08,20.6-21.19,20.6-21.19"/><path class="cls-2" d="M548.3,114.37v.06a105.72,105.72,0,0,1-4.24,19,48.12,48.12,0,0,0-1.64,22.88l2.77,16.11a3.88,3.88,0,0,0,2.76,3.06c35.16,10.21,66.37,32.74,84.53,65.27,22.65,40.62,26.78,89.54,24.95,135.14-1.61,39.53-8,78.83-17.07,117.3a164.09,164.09,0,0,1-86.94,109.41,704.31,704.31,0,0,1-88.07,36.75,113.17,113.17,0,0,0-70.21,67.23L324.28,895a29.45,29.45,0,0,1-14.38,16L242,945.11a42.17,42.17,0,0,1-27.73,3.52,12.38,12.38,0,0,1-3.72-22.74l34.68-20.63,47.69-243.12a152,152,0,0,1,70.21-106,61.1,61.1,0,0,1,7.76-4l103.38-44.89"/><path class="cls-2" d="M519.88,51.24h0A46.42,46.42,0,0,0,503,50.38a5.36,5.36,0,0,0-.69.06"/><path class="cls-2" d="M494.84,170.15s-18.29,41.93,14.42,44c29.35,1.88,40.12-38,40.12-38"/><path class="cls-2" d="M546,127c.21-.77,3.36-12.14-2.66-19.3s-14.18,5.12-15,6.35c1.6-17.63-10.65-31-10.65-31,4.52,15.61-1.3,25.81-1.3,25.81-22.37,5.24-34.68,1.25-43.41-.47a48.69,48.69,0,0,1,.32-16.72,30.32,30.32,0,0,0-5.57,16.07l-.14,0a30.62,30.62,0,0,1-9.32-4.25l-4.43-3c6.7-34.12,30.08-55.6,66.22-49.3s37.15,47.86,37.15,47.86l-8.05,3.13S549.23,115.9,546,127Z"/><path class="cls-2" d="M478.69,125.22v16.59a1.29,1.29,0,0,0,1.68,1.22,9.79,9.79,0,0,0,3.52-2.06"/><ellipse class="cls-2" cx="463.63" cy="124.66" rx="10.17" ry="14.14" transform="translate(-13.61 176.91) rotate(-21.3)"/><ellipse class="cls-2" cx="495.13" cy="129.4" rx="10.17" ry="14.14" transform="translate(-13.19 188.68) rotate(-21.3)"/><path class="cls-2" d="M474.29,126.08s3.1-3.54,9.6.61"/><path class="cls-2" d="M493.37,164.25s2.25,7.62,8.87,32.32"/><path class="cls-2" d="M327.63,886.1l39-21.05a15.61,15.61,0,0,0,8.09-12.14c6.48-63.65,4.5-103.89,4.5-103.89"/><line class="cls-2" x1="292.23" y1="559.68" x2="142.14" y2="454.79"/><line class="cls-2" x1="283.73" y1="588.58" x2="142.14" y2="489.62"/><path class="cls-4" d="M857.86,389.21v85.87a20.33,20.33,0,0,1-12.1,18.59l-106.5,47.16L706.7,590.31a7,7,0,0,1-12.78-3.83V560.92L683,565.75a16,16,0,0,1-22.41-14.58V479.46a45.87,45.87,0,0,1,27.63-42.08l146.36-63.45A16.65,16.65,0,0,1,857.86,389.21Z"/><ellipse class="cls-5" cx="714.51" cy="494.81" rx="20.64" ry="14.27" transform="translate(-53.57 901.52) rotate(-62.6)"/><ellipse class="cls-5" cx="759.99" cy="475.34" rx="20.64" ry="14.27" transform="translate(-11.73 931.39) rotate(-62.6)"/><ellipse class="cls-5" cx="803.94" cy="454.32" rx="20.64" ry="14.27" transform="translate(30.66 959.06) rotate(-62.6)"/></svg>