<svg id="Layer_2" data-name="Layer 2" xmlns="http://www.w3.org/2000/svg" viewBox="0 0 1000 1000"><defs><style>.cls-1{fill:#3fbdf1;}.cls-2{fill:#d7e8f0;}.cls-3{fill:#fff;}.cls-4,.cls-6{fill:none;stroke-miterlimit:10;stroke-width:4.57px;}.cls-4{stroke:#ccdde2;}.cls-5{fill:#2e2e2e;}.cls-6{stroke:#000;}.cls-7{opacity:0.72;}.cls-8{opacity:0.54;}</style></defs><rect class="cls-1" x="560.81" y="655.19" width="239.71" height="174.07" rx="8.63"/><rect class="cls-1" x="572.04" y="663.34" width="217.26" height="157.77" rx="8.63"/><path class="cls-1" d="M898.25,829.26H818a17.47,17.47,0,0,1-17.47-17.48V686.65a8.45,8.45,0,0,1,8.63-8.45l44.64.4a8.47,8.47,0,0,1,6.28,3l54.08,64A47.16,47.16,0,0,1,927.5,778.5V800A29.24,29.24,0,0,1,898.25,829.26Z"/><circle class="cls-2" cx="680.66" cy="742.23" r="50.47"/><path class="cls-3" d="M818,741.91V699.38a4.75,4.75,0,0,1,4.75-4.75h23.87a4.77,4.77,0,0,1,3.77,1.86L883.1,739a4.75,4.75,0,0,1-3.77,7.65H822.78A4.75,4.75,0,0,1,818,741.91Z"/><path class="cls-4" d="M581.21,828.89v.34a39,39,0,0,0,78.08,0"/><path class="cls-1" d="M818,829.23a39,39,0,1,0,78.07,0"/><path class="cls-4" d="M818.1,467.57c32.46-6.94,67.41,5.59,91.18,28.75s37,55.82,40.41,88.83c5.49,52.53-9.23,113.21-38.19,157.33"/><path class="cls-4" d="M527.36,256.39h0c54.38-19.6,119.57-2.22,170.57,133,16.66,44.19,37.82,65,67.63,67.6"/><path class="cls-5" d="M319.53,321.38s60.7-7,61.07,67.49l169.92-49.48L577.2,331s-38.28-46.44-82.44-54.43a73.34,73.34,0,0,0,2.67,13.32c2.28,8-5.28,12.7-15.77,15.68s-31.73-14.65-35.38-30.2c0,0,5.24-4.73-14.28-1.34S353.25,291.18,319.53,321.38Z"/><path class="cls-5" d="M56,682.88a11.45,11.45,0,0,0,5.39,1.37A11.33,11.33,0,0,0,70.22,680l38.3-46.95,30.91-38.79-25.3-14.19a11.36,11.36,0,0,0-15.47,4.3L51.49,667.2A11.42,11.42,0,0,0,56,682.88Z"/><path class="cls-5" d="M639,904.39l31.88,31.36A14.74,14.74,0,0,0,681.23,940H761a12.74,12.74,0,0,0,1.31-25.42L718.05,910Z"/><path class="cls-1" d="M492.12,273l0,2.16,0,.55v0h0a140.18,140.18,0,0,1,48.9,23c2.37,1.74,4.69,3.5,7,5.36.06-7.46-.58-14.95-3-22a32.87,32.87,0,0,0-10.57-15.43c-4.35-3.47-9.5-5.7-14.68-7.71s-10.26-3.77-15-6.48a32.63,32.63,0,0,1-10.26-8.83,9.23,9.23,0,0,1-1-9.23,5.45,5.45,0,0,1-1.37-.27Z"/><path class="cls-1" d="M492.12,273l0,2.16,0,.55v0h0a140.18,140.18,0,0,1,48.9,23c2.37,1.74,4.69,3.5,7,5.36.06-7.46-.58-14.95-3-22a32.87,32.87,0,0,0-10.57-15.43c-4.35-3.47-9.5-5.7-14.68-7.71s-10.26-3.77-15-6.48a32.63,32.63,0,0,1-10.26-8.83,9.23,9.23,0,0,1-1-9.23,5.45,5.45,0,0,1-1.37-.27Z"/><path class="cls-1" d="M248.47,441.5a73.26,73.26,0,0,0,21.8,10.69c3.35,1-4.57,4.74-1.13,5.41-13.61-32.12-3.9-81.5,39.16-126.56,7.33-7.68,24.19-17.41,32.5-24.17,13.37-10.87,28-12.28,42-18.8a172.29,172.29,0,0,1,19.24-7.52,175.78,175.78,0,0,1,35.9-7.88c2.77-.34,5.51-.58,8.28-.73a42.57,42.57,0,0,1,.4-14.32c2.55-12.94,7-20.37,15.1-30.57,5.08-6.42,13-21.77,2.43-27.06-6.66-3.32-7.27-10.11-4.14-14.25,2.65-3.54,8-5.15,14.62-1,4.57,2.92,10,3.11,15.22,1.68a33.78,33.78,0,0,0,10.36-9.38c7.67-11,7.94-27.65-4.05-35.72-6.55-4.41-14.89-5.48-22.72-4.63A49.87,49.87,0,0,0,463.16,139a.11.11,0,0,0-.09,0c-14.16,7.64-24.3,21.77-29.17,37.69-2.86,9.41-6.09,18.73-9.87,27.86-3.1,7.49-5.26,16.6-12.18,21.71a27.35,27.35,0,0,1-9.65,4.57c-13.06,8.28-31.18,3.5-45.46,1.74A72.7,72.7,0,0,0,322.82,236c-12.18,6.15-22.65,16-31.15,28.77-14,21.16.82,51.67-22.65,68.36-7.07,5-15.26,8.07-23,12-11.08,5.64-20,13.64-23.29,26C216.16,395.89,227.79,426.49,248.47,441.5Z"/><path class="cls-3" d="M538,622.62,718.55,909.71l-77-3.64-28.72-26.2H580S490.52,748.65,470,726.41s0-78.61,0-78.61Z"/><line class="cls-6" x1="822.46" y1="939.99" x2="267.05" y2="939.99"/><path class="cls-1" d="M512.49,167a70.92,70.92,0,0,1,3.65,9.13c1.46,5.09-.12,8.23,2.1,13.07.76,1.67,1.86,4.5,3,7.37.33-.67.64-1.22.82-1.65,8.71-19.39-2.74-28.74-8.25-31.94A28.72,28.72,0,0,1,512.49,167Z"/><path class="cls-1" d="M512.49,167a70.92,70.92,0,0,1,3.65,9.13c1.46,5.09-.12,8.23,2.1,13.07.76,1.67,1.86,4.5,3,7.37.33-.67.64-1.22.82-1.65,8.71-19.39-2.74-28.74-8.25-31.94A28.72,28.72,0,0,1,512.49,167Z"/><path class="cls-6" d="M519.82,401.25s0,0,0,0"/><path class="cls-6" d="M430.15,686.44c-9.31,32.73-24.33,65.92-36.78,86.9a69.75,69.75,0,0,1-91.1,26.76L165.62,732.29V701.6l-57.1-68.51L70.22,680a11.33,11.33,0,0,1-8.83,4.21,11.42,11.42,0,0,1-9.9-17l47.17-82.79a11.36,11.36,0,0,1,15.47-4.3l25.3,14.19,145,81.21a17.45,17.45,0,0,0,25.66-11.94l17.18-90"/><path class="cls-6" d="M367.26,634.37l37.15,30.22a477.1,477.1,0,0,1,100.85,109l74.22,106.57h119.8"/><path class="cls-6" d="M614.43,880.18,639,904.39l31.88,31.36A14.74,14.74,0,0,0,681.23,940H761a12.74,12.74,0,0,0,1.31-25.42L718.05,910,504.39,570.25c-11-17.54-20.8-46.41-12.27-65.32C524.61,433,521.8,363.32,521.8,363.32"/><path class="cls-6" d="M492.12,228V272.7l0,2.16,0,.55c4.59,6.7,6.91,16.2,2.52,23.32-5.87,9.53-18.84,7.95-27.07,2.62a63.79,63.79,0,0,1-6.91-5.18,39.63,39.63,0,0,1-13.3-24.78,42.77,42.77,0,0,1,.39-14.31c2.57-12.93,7-20.36,15.13-30.58,5.08-6.41,13-21.77,2.41-27.06-12.39-6.18-3.81-24.27,10.48-15.23,11.08,7,27-1.73,33.58-11.14,7.67-11,7.95-27.65-4.05-35.72-6.55-4.41-14.89-5.48-22.71-4.63-23.85,2.62-40.81,21.26-47.6,43.42-2.86,9.41-6.09,18.73-9.86,27.86-3.11,7.5-5.27,16.6-12.18,21.71-13.15,9.84-32.21,4.69-47.1,2.87-31-3.81-56,9.92-73.08,35.62-14,21.16.82,51.67-22.66,68.36-7.06,5-15.25,8.07-23,12-11.09,5.63-20,13.64-23.3,26-6.57,24.84,5.06,55.45,25.73,70.46,9.47,6.88,20.55,11,32.06,13.24"/><path class="cls-6" d="M553.31,309.82c.06-.57.09-1.12.11-1.66.52-9.81.46-20-2.74-29.39a32.91,32.91,0,0,0-10.57-15.42c-4.37-3.47-9.51-5.72-14.67-7.72s-10.27-3.76-15-6.48a32,32,0,0,1-10.25-8.83,9.23,9.23,0,0,1-1.05-9.21"/><line class="cls-6" x1="165.63" y1="701.61" x2="165.63" y2="608.97"/><path class="cls-6" d="M482.51,218c3.59,5.13,8.46,10.67,14.6,12.68,7.95,2.58,13.3-4.16,16.15-10.73,1.71-3.91,2.88-8.07,4.26-12.11.45-1.33.72-2,2.25-2.08s3.12.24,4.68.24a.62.62,0,0,0,.52-1c-2.1-3.19-5.23-11.91-6.82-15.4-2.2-4.84-.61-8-2.09-13.06a75.56,75.56,0,0,0-3.63-9.14"/><path class="cls-6" d="M514.77,158.06s21.67,8.3,10.48,33.28c-.69,1.52-2.39,4.67-3.19,6.1"/><path class="cls-6" d="M513.57,219.19a7.2,7.2,0,0,1-7.92-5.26"/><path class="cls-6" d="M517.24,185.73c-4.49-3.65-9.41,1-12.41,4.41"/><path class="cls-6" d="M492.12,275.41a140.39,140.39,0,0,1,48.93,23c4.26,3.08,8.37,6.36,12.36,9.77C569.15,321.54,583,337,596.46,352.63"/><path class="cls-6" d="M616.65,500.08a1.06,1.06,0,0,1-.22-.18c-17.66-17.66-35.45-35.19-53.16-52.79-14.84-14.74-34.14-29.83-43.2-49.17"/><path class="cls-6" d="M409.58,627.23c1.44-.46,2.81-.92,4.11-1.4a.11.11,0,0,0,.07,0"/><path class="cls-3" d="M275.15,419.57l105.45-30.7,193.65-56.39a36.63,36.63,0,0,1,45.28,24.88l41.59,142.87a36.65,36.65,0,0,1-24.85,45.3L429.89,605.61l-19.7,5.72h0l-20,5.85-19.7,5.75h0l-16,4.63L297.69,644.1a36.61,36.61,0,0,1-45.28-24.88L210.82,476.35a36.61,36.61,0,0,1,24.84-45.27l1.49-.43,1.25-.37,26.52-7.73Z"/><path class="cls-1" d="M291,423.3l97.7-28.44,179.44-52.25a33.93,33.93,0,0,1,42,23.05L648.66,498a34,34,0,0,1-23,42L434.41,595.68,416.16,601h0l-18.57,5.41-18.25,5.34h0L364.5,616l-60.73,18a33.92,33.92,0,0,1-42-23.05L223.27,478.54a33.94,33.94,0,0,1,23-42l1.38-.4,1.16-.33,32.71-9.8Z"/><path class="cls-1" d="M301.58,428l90.59-26.37,173-50.65a31.47,31.47,0,0,1,38.9,21.37l35.74,122.75a31.49,31.49,0,0,1-21.35,38.92L434.52,587.87l-16.92,4.92h0l-17.21,5-16.93,4.94h0l-13.71,4-61.81,18.2A31.44,31.44,0,0,1,269,603.56L233.25,480.82a31.46,31.46,0,0,1,21.35-38.9l6.78-1.93,1.08-.32,30.33-9.08Z"/><path class="cls-1" d="M436.23,501.05,273.42,547a6.86,6.86,0,0,1-8.47-4.75,6.52,6.52,0,0,1-.27-1.85,6.91,6.91,0,0,1,5-6.61l162.81-45.92a12.83,12.83,0,0,0-.09,6.88A13.09,13.09,0,0,0,436.23,501.05Z"/><path class="cls-2" d="M474.26,485.09a6.92,6.92,0,0,1-5,6.64l-11.75,3.32a13.07,13.07,0,0,0-3.71-13.22l11.75-3.31a6.88,6.88,0,0,1,8.46,4.75A6,6,0,0,1,474.26,485.09Z"/><path class="cls-2" d="M481.66,511.31a6.9,6.9,0,0,1-5,6.61l-161.8,45.64a12.93,12.93,0,0,0-2.13-13.64L472.92,504.7a6.89,6.89,0,0,1,8.46,4.75A6.31,6.31,0,0,1,481.66,511.31Z"/><path class="cls-1" d="M295.4,569l-14.58,4.11A6.85,6.85,0,1,1,277.07,560l13-3.66a13.52,13.52,0,0,0,.25,5.39A12.88,12.88,0,0,0,295.4,569Z"/><path class="cls-1" d="M440.34,556.77,289.28,599.4a6.92,6.92,0,0,1-8.46-4.75,6.08,6.08,0,0,1-.25-1.83,6.93,6.93,0,0,1,5-6.64l150.84-42.53a13,13,0,0,0,3.93,13.12Z"/><path class="cls-2" d="M490.15,537.52a6.86,6.86,0,0,1-5,6.61l-23.69,6.67-21.1,6a13,13,0,0,1-3.93-13.12l21.5-6.06,23.5-6.64a6.87,6.87,0,0,1,8.47,4.72A6.63,6.63,0,0,1,490.15,537.52Z"/><path class="cls-3" d="M457.51,495.05a13,13,0,0,1-25.09-.34,13,13,0,0,1,9.32-15.86,13,13,0,0,1,12.06,3,13.07,13.07,0,0,1,3.71,13.22Z"/><g class="cls-7"><path class="cls-1" d="M450.53,488.81a8.35,8.35,0,0,1-.84,4.58,13.32,13.32,0,0,1-1.2,2c-.25.33-1.56,2.22-1.94,2.14-2.58-.46-6.27-2.47-7.46-5.16a5.52,5.52,0,0,1-.37-1.32,3.3,3.3,0,0,1,5.37-3,3.37,3.37,0,0,1,6.44.7Z"/></g><path class="cls-3" d="M314.86,563.56a13,13,0,0,1-24.54-1.86,13.52,13.52,0,0,1-.25-5.39v0a13.05,13.05,0,0,1,9.56-10.44,12.89,12.89,0,0,1,13.1,4.08,12.93,12.93,0,0,1,2.13,13.64Z"/><g class="cls-7"><path class="cls-1" d="M308.44,555.79a8.34,8.34,0,0,1-.85,4.58,11.59,11.59,0,0,1-1.2,2c-.25.33-1.56,2.22-1.93,2.14-2.59-.46-6.27-2.47-7.46-5.17a5,5,0,0,1-.37-1.32,3.3,3.3,0,0,1,5.37-3,3.4,3.4,0,0,1,2.26-2A3.44,3.44,0,0,1,308.44,555.79Z"/></g><path class="cls-3" d="M461.44,550.8a12.95,12.95,0,1,1,.15-7A13,13,0,0,1,461.44,550.8Z"/><g class="cls-7"><path class="cls-1" d="M454.52,544.44a8.45,8.45,0,0,1-.85,4.58,12.55,12.55,0,0,1-1.2,2c-.25.33-1.56,2.22-1.93,2.14-2.59-.46-6.28-2.47-7.47-5.16a5.47,5.47,0,0,1-.37-1.33,3.3,3.3,0,0,1,5.37-3,3.38,3.38,0,0,1,6.45.71Z"/></g><path class="cls-3" d="M434.61,585.79c-8.67.48-18-12-20.85-15.11a5,5,0,0,0-1.07-.85l-7.75-6.27,1.3,9.86c2.07,4.75,13,15.11,20.79,27s.37,14.49-3.8,16-8.53-6.37-6.83,2.19-8.4,8.68-14.7,7.61-8.56-8-7.13-2.56-3.29,9.41-7.55,9.59c-3.23.16-9.44-4.2-12.24-6.3-.64,3.44-2.95,9.9-11,6.46-10.69-4.57-21.07-31.88-29-59.83S275.49,494.65,268,440.67c0-.09,0-.22,0-.31v0q-.6-6.12-.61-12.33a121.94,121.94,0,0,1,2.28-23.44A132.21,132.21,0,0,1,274,388l84.8,16.84c-.58.64-1.16,1.28-1.74,1.95-19.85,23.05-8.25,52.28,6.85,73.74,15.32,21.84,32.95,43.42,53.1,61a159.54,159.54,0,0,1,16.54,16.69l-1.1.61a65.37,65.37,0,0,0,4,6.76C442.44,573.85,443.32,585.3,434.61,585.79Z"/><path class="cls-6" d="M380.6,388.87l193.65-56.39a36.63,36.63,0,0,1,45.28,24.88l41.59,142.87a36.65,36.65,0,0,1-24.85,45.3L429.89,605.61"/><path class="cls-6" d="M354.44,627.56,297.69,644.1a36.61,36.61,0,0,1-45.28-24.88L210.82,476.35a36.61,36.61,0,0,1,24.84-45.27l1.49-.43,1.25-.37,26.52-7.73"/><line class="cls-6" x1="410.19" y1="611.33" x2="410.16" y2="611.33"/><line class="cls-6" x1="370.43" y1="622.93" x2="370.4" y2="622.93"/><path class="cls-6" d="M381.22,568.16c2.79,15.22,15.47,31.71,28.92,43.13,3.91,3.32,12.55,7.36,17.24,3.57,10.12-8.16-7.18-21.6-11.95-27-5.79-6.56-10.47-14.25-12.21-22.92a2.49,2.49,0,0,1,.09-1.62,1.6,1.6,0,0,1,1.83-.57,4.47,4.47,0,0,1,1.7,1.12c5.48,5,10.37,10.53,15.33,16,3.51,3.91,12.64,8.76,17.12,3.78,9.72-10.81-17.79-36-24.83-42.18-20.13-17.6-37.79-39.18-53.11-61-15.1-21.46-26.7-50.69-6.85-73.74,10.36-12,25.7-17.24,39.4-24.33C416,371,420.55,352,420.55,352"/><path class="cls-6" d="M368.38,583.63s11.44,32.61,35.74,42.76a10.53,10.53,0,0,0,9.12-.27c3-1.68,5.45-5,1.24-11.66"/><path class="cls-6" d="M352.54,591.25C357,603.35,362.92,616,372.44,625c4.34,4.09,9.84,8.14,16,8.4,7.42.31,8-7.17,5-12.26a15.61,15.61,0,0,0-2.32-3"/><path class="cls-6" d="M372.44,625s-.54,13-11.23,8.41-21.1-31.89-29-59.85-59.55-79.09-66.88-133.2l.08.66c0-.12,0-.21,0-.33a122,122,0,0,1,1.64-36.11C290.2,287.42,446.28,271.92,446.28,271.92"/><path class="cls-3" d="M677.53,519.35c-4.32,12.75-15,20.88-28.16,22.86-5.64.83-11.72,1.59-17-1-3.87-1.89-7.68-6.3-6.52-10.93a20.55,20.55,0,0,1-5.11-.58c-2.29-.55-4.66-1.64-5.67-3.75s-.3-5.05,1.34-6.94a15,15,0,0,1,6.4-3.74,16.75,16.75,0,0,1,1.79-.55,40.9,40.9,0,0,1-5.84-.37c-3.72-.48-7.89-2.07-9-5.63a7.39,7.39,0,0,1,1.8-6.91,14.24,14.24,0,0,1,6.36-3.78c.25-.06.46-.15.7-.21-4.41-.06-8.92-.94-10.87-5.12a8.25,8.25,0,0,1,1.65-8.92c3.9-4.38,9.74-5,15.25-5.42s12.21-.61,18.7-.73A9.25,9.25,0,0,0,652,465.85c-2.53-9-3.6-18.82,1.73-21.22,7.95-3.6,13.43,6.21,15.71,12.24C676.41,475.35,684.17,499.83,677.53,519.35Z"/><path class="cls-6" d="M644,511.92c-6.43,1.37-12.94,2.77-19.46,2.83a17.48,17.48,0,0,0-1.79.55,15,15,0,0,0-6.4,3.74c-1.64,1.89-2.43,4.69-1.34,6.94s3.38,3.2,5.67,3.75a20.55,20.55,0,0,0,5.11.58A50.54,50.54,0,0,0,636.24,529c.58-.12,7.68-.94,8.23-1.07"/><path class="cls-6" d="M618.55,497.85c-.24.06-.45.15-.7.21a14.24,14.24,0,0,0-6.36,3.78,7.39,7.39,0,0,0-1.8,6.91c1.16,3.56,5.33,5.15,9,5.63a40.9,40.9,0,0,0,5.84.37"/><path class="cls-6" d="M649.4,497.18c-.49,0-.95,0-1.43,0l-23.24.52c-1.82,0-4,.18-6.18.12-4.41-.06-8.92-.94-10.87-5.12a8.25,8.25,0,0,1,1.65-8.92c3.9-4.38,9.74-5,15.25-5.42s12.22-.59,18.71-.73a9.25,9.25,0,0,0,8.68-11.8c-2.53-9-3.62-18.83,1.72-21.23,7.95-3.6,13.43,6.21,15.71,12.24,7,18.48,14.77,43,8.13,62.48-4.33,12.75-15,20.9-28.15,22.86-5.63.84-11.73,1.6-17-1-3.85-1.88-7.67-6.28-6.52-10.91"/><g class="cls-8"><path class="cls-3" d="M465.23,444.79a22.73,22.73,0,0,0-.79-3.41l-3.93-12.71c-1.2-3.89-2.53-8-5.59-10.68-5.67-5-14.41-3.13-21.66-.95l-17.79,5.34c-4.09,1.23-8.24,2.49-11.81,4.82s-6.55,5.95-7.11,10.18c-.42,3.12.5,6.24,1.41,9.26l3.66,12.2c1.21,4,2.55,8.22,5.7,11,5.61,4.88,14.18,3.05,21.32.94l18.2-5.37C457.82,462.13,467,456.26,465.23,444.79Z"/><path class="cls-1" d="M440.27,446.28a6,6,0,0,0-3.09-10L431.54,435l-5.63-1.28a6,6,0,0,0-7.12,7.67l1.71,5.52,1.7,5.52a6,6,0,0,0,10.21,2.33l3.93-4.24Z"/></g><line class="cls-4" x1="843.05" y1="868.27" x2="794.02" y2="868.27"/><circle class="cls-1" cx="785.67" cy="507.44" r="54.29"/><path class="cls-3" d="M776.88,531.78a4.79,4.79,0,0,1-3.4-1.41l-14-14a4.8,4.8,0,0,1,6.79-6.8l10.64,10.64L805.1,492a4.8,4.8,0,0,1,6.8,6.79l-31.63,31.63A4.79,4.79,0,0,1,776.88,531.78Z"/></svg>