<svg id="Layer_2" data-name="Layer 2" xmlns="http://www.w3.org/2000/svg" xmlns:xlink="http://www.w3.org/1999/xlink" viewBox="0 0 1000 1000"><defs><style>.cls-1,.cls-3,.cls-6,.cls-8{fill:none;}.cls-2{fill:#d7e8f0;}.cls-3,.cls-8{stroke:#ccdde2;}.cls-3,.cls-6,.cls-8{stroke-miterlimit:10;}.cls-3,.cls-6{stroke-width:5.55px;}.cls-4{fill:#3fbdf1;}.cls-5{fill:#2e2e2e;}.cls-6{stroke:#000;}.cls-7{clip-path:url(#clip-path);}.cls-8{stroke-width:3.69px;}</style><clipPath id="clip-path"><path class="cls-1" d="M-281.84,1964.46s88.32,11.09,102.81-67.24c6.61-35.74-.46-73.16-25.53-100.39a114.33,114.33,0,0,0-37.6-26.72c-13.68-6.09-37.26-5.91-47.28-17.24-20.75-23.47,3-53.43,17.86-71.77A329.7,329.7,0,0,0-224,1601.37c34.37-81.75,27.46-166.24,13.86-251.69-19.79-124.35-98.81-218.31-216.75-261.47-1.29-.47-2.73-.93-4-.4-2.12.89-2.29,3.8-2,6.09,4.15,35.73,26,72.55,41,104.75,6,13,12.87,25.79,18.23,39.06.46,1.16,6.6,14.65,2.87,9.16-16.12-23.74-18.37-55.25-9.8-82.25.18-.58.39-1.15.58-1.73,0,0-234.53-97.5-298.84-7.38a251.63,251.63,0,0,0-43,105.22c-5.89,36-9.35,74.44,5.49,108.54,9.38,21.57,22.37,41.53,30.35,63.66,15.87,44,10.77,96.28-16.86,134.45-25.94,35.83-66.83,56.64-96.27,89.09-35.62,39.26-55.36,92.54-54.06,145.52,1,39.13,13.78,74.16,39.54,103.81,18.73,21.55,40.75,45.57,69.42,53.1,17.49,4.6,36.27,3.79,54.18,5"/></clipPath></defs><circle class="cls-2" cx="469.41" cy="341.95" r="18.58"/><circle class="cls-2" cx="517.55" cy="340.3" r="18.58"/><path class="cls-3" d="M153.3,639.92a207.5,207.5,0,0,1-24.53-26.6,152.44,152.44,0,0,1-29.28-109c5.09-41.86,28.67-85.37,67.09-104.73,41-20.65,91.79-16.38,128.23-47,30.39-25.61,41.09-67.21,63.33-99.34,19-27.37,42-52.34,69.89-70.84,75.41-50,168-37.42,247.71-4.57,39.1,16.13,68.81,36.78,91.27,59.76"/><path class="cls-3" d="M794.52,271.93c63.9,98.73,27.85,218,27.85,218"/><path class="cls-3" d="M238.07,740.94c29.57,104.13-8.89,148.15-8.89,148.15"/><path class="cls-4" d="M716.7,447.3a74.76,74.76,0,0,0-18.28-32.16c-17-18.07-42.13-28.67-67-27.9-17.55.56-40.36,4.62-54.71-8.23-7.51-6.68-9.1-17.55-12-26.6a312.31,312.31,0,0,1-8-31.09A88.38,88.38,0,0,0,546.05,293a65,65,0,0,0-22.9-23c-17.76-10.26-42.55-11.21-60.4-.69a52.79,52.79,0,0,0-7.2,5.18,19.76,19.76,0,0,0-1.51,1.38c-15.48,14.27-22.94,37.34-22.55,57.95,0,0,0,1.29,0,3.53,0,1.21,0,2.29,0,3.24.05,1.85.09,4.09.05,6.55.82,12.11,2.76,64.28-19.71,92.22,10.91-3.4,22-6.46,33.16-9h0a.14.14,0,0,0,.09,0c1.16-.65,12.29-6.55,19.75-4a9.17,9.17,0,0,1,5.9,6.21c0,.08,0,.13.09.17.09.35.22.73.3,1.12a10.87,10.87,0,0,0,.3,1.08,36.75,36.75,0,0,0,3.84,8.19,6.08,6.08,0,0,0,.78,1.12,28.86,28.86,0,0,0,5.52,5.52c-.78-.77-1.6-1.64-2.46-2.5a26.64,26.64,0,0,1-7.68-22.07s1.86,2.24,5.65.08-1.94-20.82-3.36-26.39c-.52-2.07,2.54-1.81,7.29-.64a50.79,50.79,0,0,1-9.4-8.28,53.3,53.3,0,0,1-5.26-6.86c-6.82-10.6-9.4-18.75-10.78-28.84v0a18.38,18.38,0,0,1,1-25.57,1.6,1.6,0,0,1,.26-.3c2.15-2.76,6.55-3.8,9.4-5.82a39.33,39.33,0,0,0,8-8.07c2.63-3.45,7-8.53,6.6-13.19,1.16,12.63,12.11,21,24.23,21.34a85.49,85.49,0,0,0,8.75-.47s0,0,.09,0a17.8,17.8,0,0,1,3.75-.39,18.48,18.48,0,0,1,15.18,7.89,6,6,0,0,1,.47.69c.22.34.43.73.65,1.12a17.84,17.84,0,0,1,1.77,3.45c2.76,7.07,2.54,15,2.11,22.46-.65,11-3.19,22.55-9.31,31.95a2.63,2.63,0,0,1,2.06-.65c4.75.82,1.39,31.52,6.64,33.12s5,5.69,5,5.69c0,.73-.08,1.42-.17,2.11a32.2,32.2,0,0,0,.52-7.67c1.55.08,3.1.25,4.65.47,8.8-3,26,6.42,26,6.42a.14.14,0,0,0,.09.05c41.3,15.91,69.46,55.79,79,100.28a237.49,237.49,0,0,1,5.39,48.72V496a7.75,7.75,0,0,1,7.76-7.76h53.16C717.73,474.38,720.32,460.89,716.7,447.3ZM503.06,459.38c1.42.38,2.89.73,4.36,1,.94,0,1.89-.09,2.84-.17a35.53,35.53,0,0,0,19.32-8.41c-5.31,3.75-12,6.08-19.79,7C507.24,459.12,505,459.29,503.06,459.38Zm21.09-64.59a32.6,32.6,0,0,1-19,9.57,28.51,28.51,0,0,0,4.1.39C516.43,404.88,520.83,399.4,524.15,394.79Z"/><path class="cls-5" d="M635.56,673.45c-2.59,6.89-4.36,10.78-4.36,10.78C631.89,717,611.84,792,611.84,792c-26.77,2.37-50.49,1.86-71.53-.77C593.91,751,620.34,707.34,635.56,673.45Z"/><path class="cls-5" d="M655.17,583.81c-66.57-25-107.36,11.29-107.36,11.29-.08,97.71-83.77,151.82-102.4,162.59-47.42-31.81-60.49-73.46-60.49-73.46l4.27-5c3-8.36,10.69-34.36,13.2-59.41,2.37-23.67-.31-46.52-.48-52.95-.39-13.23-6.38-10.21-13.41-7.67s-39.58,3.32-39.58,3.32C385,542.2,366.3,456,366.3,456l78.64-25.57s22.25-12.54,26.13,3.45,19.36,23,36.3,26.6,32.6-15.91,34.71-31.69,31,0,31,0C644.27,464.21,658.58,528.58,655.17,583.81Z"/><path class="cls-4" d="M119.14,900.61s61.24-6.71,71.81,0c0,0,1.94,13.9-7.41,31.14s-20.84,5.39-82.63,9.35c0,0-50.23,4-50.81-14.36s22.83-20.92,36.46-21.07S119.14,900.61,119.14,900.61Z"/><path class="cls-6" d="M350,882.86h-.69"/><path class="cls-6" d="M319.78,489.86c21.86-9.4,37.55-33.29,51-51.83,9-12.33,20-28.32,29-40.57,8.8-11.9,26.35-33,31.05-47,.21-.6.38-1.2.56-1.77"/><path class="cls-6" d="M400.1,557.08c-25.05,5.17-136.07,23.37-148.84-57.61C236.82,408.11,383.37,373.36,395.4,345.72S395,288,426.66,274c14-6.21,23.84-4.91,27.21,1.9"/><path class="cls-6" d="M191,906.57c11.85-56.13,39.23-170,76.44-225.19"/><path class="cls-6" d="M395.75,541.17c10.25,31.3,15.45,80.7-10.11,147.88"/><path class="cls-4" d="M202.59,957.62H167.32a20.62,20.62,0,0,1-20.44-20.43,20,20,0,0,1,.22-2.81v0a23.54,23.54,0,0,0,1.46-5.13c.61-3.36.74-5.35,6.77-8.49a109.27,109.27,0,0,1,11.86-5.18c.77-.26,1.55-.6,2.41-.9,3.24-1.21,7.59-2.85,12.72-4.79,1.3-.47,2.63-1,4-1.51s3.06-1.16,4.66-1.77c23.63-8.79,57.17-21.3,79.16-29.53h.13a16.67,16.67,0,0,1,3.32-.3,19.19,19.19,0,0,1,19.18,19.18S159.47,933.91,202.59,957.62Z"/><path class="cls-6" d="M256,700.62c15.78,41.6,26,93.36,72.61,156.61"/><path class="cls-6" d="M546.91,577.6c7.2,69.72-28.84,144.22-122.58,191.69-29.57,15-57.17,35-77.83,61.14a202.83,202.83,0,0,0-15.58,23c-3.54,6-11.69,17-7.86,24.31,2,3.83,5.3,5.18,9.41,5.18,11.22,0,22.61-28.45,31.41-41.14"/><path class="cls-6" d="M384.21,849.56S364,882.5,350,882.88s-4.1-10.82-4.1-10.82"/><path class="cls-6" d="M480.12,423.93c-44.32,5.95-88.56,20.48-127.83,38.08"/><path class="cls-6" d="M398.59,860.57a2,2,0,0,1-.3.39c-1.68,2.28-3.49,4.7-5.48,7-4.74,5.74-10.21,11.13-17.16,13.41-5.56,1.86-16.85.44-10.43-7.46"/><path class="cls-6" d="M364.23,875.36c-.22,0-.48.13-.69.17"/><path class="cls-6" d="M534.58,853.07c-22.42.08-43.46,1.2-63,3-17.9,1.64-27,2.68-42.41,5.31"/><path class="cls-6" d="M393,868.24a14.63,14.63,0,0,0-1.81.39h0"/><path class="cls-6" d="M343.66,881.52a368.7,368.7,0,0,0-45.61,17.72,3.62,3.62,0,0,1-1.6.39,3.69,3.69,0,0,1-3.66-3.71,19.2,19.2,0,0,0-19.19-19.18,16.67,16.67,0,0,0-3.32.3h-.13a17.91,17.91,0,0,0-3.32,1L191,906.57c-1.6.61-3.15,1.21-4.66,1.77s-2.71,1-4,1.51c-5.13,1.94-9.48,3.58-12.72,4.79-.86.3-1.64.64-2.41.9L162,917.48a19.31,19.31,0,0,0-6.68,3.24,19.34,19.34,0,0,0-6.77,8.49,17,17,0,0,0-1.46,5.13v0a20,20,0,0,0-.22,2.81,20.62,20.62,0,0,0,20.44,20.43h479A51.28,51.28,0,0,0,677,865.31l-51.86-40.48c-9.06-7.08-16.95-22-13.33-32.86A385.25,385.25,0,0,0,631.2,684.23"/><path class="cls-6" d="M147,939.38H64.31A14.27,14.27,0,0,1,50,925.11c0-7,7.2-14.79,14.1-16L124,899.85c-3.88-149.53,23-267.75,53.38-320.05,9.2-15.86,23.93-27,40.62-33.15,37.5-13.75,79.51,2.2,100.7,36.05l26.06,41.64,32.78,52.36c.28.43.57.86.87,1.27l13.39,17.94"/><path class="cls-6" d="M411.87,439.33c22.85-17,19.45-105.46,19.45-105.46-.39-21.26,7.54-45.15,24.06-59.33a52.79,52.79,0,0,1,7.2-5.18c17.85-10.52,42.64-9.57,60.4.69a65,65,0,0,1,22.9,23,88.61,88.61,0,0,1,10.73,28.28,309.59,309.59,0,0,0,8,31.09c2.85,9,4.44,19.92,11.94,26.6,14.36,12.85,37.17,8.79,54.72,8.23,24.85-.79,49.93,9.85,67,27.9a75.26,75.26,0,0,1,18.28,32.15c3.6,13.61,1,27.11,1.93,40.93"/><polyline class="cls-6" points="484.33 442.22 478.95 418.92 471.54 389.94"/><circle class="cls-6" cx="498.98" cy="378.97" r="7.1"/><path class="cls-2" d="M825.06,698.66A21.28,21.28,0,0,1,803.77,720a20.88,20.88,0,0,1-7.55-1.38,21.31,21.31,0,0,1,15.09-36.35,20.77,20.77,0,0,1,7.5,1.38A21.11,21.11,0,0,1,825.06,698.66Z"/><path class="cls-2" d="M825.06,562.5a21.28,21.28,0,0,1-21.29,21.3A12.77,12.77,0,0,1,790,567.37a21.29,21.29,0,0,1,21.3-21.3,20.48,20.48,0,0,1,7.59,1.42A21.26,21.26,0,0,1,825.06,562.5Z"/><path class="cls-2" d="M825.06,842.23a21.28,21.28,0,0,1-21.29,21.3,20.67,20.67,0,0,1-7.55-1.38,21.31,21.31,0,0,1,15.09-36.34,20.56,20.56,0,0,1,7.5,1.38A21.08,21.08,0,0,1,825.06,842.23Z"/><path class="cls-2" d="M825.06,698.66A21.28,21.28,0,0,1,803.77,720a20.88,20.88,0,0,1-7.55-1.38,21.31,21.31,0,0,1,15.09-36.35,20.77,20.77,0,0,1,7.5,1.38A21.11,21.11,0,0,1,825.06,698.66Z"/><path class="cls-2" d="M825.06,562.5a21.28,21.28,0,0,1-21.29,21.3A12.77,12.77,0,0,1,790,567.37a21.29,21.29,0,0,1,21.3-21.3,20.48,20.48,0,0,1,7.59,1.42A21.26,21.26,0,0,1,825.06,562.5Z"/><path class="cls-2" d="M825.06,842.23a21.28,21.28,0,0,1-21.29,21.3,20.67,20.67,0,0,1-7.55-1.38,21.31,21.31,0,0,1,15.09-36.34,20.56,20.56,0,0,1,7.5,1.38A21.08,21.08,0,0,1,825.06,842.23Z"/><circle class="cls-6" cx="469.41" cy="341.95" r="18.58"/><circle class="cls-6" cx="517.55" cy="340.3" r="18.58"/><path class="cls-6" d="M461.64,339.51s7.49,8.59,15.19,0"/><path class="cls-6" d="M510,339.51s7.48,8.59,15.19,0"/><path class="cls-6" d="M488,342s4.22-6.85,11-1.65"/><path class="cls-6" d="M455.5,354.22c1.38,10.09,4,18.28,10.78,28.88,7.12,11,19.92,21.56,33.38,21.65a33.29,33.29,0,0,0,28.76-15.47c6.12-9.39,8.68-20.91,9.33-32,.43-7.45.61-15.38-2.11-22.46-3-7.74-10-13-18.36-12.9-4.11.06-8.19.82-12.3.69-12.14-.37-23.08-8.71-24.25-21.35.43,4.63-4,9.72-6.57,13.2a40,40,0,0,1-8,8c-2.9,2.13-7.57,3.15-9.64,6.12"/><path class="cls-6" d="M697.47,909.12H942.2a7.79,7.79,0,0,0,7.8-7.76V496a7.76,7.76,0,0,0-7.8-7.76H665.31a7.75,7.75,0,0,0-7.76,7.76V850.09"/><rect class="cls-6" x="657.56" y="627.69" width="292.42" height="141.94"/><path class="cls-6" d="M542.24,419c2.3,20.56-12.09,39-32.13,41.27S472,447.64,469.66,427.08"/><path class="cls-6" d="M532,382.71l4.14,38.72h0c2,.09,4,.22,6,.39,58.16,4.57,98.17,52.43,110,107.27a237.51,237.51,0,0,1,5.39,48.73,221.35,221.35,0,0,1-8.5,61.91,246.33,246.33,0,0,1-24.23,56.14A308.22,308.22,0,0,1,587.91,746a404.76,404.76,0,0,1-46.65,43.85c-13.58,10.9-27.85,20.82-42.25,30.57-12.89,8.7-27,15.3-40.44,23-14,8-27.64,16.56-40.88,25.7-7.07,4.91-15.78,9.48-24.14,4.74-2.33-1.29-2-3.54-.74-5.87,1.47-2.71,4.23-5.51,5.48-7"/><circle class="cls-6" cx="803.77" cy="698.66" r="21.31"/><circle class="cls-6" cx="803.77" cy="562.48" r="21.31"/><circle class="cls-6" cx="803.77" cy="842.23" r="21.31"/><path d="M649.74,637.1c-3.53,9.83-7.89,22.25-14.18,36.35,6.2-16.69,17.29-50.92,19.61-89.64C655.17,583.81,662.55,601.87,649.74,637.1Z"/><path class="cls-1" d="M481.12,398.24c6.55,1.64,16.38,5,24,6.12a30.84,30.84,0,0,1-5.3.39C493.23,404.71,486.81,402.16,481.12,398.24Z"/><path class="cls-1" d="M481.68,449.76c5.77,4.57,13.28,7.55,21.38,9.62C491.59,459.85,488.36,456.57,481.68,449.76Z"/><path class="cls-1" d="M528.5,389.36a33.85,33.85,0,0,1-4.35,5.43A31.59,31.59,0,0,1,528.5,389.36Z"/><path class="cls-1" d="M541.31,433.33c.25-1,.49-2,.66-3-1,9.52-5.47,16.73-12.39,21.51a36.8,36.8,0,0,0,7.46-8.62c.34-.65.73-1.3,1.07-1.94a4.79,4.79,0,0,0,.31-.65,19,19,0,0,0,.9-1.81c.26-.56.48-1.12.69-1.68a9.41,9.41,0,0,0,.52-1.42C540.83,434.93,541.05,434.15,541.31,433.33Z"/><path class="cls-1" d="M542,430.23a.29.29,0,0,1,0,.09c0-.26.09-.51.11-.78A3.26,3.26,0,0,1,542,430.23Z"/><path class="cls-4" d="M873,273.14l-65,9.73,11.32,8h0l21.17,16.95c3.32,2.33,2.49,7.84,4.33,11.18a26.12,26.12,0,0,1-40.94,24.89L752.8,307.94a39.37,39.37,0,0,1-13.13-15.37c-4.18-20.81,8.65-43.94,33.29-47.62l71-10.65-10.4-8.1h0l-32.25-25.1a26,26,0,0,1-6.78-7.85,26.12,26.12,0,0,1,41.94-24.18L894,213.83a38.45,38.45,0,0,1,11.11,13.6C909,247.49,896.49,269.62,873,273.14Z"/><path class="cls-6" d="M873,273.14l-65,9.73,11.32,8L834,301.13a26.13,26.13,0,1,1-30.07,42.74L752.8,307.94a39.37,39.37,0,0,1-13.13-15.37C728.8,270,741.51,240,769.89,235.74l56.33-8.44,7.34-1.1-32.25-25.1a26.13,26.13,0,1,1,32.09-41.24l57.53,44.77a37.75,37.75,0,0,1,14.18,22.8C909,247.49,896.49,269.62,873,273.14Z"/><path class="cls-2" d="M668.1,353l-.85-23.32L656.9,340.3a9.46,9.46,0,0,1-13.39.16h0a9.46,9.46,0,0,1-.16-13.39l18.46-18.91a14,14,0,0,1,24,9.26l.87,23.79,7.63-8.61a9.47,9.47,0,0,1,13.37-.8h0a9.47,9.47,0,0,1,.81,13.37l-15,16.94A14.48,14.48,0,0,1,668.1,353Z"/><path class="cls-2" d="M584.37,341.17l11-2.46-6-4a4.6,4.6,0,0,1-1.26-6.36h0a4.59,4.59,0,0,1,6.36-1.26l10.63,7.12a6.76,6.76,0,0,1-2.29,12.21l-11.25,2.51,4.77,2.87a4.6,4.6,0,0,1,1.57,6.3h0a4.59,4.59,0,0,1-6.3,1.56L582.29,354A7,7,0,0,1,584.37,341.17Z"/><g class="cls-7"><line class="cls-8" x1="34.09" y1="983.28" x2="29.05" y2="997.14"/></g></svg>