<svg id="Layer_2" data-name="Layer 2" xmlns="http://www.w3.org/2000/svg" viewBox="0 0 1000 1000"><defs><style>.cls-1,.cls-5,.cls-6,.cls-7,.cls-9{fill:none;}.cls-1{stroke:#ccdde2;}.cls-1,.cls-5,.cls-6{stroke-miterlimit:10;}.cls-1,.cls-5,.cls-7{stroke-width:5.32px;}.cls-2{fill:#d7e8f0;}.cls-3{fill:#2e2e2e;}.cls-4{fill:#3fbdf1;}.cls-5,.cls-6,.cls-7{stroke:#000;}.cls-6{stroke-width:3.55px;}.cls-7{stroke-linecap:round;stroke-linejoin:round;}.cls-8{fill:#fff;}</style></defs><path class="cls-1" d="M282,395.17s14.72,37.13,63.42,38.95"/><path class="cls-1" d="M402.6,427.63s28-7.34,46.39-35.45"/><path class="cls-1" d="M816.07,937.15c2.8-1.74,20.33,0,23.63,0a107.7,107.7,0,0,0,21.39-2.05c88.28-17.7,96.12-147,84.95-233.83a293.91,293.91,0,0,0-12.2-53.6c-16.53-51.08-46.15-98.4-82.33-137.24C838.06,496,821.82,483.29,813,465.2c-16.14-33.13-3.51-71.55,4-105.17,10-45.12,14.19-94.25-35.08-116.7-103.5-47.18-218,37.49-218,37.49"/><path class="cls-1" d="M123.7,777.73c-5.82,28.77-6.12,58.88,3.78,86.38,8.84,24.55,26.3,49.77,49.13,63.79a67.07,67.07,0,0,0,43.68,9.17"/><polyline class="cls-1" points="345.4 501.03 345.4 404.76 345.4 401.92 345.4 378.97 345.4 370.42 345.4 323.88"/><path class="cls-1" d="M408.89,483.68V436.37a9.2,9.2,0,0,0-6.29-8.74l-27.44-9.15v-94.6"/><path class="cls-1" d="M345.4,404.76c7.87,2.23,21.48,5.21,29.74,3.47"/><path class="cls-1" d="M345.4,379c9.79.78,22,1.63,29.76,3.65"/><path class="cls-1" d="M345.4,401.92c8.8-1.24,21.64-3.94,29.76-7.45"/><path class="cls-1" d="M345.4,370.42c17.13-4.75,25.61-10.61,29.76-15.5"/><line class="cls-1" x1="196.84" y1="346.83" x2="159.67" y2="349.85"/><line class="cls-1" x1="192.16" y1="330.44" x2="155.34" y2="333.42"/><path class="cls-1" d="M596.47,297.67l161.11-13.09a8.36,8.36,0,0,1,9,7.66c0,.21,0,.43,0,.68a8.34,8.34,0,0,1-7.69,8.33L603.14,313.88"/><line class="cls-1" x1="349.8" y1="334.45" x2="314.96" y2="337.25"/><line class="cls-1" x1="441.56" y1="327" x2="372.32" y2="332.61"/><line class="cls-1" x1="346.64" y1="317.92" x2="321.28" y2="319.98"/><line class="cls-1" x1="434.22" y1="310.83" x2="372.75" y2="315.79"/><path class="cls-1" d="M269.6,795.46c.67-.38,1.33-.77,2-1.17,6.1-3.69,6.9-9.07,1.84-13.81-21.6-20.22-46.68-37.52-74.18-48.62-24.06-9.72-52.46-15.8-78.42-12.57-12,1.5-42.06,7.43-34.29,26.08,1.67,4,4.83,7.18,8,10.14C136.46,794.49,214.47,826.93,269.6,795.46Z"/><path class="cls-1" d="M89.4,750.71c-39.76-47.39,9-178.24,29.83-233.65,8.94-23.84,9.4-49.7,7.91-74.88-.46-8.94-11.56-64.49,4.44-62.93,2.52.25,4.5,2.06,6.17,4a34,34,0,0,1,8.16,19.15,41.24,41.24,0,0,1,9.82-7.24,40.31,40.31,0,0,1,6.32-2.73,11.34,11.34,0,0,1,5.39-.88c5.78,1,7.52,8.62,6.31,14.4-2.05,10.46-10.6,14.51-16.14,22.63a24.15,24.15,0,0,0-1.88,3.33c-4.18,8.66-3.69,19.23-3,28.74a104.57,104.57,0,0,0,9.22,35.11"/><path class="cls-1" d="M260.3,673.92c10.18,32.74,16.11,66.75,16.46,101.2.07,3.58,0,7.13-.1,10.71v.42a16.56,16.56,0,0,1-.08,2"/><path class="cls-1" d="M155.73,431.91s-26.57-6.55-32-18.33"/><path class="cls-1" d="M155.73,395.17s17.92-76-19.18-71S123.7,382,123.7,382"/><circle class="cls-1" cx="137.69" cy="341.44" r="13.99"/><path class="cls-1" d="M697.42,555.33a18.43,18.43,0,0,0,12.38,4.76c9.29,0,16.85-6.74,16.85-15q0-29.26-.07-58.5c0-11.59,2.48-33.62-16.78-33.62-13.2,0-16.89,10.39-16.85,20.25v10.75"/><path class="cls-1" d="M697.42,431.79a17.48,17.48,0,0,0,12.38,5.28,16.8,16.8,0,0,0,16.81-16.81q0-32.67-.07-65.34c0-12.91,2.52-37.56-16.74-37.56-13.2,0-16.89,11.63-16.89,22.63v9"/><rect class="cls-2" x="706.85" y="434.12" width="5.94" height="18.8" transform="translate(1419.63 887.04) rotate(180)"/><path class="cls-1" d="M680.62,585.73c9.29,0,16.82-6.74,16.82-15.05q0-29.25-.07-58.49c0-11.58,2.5-33.62-16.75-33.62-13.19,0-16.89,10.41-16.88,20.25q.06,33.52.06,67.07c0,3.54,0,7.15,1.3,10.5C667.26,582.08,674,585.73,680.62,585.73Z"/><path class="cls-1" d="M680.61,462.74a16.82,16.82,0,0,0,16.82-16.82q0-32.67-.07-65.34c0-12.94,2.5-37.56-16.75-37.56-13.19,0-16.89,11.63-16.88,22.62q0,37.46.06,74.92c0,4,0,8,1.29,11.74C667.25,458.65,674,462.74,680.61,462.74Z"/><rect class="cls-2" x="677.65" y="459.77" width="5.94" height="18.8" transform="translate(1361.24 938.33) rotate(180)"/><path class="cls-1" d="M682,343.25c-4.93-12.13-4.07-24.33-2-35.61.71-3.8,1.56-7.45,2.37-11a15.49,15.49,0,0,1,15-12h.07a15.4,15.4,0,0,1,10.36,4"/><path class="cls-1" d="M713.17,305c-.25,8-3.37,12.38-3.37,12.38"/><path class="cls-3" d="M599.86,869.07a32.56,32.56,0,0,1-2.83,9.22C596.85,874.64,599.86,869.07,599.86,869.07Z"/><path class="cls-3" d="M533.18,865.27c.85-7.66,5.81-18.09,10-30C539.85,846.26,534.7,857.43,533.18,865.27Z"/><path class="cls-3" d="M546,875.7c-2.49,1.35-5.71,2.52-9.37-.21A18,18,0,0,0,546,875.7Z"/><path class="cls-3" d="M544.92,826A18.58,18.58,0,0,0,539,812.38C542.15,814.87,545.24,818.66,544.92,826Z"/><path class="cls-3" d="M550.52,874.1a21.46,21.46,0,0,0,3.48-2.16,23.08,23.08,0,0,0-2.45,5.46C551.44,875.42,551.09,874.46,550.52,874.1Z"/><path class="cls-3" d="M566.73,885.81c-4.29,2.52-9,3-12,.39C558.89,888.22,563.19,887.33,566.73,885.81Z"/><path class="cls-3" d="M574.93,884.43c-.78-1-1.63-1.74-3-1.49.6-.39,1.1-.75,1.52-1C575,880.88,574.68,882.55,574.93,884.43Z"/><path class="cls-3" d="M579.43,888.11c4.29-.35,9.76-.81,14.05-4.93-.25.39-.46.86-.71,1.35C590.39,889.46,584.19,888.11,579.43,888.11Z"/><path class="cls-3" d="M598.27,880.91a5.89,5.89,0,0,0-2.84,0,18.58,18.58,0,0,0,1.6-2.62A3,3,0,0,0,598.27,880.91Z"/><path class="cls-3" d="M602.77,881.87c-.78-.14-1.49-.32-2.13-.46,4.54-.25,9.4-.07,13.2-4.22C611,880.49,607.1,882.72,602.77,881.87Z"/><path class="cls-3" d="M615,875.7a18.75,18.75,0,0,0,1.25-2.17A18.85,18.85,0,0,1,615,875.7Z"/><path class="cls-3" d="M618,869.21c-.21.69-.44,1.35-.67,2A18.18,18.18,0,0,0,618,869.21Z"/><path class="cls-3" d="M616.26,873.53a25.1,25.1,0,0,0,1.06-2.36A18.35,18.35,0,0,1,616.26,873.53Z"/><path class="cls-3" d="M618.31,840.58a2.66,2.66,0,0,0-1.67-1.2l2.27-1.17A8.85,8.85,0,0,0,618.31,840.58Z"/><path class="cls-3" d="M781.9,766.55c-31.39,31.64-72.11,41.93-72.11,41.93,1.74,28-4.36,122.17-4.82,126.28s-23.1,2.73-23.1,2.73l-97.4-.14c3-.89,5.85-1.81,8.51-2.84,47.21-18,50.34-54.09,43.42-80.09-3.9-14.69-7.56-19-10.64-19.55,8.51-4,21.81-9.61,34.69-12.73C681.73,817,752,797.8,774.38,772.65A32.35,32.35,0,0,1,781.9,766.55Z"/><path class="cls-3" d="M773.5,567S740,536.63,702.31,577.42c-26.57,28.77-27.64,50.72-25.93,61.19a24.94,24.94,0,0,1,1.88,6.74l3.37,2.27-2.31-.22c4.19,8.48,18.62,41.51.71,62.93-20.72,24.76-46.65,57-116.63,84.28,0,0-34.76-10.21-44.23,13.55,0,0,11.24-2,15.78,1.31-20.89-2.05-90-.46-90-.46s-42.88,6.35-53.49,45,3.59,46.79,24.73,71.58c4,4.65,11,8.52,20.11,11.57l-53.28-.07,4.51-7.84c5-12.21-7.13-14.55-7.13-14.55-12.35-1.06-9.16-8.3-9.16-8.3-13.12-82.5-10.42-206.12-6.59-237.48s-1.78-22.24-1.78-22.24c-9.89,10.71-67.46,22.24-67.46,22.24,27.2-16.46,36.6-38,41.32-88.82,4.61-49.38-21.85-67.57-23.38-68.6a.09.09,0,0,0-.07,0l102.76-30.9,69.35-10.71c-1.06,3.27-2.87,2.42-6.35,2.91l-6.13.89a1.36,1.36,0,0,1,1.13.74,2.73,2.73,0,0,1,.14.78c.68,14.34,10,26.71,22.07,33.92,16.7,10,40.22,9.75,57.32.63,12.27-6.56,18.48-19.15,17.91-32.81C642.82,485.73,724,513.25,773.5,567Z"/><path class="cls-2" d="M473.3,806.92l13.87,9.9-1.17-.75A64,64,0,0,0,453,807Z"/><path class="cls-2" d="M573.4,878.68a3.7,3.7,0,0,1-.35,1.35C573,878.25,573.44,877.26,573.4,878.68Z"/><path class="cls-2" d="M639.06,871.27a64.33,64.33,0,0,1-64.31,64.31H453a64.3,64.3,0,0,0,39.91-114.72,65.29,65.29,0,0,0-5.75-4h56c1.7,2.8,4.11,10.14-1.84,26.32-8.16,22.13-12.31,31.21-1,33.16s13-9,13.66-4.36-7.49,8.51.71,14.26c7.34,5.14,16.46-1.88,18.34-6.17,0,3.15,1.49,8.76,9.61,8.26,12.77-.78,15-12.77,15-12.77a7.54,7.54,0,0,0,6.74,6.53c6.13.71,16.32-7.88,15.36-20.86s-4.72-23.55,3.9-26.39a6,6,0,0,0,2.8-1.77A63.71,63.71,0,0,1,639.06,871.27Z"/><path class="cls-4" d="M593.83,392.46a1.79,1.79,0,0,1-.46,0c.43,2.09,1.21,4.32,1.74,6.56a18.28,18.28,0,0,1,.53,5.14c-.57,8.13-6.31,12.52-14.12,12.74a9.28,9.28,0,0,1-5,9.22c-4.18,2.2-11,1.7-14.19-2.16-3.72-4.51-1.88-10.08.4-15v0c.81-1.74,1.63-3.37,2.3-4.86.82-1.85,1.53-3.69,2.16-5.57a150.55,150.55,0,0,0,5.15-21.25,160.32,160.32,0,0,0,2.94-22c-.49-1.81-.18-4.4-.89-6.28A15.53,15.53,0,0,0,569,341.7c-5.11-3.76-11.89-3.51-17.31-6.84a28.79,28.79,0,0,1-11.1-12.81c-.47-1.1-.89-2.52-1.53-3.76a5.05,5.05,0,0,0-1.28-1.74c-2.45-2.05-3.86,1.56-5.35,3a14.7,14.7,0,0,1-11.53,3.83h0a15.08,15.08,0,0,1-4.54-1.34,16.13,16.13,0,0,1-2.94-2.06,12.41,12.41,0,0,0-3.66-2.48c-2.55-1-2.69,3.26-3.05,4.71-.71,2.63-1.95,4.76-4.43,6a10.44,10.44,0,0,1-4.43,1.07,15.8,15.8,0,0,1-5.29-.71,17.59,17.59,0,0,1-4.65-2.17,1.65,1.65,0,0,0-2.58,1.49c.49,13.87-12.49,18.7-17.81,20.08-2,22,4,46.36,16,65.23a17.12,17.12,0,0,1-3.33,7.73c-8.77,2.2-18.88-.17-22.67-7.73-4-8-3.48-19.19,2.77-24.94-4.33-.66-5.55-7.07-3.06-10.83.21-.35.32-.56.17-.92-.53-1.45-6.9-2.65-8.64-3.21a17,17,0,0,1-10.5-11c-3.69-12.17,5.67-25.15,17.38-28.1-3.48-6.13-8.09-11.1-10-18.19s-.82-14.51,4.61-19.8A18.25,18.25,0,0,1,467,291.65a21.61,21.61,0,0,1,4.54,4.47,15.75,15.75,0,0,1-1.88-3.76,21.25,21.25,0,0,1,10,7.17c-4.57-6.85-2.87-16.18,2.28-22.21,6.2-7.27,18.4-8.87,26.92-5.14a13.05,13.05,0,0,1,1.77,1c.82,1,1.63,2,2.45,2.94a8,8,0,0,1,.32-.75,74.06,74.06,0,0,1,4.89,5.57c5.54-15.71,27.49-15.75,39.09-7.55a21.38,21.38,0,0,1,6.53,7.48,16.54,16.54,0,0,1-.14,7.91c-.71,2.49-.14,4.37,1.45,4.9a5,5,0,0,0,3.55-.46c4.26-1.92,7.77-4.26,12.7-3.73,16.14,1.71,27.84,22.63,18.3,36.29a16.88,16.88,0,0,1-1.91,2.38c-1.35,1.38-4.37,2.91-5,4.82a.2.2,0,0,0,0,.14c-1.2,4,7.7,4.93,10.08,6C623.88,347.87,619.44,391.11,593.83,392.46Z"/><path class="cls-5" d="M472.91,473.63h0l6.13-.89a9.14,9.14,0,0,0,7.42-6.17,6.92,6.92,0,0,0,.42-1.74l.07-.49.78-5.89,5.29-32.74"/><path class="cls-5" d="M562.33,424l.5,44.7v1.42a6.28,6.28,0,0,0,5.11,6.06l3.58.71"/><path class="cls-5" d="M467.45,347.91c-2.45,26.39,6.7,56.22,23.87,75.87,32,36.65,59,0,59,0"/><path class="cls-5" d="M575.6,356.09c-.93-1.75-.38-4.9-1.19-7.11A15.85,15.85,0,0,0,569,341.7c-5.12-3.74-11.9-3.51-17.31-6.82A28.93,28.93,0,0,1,540.54,322c-.74-1.68-1.32-4.26-2.78-5.48-2.45-2-3.87,1.55-5.38,3A14.45,14.45,0,0,1,516.31,322c-2.43-1.19-4.1-3.59-6.63-4.54s-2.67,3.24-3.05,4.71c-.69,2.61-1.93,4.74-4.42,6-4.43,2.19-10.49.75-14.36-1.84a1.67,1.67,0,0,0-2.6,1.51c.61,17.45-20.05,20.56-20.05,20.56"/><circle class="cls-5" cx="496.59" cy="367.58" r="18.7"/><circle class="cls-5" cx="545.07" cy="365.93" r="18.7"/><path class="cls-5" d="M488.78,369.47s7.53,8.64,15.29,0"/><path class="cls-5" d="M537.42,369.47s7.54,8.64,15.29,0"/><path class="cls-5" d="M515.3,367.58s4.24-6.9,11.06-1.65"/><path class="cls-5" d="M506.7,339.84S487.29,325,471,339"/><path class="cls-5" d="M563.48,332.05S540.43,324,529.3,342.32"/><path class="cls-5" d="M482.84,412.54a14.81,14.81,0,0,1-10.32,13.9c-9.58,2.84-19.72-4.36-23.87-12.66a17.56,17.56,0,0,1,1.17-18.34,2.32,2.32,0,0,0-.83-3.26,12.55,12.55,0,0,1-6.09-10.79,12.74,12.74,0,0,1,.3-2.72,2.39,2.39,0,0,0-2.12-2.82,18.42,18.42,0,0,1-2.9-.49,18.15,18.15,0,0,1-11.28-11.77c-4-13.09,6.11-27.07,18.7-30.22-3.76-6.6-8.73-11.92-10.79-19.58s-.85-15.58,5-21.29c9.05-8.86,24.4-6.1,31.71,3.62-4.93-7.38-3.08-17.42,2.45-23.91,6.67-7.8,19.79-9.5,28.94-5.53,4.37,1.92,7.17,5.89,10.15,9.4,6-16.85,29.55-17,42-8.12,6.53,4.64,10.79,13.09,8.66,20.78-1.1,3.91.92,6.25,5,4.44,4.26-1.88,7.77-4.26,12.7-3.73,17.1,1.81,29.23,25.22,16.39,38.67-1.35,1.42-4.37,2.91-5,4.82-1.46,4.08,7.63,5.07,10,6.1,21.21,8.91,16.56,52.61-9.44,53.49.78,3.73,2.56,7.84,2.27,11.67-.57,8.13-6.31,12.52-14.12,12.77.57,3.66-1.7,7.45-5,9.19-4.18,2.23-11,1.7-14.19-2.16-5-6.1.15-14.09,2.7-19.9,3.76-8.52,5.6-17.7,7.31-26.82a158.11,158.11,0,0,0,3-22.91v-.32"/><path class="cls-2" d="M279,159.92l-7.62,29.69.21,0,2.59-6.77,54.23-41.93,5.5-21.6ZM298.75,98a11.27,11.27,0,0,0-5.64,7.2l-11.18,43.48L337.3,105.9v0L345.67,73Zm9.32,17c-.67,3.41-2.76,5.89-4.68,5.53s-2.91-3.47-2.2-6.91,2.77-5.93,4.69-5.54S308.75,111.5,308.07,114.94Zm-28,72.4,1.6-.43a5,5,0,0,1,2-.39,5.07,5.07,0,0,1,4.93,6.17L279.45,229l28.59-7.8L325.1,154Z"/><path class="cls-5" d="M262.78,538.84c3.9-30.32,5.72-61.24,9.53-91.79l.62-4.78c1.07-8.26,2.33-16.52,3.87-24.69a10.54,10.54,0,0,1,.22-1.17c.88-4.84,1.85-9.64,3-14.45,3.27-14.39,11.57-24.92,19.67-36.64l.51-1.26a159,159,0,0,0,27.9-86.45c.19-11.18-.25-33.28-13.07-37.86-7.2-2.58-14.83,2.45-18.82,8.2a32.72,32.72,0,0,0-4,7.67"/><path class="cls-5" d="M377.46,937.1s0,0,0,0"/><path class="cls-5" d="M198.54,389.35C185.8,435,164.59,478,154.16,524.28c-9.57,42.39-12.45,104.08,27.71,132.52,35.29,25,86.62,18.84,126.06,9.3a286.48,286.48,0,0,0,33.84-10.29c8.52-3.16,16.5-7.31,24.83-10.71,0,0-15.29,152.28,6,268.91"/><path class="cls-5" d="M198.55,389.36l2.11-7.58a46.22,46.22,0,0,0-1.92-30.38l-4.18-10c-2.73-8.32-3.58-12.35-.16-20.49a36.14,36.14,0,0,1,6.73-10.43c8.26-9.11,19.89-13.64,31.86-15.18s25.21-.34,34.85,7.42c6.54,5.28,12.7,17.82,8.46,26-3.11,6-9.68,7.7-15.28,5.56a13.52,13.52,0,0,1-5.15-3.42c-6.6-6.92-21-8.33-25.94-1.61"/><path class="cls-5" d="M203.89,289.28c-1-3.86-.85-8.74,1.45-15,3.3-8.95,12.91-14.83,22.28-18.69,3.42-1.42,6.82-2.58,9.83-3.49,10.22-3.15,21.43-4.81,32.28-3.71a61,61,0,0,1,10.84,2.07,47.64,47.64,0,0,1,11.62,5.13c9,5.49,15,13.85,18.67,24.82,3.17,9.46,4.4,20.71-3.46,26.62"/><path class="cls-5" d="M277.62,321.23l2.79,5.57c3.49,3.83,8.33,6.25,15,4.59,13-3.24,14.3-14,12-24.32a47.49,47.49,0,0,0-1.5-5.53c-3-9.09-7.77-16.41-14.37-21.75a44.16,44.16,0,0,0-15.93-8.2,60.2,60.2,0,0,0-14.52-2.33,85,85,0,0,0-28.59,4c-9.24,2.83-21.87,7.7-28.6,16.06a21.3,21.3,0,0,0-3.52,6.13c-2.07,5.62-2.42,10.18-1.69,13.86l.65,3.34"/><line class="cls-6" x1="242.86" y1="270.68" x2="242.86" y2="270.65"/><path class="cls-2" d="M388.17,925.82a11.57,11.57,0,0,1-11.53,11.25H279a11.17,11.17,0,0,1-6.17-1.85A11.5,11.5,0,0,1,284.31,924H382A11.72,11.72,0,0,1,388.17,925.82Z"/><path class="cls-2" d="M388.17,925.82a11.57,11.57,0,0,1-11.53,11.25H279a11.17,11.17,0,0,1-6.17-1.85A11.5,11.5,0,0,1,284.31,924H382A11.72,11.72,0,0,1,388.17,925.82Z"/><path class="cls-5" d="M271.41,189.63l21.71-84.45A11.4,11.4,0,0,1,298.78,98l67-35.7L326.58,216.12,279.33,229"/><polyline class="cls-7" points="254.3 329.44 254.3 329.47 251.16 341.98 226.71 342.04 229.91 329.28 229.95 329.25"/><path class="cls-7" d="M250.15,249.15l14.58-57.76,16.94-4.46a5,5,0,0,1,1.95-.41,5.09,5.09,0,0,1,4.93,6.19l-14.11,56.38"/><line class="cls-7" x1="291.6" y1="233.81" x2="286.95" y2="252.82"/><line class="cls-7" x1="266.81" y1="335.12" x2="262" y2="354.76"/><polyline class="cls-7" points="251.16 341.98 262 354.76 237.9 354.76 226.71 342.04 251.16 341.98"/><ellipse cx="304.64" cy="114.24" rx="6.34" ry="3.51" transform="translate(133.13 390.73) rotate(-78.74)"/><path class="cls-5" d="M388.69,872.81A64.31,64.31,0,1,0,453,808.49,64.29,64.29,0,0,0,388.69,872.81Z"/><rect class="cls-5" x="267.46" y="914.01" width="120.74" height="23.1" rx="11.55" transform="translate(655.65 1851.11) rotate(-180)"/><path class="cls-5" d="M262.78,524.74c17.2-3.08,33.94-8,50.54-13.3,15.58-5,31.08-10.32,46.76-14.9,18.62-5.39,37.38-10.42,56.36-14.54,9.65-2.09,19.37-3.94,29.12-5.39,1.49-.21,3-.43,4.47-.6,3.51-.47,7.06-.89,10.61-1.28s7.3-.71,11-1.14a4.12,4.12,0,0,1,1.31,0h0a1.36,1.36,0,0,1,1.13.74,2.73,2.73,0,0,1,.14.78c.68,14.34,10,26.71,22.07,33.92,16.7,10,40.22,9.75,57.32.63,12.27-6.56,18.48-19.15,17.91-32.81,71.3,8.84,152.46,36.36,202,90.06l.21.22a174.76,174.76,0,0,1,32.6,50.12c23,54.48,12.13,122.09-36.47,159-24.79,18.84-54.69,31-85.24,39.87-21.53,6.32-49.83,9.37-68,23.24"/><path class="cls-5" d="M554,869.9c-.28-.06-.59-.16-.88-.25"/><path class="cls-5" d="M651.71,611.61c17.82,10.78,29.08,36.15,34.43,55.41,7.54,27.13-7.13,50.6-26.83,68.07-9.67,8.59-20.38,15.74-30.88,23.23C609.3,772,589.77,784.69,568,793.76c-3.21,1.34-6.63.85-10,.2-4.26-.8-8.4-2.17-12.71-2.68-4.8-.56-8.89,1.12-13,3.54a79.14,79.14,0,0,0-16.76,13.35L453,808.5a64.31,64.31,0,0,1,0,128.62H574.76a64.3,64.3,0,0,0,50.69-103.86"/><path class="cls-2" d="M470.24,873.92a17.57,17.57,0,0,1-17.58,17.59h0a17.59,17.59,0,0,1,0-35.17h0a17.57,17.57,0,0,1,17.58,17.58Z"/><path class="cls-5" d="M601.57,844.89a28.67,28.67,0,0,1,1.35,9.77,37.08,37.08,0,0,1-1.54,10c-.32,1.1-.66,2.17-1,3.21-.16.41-.31.78-.47,1.16a32.94,32.94,0,0,0-2.23,6.47c-.41,2.46.09,4.78,3,5.88a11,11,0,0,0,9.24-1.29c12.64-9.08,11-26.61,6.79-40.72-.94-3.15-2-6.13-3.11-8.8"/><path class="cls-5" d="M598,873.86c-1.7,4.4-5,10-9,12.54,0,0-.06,0-.09.06a14,14,0,0,1-11.88,1c-5.31-2.38-3.81-7.66-1.83-12.09.63-1.36,1.26-2.61,1.8-3.68,4.39-9.18,5.29-18.49,4.25-29.11"/><path class="cls-5" d="M575.24,875.34c-1.06,2.63-5.45,9.19-9.76,11.55-3.22,1.77-7.87,1.67-10.77-.68-5.61-4.52-2.47-12.74.09-18.05,4.42-9.18,6.6-20.59,3.92-30.61"/><path class="cls-5" d="M515.61,808.17c8.16,0,13.46.27,16,.47a9.54,9.54,0,0,1,3.33.83c18.27,8.81,4.08,41.64.2,49.68-2,4.21-4.69,13.55,1.51,16.34a12.8,12.8,0,0,0,10.74-.88,25.51,25.51,0,0,0,8.52-8.89s0-.06.06-.13"/><path class="cls-5" d="M709.31,806.33c1.23,42.17.26,87.14-4.63,131.17"/><line class="cls-5" x1="203.88" y1="937.1" x2="839.69" y2="937.1"/><path class="cls-5" d="M528.73,413.35s10.27,1,17.37-10.85"/><path class="cls-8" d="M477.59,255.75c0,.19,79.28,1.89,79.28,1.89l-3.81,37.09s-3.6,4.82-19.19,9.63-45.42,7.86-50.9-12.07A149.88,149.88,0,0,1,477.59,255.75Z"/><path class="cls-5" d="M551.42,234.55c24.33-7.67,43.2-33.55,29.72-58.45-12.07-22.3-40.57-27.74-56.92-6.58,0,0-17.73-33.11-47.29-20.11-12.48,5.5-22.3,18.63-25.87,31.6-6.9,25.06,9.73,44.5,33,50.84,0,0,22.67,6.24,33.8-9.13,0,0,5.22,6.43,19.41,9.13"/><path class="cls-5" d="M473.49,227.81l9.54,64.9a11,11,0,0,0,4.7,7.58c7.74,5.15,26.77,13.2,59-.5a11.24,11.24,0,0,0,6.76-9.19l6.1-59.42"/><path class="cls-3" d="M597,878.29c-.18-3.65,2.83-9.22,2.83-9.22A32.56,32.56,0,0,1,597,878.29Z"/><path class="cls-3" d="M678.26,645.35l3.37,2.27-2.31-.22C678.65,646.06,678.26,645.35,678.26,645.35Z"/><path d="M536.65,875.49c-3.9-1.14-4.54-4.9-3.47-10.22C532.68,869.67,533.53,873.15,536.65,875.49Z"/><path d="M535.06,809.55a17.75,17.75,0,0,1,3.76,2.69C537.47,811.18,536.12,810.33,535.06,809.55Z"/><path d="M543.22,835.26a38.19,38.19,0,0,0,1.63-8A27,27,0,0,1,543.22,835.26Z"/><path d="M550.52,874.1a22.52,22.52,0,0,1-4.5,1.6C548,874.64,549.56,873.46,550.52,874.1Z"/><path d="M551.62,878.29c.11,3.83,1.28,6.42,3.09,7.91-3.94-1.88-4-5.61-3.16-8.8A6.3,6.3,0,0,1,551.62,878.29Z"/><path d="M568.54,884.6a7.69,7.69,0,0,1,3.34-1.66,29.84,29.84,0,0,1-5.15,2.87A17.83,17.83,0,0,0,568.54,884.6Z"/><path d="M579.43,888.11c-3.58.29-4.29-1.8-4.5-3.68C576.13,886,577.09,888.11,579.43,888.11Z"/><path d="M595.39,880.91a14.24,14.24,0,0,1-1.91,2.27A4.58,4.58,0,0,1,595.39,880.91Z"/><path d="M598.34,880.91c.64.15,1.38.32,2.27.5A3.33,3.33,0,0,1,598.34,880.91Z"/><path d="M625.76,834.87c-2.91,1.39-5.29,2.56-6.85,3.34a2.43,2.43,0,0,1,.82-1C621.36,836.22,623.38,834.45,625.76,834.87Z"/><path class="cls-2" d="M573.4,878.68a3.7,3.7,0,0,1-.35,1.35C573,878.25,573.44,877.26,573.4,878.68Z"/><line class="cls-9" x1="281.93" y1="148.67" x2="279.02" y2="159.92"/><path class="cls-1" d="M116,353.39,59,358a8.36,8.36,0,0,1-9-7.67h0a8.37,8.37,0,0,1,7.66-9l60.66-4.93"/><line class="cls-1" x1="124.87" y1="335.87" x2="124.84" y2="335.87"/><circle class="cls-1" cx="360.27" cy="323.9" r="14.87"/><path class="cls-1" d="M861.09,935.06V647.63h72.75a293.91,293.91,0,0,1,12.2,53.6C957.21,788.06,949.37,917.36,861.09,935.06Z"/><line class="cls-1" x1="861.09" y1="739.39" x2="949.74" y2="739.39"/><line class="cls-1" x1="861.09" y1="823.92" x2="945.1" y2="823.92"/></svg>