<svg id="Layer_2" data-name="Layer 2" xmlns="http://www.w3.org/2000/svg" viewBox="0 0 1000 1000"><defs><style>.cls-1,.cls-5,.cls-6,.cls-8,.cls-9{fill:none;}.cls-1{stroke:#ccdde2;}.cls-1,.cls-6,.cls-8,.cls-9{stroke-miterlimit:10;}.cls-1,.cls-6{stroke-width:4.08px;}.cls-2{fill:#d7e8f0;}.cls-3{fill:#3fbdf1;}.cls-4{fill:#2e2e2e;}.cls-6{stroke:#000;}.cls-7{fill:#fff;}.cls-8{stroke:#3fbdf1;}.cls-8,.cls-9{stroke-width:2.72px;}.cls-9{stroke:#fff;}</style></defs><path class="cls-1" d="M328.42,789.56c6,5.84,12.12,11.46,18.5,16.84,71.64,60.36,163.82,95.84,257.43,99.32,1.74.06,3.45.14,5.19.19"/><path class="cls-1" d="M726.47,897a.44.44,0,0,1-.19,0c-4.16,1-8.34,2-12.55,2.74"/><path class="cls-1" d="M737.5,894s.08,0,.11,0l.16,0,1.68-.52h0a1.07,1.07,0,0,0,.33-.11,219.27,219.27,0,0,0,56-25.64c14.75-9.54,28.83-21.22,36.87-36.84,13.72-26.71,7.12-59.77-7-86.28a225.73,225.73,0,0,0-16.3-25.68l0,0"/><path class="cls-1" d="M751.63,614.6c0-.13,0-.3-.06-.46a86.91,86.91,0,0,1,.71-23.07c6.22-38.08,37.32-62.64,58.22-92.66a359.49,359.49,0,0,0,48-98.32c22-70.71,22.55-148.85-4-218.42C828.34,113,765.62,55.21,692.27,50.35c-41.62-2.75-82.86,11.16-119.51,31.13C548,95,524.59,111,501.8,127.53c-20.19,14.56-40.07,31.62-65.26,36.29-34.42,6.39-62.89-13.12-94.62-21.54-26.32-7-53.76-10.41-81-7.91-104.78,9.67-147.89,103.4-132.79,199a390.78,390.78,0,0,0,38.17,117.25c16.11,31.4,38.36,59.79,44.47,95.44,3.78,22-.62,47.67-5.05,69.41"/><path class="cls-1" d="M671.27,905.18c-11.2.79-22.5,1.14-33.8,1.17"/><path class="cls-2" d="M343.8,462.14a11.7,11.7,0,0,0,2.82,2.1c-1-.25-2-.52-3-.85C343.71,462.69,343.77,462.25,343.8,462.14Z"/><path class="cls-2" d="M438.36,392.92c1.62,3.11-.24,7-.73,10.33-8.83-13.53-21.57-24.1-35.86-31.73-14-7.48-30-10.63-45.61-7.72C333.53,368,329.23,381.32,329,390a78,78,0,0,0-6.82,26.11c-.22,2.34-.52,4.67-.92,7a160.4,160.4,0,0,1-6.5,23.77c-14.5-13.45-32.15-34.44-23.61-54,15.86-36.32,48.49-93.86,93.74-72.49C409.87,332.22,420.68,358.86,438.36,392.92Z"/><path class="cls-2" d="M755.05,403.44c-2.8,2.66-19,14.23-15.43,19.09a10.91,10.91,0,0,1-.9-1.38c-4.05-6.71-3.18-15.62-2.55-23.91.08-.81.13-1.63.19-2.42,10.76-14.69,10-38.84-43.09-43.92-25-2.38-49.09,5-55.84,31.84-2.55,10.16-2,20.9.16,31.14.94,4.39,2.19,8.79,2,13.27s-2.12,9.21-6.07,11.35l9.46,5.6a3.44,3.44,0,0,1-1,2.91c-3.69-4.28-7.79-8.81-13.33-9.94a7.84,7.84,0,0,1-2.31-.64c-1.61-.88-2.08-2.93-2.43-4.72-1.69-8.44-6.87-16.4-8.2-24.62-4.16-25.67,8.56-55.57,28.21-72.22,11.57-9.81,30.06-17.53,45.16-18.86,18.26-1.57,33.8,9,45.42,22.09a157.56,157.56,0,0,1,15.22,20.76c5.24,8.39,11.27,17.33,12.09,27.46C762.28,392.3,760.56,398.17,755.05,403.44Z"/><path class="cls-3" d="M624.13,435.47c-14.53-3.05-32.19.76-53.44,15.83-37,26.25-56.8,67.13-65.63,109.89a268,268,0,0,0-4.21,27.69c2-36.6-5.11-72.43-29-99a102.73,102.73,0,0,0-11.66-11.11c-51.7-42.08-105.24,21.57-126.24,51.53a57.4,57.4,0,0,1-5.65,6.77c-2.37,2.52-4.38,4.4-5.11,5.62-1.09-14.32,1.68-31.35,12.74-40.59a32.7,32.7,0,0,1,2.8-2.06c.71-.44,1.41-.87,2.17-1.28C349.42,494.2,358,485,365.1,474.26c12.28-18.53,20.18-41.4,16-52-1.77-4.6-5.79-6.9-12.69-5.55-13.06,2.58-23.14-3.07-29.69-8.8a40.39,40.39,0,0,1-3.42-4.59v0a26.75,26.75,0,0,1-.87-7.93c.24-8.72,4.54-22.06,27.25-26.24,15.18-2.83,30.86,0,44.55,7.22a106.18,106.18,0,0,1,24.15,17.06,82.84,82.84,0,0,1,12.42,18.42c4.72,9.68,8.83,19.32,16.57,25.81a.07.07,0,0,1,.05,0,32.51,32.51,0,0,0,16.09,11.27c11.41,3.64,24.26,2.31,35.15-2.39.76-.32,1.49-.68,2.23-1.06,8.77-4.48,14.75-11.95,22.44-18.12A94.69,94.69,0,0,1,560.7,413c17.93-6.9,47.24-11.71,64,1.9l.09.09C628.89,420.47,627.85,429.63,624.13,435.47Z"/><path class="cls-3" d="M812.93,695.37v0c-1.22,50-66.77,184.41-75,201.12,0-.6-.05-1.2-.1-1.8-.6-7.28-3.34-14.37-7.28-21-15.41-25.83-49.34-45.15-49.34-45.15A1083.87,1083.87,0,0,1,705.9,721.73c-18.69,12.76-36,22-51.89,28.36-81.91,32.95-127.09-9-135.64-28.34l-.25-.59a148.2,148.2,0,0,1-6.71-19.32c44.36-52.81,115.79-74.76,118-75.42l.25-.08a.12.12,0,0,0,.08,0C812.47,587.44,814.21,642,812.93,695.37Z"/><path class="cls-4" d="M464.72,711.81v0c-17.91,28.37-51.1,44.4-84.74,38.69-14.75-2.5-29.15-8.58-42.54-16,49.88-52.68.92-132.93.92-132.93l-44.28-7.25s46,4.15,70.69,14.67C364.77,609,455.07,637.15,464.72,711.81Z"/><path class="cls-3" d="M706.16,722.48a1073.64,1073.64,0,0,0-25.83,113.75c-8,11.93-19.89,29.5-27.41,40.7a8.2,8.2,0,0,0,.05-8.32,59.49,59.49,0,0,0-5.6-8.34c-17.44-22-46.07-28.44-46.07-28.44,14.29-24.56,35.34-56.78,51.94-80.58C669.43,744.84,687.06,735.52,706.16,722.48Z"/><path class="cls-2" d="M508.75,357.61a236.36,236.36,0,0,1,.74,28.82c-.19,3.91-.49,7.82-1,11.76-1.74,13.67-6.38,28.91-.43,42h0c-5.95-13.07-1.3-28.31.44-42,.51-3.94.81-7.85,1-11.76a238.39,238.39,0,0,0-.73-28.82c-1.23-15.95-3.26-31.87-3.43-48.12-.08-8.07,1.39-15.78,5-22.19v0s0,0,0,0c-3.58,6.41-5.05,14.12-5,22.19C505.49,325.74,507.53,341.66,508.75,357.61Z"/><polyline class="cls-5" points="310.65 460.65 319.89 435.98 335.08 395.34"/><path class="cls-3" d="M714.62,405.53c-16.62-7.93-35-16.63-40.83-2.39-2.06,5-4.43,5.54-6.82,4.43a18.11,18.11,0,0,1-3.94-2.78c-3-2.55-5.89-5.1-8-1.52-3.23,5.44,1,13.51,2,19.05,1.68,9.32-6.06,11.84-12.45,8.94a2.23,2.23,0,0,1-.21-.22,38.51,38.51,0,0,0-1.17-4.54c-5.41-23.72-11.09-78.81,54.3-72.59,17.15,1.63,28.86,5.27,36.46,9.94C755.65,382.16,727.09,411.45,714.62,405.53Z"/><path class="cls-2" d="M469.63,702.92a79.82,79.82,0,0,1-4.91,8.89c-7.45-57.73-63.14-87.64-88-98.24,4.62-2,5.27-13.31-1.08-22.33-7.91-11.19-1.09-10.38-1.09-10.38L402.5,563c-8.44-55.64-36-62.19-44.2-62.87,26.3-27.22,64.39-51.56,101.53-21.32C525.76,532.53,499.3,640.79,469.63,702.92Z"/><path class="cls-4" d="M509.44,688.88a92.31,92.31,0,0,0,2.8,11.27c56.16-51.85,115.23-76.4,145.81-80.76-4.52-3.52-1.65-21.46-9.33-27.54a33,33,0,0,0-3.28-2.35l-30.89-28.31c25.76-59,47.7-60.88,63.06-63-19.56-47.21-43.8-77.81-93.75-55.37C495.15,482.73,495,611.49,509.44,688.88Z"/><path class="cls-6" d="M730.5,874.49c-10.25,15.43-17.2,24.85-17.2,24.85l40.64,39.3a6.7,6.7,0,0,1,2,4.76,6.6,6.6,0,0,1-9.37,6l-75.92-35c4.26-70.57,22.31-147.11,35.18-191.86"/><path class="cls-6" d="M647,860.27c-5.62,3.81-10.43,7-14.15,9.38-5.57,3.61-8.75,5.57-8.75,5.57l22.28,51.94a6.81,6.81,0,0,1,0,5.19,6.6,6.6,0,0,1-11,1.87L579,872.58c6.73-13.66,14.15-27.33,22-40.75,17-29.2,35.75-57.16,53-81"/><path class="cls-6" d="M728.13,706q-11.49,9.16-22.31,16.51c-18.69,12.77-36,22-51.89,28.37-81.9,32.95-127.08-9-135.64-28.34l-.25-.6c-22.35-51.21-37.32-206.17,52.3-270.61,26-18.71,46.65-20.23,62.81-12.95.06,0,.11,0,.14,0a54,54,0,0,1,9.8,5.84v0c23,17.3,35,52.84,39.86,71.28,1.87,7.12,2.69,11.69,2.69,11.69"/><path class="cls-6" d="M640.11,428c.86,4.24-3.67,7.66-6.82,10.38"/><path class="cls-6" d="M720.82,406a9.84,9.84,0,0,1-6.2-.51c-16.59-7.93-35-16.63-40.83-2.39s-14-7.8-18.77.13c-3.26,5.44,1,13.51,2,19.05,1.58,8.72-5.1,11.49-11.19,9.45a13.37,13.37,0,0,1-5.7-3.75,38.65,38.65,0,0,0-1.17-4.53c-5.38-23.72-11.09-78.82,54.33-72.59,53.11,5.08,53.85,29.23,43.09,43.92-.22.3-.44.6-.68.9-4.19,5.35-9.86,9.29-14.86,10.32"/><path class="cls-6" d="M720.81,406a21.23,21.23,0,0,1-4.3,15.74,15.81,15.81,0,0,0-3.27,9.89v13.67a3,3,0,0,1-3,3h-6.94s-10.25,31.63-29.51,13.22c0,0-7.63-8.84-8.62-16.43"/><polyline class="cls-6" points="667.68 475.19 673.09 460.67 673.09 460.65"/><path class="cls-6" d="M692.16,465.05s0,18.89-9.21,50.49"/><line class="cls-6" x1="737.91" y1="429.42" x2="737.91" y2="429.4"/><path class="cls-6" d="M744.67,509.76V510c.2,42.81-5.17,94.89-32.09,100.24-58.26,11.61-125.36-72.71-133.78-106.44"/><path class="cls-6" d="M735.68,395.72s5.24,13.85,2.22,33.67,7.66,66.2,6.77,86.15"/><path class="cls-6" d="M651.67,593.86s1.13,15.7,6.38,25.53"/><path class="cls-6" d="M738.12,460.65h.9c14.07.08,28.44,1.71,40.21-7.72a35.93,35.93,0,0,0,12.9-34.28,293.62,293.62,0,0,1-4.86-53.11,283.55,283.55,0,0,1,1.25-30c1.22-10.95,4.37-21.68,4.4-32.77,0-20-15.4-28.22-32.19-31.81"/><path class="cls-6" d="M544.89,268.79a75.78,75.78,0,0,0-20,5,30.58,30.58,0,0,0-15.19,13.5c-3.58,6.42-5.05,14.13-5,22.2.14,16.25,2.2,32.17,3.4,48.11a238.77,238.77,0,0,1,.73,28.83c-.19,3.91-.49,7.82-1,11.76-1.76,13.66-6.38,28.91-.46,42"/><path class="cls-6" d="M378.22,265c28.2.25,56.4,1.5,84.57,3.51,16.84,1.22,38.19,4.56,46.94,18.82"/><path class="cls-6" d="M226.63,330c1.82,22.71,5.08,45.1,2.14,68.16-1.82,14.34-6.84,30.4.49,43.87a35.79,35.79,0,0,0,31.27,18.59h49.53"/><path class="cls-6" d="M263.63,684.54c1.86,44.49,4.26,130.52,10.76,203.13l-78.3,15.4a6.3,6.3,0,0,1-7.35-7.65,6.37,6.37,0,0,1,2.93-4l46.56-19.38s-125.55-291.64,29.4-280.52c71.11,5.1,117.38,20.33,145.72,42.34"/><path class="cls-6" d="M292.88,704.28c20.43,47.45,51.88,121.88,58.66,152.28L290.66,897.4a5.79,5.79,0,0,1-9-3.86,5.94,5.94,0,0,1,1.09-4.4l31.71-31.73s-33.37-52.34-47.74-87.87"/><path class="cls-6" d="M623.75,434.3c4.43-5.71,5.11-13.45.65-19.34-15-20.08-49.17-15-69.16-7.29a94.45,94.45,0,0,0-25.32,14.38c-7.69,6.16-13.67,13.63-22.47,18.12-.73.38-1.47.73-2.23,1.06-10.86,4.7-23.74,6-35.12,2.39-10.33-3.29-16.17-10.22-20.84-18.42-2.42-4.24-4.51-8.8-6.74-13.4a69.79,69.79,0,0,0-4.89-8.55c-8.83-13.53-21.57-24.1-35.86-31.73-14-7.48-30-10.63-45.61-7.72C333.53,368,329.24,381.32,329,390a30.68,30.68,0,0,0,.57,6.69,5.58,5.58,0,0,1-.14,2.6,20.91,20.91,0,0,0-.81,4.08,19.82,19.82,0,0,0,1.65,10.78,16.5,16.5,0,0,1,.85,10.74c-.76,3.09-5.87,15.45-1,16.65l.35,0a5,5,0,0,1,5.22,3.91c1.33,5.79,3.5,12,7.69,16.33a1.8,1.8,0,0,0,.38.35,11.7,11.7,0,0,0,2.82,2.1,14.13,14.13,0,0,0,8.48,1.6,13.75,13.75,0,0,0,1.41-.22c4.62-1,7.82-4.18,11.28-7.17"/><polyline class="cls-6" points="364.77 474.26 363.36 462.37 363.36 462.35"/><path class="cls-6" d="M343.8,462.12v0c0,.11-.08.55-.17,1.25-.62,4.32-2.74,19.18-5.27,36.68"/><line class="cls-6" x1="319.63" y1="416.7" x2="319.63" y2="416.68"/><path class="cls-6" d="M442.82,521.31c-8.78,16.74-38.93,45.05-72.75,61.92-19.13,9.48-39.42,15.32-57.68,13.34-1.68-.17-3.34-.41-5-.74-.22,0-.41-.08-.6-.11a53.7,53.7,0,0,1-12.06-3.94c-11.65-5.43-12.39-19.58-11.33-30.75,3.21-34.61,15.22-67.7,26.63-100.38,1.22-3.53,2.47-7.06,3.66-10.6.36-1,.71-2.06,1.06-3.12a160.4,160.4,0,0,0,6.5-23.77v0c.4-2.31.7-4.64.92-7A78,78,0,0,1,329,390"/><path class="cls-6" d="M370,583.2s15.18,15.37,6.13,32.31"/><path class="cls-6" d="M238.32,686.2c1,0,10.57-12.22,39.3,6.93,20,13.34,59.91,50.17,102.37,57.38,37,6.28,73.48-13.74,89.65-47.58,29.67-62.12,56.11-170.39-9.82-224.12-51.7-42.1-105.24,21.56-126.26,51.52-3.46,4.95-6.65,10.07-9.7,15.28-.05-9.88-1.41-18.59,1.8-28.25,3.47-10.47,11-15.82,19.69-21.65,6.32-4.23,11.55-10.55,16-16.61,9.24-12.5,17.24-27.59,19.89-43,1.72-10-.28-21.89-13.14-19.37-24.24,4.78-38.25-18.7-38.25-18.7"/><path class="cls-6" d="M737.91,897.57a1,1,0,0,0,0-.29c-.27-7.94-3.13-15.63-7.39-22.8-15.4-25.83-49.34-45.15-49.34-45.15"/><path class="cls-6" d="M585.52,646.92c37.57-21.87,91.71-38.77,165.21-32.4,22,1.91,45.07,9.73,56.14,30.3,11.72,21.79,7.6,49.89,2.84,72.95-6.27,30.44-18.36,59.28-30.23,87.87-10,24.15-20.77,48-32,71.63q-4.75,10-9.64,20c-.16.38-.33.7-.46,1"/><path class="cls-6" d="M721.35,888A19,19,0,0,0,729,899.26c6.29,4.07,8.93-.07,8.76-3.77"/><path class="cls-6" d="M600.94,831.84s35.71,8.06,51.68,36.77c4.25,7.64-4.55,16-11.72,11-2.76-1.92-5.53-5-8-9.92"/><path class="cls-6" d="M651.93,877.87c.89-1.42,28-41.62,28-41.62"/><path d="M646.52,859.65s13.67,13.29,2.07,20.79-17.23-12.21-11.3-13.67S646.52,859.65,646.52,859.65Z"/><path d="M729.2,875.85s13.75,11.51,6.69,21.47-16.22-9.74-12-12.34S729.2,875.85,729.2,875.85Z"/><path class="cls-3" d="M720,297.09a113,113,0,0,1-60.8,5.14,71.74,71.74,0,0,1-21,12.19c-.33.11-.63.25-1,.33a42,42,0,1,1-79.52-22.11,71.65,71.65,0,0,1,9.51-100.33A113.26,113.26,0,1,1,720,297.09Z"/><path class="cls-3" d="M710.6,298.68a104.35,104.35,0,0,1-56.16,4.74A66.48,66.48,0,0,1,635,314.69c-.3.1-.57.22-.88.3a38.83,38.83,0,1,1-73.44-20.43,66.16,66.16,0,0,1,8.78-92.66A104.62,104.62,0,1,1,710.6,298.68Z"/><path class="cls-3" d="M304.65,196.6a79.87,79.87,0,0,1,20.76,37.85,50.91,50.91,0,0,1,13.92,10.11c.16.18.34.33.48.52a29.75,29.75,0,1,1,8.5,57.78,50.68,50.68,0,0,1-67.62,22.62,80.15,80.15,0,1,1,24-128.88Z"/><path class="cls-6" d="M720,297.09a113,113,0,0,1-60.8,5.14,71.74,71.74,0,0,1-21,12.19c-.33.11-.63.25-1,.33a42,42,0,1,1-79.52-22.11,71.65,71.65,0,0,1,9.51-100.33A113.26,113.26,0,1,1,720,297.09Z"/><path class="cls-6" d="M304.65,196.6a79.87,79.87,0,0,1,20.76,37.85,50.91,50.91,0,0,1,13.92,10.11c.16.18.34.33.48.52a29.75,29.75,0,1,1,8.5,57.78,50.68,50.68,0,0,1-67.62,22.62,80.15,80.15,0,1,1,24-128.88Z"/><path class="cls-3" d="M306.11,208.07a71.56,71.56,0,0,1,18.56,33.87,45.5,45.5,0,0,1,12.45,9,6.29,6.29,0,0,1,.43.47,26.61,26.61,0,1,1,7.6,51.68,45.31,45.31,0,0,1-60.48,20.23,71.69,71.69,0,1,1,21.44-115.28Z"/><ellipse class="cls-2" cx="630.86" cy="117.1" rx="19.2" ry="6.32" transform="translate(4.59 256.67) rotate(-23.08)"/><ellipse class="cls-2" cx="278.05" cy="201.36" rx="5.02" ry="15.25" transform="translate(-43.2 322.43) rotate(-56.56)"/><path class="cls-7" d="M711.35,126.91V228.83a5.79,5.79,0,0,1-5,5.73,5.1,5.1,0,0,1-.21-1.53V214a7.49,7.49,0,0,0-7.49-7.49H660a7.49,7.49,0,0,1,7.49,7.49v20.6h-11a5.82,5.82,0,0,1-5.82-5.79V126.91a5.83,5.83,0,0,1,5.82-5.82h49.07A5.83,5.83,0,0,1,711.35,126.91Z"/><rect class="cls-2" x="660" y="144.69" width="41.97" height="17.99" rx="5.26"/><path class="cls-2" d="M732.69,245.68v23.23a2.82,2.82,0,0,1-2.82,2.82H695.79a2.82,2.82,0,0,1-2.82-2.82V246.43a6.63,6.63,0,0,0-1.92-4.65,6.55,6.55,0,0,0-11.18,4.65,4,4,0,0,1-4,3.92h-2.25a6.18,6.18,0,0,1-6.18-6.17V214a7.49,7.49,0,0,0-7.49-7.49h38.61A7.49,7.49,0,0,1,706.1,214v19a5.1,5.1,0,0,0,.21,1.53,6.09,6.09,0,0,0,5.88,4.55h13.94A6.57,6.57,0,0,1,732.69,245.68Z"/><path class="cls-3" d="M732.69,245.68v23.23a2.82,2.82,0,0,1-2.82,2.82H695.79a2.82,2.82,0,0,1-2.82-2.82V246.43a6.63,6.63,0,0,0-1.92-4.65,6.55,6.55,0,0,0-11.18,4.65,4,4,0,0,1-4,3.92h-2.25a6.18,6.18,0,0,1-6.18-6.17V214a7.49,7.49,0,0,0-7.49-7.49h38.61A7.49,7.49,0,0,1,706.1,214v19a5.1,5.1,0,0,0,.21,1.53,6.09,6.09,0,0,0,5.88,4.55h13.94A6.57,6.57,0,0,1,732.69,245.68Z"/><rect class="cls-7" x="711.34" y="162.66" width="35.79" height="47.96"/><path class="cls-2" d="M650.63,143.38v43.26H611a2.91,2.91,0,0,1-2.91-2.88V146.29a2.91,2.91,0,0,1,2.91-2.91Z"/><rect class="cls-2" x="608.1" y="153.68" width="42.53" height="8.99"/><path class="cls-2" d="M739.07,196V177.81h0c-4.14,0-7.5-2.91-7.5-6.5v-.49H711.34v31.67h19.3v0c0-3.64,3.45-6.57,7.66-6.49Z"/><circle class="cls-2" cx="625.53" cy="175.41" r="5.25"/><path class="cls-7" d="M650.63,193.63v28.59a14.62,14.62,0,0,1-4.76.78,15.08,15.08,0,1,1,0-30.15A14.62,14.62,0,0,1,650.63,193.63Z"/><path class="cls-3" d="M693,246.43v3.92H675.92a4,4,0,0,0,4-3.92,6.55,6.55,0,0,1,11.18-4.65A6.63,6.63,0,0,1,693,246.43Z"/><rect class="cls-3" x="660" y="144.69" width="41.97" height="17.99" rx="5.26"/><path class="cls-7" d="M650.63,143.38v43.26H611a2.91,2.91,0,0,1-2.91-2.88V146.29a2.91,2.91,0,0,1,2.91-2.91Z"/><rect class="cls-3" x="608.1" y="153.68" width="42.53" height="8.99"/><path class="cls-3" d="M739.07,196V177.81h0c-4.14,0-7.5-2.91-7.5-6.5v-.49H711.34v31.67h19.3v0c0-3.64,3.45-6.57,7.66-6.49Z"/><circle class="cls-3" cx="625.53" cy="175.41" r="5.25"/><path class="cls-8" d="M667.49,234.62h-11a5.82,5.82,0,0,1-5.82-5.79V126.91a5.83,5.83,0,0,1,5.82-5.82h49.07a5.83,5.83,0,0,1,5.82,5.82V228.83a5.79,5.79,0,0,1-5,5.73"/><path class="cls-7" d="M592.61,219.11a18.08,18.08,0,1,0,12.17,22.5A18.08,18.08,0,0,0,592.61,219.11Zm-9.08,30.48a2.67,2.67,0,0,1-1.78-3.29,2.65,2.65,0,1,1,1.78,3.29Zm9.13-18.49c0,.09-.08.18-.11.27a59.16,59.16,0,0,1-5.5,10.41,1.29,1.29,0,0,1-2.19-.65,66.43,66.43,0,0,1,.68-8.91c.27-2.16.06-5.85,1.8-7.51,1.55-1.48,4.47-.85,5.84.58C594.71,226.88,593.39,229.36,592.66,231.1Z"/><path class="cls-7" d="M584,276.11a29.6,29.6,0,1,0,40.71,9.73A29.59,29.59,0,0,0,584,276.11Zm27.24,44.35a4.33,4.33,0,0,1-4.53-7.38,4.33,4.33,0,0,1,4.53,7.38Zm-12.58-31.31.21.42a96.46,96.46,0,0,1,6.69,18.08c.4,1.51-2,3-3.18,2A108.51,108.51,0,0,1,592.23,299c-2.34-2.68-7.07-6.46-7.19-10.39-.12-3.51,3.84-6.37,7.08-6.49C595.72,282,597.32,286.35,598.63,289.15Z"/><path class="cls-7" d="M196.35,236.94,205.66,258a15.57,15.57,0,0,0,20,8.13l21.08-8.7a14.66,14.66,0,0,0,7.74-19.56l-9.32-21.07a15.54,15.54,0,0,0-20-8.13l-21.09,8.69A14.66,14.66,0,0,0,196.35,236.94Z"/><path class="cls-3" d="M201.86,240.85l6.75,15.26A13.51,13.51,0,0,0,226,263.17l18.31-7.55a12.74,12.74,0,0,0,6.72-17l-.45-1c-4.82-4.12-13.18-9.78-16.46-2.81-4.74,10-10.46,6.43-17.77,1.77C210.19,232.65,202.78,231.07,201.86,240.85Z"/><ellipse class="cls-3" cx="230.45" cy="220.89" rx="5.47" ry="5.61" transform="translate(-80.3 293.91) rotate(-57.01)"/><path class="cls-2" d="M299.84,300.37l-.07.07"/><path class="cls-7" d="M309.94,250.89a5.13,5.13,0,0,1-1.72,4.08l-13.49,12.09a5.18,5.18,0,0,1-7.34-.41l-18.14-20.24a5.2,5.2,0,0,1,.4-7.34L283.15,227a5.35,5.35,0,0,1,7.34.4l18.13,20.23A5.09,5.09,0,0,1,309.94,250.89Z"/><path class="cls-3" d="M304.89,250.27l-16.58-2a.89.89,0,0,1-.78-.86l-.48-17a.89.89,0,0,1,1.55-.62l17.07,19A.89.89,0,0,1,304.89,250.27Z"/><circle class="cls-7" cx="247.97" cy="293.96" r="17.29"/><path class="cls-3" d="M249.59,301.46a6.1,6.1,0,0,1-1.79.34,4.34,4.34,0,0,1-4.51-3.58,4.43,4.43,0,0,1,1.13-3.83A4.47,4.47,0,0,1,246,286a10.87,10.87,0,0,1,6,1.59,15.89,15.89,0,0,1,2.58,1.8c.4.35,2.75,2.27,2.62,2.78C256.32,295.5,253.29,300.15,249.59,301.46Z"/><path class="cls-7" d="M311.45,309.3a32.16,32.16,0,0,1-4.58,1.55c-15,3.71-17.93-10.33-17.93-10.33l13.09-.38a7.79,7.79,0,0,1-1-7.27c1.81-4.86,8.95-4.36,8.95-4.36l3.45-3.66.33,5.15,5.28-2.29-2,4c4.7,2.71,12.29,12.63,2,21.3s-17,3-17,3l4.84-5.13"/><line class="cls-2" x1="302.03" y1="300.14" x2="312.75" y2="299.97"/><circle class="cls-3" cx="307.39" cy="293.96" r="1.85"/><line class="cls-9" x1="675.92" y1="218.35" x2="696.34" y2="218.35"/><line class="cls-9" x1="675.92" y1="225.92" x2="696.34" y2="225.92"/><line class="cls-9" x1="675.92" y1="233.5" x2="696.34" y2="233.5"/><line class="cls-9" x1="703.08" y1="248.24" x2="723.51" y2="248.24"/><line class="cls-9" x1="703.08" y1="255.81" x2="723.51" y2="255.81"/><line class="cls-9" x1="703.08" y1="263.38" x2="723.51" y2="263.38"/></svg>