<svg id="Layer_2" data-name="Layer 2" xmlns="http://www.w3.org/2000/svg" viewBox="0 0 1000 1000"><defs><style>.cls-1{fill:#d7e8f0;}.cls-2{fill:#3fbdf1;}.cls-3,.cls-5{fill:none;stroke-miterlimit:10;stroke-width:5.15px;}.cls-3{stroke:#ccdde2;}.cls-4{fill:#2e2e2e;}.cls-5{stroke:#000;}.cls-6{fill:#fff;opacity:0.28;}</style></defs><circle class="cls-1" cx="328.44" cy="561.89" r="10.68"/><circle class="cls-1" cx="257.48" cy="447.23" r="5.34"/><circle class="cls-1" cx="470.05" cy="377.77" r="4.79"/><circle class="cls-1" cx="678.37" cy="214.01" r="4.79"/><path class="cls-2" d="M359.57,342.7c.08.08.12.2.2.28a12.12,12.12,0,0,0,3.2.44A12.28,12.28,0,0,1,359.57,342.7Zm3.4.72a2.28,2.28,0,0,0,.52,0h.68C363.77,343.46,363.37,343.46,363,343.42Zm66.91-5c-3.28,3.92-6,4.88-9.57,5,3.88-.08,6.73-.88,10.25-5,5.05-6,11-12.22,19.2-12.35C441.14,325.91,435.05,332.29,429.88,338.46Zm21.36-12.31a3.85,3.85,0,0,0-.68,0c4.69.37,6.45,2.45,6.41,5.37,0,3.33-2.41,7.7-5.41,11.94l.76-.16C457.93,335.37,461.14,326.92,451.24,326.15Zm0,0a3.85,3.85,0,0,0-.68,0c4.69.37,6.45,2.45,6.41,5.37,0,3.33-2.41,7.7-5.41,11.94l.76-.16C457.93,335.37,461.14,326.92,451.24,326.15Zm-21.36,12.31c-3.28,3.92-6,4.88-9.57,5,3.88-.08,6.73-.88,10.25-5,5.05-6,11-12.22,19.2-12.35C441.14,325.91,435.05,332.29,429.88,338.46Zm-66.91,5a2.28,2.28,0,0,0,.52,0h.68C363.77,343.46,363.37,343.46,363,343.42Zm-3.4-.72c.08.08.12.2.2.28a12.12,12.12,0,0,0,3.2.44A12.28,12.28,0,0,1,359.57,342.7Zm0,0c.08.08.12.2.2.28a12.12,12.12,0,0,0,3.2.44A12.28,12.28,0,0,1,359.57,342.7Zm3.4.72a2.28,2.28,0,0,0,.52,0h.68C363.77,343.46,363.37,343.46,363,343.42Zm66.91-5c-3.28,3.92-6,4.88-9.57,5,3.88-.08,6.73-.88,10.25-5,5.05-6,11-12.22,19.2-12.35C441.14,325.91,435.05,332.29,429.88,338.46Zm21.36-12.31a3.85,3.85,0,0,0-.68,0c4.69.37,6.45,2.45,6.41,5.37,0,3.33-2.41,7.7-5.41,11.94l.76-.16C457.93,335.37,461.14,326.92,451.24,326.15ZM643.4,545.28a26.14,26.14,0,0,0-1.93,2.16,2.78,2.78,0,0,1,2.69.36C643.88,547,643.64,546.12,643.4,545.28Zm0,0a26.14,26.14,0,0,0-1.93,2.16,2.78,2.78,0,0,1,2.69.36C643.88,547,643.64,546.12,643.4,545.28ZM451.24,326.15a3.85,3.85,0,0,0-.68,0c4.69.37,6.45,2.45,6.41,5.37,0,3.33-2.41,7.7-5.41,11.94l.76-.16C457.93,335.37,461.14,326.92,451.24,326.15Zm-21.36,12.31c-3.28,3.92-6,4.88-9.57,5,3.88-.08,6.73-.88,10.25-5,5.05-6,11-12.22,19.2-12.35C441.14,325.91,435.05,332.29,429.88,338.46Zm-66.91,5a2.28,2.28,0,0,0,.52,0h.68C363.77,343.46,363.37,343.46,363,343.42Zm-3.4-.72c.08.08.12.2.2.28a12.12,12.12,0,0,0,3.2.44A12.28,12.28,0,0,1,359.57,342.7Zm0,0c.08.08.12.2.2.28a12.12,12.12,0,0,0,3.2.44A12.28,12.28,0,0,1,359.57,342.7Zm3.4.72a2.28,2.28,0,0,0,.52,0h.68C363.77,343.46,363.37,343.46,363,343.42Zm66.91-5c-3.28,3.92-6,4.88-9.57,5,3.88-.08,6.73-.88,10.25-5,5.05-6,11-12.22,19.2-12.35C441.14,325.91,435.05,332.29,429.88,338.46Zm21.36-12.31a3.85,3.85,0,0,0-.68,0c4.69.37,6.45,2.45,6.41,5.37,0,3.33-2.41,7.7-5.41,11.94l.76-.16C457.93,335.37,461.14,326.92,451.24,326.15ZM643.4,545.28a26.14,26.14,0,0,0-1.93,2.16,2.78,2.78,0,0,1,2.69.36C643.88,547,643.64,546.12,643.4,545.28ZM858.55,682.71a264.1,264.1,0,0,0-2.48-30.29c-1.2-8.66-2.8-17.27-4.81-25.77-12.66-53.85-39.78-99.08-74.72-141.19-9.74-11.74-19.47-23.68-27.65-36.5a1,1,0,0,1-.16-.28s0,0,0-.08a150.18,150.18,0,0,1-14.1-27.53c-6.89-18.23-6.45-34.94-2.93-51.12a.68.68,0,0,0,0-.28c.12-.48.2-1,.36-1.45a41,41,0,0,1-3.28-8.37s-21-18.67-25-20.35-22-2.33-22-2.33l-46.76,43.19,6.45,12.91c2.69.76,5.37,1.6,8,2.52l54.09,28.65a235.53,235.53,0,0,1,33.21,37.06,0,0,0,0,0,0,0,4.85,4.85,0,0,1,.4.56,0,0,0,0,1,0,0,416.12,416.12,0,0,1,49.61,131v.08c4.6,30.57,5.61,58.94,6.81,81.53,0,0,0,0,0,.08a320.51,320.51,0,0,1-9.78,71.6v0a370.87,370.87,0,0,1-28.61,68.24,4.37,4.37,0,0,1-.32.6s-.08.12-.12.16v0a172.52,172.52,0,0,1-18.95,24.6c20.88,4.56,41.35,5.41,58-4.29C842.81,806.79,859.64,735.67,858.55,682.71ZM823.1,743.85a12.56,12.56,0,1,1,12.58-12.58A12.54,12.54,0,0,1,823.1,743.85ZM723.73,288.29a25.84,25.84,0,0,1,25.8-25.8,24.76,24.76,0,0,1,5.49.6c-3.92-35.82-22.27-69.11-47.72-94.52-59.58-59.54-158-74.88-220.24-10.65-1.32,1.4-2.61,2.8-3.89,4.2-1.68,1.89-3.32,3.77-4.93,5.69C455.33,195.3,440.62,227,408.53,246.1c-38.43,22.88-83.9,28.53-123.25,49.24a42.09,42.09,0,1,1-65.7,48.88c-33.86,34.22-57.62,77.65-60.79,126.69-5.48,84.71,52.41,157.75,111.11,212a579.93,579.93,0,0,0,59.62,48.24,45.14,45.14,0,0,0,5,3l68.87-69.39a84.72,84.72,0,0,1,97.4-11.94l45.68,26.56,2.24,1.28c-.84-21.47-5.69-47.92-11.34-72.44-.32-1.48-.64-3-1-4.52a610.51,610.51,0,0,0-16.27-60.26c-.08-.21-.12-.45-.2-.65-.36-1.12-.72-2.2-1-3.28-.24-.8-.44-1.48-.68-2.12-.08-.37-.2-.69-.28-1s-.24-.76-.32-1-.24-.76-.32-1.08a5.8,5.8,0,0,0-1-3.53,0,0,0,0,1,0,0c-1.29-1.88-3.93-2.6-7.25-2.6-11.94.08-32.78,9.94-35.34,11.18l-.28.12-70,22.16a52.15,52.15,0,0,1-23.36,2,41,41,0,1,1-38.9-27.13,52.34,52.34,0,0,1-6-20C330.92,472.64,332,404.32,356,341a14.8,14.8,0,0,1-6.61-12.34V302.12a14.76,14.76,0,0,1,14.74-14.75h8.06a12,12,0,0,1,.44-1.28,9.17,9.17,0,0,1,4.81-5.29,7,7,0,0,1,6.13.32,7.23,7.23,0,0,1,3.4,4.41v.08c0,.2.08.36.12.56a10.11,10.11,0,0,1,6.25-5.69,13,13,0,0,1,8.54.28,8.19,8.19,0,0,1,3.16,2,4.49,4.49,0,0,1,1.12,2.65v.68l0,0a10.22,10.22,0,0,1,5.53-6.13A10.47,10.47,0,0,1,420,280c2,.92,3.2,3.08,4.16,5a.15.15,0,0,1,0,.12l.36.72c0-1.48,2.65-3.77,3.77-4.37,6.21-3.08,13.54,1.44,17.27,6.61l.08.08a2,2,0,0,0,.48,0c.64.08,1.28.12,1.92.24a73.4,73.4,0,0,1,8.34,1.32l29.17,7,9.17,2.2,49.48,11.86v5.33c3-6.45,10.7-9.58,10.7-13.06,0-4.05-3.4-10.14,16.43-14.27s-10.3-4.32,14.82-36.14c0,0,35.26-21.35,79.61,9.82s29.33,40.83,33.5,48S695,316.14,713,321.43c9.46,2.76,22.56,4.24,31,9.57,2-5.57,3.93-11.18,5.61-16.91h-.08A25.81,25.81,0,0,1,723.73,288.29ZM265.45,476.48a20.13,20.13,0,1,1,20.15-20.15A20.14,20.14,0,0,1,265.45,476.48ZM673.53,224.19a15,15,0,1,1,15-14.95A15,15,0,0,1,673.53,224.19Zm-108.1,159c-6.21-13.3-2.24-12.3-22.32-20.63-15.78-6.58-7.33-23.6-2.52-34.94l-63.07,11.34,0-.16L465.7,340.9l-1.76.32-11.62,2.08a.3.3,0,0,1-.08.16c-4.29,6.05-10,11.78-12.18,13.39a84.31,84.31,0,0,1-25,12.34,20.85,20.85,0,0,0-14.59,18.11,225.33,225.33,0,0,0,7.34,80.25c13-12.66,29.77-24.12,47.52-34.06l0,0c.08,0,.16-.12.24-.12,4.8-2.08,79.25-35,97.44-41.67.28-.12.56-.2.8-.28a6.18,6.18,0,0,0,.92-.28c4.53-1.44,7.85-2.44,9.62-3,.36.88-.4,3.52-1.25,9.09C566.07,392.75,567.59,387.82,565.43,383.17Zm-90.59,13.5A16.11,16.11,0,1,1,491,380.57,16.1,16.1,0,0,1,474.84,396.67ZM757.55,530.21a240.18,240.18,0,0,1,2.64,24.84A161.89,161.89,0,0,0,757.55,530.21Zm-130.46,196,1.08.64c8-2.52,15.47-5.21,22.52-8.13A247.2,247.2,0,0,1,627.09,726.22ZM643.4,545.28a26.14,26.14,0,0,0-1.93,2.16,2.78,2.78,0,0,1,2.69.36C643.88,547,643.64,546.12,643.4,545.28ZM451.24,326.15a3.85,3.85,0,0,0-.68,0c4.69.37,6.45,2.45,6.41,5.37,0,3.33-2.41,7.7-5.41,11.94l.76-.16C457.93,335.37,461.14,326.92,451.24,326.15Zm-21.36,12.31c-3.28,3.92-6,4.88-9.57,5,3.88-.08,6.73-.88,10.25-5,5.05-6,11-12.22,19.2-12.35C441.14,325.91,435.05,332.29,429.88,338.46Zm-66.91,5a2.28,2.28,0,0,0,.52,0h.68C363.77,343.46,363.37,343.46,363,343.42Zm-3.4-.72c.08.08.12.2.2.28a12.12,12.12,0,0,0,3.2.44A12.28,12.28,0,0,1,359.57,342.7Zm0,0c.08.08.12.2.2.28a12.12,12.12,0,0,0,3.2.44A12.28,12.28,0,0,1,359.57,342.7Zm3.4.72a2.28,2.28,0,0,0,.52,0h.68C363.77,343.46,363.37,343.46,363,343.42Zm66.91-5c-3.28,3.92-6,4.88-9.57,5,3.88-.08,6.73-.88,10.25-5,5.05-6,11-12.22,19.2-12.35C441.14,325.91,435.05,332.29,429.88,338.46Zm21.36-12.31a3.85,3.85,0,0,0-.68,0c4.69.37,6.45,2.45,6.41,5.37,0,3.33-2.41,7.7-5.41,11.94l.76-.16C457.93,335.37,461.14,326.92,451.24,326.15Zm0,0a3.85,3.85,0,0,0-.68,0c4.69.37,6.45,2.45,6.41,5.37,0,3.33-2.41,7.7-5.41,11.94l.76-.16C457.93,335.37,461.14,326.92,451.24,326.15Zm-21.36,12.31c-3.28,3.92-6,4.88-9.57,5,3.88-.08,6.73-.88,10.25-5,5.05-6,11-12.22,19.2-12.35C441.14,325.91,435.05,332.29,429.88,338.46Zm-66.91,5a2.28,2.28,0,0,0,.52,0h.68C363.77,343.46,363.37,343.46,363,343.42Zm-3.4-.72c.08.08.12.2.2.28a12.12,12.12,0,0,0,3.2.44A12.28,12.28,0,0,1,359.57,342.7Zm0,0c.08.08.12.2.2.28a12.12,12.12,0,0,0,3.2.44A12.28,12.28,0,0,1,359.57,342.7Zm3.4.72a2.28,2.28,0,0,0,.52,0h.68C363.77,343.46,363.37,343.46,363,343.42Zm66.91-5c-3.28,3.92-6,4.88-9.57,5,3.88-.08,6.73-.88,10.25-5,5.05-6,11-12.22,19.2-12.35C441.14,325.91,435.05,332.29,429.88,338.46Zm21.36-12.31a3.85,3.85,0,0,0-.68,0c4.69.37,6.45,2.45,6.41,5.37,0,3.33-2.41,7.7-5.41,11.94l.76-.16C457.93,335.37,461.14,326.92,451.24,326.15Zm0,0a3.85,3.85,0,0,0-.68,0c4.69.37,6.45,2.45,6.41,5.37,0,3.33-2.41,7.7-5.41,11.94l.76-.16C457.93,335.37,461.14,326.92,451.24,326.15Zm-21.36,12.31c-3.28,3.92-6,4.88-9.57,5,3.88-.08,6.73-.88,10.25-5,5.05-6,11-12.22,19.2-12.35C441.14,325.91,435.05,332.29,429.88,338.46Zm-66.91,5a2.28,2.28,0,0,0,.52,0h.68C363.77,343.46,363.37,343.46,363,343.42Zm-3.4-.72c.08.08.12.2.2.28a12.12,12.12,0,0,0,3.2.44A12.28,12.28,0,0,1,359.57,342.7Z"/><path class="cls-3" d="M789,880.07a73.57,73.57,0,0,0,32.89-10.25C875.58,838,894,760.11,892.81,702.06a293.22,293.22,0,0,0-8-61.38c-9.58-40.79-27.29-79.82-49.76-114.43-28.6-44-104.31-101.33-81.22-171.49"/><path class="cls-3" d="M516.19,101.82a116.83,116.83,0,0,1,20-8.73c184-60.3,284.47,132.82,223.89,239.72A81.49,81.49,0,0,0,756,341.1"/><path class="cls-3" d="M313.29,755.15A635.18,635.18,0,0,1,248,702.3c-64.3-59.46-127.73-139.47-121.72-232.23,5.37-83,64.59-151.29,135-190.35,47.08-26.13,104.46-30.57,148.37-62.47,21.8-15.78,40.15-36.42,52.45-60.42a126.36,126.36,0,0,1,12.78-20"/><path class="cls-2" d="M267.38,866.8c-.6,5-5.12,6.64-9.28,10.92l-.32.32H153a15.37,15.37,0,1,1,0-30.73l82.38-12.78S232.64,868.68,267.38,866.8Z"/><path class="cls-2" d="M666.24,945a13.31,13.31,0,0,1-19.51,1.29,38.85,38.85,0,0,0-6.41-4.57c13.1-41.35-29-69.72-30.1-70.44,5.77,2.05,11.26,4,16.39,5.93,3.81,1.4,7.41,2.77,10.82,4a50.14,50.14,0,0,1,27.73,26C669.6,917,673.85,936,666.24,945Z"/><path class="cls-4" d="M454.93,433.39s-23.24,52.44,18,105.94c0,0,44-21.57,43.95-5.07,0,0,29.15,90.25,31.42,146.36,0,0,21.1,20.77,32.66,9.34s64-67.75,66.91-107.81-6.9-34.73-6.9-34.73,40.7-49.79,116-17.88c0,0,34.28,154.11-132.66,197.27,0,0,131.85,69.52,130,88.64,0,0,42.43-74.09,39-137.48s-4.16-175.64-90.26-253.6L641,391.5l-11.14,20.95s-28.69,30.47-41.79,31.64-28.39-5.7-26.75-33.48,8-24.61-7-19.56S454.93,433.39,454.93,433.39Z"/><path class="cls-2" d="M678.19,271.88a69.49,69.49,0,0,0-14.66-8.25l-8.21-3.45c-1.81-.76-3.69-1.48-5.57-2.08-13.91-4.33-25-5-33.94-3.57a43.26,43.26,0,0,0-11.94,3.61,41.36,41.36,0,0,0-20.07,20.91c-1.2,2.72-3.69,5.05-6.73,6.93,2-14.58,9.33-34.21,34.41-37,15.31-1.64,29.89,1.56,42.59,6.61A126.65,126.65,0,0,1,678.19,271.88Z"/><path class="cls-2" d="M678.19,271.88a69.49,69.49,0,0,0-14.66-8.25l-8.21-3.45c-1.81-.76-3.69-1.48-5.57-2.08-13.91-4.33-25-5-33.94-3.57a43.26,43.26,0,0,0-11.94,3.61,41.36,41.36,0,0,0-20.07,20.91c-1.2,2.72-3.69,5.05-6.73,6.93,2-14.58,9.33-34.21,34.41-37,15.31-1.64,29.89,1.56,42.59,6.61A126.65,126.65,0,0,1,678.19,271.88Z"/><path class="cls-2" d="M700.15,320a58.62,58.62,0,0,1-.64,7h0a31.57,31.57,0,0,1-.56,3.37s0,.12,0,.16a30,30,0,0,1-.84,3.76c-3.53,14-11.42,26.85-23.44,34.86-10.22,6.81-22.76,9.21-34.94,9.29-1.64.05-3.33,0-5-.08-4.81-14.9,16.67-19.35,13.3-33.17a14.85,14.85,0,0,0-.48-1.64c-2.72-7.54-12.46-7-19.15-10.34.52-2.8,3.53-5.81,4.93-10,2-6.21-.56-10.65-5.17-14.14-1-3.45-3.81-6.13-7.37-8.41a43.89,43.89,0,0,1-6.49-4.93,21.35,21.35,0,0,1-1.44-3.37,30.41,30.41,0,0,1-1.2-4.68c-2.61-15,10.74-27.94,25.94-26.36a93.31,93.31,0,0,1,18.17,3.88c1.88.6,3.76,1.32,5.57,2.08l8.21,3.45a69.49,69.49,0,0,1,14.66,8.25,1.06,1.06,0,0,0,.24.2c.05,0,0,.08.09.08,4.74-.19,9.55,2.48,7.84,6.92-.1.26.13.23.13.41a44.07,44.07,0,0,1,5.17,11.26A67.47,67.47,0,0,1,700.15,320Z"/><path class="cls-1" d="M543.13,317.91v6.46a3,3,0,0,1-2.53,3l-77,13.86-12.38,2.25c3-4.25,5.37-8.62,5.41-11.94,0-2.93-1.73-5-6.41-5.37-9-.64-15.35,5.93-20.68,12.3-5.13,6.13-8.85,5-16.59,5h-49.8a14.38,14.38,0,0,1-3.72-.48,14.48,14.48,0,0,1-3.05-8.94V307.5a14.76,14.76,0,0,1,14.38-14.75,11.43,11.43,0,0,0,.89,3.49,9.23,9.23,0,0,0,2.36,3.53,6,6,0,0,0,3.93,1.56,4.87,4.87,0,0,0,1.52-.28,7.69,7.69,0,0,0,3.88-3.25c2.29-3.52,2.49-8,2.61-12.22.16,3.49-.28,7,.36,10.42.56,3,2.12,6.17,4.73,7.65a8.07,8.07,0,0,0,1.2.56,6.78,6.78,0,0,0,3.09.36,8.37,8.37,0,0,0,4.12-1.44,11.88,11.88,0,0,0,4.49-5.93,21.07,21.07,0,0,0,1.12-5.37,35.74,35.74,0,0,0,2,11.66,13.18,13.18,0,0,0,2,3.65,8,8,0,0,0,1.16,1.16,8.12,8.12,0,0,0,5.25,1.52,9.83,9.83,0,0,0,3.36-.8c3.89-1.76,6.45-5.85,7.1-10.06.2,4.05,2.36,8.74,6.09,10.62a7.5,7.5,0,0,0,3.68.92,9.86,9.86,0,0,0,3.21-.6,11.74,11.74,0,0,0,7.09-7.61c1.08-3.49.8-10.14-.8-14,3.16.32,6.85.92,9.29,1.44l-2.76,1.44Z"/><path class="cls-5" d="M546.09,679.39c-1.6-38-9.29-83.25-26.56-136.58-9.48-29.31-13.91-53.41-14.44-73.16"/><path class="cls-5" d="M673.53,753.45l-45.74-26.58-53.29-31-28.41-16.51-45.67-26.56A84.72,84.72,0,0,0,403,664.77L237.48,831.53a15.74,15.74,0,0,1-9,4.49l-77.34,10.73A15.72,15.72,0,0,0,153.3,878h90.79a15.82,15.82,0,0,0,8-2.19l60.72-36,105.65-62.5c14.22-8.41,30.95-7.22,44.7,1.52,8.36,5.33,14.82,13.26,22.1,19.94A361.4,361.4,0,0,0,552,847.17q13.46,7.59,27.57,14"/><path class="cls-5" d="M626,877.24s0,0,.08,0a248.34,248.34,0,0,0,32.37.76c29-1.08,55.13-14.66,76.53-37.38,67.27-71.4,87.42-233,1-379.87a2.08,2.08,0,0,1-.12-.2c-19-32.21-56.33-56.17-95.68-67.59"/><path class="cls-5" d="M735.89,460.59s100.45,200.33-108.1,266.28"/><path class="cls-5" d="M574.5,695.9c17.15-15.06,90-83.82,69.92-146.08-22.72-70.44-4-89.23-4-89.23"/><polygon class="cls-6" points="485.89 295.11 495.07 297.31 476.21 341.03 465.26 341.03 485.89 295.11"/><polygon class="cls-6" points="403 295.11 412.18 297.31 393.32 341.03 382.38 341.03 403 295.11"/><path class="cls-5" d="M565.44,387.68s-138.89,39.6-175.12,101"/><path class="cls-5" d="M355.62,341c-24,63.31-25.08,131.62-21,175.49a52.43,52.43,0,0,0,68.28,45l111.58-35.34"/><path class="cls-5" d="M565.44,387.68c-2.84,9.42-4.61,19.59-4.16,29.44.44,9.51,4.82,21.1,14,25.35,5.72,2.64,12.53,1.92,18.34-.5,19.82-8.23,38.09-28.26,47.34-47.22l-7.38-17.57"/><line class="cls-5" x1="580.3" y1="441.74" x2="562.37" y2="371.09"/><path class="cls-5" d="M607.47,363.84s-20.43,21.68-55.22,2.68S542.37,327,542.37,327"/><path class="cls-5" d="M443.93,827.36c18.11,2.08,38.58,6.21,59.57,11.46,1.53.36,3.05.76,4.61,1.16h0c16.67,4.29,33.62,9.22,50,14.26,25.17,7.86,48.85,16.07,67.88,23,3.84,1.4,7.53,2.77,11,4a50.61,50.61,0,0,1,28.12,26c4.49,9.66,8.82,28.69,1.08,37.74a13.62,13.62,0,0,1-19.79,1.29c-9.17-8.5-74.32-43.92-220.16-52.41-106.1-6.17-115.92-37.46-113.39-54"/><path class="cls-5" d="M508.11,840h0a184.07,184.07,0,0,1,28.09-5.45"/><path class="cls-5" d="M445.73,288.31A84,84,0,0,1,456,289.87l87.82,21v13.47a3.06,3.06,0,0,1-2.52,3l-89.43,16.1"/><path class="cls-5" d="M575.59,286.78s-4.84-38.46,29.58-42c39.25-4,73.2,27.36,73.2,27.36"/><path class="cls-5" d="M372.65,287.38h-8.9A14.76,14.76,0,0,0,349,302.13v26.56a14.77,14.77,0,0,0,14.78,14.79H413.6c7.73,0,11.45,1.12,16.58-5,5.33-6.37,11.66-12.94,20.68-12.3,10,.76,6.65,9.33,1,17.31-4.29,6-10,11.78-12.18,13.38a83.83,83.83,0,0,1-25,12.34,20.83,20.83,0,0,0-14.59,18.11,226.5,226.5,0,0,0,7.9,82.34"/><path class="cls-5" d="M426.56,299.29c-.28,6.25,4.62,13.62,13,10.61a11.74,11.74,0,0,0,7.09-7.61c1.16-3.77,1.52-8.86-.48-12.54a6.2,6.2,0,0,0-.8-1.28c-.08-.08-.16-.2-.24-.28"/><path class="cls-5" d="M423,283.75c2.65,4.45,4.39,9.92,3.63,15.13-.62,4.26-3.16,8.38-7.09,10.13a8.55,8.55,0,0,1-8.62-.72,10.81,10.81,0,0,1-3.17-4.81c-2.21-5.8-2.27-12.42-1.93-18.54,0,4.15.26,8.3-1.23,12.27a12.23,12.23,0,0,1-4.48,5.93,8.31,8.31,0,0,1-7.21,1.08c-3.35-1.18-5.32-4.74-5.94-8.23s-.2-7.08-.37-10.63c-.1,4.29-.27,8.82-2.6,12.43-1.21,1.89-3.18,3.49-5.42,3.53a5.88,5.88,0,0,1-3.91-1.55,9.61,9.61,0,0,1-2.39-3.53,13.65,13.65,0,0,1,0-10.15,9.37,9.37,0,0,1,4.8-5.31,7,7,0,0,1,9.67,5.37,10.24,10.24,0,0,1,6.24-5.68,12.91,12.91,0,0,1,8.54.29,7.87,7.87,0,0,1,3.18,2,4.15,4.15,0,0,1,1.07,3.5,10,10,0,0,1,13.84-6.23c2.32,1,3.5,3.7,4.57,5.86,0-1.46,2.64-3.76,3.77-4.33,6.78-3.43,15,2.39,18.3,8.17"/><path class="cls-5" d="M615.65,254.53s-15.51,11.34-9,30.73c2.36,7,7.21,11.42,13.3,15.31,5.77,3.68,9.49,8.45,7.17,15.54-2.44,7.25-9.54,10.9-.8,16.35,6.65,4.17,17.51,3,20.39,11,5.53,15.14-17.83,19.35-12.82,34.82"/><path class="cls-2" d="M844.19,651.54c-18.92-3.45-33.16-15.1-43.09-31.25-9-14.62-14.2-31.31-17.6-48,0-.09,0-.14,0-.17l-28.87-105,0,0a.27.27,0,0,1-.07-.1.93.93,0,0,0-.09-.22s0-.06,0-.08c-.39-1.06-1.54-3.91-3-8.29a.14.14,0,0,0,0-.08,218.57,218.57,0,0,1-9.45-42.11c-.52-4.19-.93-8.59-1.15-13.1,0-1-.12-2-.22-2.95a79.85,79.85,0,0,0-7-25.56c-.26-.65-.58-1.3-.88-1.88-.43-.89-.83-1.75-1.29-2.61-1.34-2.65-2.75-5.09-4.2-7.42-.84-1.34-1.69-2.6-2.51-3.84-2.51-3.7-5-6.88-7.22-9.54l-2.16-2.46c-.44-.54-.9-1.05-1.33-1.48-1.07-1.17-2-2.08-2.72-2.84-.24-.28-13.69-6.9-13.91-7.07l1.45-8.51c13.11,0,36.78,8.24,46.59,13.89,19.56,11.29,32.48,33.09,36.33,54.86,2.14,12.12,2.54,24.53,4.59,36.66,5.08,30.36,26,55.85,45.57,79.08,7.95,9.38,17.6,18.25,26.85,26.81.78.76,1.57,1.51,2.34,2.21,1.46,1.32,2.87,2.65,4.24,4l.66.65a129,129,0,0,1,26.22,35.39.11.11,0,0,1,.07.1,40.34,40.34,0,0,1,4,14.9,1.12,1.12,0,0,0,0,.29c.42,4.51.52,9.19.81,14a22.93,22.93,0,0,1-.2,2.62,15.63,15.63,0,0,1-.21,2.06,29.91,29.91,0,0,1-.6,3.73,1.83,1.83,0,0,1-.14.65,16.4,16.4,0,0,1-.35,1.65c-.17.68-.34,1.36-.52,2s-.39,1.31-.59,2c-.29.89-.6,1.76-1,2.61a17.76,17.76,0,0,1-.82,2,28.11,28.11,0,0,1-1.5,2.94,7.14,7.14,0,0,1-.67,1.2,19.1,19.1,0,0,1-1.36,2.24C879.27,650.19,860.93,654.6,844.19,651.54Z"/><path class="cls-4" d="M754.44,466.69c-2.2-5-4.52-10-6.91-15,1.28,2.15,2.57,4.35,3.84,6.64a.14.14,0,0,1,0,.08c13.52,24.57,41.75,150.92,30.94,105.32-5.14-21.67-19.42-83.72,1.13,8.39l-28.87-105,0,0a.27.27,0,0,1-.07-.1.93.93,0,0,0-.09-.22S754.47,466.71,754.44,466.69Z"/><path class="cls-5" d="M699.41,319.94c16.2,0,36,7.71,45.83,13.35,19.59,11.24,32.49,33.1,36.31,54.87,2.13,12.14,2.55,24.52,4.59,36.68,5.09,30.35,21.28,57.24,40.89,80.45a410.34,410.34,0,0,0,31.63,33c11.51,10.91,22.52,20,30,34.23,9.7,18.55,12.77,44.7.56,62.91-9.9,14.75-28.21,19.18-45,16.13-18.93-3.45-33.2-15.1-43.11-31.23s-14-34.2-19-52.32l-16.48-60.35c-8.23-30.14-20-60.29-23.74-91.43-.5-4.22-.87-8.6-1.12-13.08,0-1-.15-2-.25-3A89.12,89.12,0,0,0,727,362a95.3,95.3,0,0,0-12.63-16c-4.91-5-11.54-7.52-17-11.74"/><path class="cls-5" d="M543.81,312.43l9.74-6a4.71,4.71,0,0,0,1.36-3.29v-5.65a4.62,4.62,0,0,1,3.58-4.52,66.37,66.37,0,0,0,17.09-6.22c3.65-2,6.69-4.6,8.06-7.73a41.4,41.4,0,0,1,20.07-20.91,43.26,43.26,0,0,1,11.94-3.61c8.9-1.43,20-.78,33.93,3.56,1.9.59,3.77,1.31,5.6,2.08l8.2,3.46a63.48,63.48,0,0,1,24,17,46.64,46.64,0,0,1,9.51,17.16c7.3,24.89-.67,56.42-23,71.31-11.61,7.73-26.24,9.84-39.92,9.24"/><path class="cls-5" d="M584.2,291.16s6.51,5.92,2.6,15.36"/><line class="cls-5" x1="102.84" y1="878.25" x2="342.54" y2="878.25"/><line class="cls-5" x1="636.97" y1="881.29" x2="854.09" y2="881.29"/><polygon class="cls-1" points="485.27 218.67 502.32 209.22 504.55 238.93 524.91 227.65 522 273.78 513.13 247.71 496.26 257.49 485.27 218.67"/><polygon class="cls-2" points="597.43 139.29 616.57 152.15 583.46 175.03 606.33 190.38 551.83 218.69 577.52 190.76 558.09 178.35 597.43 139.29"/><polygon class="cls-2" points="528.65 130.11 510.1 111.16 505.25 118.01 498.56 111.16 483.01 133.12 434.57 78.75 449.52 58.55 475.48 101.46 481.81 92.93 500.88 67.13 505.17 76.86 528.65 130.11"/><polygon class="cls-5" points="423.06 78.74 444.33 50 475.47 101.46 500.87 67.13 538.06 151.47 498.57 111.14 477.94 140.35 423.06 78.74"/></svg>