<svg id="Layer_2" data-name="Layer 2" xmlns="http://www.w3.org/2000/svg" viewBox="0 0 1000 1000"><defs><style>.cls-1,.cls-3,.cls-6{fill:none;stroke-miterlimit:10;}.cls-1,.cls-3{stroke:#ccdde2;}.cls-1,.cls-6{stroke-width:4.59px;}.cls-2{fill:#d7e8f0;}.cls-3{stroke-width:3.06px;}.cls-4{fill:#2e2e2e;}.cls-5{fill:#3fbdf1;}.cls-6{stroke:#000;}</style></defs><path class="cls-1" d="M239.73,648.7s-5.35,2.27-6.55,15.43"/><circle class="cls-2" cx="583.88" cy="669.74" r="6.64"/><path class="cls-3" d="M581.07,649.84c6.13,8.81,2.81,19.9,2.81,19.9s9.44-4.58,17.87,1.93"/><path class="cls-3" d="M583.88,691.58s9-17.74,0-21.84c-1.66-.76-15.06-6.88-23.87,1.93"/><circle class="cls-2" cx="697.35" cy="670.97" r="6.64"/><path class="cls-3" d="M680.81,659.56C691.44,661,697.35,671,697.35,671s3-10.05,13.52-11.83"/><path class="cls-3" d="M682.58,689.83c-.3-7.63,4.69-12.72,9-15.66a30.19,30.19,0,0,1,5.79-3.18,6.63,6.63,0,0,1,6.55.82,14.6,14.6,0,0,1,3,2.7"/><path class="cls-1" d="M507.34,793.58a35.56,35.56,0,0,1-1.2-9.25V505.64a36.87,36.87,0,0,1,36.76-36.76h97.9c93.52,0,170,76.52,170,170V710.1"/><circle class="cls-2" cx="583.88" cy="566.89" r="6.64"/><path class="cls-3" d="M581.07,547c6.13,8.81,2.81,19.9,2.81,19.9s9.44-4.58,17.87,1.92"/><path class="cls-3" d="M583.88,588.73s9-17.74,0-21.84c-1.66-.76-15.06-6.88-23.87,1.92"/><circle class="cls-2" cx="697.35" cy="568.12" r="6.64"/><path class="cls-3" d="M680.81,556.71c10.63,1.46,16.54,11.41,16.54,11.41s3-10,13.52-11.83"/><path class="cls-3" d="M713.41,582.92s-6.95-18.63-16.06-14.8c-1.68.71-15.27,6.42-14.76,18.86"/><circle class="cls-2" cx="415.8" cy="669.74" r="6.64"/><path class="cls-3" d="M418.62,649.84c-6.13,8.81-2.82,19.9-2.82,19.9s-9.44-4.58-17.86,1.93"/><path class="cls-3" d="M415.8,691.58s-9-17.74,0-21.84c1.67-.76,15.07-6.88,23.88,1.93"/><path class="cls-1" d="M188.61,629.91c3.95-90.06,79.25-161,170.26-161h91.31a36.87,36.87,0,0,1,36.76,36.76V784.33a35.56,35.56,0,0,1-1.2,9.25"/><circle class="cls-2" cx="415.8" cy="566.89" r="6.64"/><path class="cls-3" d="M418.62,547c-6.13,8.81-2.82,19.9-2.82,19.9s-9.44-4.58-17.86,1.92"/><path class="cls-3" d="M415.8,588.73s-9-17.74,0-21.84c1.67-.76,15.07-6.88,23.88,1.92"/><circle class="cls-2" cx="302.33" cy="568.12" r="6.64"/><path class="cls-3" d="M318.87,556.71c-10.62,1.46-16.54,11.41-16.54,11.41s-3-10-13.52-11.83"/><path class="cls-3" d="M286.28,582.92s7-18.63,16.05-14.8c1.69.71,15.27,6.42,14.76,18.86"/><path class="cls-1" d="M571.21,692a153.71,153.71,0,0,1,78.66,45.52c.34.37.7.74,1,1.13,0,0-28.12,59.28-123.69,51.86-7.54-.58-14.55-1.38-21.08-2.32"/><path class="cls-1" d="M650.91,738.68a292.87,292.87,0,0,0-81.48-21.35"/><path class="cls-1" d="M420.87,743.46l.09-.09"/><path class="cls-1" d="M156.27,800.28c4.78,9.87,10.6,19,15.68,24.14a16.71,16.71,0,0,0,1.66-.64h0c16.81-6.43,29.62-20,33.32-35.38,3.07-12.77.28-26.5,6.19-38.51,7.2-14.76,26.83-23.95,29.22-40.64,2.27-15.53-11.42-29.84-9.19-45.12.1-.52.28-1.6.28-1.6"/><path class="cls-1" d="M163.56,670.47c5.6-5.92,12.1-11.4,16.6-18,12.59-18.41,7.75-42,15.84-62.16,9.83-24.68,40.83-41.87,71.25-39.63a230.4,230.4,0,0,0-5.88,35.77c-.89,10.82,1.25,22.86-1.11,33.3a34.18,34.18,0,0,1-5.69,11.89"/><path class="cls-1" d="M171.8,839c.52-4.56,1.13-9.65,1.81-15.19h0v0C179.39,778.26,197,687,218.92,625.07"/><path class="cls-1" d="M248.65,570.12c-10,13.26-22,36.57-29.73,55"/><path class="cls-1" d="M217.52,857.44l-12.85,75.83a8.86,8.86,0,0,1-8.59,7.58H128.93a8.87,8.87,0,0,1-8.61-7.7l-11.85-75.71Z"/><path class="cls-1" d="M229.73,849h0a8.93,8.93,0,0,1-8.69,8.46H105.17a8.92,8.92,0,0,1-8.68-8.33h0C96,843.7,100,839,105.17,839H221A9,9,0,0,1,229.73,849Z"/><path class="cls-1" d="M163.28,694.1c0-6.86-.06-16.48-.12-26.52l.18,1.1c0,.3.06.55.1.76s.09.68.12,1C164.45,678.11,164,686.08,163.28,694.1Z"/><path class="cls-1" d="M127.29,711.69c7.2,41.26,12,80.37,15.07,109.23V821c.52.25,1.07.49,1.62.74,4-4.88,8.31-12.63,12.29-21.42a172.14,172.14,0,0,0,10-28.7c3.61-14.89-2.73-30.23-4.2-45.49a124.07,124.07,0,0,1,.37-22.45"/><path class="cls-1" d="M144.14,839c-.49-5.39-1.1-11.45-1.78-18"/><path class="cls-1" d="M70.28,527c27.05,43.52,45.22,117,57,184.68"/><path class="cls-1" d="M136.12,622.51s3-60.86,28.14-79.36,24.59,85.24,24.59,85.24"/><path class="cls-1" d="M163.55,670.47s-5.14-34.82,3.87-69"/><path class="cls-1" d="M179.56,550.54c29.53-63.56,96.85-105.62,176-105.62H644c104.73,0,189.61,84.89,189.61,189.62"/><line class="cls-1" x1="833.63" y1="634.52" x2="833.63" y2="708.05"/><path class="cls-1" d="M162.49,704.59c.24-3.19.55-6.37.79-9.56,0-6.86-.06-16.48-.12-26.52a48,48,0,0,0-3.83-12.81c-5.64-12.07-16.63-20.67-23.22-32.25-12.13-21.32-7.47-48.62-15.22-72-9.47-28.58-39.21-48.52-68.46-45.89A315.74,315.74,0,0,1,58.09,547c.86,12.5-1.22,26.43,1.08,38.57,3.7,19.51,23.55,31.33,26,51.36,2.15,17.68-11,34.25-8.85,52.23C78.22,705,91.18,715,99.63,727.5a48.13,48.13,0,0,1,4.81,8.76c5.64,13.91,3,29.84,5.91,44.57,3.55,17.86,15.87,33.61,32,41.08v-.06c-3-28.86-7.87-68-15.07-109.23"/><path class="cls-1" d="M231.76,728c1.9,1.93,5.77,5.8,7.49,8,10.81,14.12,16.05,31.73,28,45.15a37,37,0,0,0,27.47,12.38H646c14.67,0,29.38-.1,44.08,0,3.09,0,6.19,0,9.25,0,15.47.09,26.22-1.57,34.92-15.57,2.63-4.19,5-8.54,7.47-12.83l0,0c5.12-9.22,10.17-18.38,16.7-26.41,0,0,0,0,0-.06a68.51,68.51,0,0,1,16.36-14.85,100,100,0,0,1,36-13.73,126.15,126.15,0,0,1,22.79-2.05A116.42,116.42,0,0,1,850.91,939.6a114.78,114.78,0,0,1-17.28,1.25H184.77"/><path class="cls-1" d="M119.2,930h0C78.43,911.29,49.52,870.4,50,823.23a113.08,113.08,0,0,1,4.62-30.85c7.51-25.15,23.89-46.71,45-61.81"/><path class="cls-1" d="M623.89,793.58a122.6,122.6,0,0,1-13.78-3.47S719,741.87,758.67,627c0,0,19.33,63.32-.18,111.65,0,0,0,0,0,.06"/><path class="cls-1" d="M741.76,765.15l0,0A65.72,65.72,0,0,1,736.8,770a106.92,106.92,0,0,1-46.71,23.59"/><path class="cls-1" d="M640.71,728.45c6.8-10.44,14.21-19.6,21.63-24.81,26.31-18.35,85.37-50.94,96.33-76.61"/><path class="cls-1" d="M610.11,790.11s2.79-7.32,7.47-17.79v0"/><path class="cls-1" d="M108.45,529.59c29.78-18.81,64.21-24.2,100.26-22.73"/><path class="cls-1" d="M86.27,741.59s-47.2-82-25.79-151.1"/><path class="cls-1" d="M833.51,707.56c35.45-44.82,48.86-105.2,42-161.37-8.22-67.11-46.88-137.4-119.65-147.1s-139.51,33.62-209.24,45.83"/><path class="cls-4" d="M514.9,643.62l-214,2.91c4.44,8.61,12.47,26.19,14.4,44.33L436,727.77s-196.44,76.49-106.23,180.6l2.45-.43.55-.09-.06-.06c47.42-16.91,79.55-34.64,100.78-49.81,11.83-11.15,23.22-22,34.95-33.26a8.23,8.23,0,0,0,.49-.77l0,0c.07,0,.13,0,.19,0,24.56-23.61,50.69-49.07,85.4-82.7C591.21,705.77,566,643.62,514.9,643.62ZM466.93,823c.31.12,1.14.58,1.63.86A8.18,8.18,0,0,1,466.93,823Z"/><path class="cls-5" d="M678.47,898.51a43.72,43.72,0,0,1-43.53,43.74c-72.29.34-222.24.92-313.43.71,1-10.94-.3-23.77-1.37-31.46a46.32,46.32,0,0,0,7.41-1.93c1.56-.55,3.09-1.07,4.62-1.63l.55-.09-.06-.06c93.89-33.45,127.78-70.21,136.23-83.84.28.22-2.33-1.22-2-1a10.11,10.11,0,0,0,7.11,1.62l87-12.34a107.5,107.5,0,0,1,99.56,40.34C670.41,865.15,677.55,882.52,678.47,898.51Z"/><path class="cls-5" d="M320,910.12l12.22-2.18c-1.53.56-3.06,1.08-4.62,1.63a46.32,46.32,0,0,1-7.41,1.93C320.07,911,320,910.55,320,910.12Z"/><path class="cls-5" d="M822.75,865.15s-49.41,60.65-90.49,67.09a13.44,13.44,0,0,1-1.19-1.41c-1.66-2.21-2.45-4.87-3.58-7.35a18,18,0,0,0-1.72-3l9.13-9.92a13,13,0,0,1,17.15-1.84L755.3,911c8.73,6.19,19.85-4.23,12.43-12.93a36.1,36.1,0,0,0-7-6.28c10.87-3.21,36-11,31.76-26.68-4.53-16.6,11.4-21.56,12.32-21a49.5,49.5,0,0,1,10,8.55A54.94,54.94,0,0,1,822.75,865.15Z"/><path class="cls-5" d="M831.05,939.59s-33.72,1.74-61.54,1.34h-.09c-.25,0-.49,0-.73,0-1.81-.09-3.86-.15-6.07-.27,45.43-10.39,69.29-43.44,70.24-44.72C837.33,916.83,837.48,937,831.05,939.59Z"/><line class="cls-6" x1="406" y1="942.99" x2="417.73" y2="942.99"/><path class="cls-6" d="M710.63,880.5v-26A20.47,20.47,0,0,1,731.09,834h18v-5.82a1.93,1.93,0,0,1,2.73-1.72L769.6,835s27.17-2.45,45.18,17.68S842.1,936,830.46,940.63c0,0-33.2.7-61.05.3"/><path class="cls-6" d="M660.56,852.56c.57.72,50.06,8.63,50.06,8.63"/><path class="cls-6" d="M769.24,843.53s2.11,6.56,0,11.22"/><path class="cls-6" d="M822.73,865.15s-50,61.41-91.26,67.22"/><path class="cls-6" d="M762.61,940.63c45.43-10.39,69.29-43.44,70.24-44.72v0"/><line class="cls-6" x1="773.85" y1="886.93" x2="773.82" y2="886.93"/><path class="cls-6" d="M670.48,923.3c12.68-7.59,48.41-18.69,57,.16,1.13,2.49,1.94,5.18,3.58,7.37,7.17,9.6,26.85,9.53,37.61,10.08,7.92.4,15.88.45,23.79.09"/><path class="cls-6" d="M804.77,844.17c-.91-.6-16.84,4.37-12.32,21,4.28,15.68-20.87,23.46-31.74,26.69a35.44,35.44,0,0,1,7,6.28c7.41,8.7-3.71,19.11-12.42,12.92L752,908.77a13,13,0,0,0-17.15,1.84l-10.23,11.15"/><line class="cls-6" x1="604.83" y1="859.39" x2="329.73" y2="908.37"/><path class="cls-6" d="M468.89,824a9.71,9.71,0,0,0,5.09.61l87-12.34a107.49,107.49,0,0,1,99.56,40.34c9.83,12.59,17,30,17.89,46A43.72,43.72,0,0,1,635,942.25c-72.29.34-222.24.92-313.43.71"/><path class="cls-6" d="M321.52,943c-42-.1-71.55-.37-75.29-.89,0-5.33,5.73-11,12.77-15.65s15.38-8.12,20.62-9.1l40.34-7.2,9.77-1.75"/><path class="cls-6" d="M329.73,908.37C239.52,804.26,436,727.77,436,727.77l-41.48-12.69c-14.19-4.34-28.53-8.21-42.7-12.67-7.17-2.25-36.44-11.55-36.44-11.55l-12.11,1.43a31.74,31.74,0,0,1-24.72-7.71L220.8,630.8a6.28,6.28,0,0,1-1.88-5.73h0a6.25,6.25,0,0,1,8.53-4.61l52.37,21.66a58.11,58.11,0,0,0,23,4.4l212.09-2.9c51.13,0,76.31,62.15,39.61,97.69-55.81,54.06-89.4,87-130.11,125.2"/><path class="cls-1" d="M163.16,671.57a1.3,1.3,0,0,0,0-.15,1.16,1.16,0,0,0,0-.16v-.12"/><path class="cls-1" d="M163.1,630v-.06"/><path class="cls-1" d="M163.41,707.56l-.92.09"/></svg>