<svg id="Layer_2" data-name="Layer 2" xmlns="http://www.w3.org/2000/svg" viewBox="0 0 1000 1000"><defs><style>.cls-1,.cls-3,.cls-5{fill:none;stroke-miterlimit:10;}.cls-1{stroke:#ccdde2;}.cls-1,.cls-3{stroke-width:5.02px;}.cls-2{fill:#2e2e2e;}.cls-3,.cls-5{stroke:#000;}.cls-4{fill:#3fbdf1;}.cls-5{stroke-width:4.66px;}</style></defs><path class="cls-1" d="M942,325.93a142,142,0,0,1-91.07-183,205.67,205.67,0,0,1,29.78,27.26c30.71,34.15,49.55,77.79,57.59,124.58Q940.9,310.17,942,325.93Z"/><path class="cls-1" d="M144.78,838.39V627.17a6.09,6.09,0,0,1,6.08-6.13H360.93a14.27,14.27,0,0,1,14.29,14.29V760.89"/><polyline class="cls-1" points="144.78 838.39 144.78 730.95 375.18 730.95 375.18 760.89"/><line class="cls-1" x1="318.57" y1="842.77" x2="147.12" y2="842.77"/><circle class="cls-1" cx="259.99" cy="786.84" r="16.79"/><circle class="cls-1" cx="259.99" cy="679.53" r="16.79"/><circle class="cls-1" cx="259.99" cy="899.97" r="16.79"/><path class="cls-1" d="M360.94,621h-236V597.67c3.1-.74,269.38,0,269.38,0V621Z"/><path class="cls-1" d="M304,529.25,293.17,590a7.37,7.37,0,0,1-7.25,6.08H229.17a7.36,7.36,0,0,1-7.27-6.17l-10-60.62Z"/><path class="cls-1" d="M314.35,522.47h0a7.38,7.38,0,0,1-7.35,6.78H209.1a7.37,7.37,0,0,1-7.34-6.67h0a7.37,7.37,0,0,1,7.34-8.08H307A7.37,7.37,0,0,1,314.35,522.47Z"/><path class="cls-1" d="M261.11,514.5c0-3.1,7.91-41.85,1.35-76.21-3.59-18.84-11.54-36.36-27.53-46"/><path class="cls-1" d="M262.46,438.29s1.81-26.09,24.38-27.9"/><path class="cls-1" d="M264.86,478.12s8.44-6.79,22-6.34"/><path class="cls-1" d="M264.86,459.59s-16.39-19.41-42.57-4.06"/><path class="cls-1" d="M253.33,451.78s-36.9-33.72-44.13,11.87c0,0,10.38,6.77,25.73,0S253.33,451.78,253.33,451.78Z"/><path class="cls-1" d="M270.58,418.34s-1.34-15.17,16.26-20.14S314.37,414,314.37,414,300.81,429,270.58,418.34Z"/><path class="cls-1" d="M274.65,471.76s-.6-15.34,19.86-12.17,23.78,20.61,23.78,20.61-33.52,12.3-43.64-6.83"/><path class="cls-1" d="M250,406.52c0,1.09-15.39-1.37-16.37-1.66-7.46-2.22-12.75-7.39-16.23-14.22-1.07-2.11-7.28-14-5.52-16.06C211.88,374.58,248.49,362.81,250,406.52Z"/><path class="cls-1" d="M252.11,193.3H264A109.61,109.61,0,0,1,373.6,302.91V496.85a0,0,0,0,1,0,0H142.5a0,0,0,0,1,0,0V302.91A109.61,109.61,0,0,1,252.11,193.3Z"/><line class="cls-1" x1="276.04" y1="451.78" x2="275.96" y2="451.78"/><path class="cls-1" d="M214.34,451.78H176.83V319.63a81.23,81.23,0,0,1,81.23-81.24h0a81.24,81.24,0,0,1,81.24,81.24V451.78H266.23"/><path class="cls-1" d="M514.32,849.88a98,98,0,0,0-98.07-98c-.78,0-1.66,0-2.47.07a98,98,0,0,0-95.5,97c-.53,54.46,45.7,99,100.15,99H813.5c1.63,0,3.21-.07,4.8-.21,31.87-2.4,57.38-28.83,57.31-61.26,0-21.95-5.75-49.83-18.88-84.17-.6-1.59-1.23-3.21-1.87-4.83-47-118.79,19.84-234.79,19.84-234.79,2.15-3.49,4.27-7,6.35-10.58,3.63-6.25,7.2-12.53,10.62-18.88a523.53,523.53,0,0,0,28.58-62,346.45,346.45,0,0,0,21.6-97.37,332.87,332.87,0,0,0,.14-47.89q-1.11-15.76-3.7-31.16c-8-46.75-26.89-90.41-57.6-124.57A204.61,204.61,0,0,0,814,121a228.68,228.68,0,0,0-49.76-16.48,104.37,104.37,0,0,0-92.88,25.27c-16.55,15.24-27.63,34.83-40.55,52.93l-.24.36"/><path class="cls-1" d="M413.78,751.92c-.22-2.93-.25-58.9-.25-61.9,0-83.25,72.55-150.72,162-150.72H818.41A159.56,159.56,0,0,1,881.05,552"/><path class="cls-1" d="M430.82,947.87H205.06a20.21,20.21,0,0,1-19.74-15.52c-3.65-15.64-13.55-42.83-38.2-89.58-.77-1.45-1.53-2.89-2.34-4.38-12.85-24.12-29.52-53.25-51-88.39C6,606.75,98.29,479.24,142.48,430.66"/><line class="cls-1" x1="856.73" y1="802.24" x2="502.11" y2="802.24"/><path class="cls-1" d="M373.6,301.3s67.59,35.29,140.33,0"/><path class="cls-2" d="M773.59,407.26a.12.12,0,0,0,0,.08c-.08-.59-.16-1.17-.28-1.76Z"/><path class="cls-2" d="M495.24,929l91.5,1.13c0-2.49,0-4.71-.08-6.2-.31-5.85-8.77-179.4-8.77-179.4s-2.35-65.28,57.64-103c0,0,6.43,40.8,22,98.56S702.92,859.19,723,890.55c17.32,27,26.29,35.18,24.11,37h62.08l-15.91-39.93s-17.43-43.92-27.14-86.86-28.43-116.65-11.86-178.38c16.42-61.2,31.28-141.61,19.35-214.82.23,1.6.35,9.6-20.95,11.39-23.75,2-21.8,13.46-24,19.15s-6.12,48.83-87.87,75.85L629,519.31s-42.44,18.09-46.34,23.24-11.35,8.54-12.32,1.13-3.9-18.91-10.61-5.15-63.49,110.18-73.87,147.58,9.68,94.15,9.68,94.15l31.9,148.94S507.37,928.15,495.24,929Z"/><path class="cls-3" d="M567.2,525.74l-61.82,116c-19.73,37-25.74,64.27-16.92,105.34l39,182.13H491.71a9.1,9.1,0,0,0-9.1,9.11h0a9.09,9.09,0,0,0,9.1,9.1h96.2l-10-188.68a147.76,147.76,0,0,1,7.55-54.89c8.63-25.59,26.7-46.93,50.06-60.47h0"/><path class="cls-3" d="M554.47,134.29,507.32,216.8l41.6,26,28.43-93.6-12.06-15.65A6.51,6.51,0,0,0,554.47,134.29Z"/><path class="cls-3" d="M515.07,223S488.78,324.7,579,476.4"/><path class="cls-3" d="M525.2,604.52c-4.88,8.27-8.78,14-10.73,14.9-6.2,3-3.28-15.33-1.09-24.65a19.21,19.21,0,0,0,1.64-4.95c0-1.21-.74,1.13-1.64,4.95a146.92,146.92,0,0,1-8.39,16.5c-4.52,7.64-9.94,15.29-14.93,19-2.54,1.91-5,2.77-7.1,2.15-12.79-3.82,2.65-32.76,7.1-40.52.7-1.25,1.13-1.95,1.13-1.95A142.71,142.71,0,0,0,505,565.76a216.84,216.84,0,0,0,11.63-32.57"/><path class="cls-3" d="M526.56,481.05c5.7-47.46,3.63-94.54.59-120.32"/><path d="M534.48,501.48,529,512.17c.08,0,.12-.08.19,0Z"/><path d="M515.56,501l-.11.31a1.28,1.28,0,0,1,.15-.31Z"/><path class="cls-3" d="M577.34,149.2v0c6.9,3.55,13.57,7.26,20,11,4.68,2.73,9.24,5.5,13.68,8.27l2.23,1.4c211.34,134,168.91,346.76,141,452.49-31.2,118.32,62.91,325,62.91,325H715.4a9.52,9.52,0,0,1-9.52-9.16h0a9.53,9.53,0,0,1,9.42-9.9l32.2-.36c-45.91-63.73-85-153.82-101.44-233.14-4.84-23.36-8.19-30.34-10.53-51.48A761.53,761.53,0,0,1,632.1,517.9"/><path class="cls-3" d="M552.85,137.14q-12.58-5.85-26-11.34s8.58-32.53-8.85-49.73"/><path class="cls-3" d="M410.61,113.86c-6.43,18.72-6.24,39.9-5.34,58.07l23.4-2"/><path class="cls-3" d="M428.67,170s.16,47.52,46.15,39.65A44.9,44.9,0,0,0,490.73,204c22.14-13.55,20.33-46.14,9.43-66.1-3.28-6-23.9-39.57-6.49-41.31,19.5-2,18.2,26.65,17.55,29.25h15.61"/><path class="cls-3" d="M435.46,110s-.08,0-.08,0"/><path class="cls-4" d="M392.67,111.05c.28,2.58,2.62,3.36,4.88,3.4h.78c4,0,8.15-.24,12.28-.59a160.77,160.77,0,0,0,20.95-2.92c1.28-.28,2.53-.59,3.82-.9,0,0,0,0,.08,0,.5-.08,1-.16,1.48-.27A222.23,222.23,0,0,0,468,101.3a377,377,0,0,0,39.39-16.65c1-.51,2.15-1.05,3.2-1.64,0,0,0-.08,0-.11,2.18-4.57,1.17-10.3-1.87-14.4-3.12-4.4-8.12-7.17-13.26-8.93-11.47-3.94-24.18-3.35-35.88-.07S437.17,68.7,427,75.25a180.66,180.66,0,0,0-21.1,15.56c-2,2-3.78,4-5.57,6a43,43,0,0,0-6.71,10A9.2,9.2,0,0,0,392.67,111.05Z"/><path class="cls-3" d="M468,101.3a222.23,222.23,0,0,1-31.08,8.47c-.51.11-1,.19-1.48.27,0,0-.08,0-.08,0-1.29.31-2.54.62-3.82.9a160.77,160.77,0,0,1-20.95,2.92c-4.13.35-8.26.55-12.28.59h-.78c-2.26,0-4.6-.82-4.88-3.4a9.2,9.2,0,0,1,.9-4.17,43,43,0,0,1,6.71-10c9.63-11.27,21.53-20.44,34-28.43C444.5,61.87,455.27,56,467,52.67s24.37-3.86,35.84.08c5.15,1.75,10.14,4.52,13.3,8.93,3,4.09,4,9.83,1.87,14.39a4.07,4.07,0,0,1-.47.9c-2.18,3.7-6.24,5.81-10.1,7.68A377,377,0,0,1,468,101.3"/><path class="cls-3" d="M468,101.3c.63,9.74.14,26.51,8.35,38.91a25.83,25.83,0,0,1,4.7,13.84c.11,8.17-2.41,18.85-16,19.85-10.55.77-22-5.67-36.4-3.92,0,0,10.24-2.26,9.26-13.47"/><path class="cls-3" d="M516.89,498.29c-.2.43-.39.85-.63,1.32l-.7,1.41-.11.31-2.31,4.72c-.7,1.44-1.44,2.88-2.14,4.37-.62,1.24-1.25,2.49-1.83,3.74-.47.94-.9,1.83-1.33,2.73l-3,6.36a8.21,8.21,0,0,0,1.68,8.3,8,8,0,0,0,2,1.64,8.36,8.36,0,0,0,11.82-4.13l8.7-16.89,5.5-10.69-5.31,10.65-4.72,9.4a5.49,5.49,0,0,0,5.19,7.68c7.33-.43,12.09-8,15.68-13.41.35-.55.7-1.13,1.09-1.72,2.42-3.7,5.42-8,9.79-9a25.08,25.08,0,0,1,3.55-.51c6-.35,10.45,2,17.08,3.2,1.95.35,3.9.67,5.85.94"/><path class="cls-3" d="M669.69,500.86l1.68-.74a104.12,104.12,0,0,0,42.86-34.48c42.82-58.73,17.67-153.46-17.08-210.52-23.44-38.45-60.22-72.85-99.76-94.89"/><path class="cls-3" d="M586.62,294.47l42,66.38c21.41,33.85,14,73.83-16.62,99.61-10.1,8.5-27,16.92-48.94,18.29-8.39.5-20.79,1.13-29.18,1.75-2.37.2-4.83.31-7.29.55-5.19.47-10.41,1.21-15.13,3.16a22.2,22.2,0,0,0-9.83,8.3c-4.17,6.48-8.89,12.84-11.43,20.21a29.87,29.87,0,0,0-1.4,11.54,9.77,9.77,0,0,0,2.5,6.24,6,6,0,0,0,3.58,1.72c3.47.5,6-2.07,7.8-4.92a27.23,27.23,0,0,0,1.76-3.35c.93-2,2.1-4.41,3.43-7.06.43-.9.86-1.79,1.33-2.73.58-1.25,1.21-2.5,1.83-3.74.7-1.49,1.44-2.93,2.14-4.37.82-1.64,1.6-3.24,2.31-4.72a1.28,1.28,0,0,1,.15-.31c.24-.51.47-1,.66-1.41s.43-.89.63-1.32l0-.08c.23-.47.47-.94.66-1.37"/><line class="cls-3" x1="505.73" y1="184.3" x2="514.12" y2="204.93"/><path class="cls-3" d="M563,478.75s25.54,19.5,23.59,59.8l84.75-38.43"/><path class="cls-3" d="M586.62,538.55s-7.31,11.54-13.65,0-13.22-33.95-13.22-33.95"/><line class="cls-3" x1="732.78" y1="424.36" x2="772.67" y2="413.52"/><path class="cls-3" d="M542.33,572.4s-17.21-22.2-30.82-18.93"/><path class="cls-4" d="M546.41,514.08A29,29,0,0,1,564,540.6V546A7.47,7.47,0,1,0,579,546V540.6a43.65,43.65,0,0,0-19.23-36,25.08,25.08,0,0,0-3.55.51C551.83,506.09,548.83,510.38,546.41,514.08Z"/><path class="cls-4" d="M487.68,523.68a45.18,45.18,0,0,0,.74,10.45L567.12,950h15.93l-80-418.64a21.07,21.07,0,0,1-.43-4.06c-1.79,2.85-4.33,5.42-7.8,4.92a6,6,0,0,1-3.58-1.72,9.77,9.77,0,0,1-2.5-6.24A6.32,6.32,0,0,1,487.68,523.68Z"/><path class="cls-3" d="M546.41,514.08A29,29,0,0,1,564,540.6V546A7.47,7.47,0,1,0,579,546V540.6a43.65,43.65,0,0,0-19.23-36,25.08,25.08,0,0,0-3.55.51C551.83,506.09,548.83,510.38,546.41,514.08Z"/><path class="cls-3" d="M487.68,523.68a45.18,45.18,0,0,0,.74,10.45l78.3,413.75,15.83-.47-79.47-416a21.07,21.07,0,0,1-.43-4.06c-1.79,2.85-4.33,5.42-7.8,4.92a6,6,0,0,1-3.58-1.72,9.77,9.77,0,0,1-2.5-6.24A6.32,6.32,0,0,1,487.68,523.68Z"/><line class="cls-3" x1="817.23" y1="947.41" x2="276.56" y2="947.41"/><path class="cls-5" d="M418.41,126.84s13-5.74,21.15,1.27"/><ellipse cx="426.04" cy="137.3" rx="3.75" ry="3.12" transform="translate(-18.3 83.2) rotate(-10.92)"/></svg>