<svg id="Layer_2" data-name="Layer 2" xmlns="http://www.w3.org/2000/svg" xmlns:xlink="http://www.w3.org/1999/xlink" viewBox="0 0 1000 1000"><defs><style>.cls-1,.cls-3,.cls-7,.cls-8{fill:none;}.cls-2{clip-path:url(#clip-path);}.cls-3{stroke:#ccdde2;}.cls-3,.cls-7,.cls-8{stroke-miterlimit:10;}.cls-3,.cls-7{stroke-width:4.82px;}.cls-4{fill:#d7e8f0;}.cls-5{fill:#2e2e2e;}.cls-6{fill:#3fbdf1;}.cls-7,.cls-8{stroke:#000;}.cls-8{stroke-width:4.76px;}</style><clipPath id="clip-path"><path class="cls-1" d="M277.14,637.65H504.91V949.84H609.32c3.12-.42-3.11.51,0,0C709,950,785.45,873.11,773,762.53c-11.7-104.14-71.46-174.07-139.74-244.29-30.1-30.94-52.69-106.49-31.93-133.86l5.6-51.53.18-1.1c5.15-33,21.42-61.88,20.25-95.94-1-28.33-9.74-56-23.63-80.64C576.19,106.36,527.41,67.37,472.49,56c-33.24-6.87-68-8.54-101.38-1.55C272.89,75.08,215.93,186.27,241.62,280.21,251,314.6,262.15,348.65,277.18,381Z"/></clipPath></defs><g class="cls-2"><polyline class="cls-3" points="656.4 1203.44 656.4 656.62 906.9 656.62 906.9 1275.12"/><path class="cls-4" d="M681.3,707v32h32V680.27h-32Zm5.26-21.48H708V707H686.56Zm0,26.73H708v21.48H686.56Z"/><path class="cls-4" d="M737.72,707v32h32V680.27h-32ZM743,685.53h21.48V707H743Zm0,26.73h21.48v21.48H743Z"/><path class="cls-4" d="M792.6,707v32h32V680.27h-32Zm5.26-21.48h21.48V707H797.86Zm0,26.73h21.48v21.48H797.86Z"/><path class="cls-4" d="M844.26,680.27V739h32V680.27ZM871,733.74H849.51V712.26H871ZM871,707H849.51V685.53H871Z"/><path class="cls-4" d="M681.3,786v32h32V759.28h-32Zm5.26-21.48H708V786H686.56Zm0,26.73H708v21.48H686.56Z"/><path class="cls-4" d="M737.72,786v32h32V759.28h-32ZM743,764.53h21.48V786H743Zm0,26.73h21.48v21.48H743Z"/><path class="cls-4" d="M792.6,786v32h32V759.28h-32Zm5.26-21.48h21.48V786H797.86Zm0,26.73h21.48v21.48H797.86Z"/><path class="cls-4" d="M844.26,786v32h32V759.28h-32Zm5.25-21.48H871V786H849.51Zm0,26.73H871v21.48H849.51Z"/><path class="cls-4" d="M681.3,865v32h32V838.28h-32Zm5.26-21.48H708V865H686.56Zm0,26.74H708v21.48H686.56Z"/><path class="cls-4" d="M737.72,865v32h32V838.28h-32ZM743,843.53h21.48V865H743Zm0,26.74h21.48v21.48H743Z"/><path class="cls-4" d="M792.6,865v32h32V838.28h-32Zm5.26-21.48h21.48V865H797.86Zm0,26.74h21.48v21.48H797.86Z"/><path class="cls-4" d="M844.26,865v32h32V838.28h-32Zm5.25-21.48H871V865H849.51Zm0,26.74H871v21.48H849.51Z"/><path class="cls-4" d="M681.3,944v32h32V917.28h-32Zm5.26-21.48H708V944H686.56Zm0,26.73H708v21.48H686.56Z"/><path class="cls-4" d="M737.72,944v32h32V917.28h-32ZM743,922.54h21.48V944H743Zm0,26.73h21.48v21.48H743Z"/><path class="cls-4" d="M792.6,944v32h32V917.28h-32Zm5.26-21.48h21.48V944H797.86Zm0,26.73h21.48v21.48H797.86Z"/><path class="cls-4" d="M844.26,944v32h32V917.28h-32Zm5.25-21.48H871V944H849.51Zm0,26.73H871v21.48H849.51Z"/><path class="cls-4" d="M681.3,1023v32h32V996.28h-32Zm5.26-21.48H708V1023H686.56Zm0,26.73H708v21.48H686.56Z"/><path class="cls-4" d="M737.72,1023v32h32V996.28h-32Zm5.26-21.48h21.48V1023H743Zm0,26.73h21.48v21.48H743Z"/><path class="cls-4" d="M792.6,1023v32h32V996.28h-32Zm5.26-21.48h21.48V1023H797.86Zm0,26.73h21.48v21.48H797.86Z"/><path class="cls-4" d="M844.26,1023v32h32V996.28h-32Zm5.25-21.48H871V1023H849.51Zm0,26.73H871v21.48H849.51Z"/><polyline class="cls-3" points="519.3 433.75 519.3 160.22 769.79 160.22 769.79 656.64"/><path class="cls-4" d="M544.2,210.6v32h32V183.86h-32Zm5.26-21.48h21.48V210.6H549.46Zm0,26.73h21.48v21.48H549.46Z"/><path class="cls-4" d="M600.63,210.6v32h32V183.86h-32Zm5.25-21.48h21.48V210.6H605.88Zm0,26.73h21.48v21.48H605.88Z"/><path class="cls-4" d="M655.51,210.6v32h32V183.86h-32Zm5.25-21.48h21.48V210.6H660.76Zm0,26.73h21.48v21.48H660.76Z"/><path class="cls-4" d="M707.16,183.86v58.72h32V183.86Zm26.73,53.47H712.42V215.85h21.47Zm0-26.73H712.42V189.12h21.47Z"/><path class="cls-4" d="M544.2,289.6v32h32V262.87h-32Zm5.26-21.48h21.48V289.6H549.46Zm0,26.73h21.48v21.48H549.46Z"/><path class="cls-4" d="M600.63,289.6v32h32V262.87h-32Zm5.25-21.48h21.48V289.6H605.88Zm0,26.73h21.48v21.48H605.88Z"/><path class="cls-4" d="M655.51,289.6v32h32V262.87h-32Zm5.25-21.48h21.48V289.6H660.76Zm0,26.73h21.48v21.48H660.76Z"/><path class="cls-4" d="M707.16,289.6v32h32V262.87h-32Zm5.26-21.48h21.47V289.6H712.42Zm0,26.73h21.47v21.48H712.42Z"/><path class="cls-4" d="M544.2,368.6v32h32V341.87h-32Zm5.26-21.48h21.48V368.6H549.46Zm0,26.74h21.48v21.48H549.46Z"/><path class="cls-4" d="M600.63,368.6v32h32V341.87h-32Zm5.25-21.48h21.48V368.6H605.88Zm0,26.74h21.48v21.48H605.88Z"/><path class="cls-4" d="M655.51,368.6v32h32V341.87h-32Zm5.25-21.48h21.48V368.6H660.76Zm0,26.74h21.48v21.48H660.76Z"/><path class="cls-4" d="M707.16,368.6v32h32V341.87h-32Zm5.26-21.48h21.47V368.6H712.42Zm0,26.74h21.47v21.48H712.42Z"/><path class="cls-4" d="M544.2,447.61v32h32V420.87h-32Zm5.26-21.48h21.48v21.48H549.46Zm0,26.73h21.48v21.48H549.46Z"/><path class="cls-4" d="M600.63,447.61v32h32V420.87h-32Zm5.25-21.48h21.48v21.48H605.88Zm0,26.73h21.48v21.48H605.88Z"/><path class="cls-4" d="M655.51,447.61v32h32V420.87h-32Zm5.25-21.48h21.48v21.48H660.76Zm0,26.73h21.48v21.48H660.76Z"/><path class="cls-4" d="M707.16,447.61v32h32V420.87h-32Zm5.26-21.48h21.47v21.48H712.42Zm0,26.73h21.47v21.48H712.42Z"/><path class="cls-4" d="M600.63,526.61v32h32V499.87h-32Zm5.25-21.48h21.48v21.48H605.88Zm0,26.73h21.48v21.48H605.88Z"/><path class="cls-4" d="M655.51,526.61v32h32V499.87h-32Zm5.25-21.48h21.48v21.48H660.76Zm0,26.73h21.48v21.48H660.76Z"/><path class="cls-4" d="M707.16,526.61v32h32V499.87h-32Zm5.26-21.48h21.47v21.48H712.42Zm0,26.73h21.47v21.48H712.42Z"/></g><path class="cls-3" d="M275.14,381c-15-32.38-26.15-66.43-35.56-100.82C213.89,186.27,270.85,75.08,369.07,54.49c33.37-7,68.14-5.32,101.38,1.55,54.91,11.33,103.7,50.32,131.25,99.13,13.89,24.6,22.67,52.31,23.64,80.64,1.17,34.06-15.1,62.95-20.25,95.94l-.18,1.1"/><path class="cls-3" d="M607.28,949.84c3.11-.42-3.12.51,0,0C707,950,783.41,873.11,771,762.53c-11.71-104.14-71.46-174.07-139.75-244.29-30.09-30.94-52.68-106.49-31.93-133.86"/><path class="cls-5" d="M225.65,550.49c0,2.12.07,4.24.13,6.32C227,594,235.83,618.45,241.16,630a34.52,34.52,0,0,1-1.76-15.39,102.79,102.79,0,0,1,1.67-10.5,107.69,107.69,0,0,1,27.46-51.78l.13-.12c1.83-1.9,3.24-3.18,4-3.86L273,548l.35-.28L428.44,400.17A173.51,173.51,0,0,0,430.28,381c7.8,1.19,16.34,2.09,25.69,2.7,7.35.45,15.26.71,23.67.74,77.31.26,110.52,12.2,123.4,19.24a4.85,4.85,0,0,0,7.19-4.24V335.33c-9-4.85-20.1-8.22-33.85-9.41-37.13-3.21-77.92-3-112.73-17.92-26-11.15-49.47-33.41-76-44.65h0c-13-5.49-26.6-8.32-41.63-6-16.83,2.63-31,10.15-43,20.46-.16.12-.29.29-.45.41-13.71,11.92-24.54,27.43-32.92,43.3-26.43,49.94-42.17,114.08-43.55,171.25v.64c0,2.57-.06,5.11-.06,7.65Z"/><path class="cls-5" d="M321.28,146.47V161.6H431.57V146.47a31.74,31.74,0,0,0-.19-3.56,35.26,35.26,0,0,0-35.14-31.7h-39.7A35.24,35.24,0,0,0,321.28,146.47Z"/><path class="cls-6" d="M472.94,610l15.28,38.51h96a10.22,10.22,0,0,0,7.23-3,10.39,10.39,0,0,0,3-7.26,10.24,10.24,0,0,0-8.16-10l-43.59-8.93-5.78-22.1Z"/><path class="cls-6" d="M610.16,926.18l-31-42V855.59H527.87a1.3,1.3,0,0,0-1.07,2L586,943.42a14.84,14.84,0,0,0,12.21,6.41h0A14.84,14.84,0,0,0,610.16,926.18Z"/><path class="cls-6" d="M329.44,183.47a99.82,99.82,0,0,1,4.43,29.33c21.68,0,25.76-10.57,24.09-18.92-1.86-9.28.93-22.23,13.87-24.09s9.29,18.53,7.75,42.59a49.33,49.33,0,0,0,2.53,15.22,31.46,31.46,0,0,0,14.3,17.51,41.84,41.84,0,0,0,21.13,5.23s12.65-31.47,3.82-34.07-29.13-25.18-24.51-53c.1-.61.2-1.15.33-1.7H326.23A66.55,66.55,0,0,0,329.44,183.47Z"/><path class="cls-7" d="M226.17,492.8v.64c0,2.57-.06,5.11-.06,7.65l-.35,49.52c0,2.09.06,4.15.12,6.2"/><path class="cls-7" d="M241.17,604.06a96.66,96.66,0,0,0,81.45,44.48h178c16.54,0,24.76,8.22,24.76,18.34V931a18.85,18.85,0,0,0,18.85,18.85h65.09"/><path class="cls-7" d="M610.16,926.18l-31-42V855.59H527.87a1.3,1.3,0,0,0-1.07,2L586,943.42a14.84,14.84,0,0,0,12.21,6.41h0A14.84,14.84,0,0,0,610.16,926.18Z"/><line class="cls-7" x1="429.17" y1="547.74" x2="449.44" y2="550.79"/><path class="cls-7" d="M569.72,571.6c42.33,16.42,67,56.73,61.92,100.25L610.35,855.59h-85"/><path class="cls-7" d="M427.26,494.92l12.3,31,9.86,24.89L472.94,610l15.28,38.51h96a10.22,10.22,0,0,0,7.23-3,10.39,10.39,0,0,0,3-7.26,10.24,10.24,0,0,0-8.16-10l-43.59-8.93-5.78-22.1,39.6-7.1-6.77-18.53-57.4-157c-12-33-56.85-40.09-82.28-15.87l-1.48,1.41L267.89,553"/><path class="cls-7" d="M331.36,648.54a78.93,78.93,0,0,0,71.56-45.61l26.24-55.17,10.4-21.84"/><path class="cls-7" d="M352.17,343.29s12.24,27.82,78.21,37.74q11.7,1.79,25.69,2.7,11,.67,23.67.74c77.31.26,110.52,12.2,123.4,19.24a4.86,4.86,0,0,0,7.2-4.24v-28.3c5.87,3.92,10.18,9.73,13.29,16.32,3.89,8,6,17.24,7.13,25.69a140.6,140.6,0,0,1,1.32,20.14,6.27,6.27,0,0,0,1.83,4.43,6.14,6.14,0,0,0,4.43,1.86,6.27,6.27,0,0,0,6.2-5.23c3-17.7,8.93-75.67-34.2-99.05-9-4.85-20.11-8.22-33.86-9.41-37.12-3.21-77.91-3-112.73-17.92-26.05-11.15-49.49-33.44-76-44.65-12.95-5.49-26.6-8.32-41.63-6-16.83,2.63-31,10.15-43,20.46-13.94,12-24.9,27.68-33.38,43.71-26.43,49.94-42.17,114.08-43.55,171.25v.64c0,2.57-.06,5.11-.06,7.65"/><path class="cls-7" d="M382.22,227.8l-.09-.2c-1.85-3.68-3-8.61-2.54-15.21,1.52-24.08,5.23-44.46-7.74-42.6S356.11,184.61,358,193.87c1.67,8.36-2.39,19-24.08,18.94"/><path class="cls-7" d="M421.36,216.27c1.71-6.26,16.54-5.38,9.89-18.94-3.79-7.74-4-20.93-1.62-35.73"/><path class="cls-7" d="M326.23,161.6a67.32,67.32,0,0,0,3.2,21.87,99.25,99.25,0,0,1,4.45,29.34h0l-.36,17.51a50.31,50.31,0,0,1-22.19,41,56.76,56.76,0,0,0-8.7,6.92"/><path class="cls-7" d="M379.59,212.39a48.71,48.71,0,0,0,2.54,15.21c8.49,24.28,35.4,22.73,35.4,22.73s12.67-31.46,3.83-34.06-29.13-25.18-24.5-53c.09-.59.21-1.16.33-1.7"/><path class="cls-7" d="M431.66,142.9l.18,0"/><line class="cls-7" x1="472.94" y1="610.03" x2="536.88" y2="597.25"/><line class="cls-7" x1="610.34" y1="371.17" x2="610.34" y2="335.33"/><path class="cls-7" d="M623.65,387.47c-5.66,9.8-4.34,29.62,1.79,29.23,2.12-.16,3.89-1.61,5.34-3.53"/><path class="cls-7" d="M431.84,161.6V146.48a35.28,35.28,0,0,0-35.31-35.28h-39.7a35.26,35.26,0,0,0-35.29,35.28V161.6H471.28"/><path class="cls-7" d="M402.19,161.6c.7-41.07-22.69-49.46-25.49-50.32a.86.86,0,0,0-.55,0c-2.8.86-26.19,9.25-25.49,50.32"/><path d="M384.33,111a7.91,7.91,0,0,0-15.81,0Z"/><line class="cls-7" x1="396.41" y1="245.09" x2="387.77" y2="263.34"/><path class="cls-8" d="M426.88,177s-13.49-2.43-18.63,8"/><ellipse cx="418.32" cy="188.5" rx="4.16" ry="3.54" transform="translate(-32.68 272.9) rotate(-34.86)"/><path class="cls-8" d="M409.4,218.53s5.13,7.23,15.6,4.65"/><path class="cls-7" d="M273.42,547.74S244,571.6,239.49,614.58c-1.86,17.73,9.3,33.95,27.13,33.95h58.49"/><path class="cls-7" d="M245.29,637.65s-20.44-31.41-19.52-94"/><path class="cls-7" d="M428.55,400.17A173.19,173.19,0,0,0,430.38,381"/><path d="M243.69,607.77s-1.15-2.15-2.52.86-6.94,27.87,10.2,35.11,53.13,3.11,53.13,3.11S262,637.83,243.69,607.77Z"/></svg>