<svg id="Layer_2" data-name="Layer 2" xmlns="http://www.w3.org/2000/svg" viewBox="0 0 1000 1000"><defs><style>.cls-1,.cls-2,.cls-6{fill:none;stroke-miterlimit:10;}.cls-1,.cls-2{stroke:#ccdde2;}.cls-1{stroke-width:4.23px;}.cls-2,.cls-6{stroke-width:5.91px;}.cls-3{fill:#d7e8f0;}.cls-4{fill:#3fbdf1;}.cls-5{fill:#2e2e2e;}.cls-6{stroke:#000;}.cls-7{opacity:0.61;}</style></defs><path class="cls-1" d="M568.8,176.85c35.75,3.07,71.08-34,98.23-52.4,57.76-39,120.05-27.5,168.91,21.1,116.69,116.06,66.52,316.19,10.92,449.26"/><path class="cls-2" d="M440.64,124.45a8.27,8.27,0,0,1-.86-.4"/><path class="cls-1" d="M429,119.41c-10.08-4.21-20.31-8.11-30.9-11.54C351.63,92.88,318.8,109,297.54,129a141.28,141.28,0,0,0-26.89,35.63c-1.29,2.33-2.28,4.33-3,5.87"/><path class="cls-1" d="M129.09,437.21S70,558.37,190.84,648.38"/><path class="cls-3" d="M306.93,563.1l-1.49-.24a77.22,77.22,0,0,0-11,2.88c-.55.19-1.06.39-1.61.63a71.3,71.3,0,0,0-15.59,8,81.65,81.65,0,0,1-7.64-13.7,76.71,76.71,0,0,1-5.86-21.3,21.12,21.12,0,0,1-4.1-3.9,99.54,99.54,0,0,0,8.15,32.91c.2.44.39.87.59,1.3-.94-1.81-1.85-3.7-2.68-5.63a89.84,89.84,0,0,1-7.4-30.35,77,77,0,0,1,1.81-22.28c4-17.52,14.41-31.89,29.92-38.62l7.48,17.91a39.49,39.49,0,0,0-5.08,2.76c-11,7-18.22,18.66-18.22,31.85a36.31,36.31,0,0,0,9.52,24.4,38.09,38.09,0,0,0,8.63,7.37,43.43,43.43,0,0,0,13.07,5.7A10.59,10.59,0,0,0,306.93,563.1Z"/><path class="cls-3" d="M329.13,566.29c-5.78-.71-11.61-1.5-17.4-2.4a47,47,0,0,0,16-.91Z"/><path class="cls-4" d="M363.15,289.34a88,88,0,0,1,7.48,40.15A267.76,267.76,0,0,0,310,383.62c-21.92-4.05-43.22-21.57-54.48-47.51-16.3-37.44-5.44-78.34,24.29-91.26S346.89,251.82,363.15,289.34Z"/><path class="cls-4" d="M409.13,309.57a140.77,140.77,0,0,0-15.47,6.77c-4.25,2.13-9.29,4.81-14.84,8.07a98.61,98.61,0,0,0-8.35-37.63c-18.07-41.53-59.4-63.62-92.36-49.29s-45,59.6-27,101.18c11.38,26.21,32,44.64,54,51.09-3.54,4.53-7.05,9.33-10.43,14.33a287.22,287.22,0,0,0-32.95,65.67q-2.49,7-4.69,14.33s-10.43,32.36,1.22,49.56a12.11,12.11,0,0,0,1.34,1.77,99.54,99.54,0,0,0,8.15,32.91c.2.44.39.87.59,1.3,1.42,2.72,2.91,5.36,4.53,7.84,1.38-1.1,2.83-2.13,4.33-3.15a81.65,81.65,0,0,1-7.64-13.7,76.71,76.71,0,0,1-5.86-21.3,24.7,24.7,0,0,0,4.05,2.28,137,137,0,0,1,15.94,8.07,30.18,30.18,0,0,1,8.63,7.37,15.46,15.46,0,0,0,3.18,2.87c4.26,2.76,1,4.84-1.1,5.83-.55.19-1.06.39-1.61.63-3.19,1.41-59.05,27-48.11,82l17.6,39.84-28.15,3.19-43.3-548.63,210.53,76.1Z"/><path class="cls-4" d="M272.45,577.78l-11,10.83a128.36,128.36,0,0,1-7.36-14.37c-16.38-37.71-12.56-77.91,6.85-103.46a0,0,0,0,1,0,0c.24-.31.47-.67.75-1l.08-.08-1.74,41.69-.7,16.57s0,4.29.15,6.34c0,.39,0,.75.08,1.14a99.54,99.54,0,0,0,8.15,32.91c.2.44.39.87.59,1.3C269.61,572.43,271,575.14,272.45,577.78Z"/><polygon class="cls-3" points="190.85 142.76 97.68 197.32 162.37 691.39 234.03 689.76 190.85 142.76 190.85 142.76"/><path class="cls-4" d="M393.66,316.34a123.31,123.31,0,0,0-9.57-35.47c-22.16-51.06-73-78.14-113.45-60.58s-55.28,73.26-33.11,124.28c12.4,28.5,33.7,49.56,57.16,59.52,18.54,7.88,38.42,8.82,56.29,1.07C382.12,391.61,398.11,355.55,393.66,316.34ZM343.54,388c-12.2,5.32-25.51,5.63-38.42,1.81-22-6.45-42.59-24.88-54-51.09-18.07-41.58-6-86.85,27-101.18s74.29,7.76,92.36,49.29a98.61,98.61,0,0,1,8.35,37.63C379.37,352.84,366.53,378,343.54,388Z"/><path class="cls-3" d="M408.27,317A145.11,145.11,0,0,0,397,275.26c-26.07-60.07-85.85-91.93-133.46-71.27s-65,86.18-39,146.2c14.59,33.52,39.64,58.3,67.25,70,21.81,9.26,45.19,10.37,66.22,1.25C394.7,405.53,413.5,363.11,408.27,317Zm-58.95,84.24c-14.36,6.25-30,6.62-45.2,2.13-25.84-7.6-50.11-29.27-63.49-60.11-21.26-48.9-7-102.16,31.72-119s87.39,9.13,108.64,58a115.85,115.85,0,0,1,9.82,44.28C391.46,359.91,376.36,389.46,349.32,401.22Z"/><path class="cls-3" d="M370.63,329.49c-1.38,23-12.72,42.79-31.77,51.1a48.68,48.68,0,0,1-28.86,3c-21.92-4.05-43.22-21.57-54.48-47.51-16.3-37.44-5.44-78.34,24.29-91.26s67.08,7,83.34,44.49A88,88,0,0,1,370.63,329.49Z"/><path class="cls-4" d="M330.62,370.73c-25.41,11.06-57.28-6-71.23-38s-4.62-67,20.79-78,57.31,6,71.22,38S356,359.7,330.62,370.73Z"/><path class="cls-4" d="M305.44,562.86a77.22,77.22,0,0,0-11,2.88c-.55.19-1.06.39-1.61.63a71.3,71.3,0,0,0-15.59,8,81.65,81.65,0,0,1-7.64-13.7,76.71,76.71,0,0,1-5.86-21.3c-3.15-25,6.85-48.15,26.65-56.73l2,10.83c-11,7-18.22,18.66-18.22,31.85a36.31,36.31,0,0,0,9.52,24.4,38.09,38.09,0,0,0,8.63,7.37,43.43,43.43,0,0,0,13.07,5.7Z"/><ellipse class="cls-4" cx="301.47" cy="312.73" rx="17.89" ry="22.57" transform="translate(-99.68 146.12) rotate(-23.5)"/><path class="cls-4" d="M636.85,289.34a88,88,0,0,0-7.48,40.15A267.76,267.76,0,0,1,690,383.62c21.92-4.05,43.22-21.57,54.48-47.51,16.3-37.44,5.44-78.34-24.29-91.26S653.11,251.82,636.85,289.34Z"/><path class="cls-4" d="M590.87,309.57a140.77,140.77,0,0,1,15.47,6.77c4.25,2.13,9.29,4.81,14.84,8.07a98.61,98.61,0,0,1,8.35-37.63c18.07-41.53,59.4-63.62,92.36-49.29s45,59.6,27,101.18c-11.38,26.21-32,44.64-54,51.09,3.54,4.53,7,9.33,10.43,14.33a287.22,287.22,0,0,1,33,65.67q2.49,7,4.69,14.33s10.43,32.36-1.22,49.56a12.11,12.11,0,0,1-1.34,1.77,99.54,99.54,0,0,1-8.15,32.91c-.2.44-.39.87-.59,1.3-1.42,2.72-2.91,5.36-4.53,7.84-1.38-1.1-2.83-2.13-4.33-3.15a81.65,81.65,0,0,0,7.64-13.7,76.71,76.71,0,0,0,5.86-21.3,24.7,24.7,0,0,1-4,2.28,137,137,0,0,0-15.94,8.07,30.18,30.18,0,0,0-8.63,7.37,15.46,15.46,0,0,1-3.18,2.87c-4.26,2.76-1,4.84,1.1,5.83.55.19,1.06.39,1.61.63,3.19,1.41,59,27,48.11,82l-17.6,39.84,28.15,3.19,43.3-548.63-210.53,76.1Z"/><path class="cls-4" d="M727.55,577.78l11,10.83a128.36,128.36,0,0,0,7.36-14.37c16.38-37.71,12.56-77.91-6.85-103.46a0,0,0,0,0,0,0c-.24-.31-.47-.67-.75-1l-.08-.08,1.74,41.69.7,16.57s0,4.29-.15,6.34c0,.39,0,.75-.08,1.14a99.54,99.54,0,0,1-8.15,32.91c-.2.44-.39.87-.59,1.3C730.39,572.43,729,575.14,727.55,577.78Z"/><polygon class="cls-3" points="809.15 142.76 902.32 197.32 837.63 691.39 765.97 689.76 809.15 142.76 809.15 142.76"/><path class="cls-4" d="M606.34,316.34a123.31,123.31,0,0,1,9.57-35.47c22.16-51.06,73-78.14,113.45-60.58s55.28,73.26,33.11,124.28c-12.4,28.5-33.7,49.56-57.16,59.52-18.54,7.88-38.42,8.82-56.29,1.07C617.88,391.61,601.89,355.55,606.34,316.34ZM656.46,388c12.2,5.32,25.51,5.63,38.42,1.81,22-6.45,42.59-24.88,54-51.09,18.07-41.58,6-86.85-27-101.18s-74.29,7.76-92.36,49.29a98.61,98.61,0,0,0-8.35,37.63C620.63,352.84,633.47,378,656.46,388Z"/><path class="cls-4" d="M666.82,449.05c-11.77-3.38-23.58,2.41-34.8,7a101.65,101.65,0,0,0,52.12,5.16C678.43,455.59,672.6,450.71,666.82,449.05Z"/><path class="cls-3" d="M591.73,317A145.11,145.11,0,0,1,603,275.26c26.07-60.07,85.85-91.93,133.46-71.27s65,86.18,38.95,146.2c-14.59,33.52-39.64,58.3-67.25,70-21.81,9.26-45.19,10.37-66.22,1.25C605.3,405.53,586.5,363.11,591.73,317Zm58.95,84.24c14.36,6.25,30,6.62,45.2,2.13,25.84-7.6,50.11-29.27,63.49-60.11,21.26-48.9,7-102.16-31.72-119s-87.39,9.13-108.64,58a115.85,115.85,0,0,0-9.82,44.28C608.54,359.91,623.64,389.46,650.68,401.22Z"/><path class="cls-3" d="M629.37,329.49c1.38,23,12.72,42.79,31.77,51.1a48.68,48.68,0,0,0,28.86,3c21.92-4.05,43.22-21.57,54.48-47.51,16.3-37.44,5.44-78.34-24.29-91.26s-67.08,7-83.34,44.49A88,88,0,0,0,629.37,329.49Z"/><path class="cls-4" d="M669.38,370.73c25.41,11.06,57.28-6,71.23-38s4.62-67-20.79-78-57.31,6-71.22,38S644,359.7,669.38,370.73Z"/><path class="cls-4" d="M694.56,562.86a77.22,77.22,0,0,1,11,2.88c.55.19,1.06.39,1.61.63a71.3,71.3,0,0,1,15.59,8,81.65,81.65,0,0,0,7.64-13.7,76.71,76.71,0,0,0,5.86-21.3c3.15-25-6.85-48.15-26.65-56.73l-2,10.83c14,5.86,23.15,16.7,18.22,31.85-2.86,8.79-3.54,17.75-9.52,24.4a38.09,38.09,0,0,1-8.63,7.37,43.43,43.43,0,0,1-13.07,5.7Z"/><ellipse class="cls-4" cx="698.53" cy="312.73" rx="22.57" ry="17.89" transform="translate(133.24 828.66) rotate(-66.5)"/><path class="cls-4" d="M506.4,510C528.88,518.41,549,528.8,565.61,542c-17.28-12.56-41.81-25.12-77.16-38.19-59.52-22.08-98.65-17.43-98.65-17.43,8.34-7.52,2.67-17.52,2.67-17.52s-13.26-12.88-65.42,3.85-53.7,45.24-53.7,45.24c-3.47,21.14,12.16,35.43,12.16,35.43l.12.51a38.47,38.47,0,0,1-6.85-7.91c-.51-.75-1-1.54-1.42-2.33a33.71,33.71,0,0,1-2.71-6.1,19.49,19.49,0,0,1-.71-2.16c0-.24-.12-.47-.16-.71a22.37,22.37,0,0,1-.55-2.32c0-.28-.12-.59-.16-.91a23.66,23.66,0,0,1-.31-2.36,34.41,34.41,0,0,1-.2-5.75s0-.79.08-2c0-.08,0-.15,0-.23.16-3,.71-8.39,2.24-12-1.26,1.81-2.48,3.66-3.7,5.51-.75,1.18-1.85,3.19-3.15,5.36a3.46,3.46,0,0,0-.31.47c-3.39,4.49-7,8.23-10,7.68a3.16,3.16,0,0,1-.59-.2c-1.81-.75-2.92-2.72-3.62-5.28.23,0-.2-.67-.24-1a23.77,23.77,0,0,1-.51-3.23v0c0-.67-.12-1.38-.16-2.08v-.83a112.62,112.62,0,0,1,1.26-17.72c2.95-22.59,13.78-43.42,24.33-63.26a343.22,343.22,0,0,1,57.87-78.54c28.86-29.52,75.27-51.73,116.57-58.89v98L488,374.25s14.29,36,18.38,85.11a294,294,0,0,1,.2,48.3c0,.2,0,.4-.08.55C506.52,508.8,506.44,509.43,506.4,510Z"/><path class="cls-4" d="M523.63,503.76c56.57-22.08,82.92-19.29,82.92-19.29C598.62,477,601,469.74,601,469.74s26.41-13.81,76,2.92,51,45.24,51,45.24c3.29,21.14-11.56,35.43-11.56,35.43l-.11.51a38.07,38.07,0,0,0,6.51-7.91c.49-.75.93-1.54,1.35-2.33a35.45,35.45,0,0,0,2.58-6.1,21.67,21.67,0,0,0,.67-2.16c0-.24.11-.47.15-.71.22-.75.37-1.54.52-2.32,0-.28.12-.59.15-.91a21.1,21.1,0,0,0,.3-2.36,36.69,36.69,0,0,0,.19-5.75s0-.79-.08-2c0-.08,0-.15,0-.23-.15-3-.68-8.39-2.14-12,1.2,1.81,2.36,3.66,3.52,5.51.71,1.18,1.76,3.19,3,5.36a2.19,2.19,0,0,1,.3.47c3.22,4.49,6.66,8.23,9.47,7.68a3.14,3.14,0,0,0,.56-.2c1.72-.75,2.77-2.72,3.44-5.28-.22,0,.19-.67.23-1a24.85,24.85,0,0,0,.48-3.23v0c0-.67.11-1.38.15-2.08v-.83a118.43,118.43,0,0,0-1.19-17.72c-2.81-22.59-13.1-43.42-23.12-63.26a343.08,343.08,0,0,0-55-78.54C641,326.3,596.85,304.09,557.6,296.93v98l-30.24-18.82a440,440,0,0,0-15.9,87.36c-1.2,15.07-6.38,27.32-5.07,44.21,0,.2,0,.4.07.55,0,.59.08,1.22.11,1.81Z"/><path class="cls-4" d="M624.78,683.52c.08-3.39.16-7,.2-10.91l.12,3.66A38.18,38.18,0,0,1,624.78,683.52Z"/><path class="cls-5" d="M424.78,936.45,312.58,950a15.25,15.25,0,0,1-15.27-15.23v0a15.26,15.26,0,0,1,15.27-15.24L353.68,908a13.2,13.2,0,0,0,8.23-18.66l-50.15-99.68c65.38,24.37,91.41-9.72,91.41-9.72L438.4,916.49A16.1,16.1,0,0,1,424.78,936.45Z"/><path class="cls-5" d="M704,934.72v0A15.22,15.22,0,0,1,688.78,950L577.05,939.88A16.05,16.05,0,0,1,563,920l35.73-140c12.21,9.53,39.46,29.1,90.13,13.19l-49.1,99.21a13.24,13.24,0,0,0,9.14,18.82l39.92,8.3A15.22,15.22,0,0,1,704,934.72Z"/><path class="cls-5" d="M488.68,374.25l-35.31,20.66v-98c.35-.08.75-.12,1.1-.2Z"/><path class="cls-5" d="M559,298.62v96.29l-9.09-5.43L527.57,376.1l30.32-77.71a.54.54,0,0,1,1-.12Z"/><path class="cls-6" d="M425,678.32l-1.61.71"/><path class="cls-6" d="M404.44,715c-2.32,1.26-6.29,6-6.29,6-4.3,6-6.15,14.57-3,27.95L438.38,916.5a16.08,16.08,0,0,1-13.62,20L312.56,950a15.26,15.26,0,0,1-15.27-15.24v0a15.26,15.26,0,0,1,15.27-15.24L353.66,908a13.2,13.2,0,0,0,8.23-18.66L251.07,669.11a75.4,75.4,0,0,1,21.81-91.64c1.38-1.11,2.83-2.13,4.33-3.15a74.43,74.43,0,0,1,28.23-11.46"/><path class="cls-6" d="M696.07,562.93c47.88,8.9,75.39,61.14,54.13,106.18L639.71,892.37a13.21,13.21,0,0,0,9.14,18.79l39.9,8.32A15.22,15.22,0,0,1,704,934.72v0A15.22,15.22,0,0,1,688.75,950L577,939.88A16.05,16.05,0,0,1,562.93,920l43.19-171.05a35.23,35.23,0,0,0-4.76-27.4c-10.37-16.4-62.05-26.34-62.05-26.34-10.08-1.61-21.57-2.93-34.65-3.78a63,63,0,0,0-8,0c-13.12.85-24.6,2.17-34.69,3.78"/><path class="cls-6" d="M578.6,675.37c-1-.44-2-.83-3.07-1.26"/><path class="cls-6" d="M558.13,668.44c-1.65-.47-3.38-.91-5.2-1.3"/><path class="cls-6" d="M447.63,671.27c-1.07.24-2.13.48-3.15.79"/><path class="cls-6" d="M600.37,472.66a84.22,84.22,0,0,1,2.48,11.81c-34.36,5-67,13.51-96,25.55"/><path class="cls-6" d="M413.1,577.81c-8.18,3.05-13.93,9.9-19.21,16.53a276.08,276.08,0,0,1-20,22.91c-5.9,6-13.16,11-17.16,18.55a2,2,0,0,1-.12.28c-5.83,11.65,10.08,22.12,19,12.6l5.27-5.59"/><path class="cls-6" d="M392.3,612.54C377.79,636.41,377,668,376.2,696c-.12,3.92-.06,8,1.57,11.55,3.67,8.06,16.8,8.06,17.71-2,1.85-21.53,7.17-46,7.68-48.64"/><path class="cls-6" d="M601,582c.24,0,.51-.12.75-.16,31.38-7.32,63.11-13.46,94.28-18.94.36-.07.67-.11,1-.19a38.17,38.17,0,0,0,25.43-16.81"/><path class="cls-6" d="M521,603.44c-14,4.36-25.9,9.14-38.31,17.46-16.57,11.13-17.37,29.86-16.77,46.71.24,6.89.52,13.74.52,20.59a7.83,7.83,0,0,1-7.84,7.83h-1.85a7.78,7.78,0,0,1-7.79-7.44l-1.3-17.32-1.58-20.82s-.78,9.45-1.57,21.61c-.67,10.55-1.3,23.15-1.34,33.34a7.82,7.82,0,0,1-15.59.87c-.75-6.22-1.85-16.22-2.56-27.95-.43-6.65-.75-13.86-.79-21.26"/><path class="cls-6" d="M424.2,656.86v.2c-.94,19.72-1.61,43.38-.63,61.77.27,5.08-4.64,8.63-9.41,8.53-6.66-.14-8.88-5.33-9.57-11.05-2.42-20.23-5-39.12-1.45-59.39a.14.14,0,0,0,0-.11"/><path class="cls-6" d="M602.85,484.47a44.18,44.18,0,0,1,31.26,7.88"/><path class="cls-6" d="M398.89,484.47c39.13,5.75,76,13.59,108,25.55,29.64,11.07,55.07,25.63,74.12,45.32,12.44,12.75,22,28.1,31.54,43.1.9,1.38,1.77,2.76,2.67,4.14a67.05,67.05,0,0,0,11.26,14c4.81,4.29,10.59,7.76,13.9,13.47s2.6,12.75-3.27,16.45c-2.79,1.77-9.37,2.87-12.87.55"/><path class="cls-6" d="M577.54,637.18v.2c.93,19.25,1.59,42.26.7,60.45a9.13,9.13,0,0,0,9.15,9.54h0a9.15,9.15,0,0,0,9.1-8.17c1.59-14.88,4.22-38.38-1-67.85a.13.13,0,0,1,0-.11c.52,2.63,8.92,33.1,10.77,54.64.92,10,14,10,17.72,2,1.63-3.57,1.68-7.63,1.57-11.55-.8-27.95-1.59-59.56-16.1-83.42"/><path class="cls-6" d="M398.89,484.47a44.16,44.16,0,0,0-31.25,7.88"/><path class="cls-6" d="M453.14,297v98l35.31-20.66-34.21-77.53A.57.57,0,0,0,453.14,297Z"/><path class="cls-6" d="M488.45,374.25s25,62.91,18.39,135.77c0,0,7.2-93.95,20.52-133.93l31.42,18.82v-96.3a.57.57,0,0,0-1.11-.21l-30.31,77.69"/><line class="cls-6" x1="558.78" y1="298.61" x2="540.6" y2="234.05"/><line class="cls-6" x1="454.24" y1="296.72" x2="464.37" y2="242.3"/><path class="cls-6" d="M329.13,566.29a.15.15,0,0,1,.12,0,66.65,66.65,0,0,1,26.26,21.37,57.28,57.28,0,0,1,6.85,12,65.94,65.94,0,0,1,5.28,23.3"/><path class="cls-6" d="M626.43,616.59s12.85-43.43,69.64-53.66"/><path class="cls-6" d="M604.43,727.36s1.88-15.16,5.2-35.28"/><path class="cls-5" d="M585.58,164.92c0,26.82-14.62,50.78-34.77,66.33a95.81,95.81,0,0,1-12.27,8.08,55.25,55.25,0,0,0,4.86-23.22l0-5.28a20,20,0,0,0,2.48-2.15,20.73,20.73,0,0,0,2.86-3.45,22.57,22.57,0,0,0,2.16-4,23,23,0,0,0,1.84-9.08,17.53,17.53,0,0,0-.13-2.19,1.11,1.11,0,0,0,0-.36,14.24,14.24,0,0,0-.32-2.06.72.72,0,0,0,0-.25,15.29,15.29,0,0,0-.55-2.06,16.31,16.31,0,0,0-.77-2.16,6.94,6.94,0,0,0-.32-.68,11.07,11.07,0,0,0-.61-1.25,1.05,1.05,0,0,0-.17-.29,13.66,13.66,0,0,0-1.06-1.74c-.35-.55-.77-1.1-1.16-1.61-.58-.68-1.16-1.32-1.77-1.93s-1-.91-1.48-1.36c-.26-.22-.55-.45-.84-.67s-.8-.58-1.22-.84a15.63,15.63,0,0,0-1.77-1.06,21,21,0,0,0-4.67-1.9V159.48a5.16,5.16,0,0,0,0-.68,10.26,10.26,0,0,0-10.27-9.6H474.33a10.28,10.28,0,0,0-10.27,10.28v10.91a23.34,23.34,0,0,0-6.12,40.09v5.7a55.39,55.39,0,0,0,5,23.15,96.09,96.09,0,0,1-23.7-18.39c-9.72-13.42-15.81-29.49-15.81-46.78a84.91,84.91,0,0,1,146.35-58.64A84.46,84.46,0,0,1,585.58,164.92Z"/><path class="cls-6" d="M457.93,210.46v5.72A53.37,53.37,0,0,0,469.55,250c6.53,8,16.31,15.11,30.56,15.6,16.73.59,27.6-9.14,34.27-18.95a53.65,53.65,0,0,0,9-30.56l-.16-24.72V175.25"/><path class="cls-4" d="M495.81,192.16a23.37,23.37,0,0,1-23.38,23.37,21,21,0,0,1-4.31-.41,23.35,23.35,0,0,1,11.14-43.89,21,21,0,0,1,4.31.42A23.3,23.3,0,0,1,495.81,192.16Z"/><path class="cls-4" d="M552.7,192.16a23.37,23.37,0,0,1-23.38,23.37,21,21,0,0,1-4.31-.41,23.35,23.35,0,0,1,11.14-43.89,21,21,0,0,1,4.31.42A23.3,23.3,0,0,1,552.7,192.16Z"/><circle class="cls-6" cx="472.44" cy="192.17" r="23.36"/><circle class="cls-6" cx="529.34" cy="192.17" r="23.36"/><path class="cls-6" d="M495.8,235.87s13.41,8.59,21.24-3.22"/><path class="cls-6" d="M538.51,239.33c26.21-14.46,47.07-42.37,47.07-74.41a84.93,84.93,0,1,0-169.85,0c0,32.07,20.92,60,47.16,74.41"/><path class="cls-6" d="M464.05,168.91v-9.42a10.29,10.29,0,0,1,10.28-10.29h51.16a10.29,10.29,0,0,1,10.29,10.29v9.32"/><path class="cls-6" d="M273,523.3a38.31,38.31,0,0,0,31.65,39.44l.79.12c7.87,1.38,15.78,2.44,23.69,3.43a.15.15,0,0,1,.12,0c11.93,1.45,23.86,2.71,35.75,4.33l.83.11c4.13.6,8.3,1.19,12.44,1.82,11.61,1.65,23.22,3.42,34.84,5.23,19.17,2.95,38.34,5.95,57.51,8.86,13.9,2.09,28.9,2.56,41.3,9.88a46.93,46.93,0,0,1,9.05,6.89c9.8,9.29,15.28,22.44,16.18,35.82.55,8.27-1.57,16.18-1.77,24.41,0,1.62,0,3.19,0,4.8a7.84,7.84,0,0,0,7.83,7.88h1.7a8,8,0,0,0,8-7.44l.12-1.77,2.75-36.38s1.62,18.94,2.44,37.68c.24,6,.44,12,.48,17.28a7.77,7.77,0,0,0,8.78,7.67,8.12,8.12,0,0,0,6.85-7.24c.39-3.19.82-7.28,1.29-12,1-10,1.89-23.07,2-36.73"/><path d="M747.72,522.54c-1.85,7.8-7.55,19.61-25.19,23.39a38.09,38.09,0,0,0,6.22-22.64c-.2-4.29-.29-6.39-.76-11.23,4.33,6.77,11.35,17.77,16.11,15.76C745.91,527.07,747,525.1,747.72,522.54Z"/><path class="cls-6" d="M574.39,426.72a93.64,93.64,0,0,1,12.76,15.95,22.42,22.42,0,0,1,3.5,12.12v17.87c3-1,5.94-1.85,9-2.59a139,139,0,0,1,64.49-.48,118.06,118.06,0,0,1,41.49,19,121,121,0,0,1,10.87,8.82,84.44,84.44,0,0,1,9.59,9.79c4.8,6.12,7.6,14.19,13.7,19.28,1.16,1,2.79,2,4.34,1.36,1.81-.75,2.92-2.72,3.62-5.28-1.85,7.8-7.55,19.61-25.19,23.39"/><path class="cls-6" d="M558.05,296.1c41.57,7,78,29.92,107.12,59.72A343.22,343.22,0,0,1,723,434.36c10.55,19.84,21.38,40.67,24.33,63.26a112.62,112.62,0,0,1,1.26,17.72v.83c0,.7-.12,1.41-.16,2.08v0a24.84,24.84,0,0,1-.51,3.23,4.71,4.71,0,0,1-.24,1"/><path class="cls-6" d="M747.72,522.54a4.71,4.71,0,0,0,.24-1,23.77,23.77,0,0,0,.51-3.23v0c.12-.86.12-1.57.16-2.08v-.83"/><path d="M254,522.54c1.85,7.8,7.56,19.61,25.2,23.39A38,38,0,0,1,273,523.29c.19-4.29.28-6.39.75-11.23-4.33,6.77-11.34,17.77-16.11,15.76C255.82,527.07,254.72,525.1,254,522.54Z"/><path class="cls-6" d="M427.35,426.72a93.64,93.64,0,0,0-12.76,15.95,22.42,22.42,0,0,0-3.5,12.12v17.87c-3-1-5.95-1.85-9-2.59a139,139,0,0,0-64.48-.48,118.11,118.11,0,0,0-41.5,19,120.84,120.84,0,0,0-10.86,8.82c-5.45,5-9.62,11-13.61,17.13-2.4,3.71-8.05,15.82-14,13.3-1.81-.75-2.91-2.72-3.62-5.28,1.85,7.8,7.56,19.61,25.2,23.39"/><path class="cls-6" d="M454.24,296.72c-41.58,7-88.54,29.3-117.68,59.1a343.52,343.52,0,0,0-57.87,78.54c-10.55,19.84-21.37,40.67-24.32,63.26a111.41,111.41,0,0,0-1.26,17.72v.83c0,.7.11,1.41.15,2.08v0a24.79,24.79,0,0,0,.52,3.23,4.17,4.17,0,0,0,.23,1"/><path class="cls-6" d="M254,522.54c.25,0-.2-.67-.23-1a24,24,0,0,1-.52-3.23v0c-.11-.86-.11-1.57-.15-2.08v-.83"/><path class="cls-6" d="M726.06,507.18s8.65,21.36-4.55,40.23"/><path class="cls-6" d="M464.37,390.32l5,35.88a38.51,38.51,0,0,0,38.14,33.18h0a38.51,38.51,0,0,0,38.27-34.31l3.9-35.6"/><path class="cls-6" d="M273,523.29s.13-8.92,2.39-14.3"/><line class="cls-6" x1="396.32" y1="468.8" x2="392.49" y2="484.11"/><path class="cls-6" d="M403.16,780s-26,34.09-91.43,9.71"/><path class="cls-6" d="M598.69,780s26,34.09,91.43,9.71"/><path d="M625.13,654.74q0,9.68-.15,17.87c-.24-8.34-.55-17-1.22-25.55-1.38-17-4.33-33.93-11.66-48.54,0,0,0,0,0-.08-3.5-5.55-7-11.1-10.66-16.57h0a181.42,181.42,0,0,0-20.83-26.53,150.5,150.5,0,0,0-14.33-13c11.5,8.47,19.69,17,25.71,25.63C607,589.7,625.25,609.47,625.13,654.74Z"/><line class="cls-6" x1="852.6" y1="691.39" x2="739.18" y2="691.39"/><line class="cls-6" x1="262.29" y1="691.39" x2="162.37" y2="691.39"/><g class="cls-7"><path class="cls-4" d="M652.39,160.7,650.44,163l-2.86-2.42,1.95-2.3a3.85,3.85,0,0,0-.44-5.43L629.5,136.21l8.68-28.13L660,126.62a7.7,7.7,0,0,1,.89,10.85l-2.29,2.7-2.86-2.42,2.29-2.7a4,4,0,0,0-.45-5.57l-17.51-14.87L633.81,135l17.7,15A7.61,7.61,0,0,1,652.39,160.7Z"/><circle class="cls-4" cx="647.73" cy="163.29" r="4.06"/><circle class="cls-4" cx="657.57" cy="139.15" r="4.06"/></g><g class="cls-7"><path class="cls-4" d="M850.18,143.94l-3-1,1.24-3.69,3,1a4,4,0,0,0,5.07-2.51L865,112.45,895.48,110,886,138.19a8,8,0,0,1-10.13,5l-3.49-1.17,1.24-3.69,3.49,1.18a4.11,4.11,0,0,0,5.2-2.59l7.61-22.6-22,1.77L860.18,139A7.91,7.91,0,0,1,850.18,143.94Z"/><circle class="cls-4" cx="845.88" cy="140.44" r="4.22"/><circle class="cls-4" cx="872.96" cy="140.66" r="4.22"/></g><g class="cls-7"><path class="cls-4" d="M700.58,120.66l-5.11-3.74,6-8.19a22.63,22.63,0,0,1-6.62-6.52,15.76,15.76,0,0,1-1.34-15c1.71-4.22,5-8.06,9.93-11.73,9.74-7.2,21.32-10.77,31.75-12.85l5-6.76c1.43-1.95,3.82-5.22,7.74-5.82a8.14,8.14,0,0,1,8.72,10.26C754.75,66,748,67,745.09,67.41c-2,.29-4.1.62-6.27,1L725.15,87.1c6,3,8.57,10.22,6.07,17-2.3,6.2-8.21,9.68-15.82,9.32a27.36,27.36,0,0,1-8.22-1.76Zm28.88-50.17c-7.68,2-15.53,5.14-22.27,10.12-4,3-6.56,5.9-7.82,9a9.54,9.54,0,0,0,.8,9.16,16.91,16.91,0,0,0,5,4.84l7.73-10.57c-.55.18-1.12.39-1.69.62l-2.36-5.88a27.67,27.67,0,0,1,9.44-2.1Zm-8.17,21.88L711.1,106.3a20.52,20.52,0,0,0,4.61.79c2.26.11,7.71-.18,9.56-5.19,1.17-3.16.56-7.41-2.95-9.13A6.3,6.3,0,0,0,721.29,92.37Zm28.43-35.73a1.23,1.23,0,0,0-.89-.29c-1.21.18-2.49,1.79-3.58,3.29l-1.1,1.51h0c2.47-.36,5.81-1,6.37-2.75a1.6,1.6,0,0,0-.45-1.38A2.26,2.26,0,0,0,749.72,56.64Z"/></g><g class="cls-7"><path class="cls-4" d="M196,119.27l1,2.85-3.54,1.22-1-2.85a3.86,3.86,0,0,0-4.9-2.38l-24.28,8.38L143.48,104.7l27.08-9.35a7.71,7.71,0,0,1,9.79,4.77l1.15,3.34L178,104.69l-1.15-3.35a4,4,0,0,0-5-2.45l-21.71,7.5,14.31,15.75,22-7.57A7.61,7.61,0,0,1,196,119.27Z"/><circle class="cls-4" cx="195.85" cy="124.6" r="4.06"/><circle class="cls-4" cx="180.1" cy="103.84" r="4.06"/></g><g class="cls-7"><path class="cls-4" d="M365.42,168.85l-4.56,3.93L356,167.12l4.56-3.93a7.71,7.71,0,0,0,.8-10.84l-33.48-38.81,25.77-52.77L391,104a15.38,15.38,0,0,1-1.6,21.67L384,130.32l-4.89-5.66,5.35-4.61a7.91,7.91,0,0,0,.82-11.13L355.37,74.23l-18.63,38.16L367,147.47A15.17,15.17,0,0,1,365.42,168.85Z"/><circle class="cls-4" cx="355.44" cy="172.53" r="8.1"/><circle class="cls-4" cx="382.27" cy="127.99" r="8.1"/></g><g class="cls-7"><path class="cls-4" d="M266,142.48,260.13,145l-4-9.33a22.52,22.52,0,0,1-9,2.38,15.75,15.75,0,0,1-13.55-6.47c-2.77-3.62-4.41-8.38-5-14.52-1.23-12,1.59-23.84,5.11-33.87l-3.29-7.7c-1-2.23-2.55-5.95-1.07-9.63a8.14,8.14,0,0,1,13.27-2.28c4,4.48,1.35,10.8.24,13.5-.78,1.87-1.57,3.85-2.33,5.91l9.11,21.28c5.58-3.64,13.16-2.17,17.72,3.44,4.16,5.13,4.15,12,0,18.35a27,27,0,0,1-5.71,6.19ZM237.48,92.07c-2.14,7.65-3.48,16-2.63,24.31.51,5,1.74,8.66,3.78,11.33a9.52,9.52,0,0,0,8.3,4,16.65,16.65,0,0,0,6.72-1.87l-5.16-12q-.18.85-.33,1.77l-6.26-1a27.45,27.45,0,0,1,3-9.19Zm14.68,18.18L259,126.11a20.41,20.41,0,0,0,3-3.56c1.24-1.89,3.77-6.73.4-10.88-2.12-2.61-6.09-4.26-9.36-2.11A6.84,6.84,0,0,0,252.16,110.25ZM235.89,67.58a1.3,1.3,0,0,0-.71.62c-.46,1.14.28,3,1,4.76l.74,1.71,0,0c.94-2.3,2.07-5.53.87-6.89a1.63,1.63,0,0,0-1.41-.31A2.23,2.23,0,0,0,235.89,67.58Z"/></g></svg>