<svg id="Layer_2" data-name="Layer 2" xmlns="http://www.w3.org/2000/svg" xmlns:xlink="http://www.w3.org/1999/xlink" viewBox="0 0 1000 1000"><defs><style>.cls-1,.cls-10,.cls-11,.cls-12,.cls-13,.cls-14,.cls-19,.cls-21,.cls-3,.cls-4,.cls-5,.cls-6,.cls-7,.cls-8,.cls-9{fill:none;}.cls-2{clip-path:url(#clip-path);}.cls-10,.cls-11,.cls-12,.cls-13,.cls-14,.cls-3,.cls-4,.cls-5,.cls-6,.cls-7,.cls-8,.cls-9{stroke:#ccdde2;}.cls-10,.cls-11,.cls-12,.cls-13,.cls-14,.cls-19,.cls-20,.cls-21,.cls-3,.cls-4,.cls-5,.cls-6,.cls-7,.cls-8,.cls-9{stroke-miterlimit:10;}.cls-10,.cls-11,.cls-12,.cls-13,.cls-14,.cls-19,.cls-20,.cls-3,.cls-4,.cls-5,.cls-6,.cls-7,.cls-8,.cls-9{stroke-width:3.69px;}.cls-4{stroke-dasharray:26.26 28.64 28.64 26.26;}.cls-5{stroke-dasharray:28.64 28.64 26.26 28.64 28.64 26.26;}.cls-6{stroke-dasharray:27.14 29.61 29.61 27.14;}.cls-7{stroke-dasharray:29.61 29.61 27.14 29.61 29.61 27.14;}.cls-8{stroke-dasharray:28.96 31.6 31.6 28.96;}.cls-9{stroke-dasharray:31.6 31.6 28.96 31.6 31.6 28.96;}.cls-10{stroke-dasharray:29.9 29.9 27.41 29.9 29.9 27.41;}.cls-11{stroke-dasharray:27.97 27.97 25.64 27.97 27.97 25.64;}.cls-12{stroke-dasharray:27.41 29.9 29.9 27.41;}.cls-13{stroke-dasharray:30.52 30.52 27.98 30.52 30.52 27.98;}.cls-14{stroke-dasharray:28.39 28.39 26.02 28.39 28.39 26.02;}.cls-15{fill:#fff;}.cls-16{fill:#2e2e2e;}.cls-17{fill:#3fbdf1;}.cls-18{fill:#d7e8f0;}.cls-19,.cls-20,.cls-21{stroke:#000;}.cls-21{stroke-width:2.46px;}</style><clipPath id="clip-path"><path class="cls-1" d="M733.16,949.46S821.48,960.55,836,882.22c6.61-35.74-.46-73.16-25.53-100.39a114.33,114.33,0,0,0-37.6-26.72c-13.68-6.09-37.26-5.91-47.28-17.24-20.75-23.47,3-53.43,17.86-71.77A329.7,329.7,0,0,0,791,586.37c34.37-81.75,27.46-166.24,13.86-251.69C785.06,210.33,706,116.37,588.1,73.21c-1.29-.47-2.73-.93-4-.4-2.12.89-2.29,3.8-2,6.09,4.15,35.73,26,72.55,40.95,104.75,6,13,12.87,25.79,18.23,39.06.46,1.16,6.6,14.65,2.87,9.16-16.12-23.74-18.37-55.25-9.8-82.25.18-.58.39-1.15.58-1.73,0,0-234.53-97.5-298.84-7.38a251.63,251.63,0,0,0-43,105.22c-5.89,36-9.35,74.44,5.49,108.54C308,375.84,321,395.8,328.94,417.93c15.87,44,10.77,96.28-16.86,134.45-25.94,35.83-66.83,56.64-96.27,89.09C180.19,680.73,160.45,734,161.75,787c1,39.13,13.78,74.16,39.54,103.81C220,912.35,242,936.37,270.71,943.9c17.49,4.6,36.27,3.79,54.18,5"/></clipPath></defs><g class="cls-2"><line class="cls-3" x1="955.16" y1="102.11" x2="950.1" y2="115.96"/><line class="cls-4" x1="940.26" y1="142.86" x2="907.05" y2="233.65"/><line class="cls-5" x1="902.54" y1="245.98" x2="677.49" y2="861.35"/><line class="cls-3" x1="672.98" y1="873.68" x2="667.92" y2="887.53"/><line class="cls-3" x1="945.62" y1="15.8" x2="940.54" y2="29.64"/><line class="cls-6" x1="930.35" y1="57.44" x2="895.97" y2="151.27"/><line class="cls-7" x1="891.3" y1="164.01" x2="658.24" y2="799.95"/><line class="cls-3" x1="653.57" y1="812.7" x2="648.5" y2="826.54"/><line class="cls-8" x1="920.08" y1="-27.02" x2="883.27" y2="73.06"/><line class="cls-9" x1="878.27" y1="86.65" x2="692.42" y2="591.99"/><line class="cls-3" x1="687.42" y1="605.58" x2="682.33" y2="619.42"/><line class="cls-10" x1="872.15" y1="-7.12" x2="579.07" y2="799.8"/><line class="cls-3" x1="574.39" y1="812.68" x2="569.36" y2="826.54"/><line class="cls-11" x1="1027.02" y1="368.31" x2="810.67" y2="970.39"/><line class="cls-3" x1="806.33" y1="982.45" x2="801.35" y2="996.33"/><line class="cls-7" x1="1013.86" y1="289.12" x2="780.8" y2="925.06"/><line class="cls-3" x1="776.13" y1="937.8" x2="771.06" y2="951.65"/><line class="cls-9" x1="1000.83" y1="211.75" x2="814.98" y2="717.1"/><line class="cls-3" x1="809.98" y1="730.69" x2="804.89" y2="744.53"/><line class="cls-12" x1="1033.85" y1="10.24" x2="999.39" y2="105.11"/><line class="cls-10" x1="994.71" y1="117.99" x2="701.64" y2="924.91"/><line class="cls-3" x1="696.96" y1="937.79" x2="691.92" y2="951.65"/><line class="cls-13" x1="872.56" y1="-106.88" x2="513.36" y2="884.3"/><line class="cls-3" x1="508.59" y1="897.45" x2="503.57" y2="911.32"/><line class="cls-14" x1="866.3" y1="-202.99" x2="530.73" y2="718.3"/><line class="cls-3" x1="526.27" y1="730.52" x2="521.23" y2="744.38"/><line class="cls-4" x1="765.98" y1="-51.49" x2="732.78" y2="39.31"/><line class="cls-5" x1="728.27" y1="51.64" x2="503.22" y2="667"/><line class="cls-3" x1="498.71" y1="679.33" x2="493.64" y2="693.18"/><line class="cls-7" x1="717.02" y1="-30.33" x2="483.97" y2="605.61"/><line class="cls-3" x1="479.3" y1="618.35" x2="474.22" y2="632.2"/><line class="cls-9" x1="703.99" y1="-107.7" x2="518.14" y2="397.64"/><line class="cls-3" x1="513.14" y1="411.23" x2="508.05" y2="425.08"/><line class="cls-10" x1="697.88" y1="-201.46" x2="404.8" y2="605.45"/><line class="cls-3" x1="400.12" y1="618.34" x2="395.08" y2="632.2"/><line class="cls-13" x1="687.42" y1="-284.93" x2="328.21" y2="706.26"/><line class="cls-3" x1="323.45" y1="719.41" x2="318.42" y2="733.27"/><line class="cls-14" x1="681.16" y1="-381.03" x2="345.58" y2="540.25"/><line class="cls-3" x1="341.13" y1="552.48" x2="336.08" y2="566.33"/><line class="cls-4" x1="529.61" y1="-82.95" x2="496.41" y2="7.84"/><line class="cls-5" x1="491.9" y1="20.17" x2="266.85" y2="635.53"/><line class="cls-3" x1="262.34" y1="647.86" x2="257.28" y2="661.71"/><line class="cls-7" x1="480.66" y1="-61.8" x2="247.6" y2="574.14"/><line class="cls-3" x1="242.93" y1="586.88" x2="237.85" y2="600.73"/><line class="cls-9" x1="467.63" y1="-139.17" x2="281.77" y2="366.17"/><line class="cls-3" x1="276.77" y1="379.77" x2="271.68" y2="393.61"/><line class="cls-10" x1="461.51" y1="-232.93" x2="168.43" y2="573.98"/><line class="cls-3" x1="163.75" y1="586.87" x2="158.72" y2="600.73"/><line class="cls-13" x1="451.05" y1="-316.4" x2="91.85" y2="674.79"/><line class="cls-3" x1="87.08" y1="687.94" x2="82.05" y2="701.8"/><line class="cls-14" x1="444.79" y1="-412.5" x2="109.21" y2="508.78"/><line class="cls-3" x1="104.76" y1="521.01" x2="99.71" y2="534.86"/></g><rect class="cls-3" x="581.41" y="420.23" width="40.48" height="528.68"/><path class="cls-3" d="M298.3,695.43a2.58,2.58,0,0,1-2.57-2.6V672a2.58,2.58,0,0,1,2.57-2.58h41.95a2.59,2.59,0,0,1,2.61,2.58v20.8a2.59,2.59,0,0,1-2.61,2.6Zm73.75,33.78a2.59,2.59,0,0,1-2.6,2.57h-42a2.59,2.59,0,0,1-2.6-2.57V708.38a2.6,2.6,0,0,1,2.6-2.58h42a2.6,2.6,0,0,1,2.6,2.58Zm-21-36.38V672a2.58,2.58,0,0,1,2.6-2.58h41.95a2.6,2.6,0,0,1,2.6,2.58v20.8a2.6,2.6,0,0,1-2.6,2.6H353.66A2.58,2.58,0,0,1,351.06,692.83Zm76.13,36.38a2.57,2.57,0,0,1-2.57,2.57h-42a2.58,2.58,0,0,1-2.58-2.57V708.38a2.59,2.59,0,0,1,2.58-2.58h42a2.58,2.58,0,0,1,2.57,2.58Zm26.35-36.38a2.58,2.58,0,0,1-2.6,2.6H409a2.58,2.58,0,0,1-2.58-2.6V672a2.59,2.59,0,0,1,2.58-2.58h41.95a2.58,2.58,0,0,1,2.6,2.58Zm55.33,0a2.58,2.58,0,0,1-2.58,2.6h-42a2.58,2.58,0,0,1-2.6-2.6V672a2.58,2.58,0,0,1,2.6-2.58h42a2.58,2.58,0,0,1,2.58,2.58Zm38.84-78.12a24.58,24.58,0,0,1-24.55,24.59H318.38a24.6,24.6,0,0,1-24.58-24.59V528.05a24.58,24.58,0,0,1,24.58-24.58H523.16a24.55,24.55,0,0,1,24.55,24.58Zm-3.59-140a12.12,12.12,0,0,1-8.63,3.59H308a12.24,12.24,0,0,1-12.22-12.23A12.26,12.26,0,0,1,308,453.9H535.49a12.21,12.21,0,0,1,8.63,20.86Zm-284.42,413V860.16m0-33V420.23H581.41V948.91H527.2V786.54A24.57,24.57,0,0,0,502.62,762H340.82a24.57,24.57,0,0,0-24.58,24.55V948.91H263.48"/><path class="cls-3" d="M340.25,695.43H298.3a2.58,2.58,0,0,1-2.57-2.6V672a2.58,2.58,0,0,1,2.57-2.58h41.95a2.59,2.59,0,0,1,2.61,2.58v20.8A2.59,2.59,0,0,1,340.25,695.43Z"/><path class="cls-3" d="M327.49,705.8h42a2.6,2.6,0,0,1,2.6,2.58v20.83a2.59,2.59,0,0,1-2.6,2.57h-42a2.59,2.59,0,0,1-2.6-2.57V708.38A2.6,2.6,0,0,1,327.49,705.8Z"/><path class="cls-3" d="M398.21,672v20.8a2.6,2.6,0,0,1-2.6,2.6H353.66a2.58,2.58,0,0,1-2.6-2.6V672a2.58,2.58,0,0,1,2.6-2.58h41.95A2.6,2.6,0,0,1,398.21,672Z"/><rect class="cls-3" x="380.06" y="705.8" width="47.13" height="25.98" rx="2.57"/><path class="cls-3" d="M409,695.43a2.58,2.58,0,0,1-2.58-2.6V672a2.59,2.59,0,0,1,2.58-2.58h41.95a2.58,2.58,0,0,1,2.6,2.58v20.8a2.58,2.58,0,0,1-2.6,2.6Z"/><path class="cls-3" d="M464.34,695.43a2.58,2.58,0,0,1-2.6-2.6V672a2.58,2.58,0,0,1,2.6-2.58h42a2.58,2.58,0,0,1,2.58,2.58v20.8a2.58,2.58,0,0,1-2.58,2.6Z"/><path class="cls-3" d="M527.2,786.54V948.91h-211V786.54A24.57,24.57,0,0,1,340.82,762h161.8A24.57,24.57,0,0,1,527.2,786.54Z"/><path class="cls-3" d="M295.73,466.12A12.26,12.26,0,0,1,308,453.9H535.49a12.23,12.23,0,0,1,0,24.45H308A12.24,12.24,0,0,1,295.73,466.12Z"/><path class="cls-3" d="M408.5,540.16V602.7A17.3,17.3,0,0,1,391.21,620H330.58a17.3,17.3,0,0,1-17.29-17.32V540.16a17.29,17.29,0,0,1,17.29-17.31h60.63A17.29,17.29,0,0,1,408.5,540.16Z"/><path class="cls-3" d="M527.58,540.08v62.71a17.3,17.3,0,0,1-17.29,17.31h-60.8a17.3,17.3,0,0,1-17.29-17.31V540.08a17.3,17.3,0,0,1,17.29-17.31h60.8A17.3,17.3,0,0,1,527.58,540.08Z"/><path class="cls-3" d="M523.16,503.47H318.38a24.58,24.58,0,0,0-24.58,24.58v86.66a24.6,24.6,0,0,0,24.58,24.59H523.16a24.58,24.58,0,0,0,24.55-24.59V528.05A24.55,24.55,0,0,0,523.16,503.47ZM408.5,602.7A17.3,17.3,0,0,1,391.21,620H330.58a17.3,17.3,0,0,1-17.29-17.32V540.16a17.29,17.29,0,0,1,17.29-17.31h60.63a17.29,17.29,0,0,1,17.29,17.31Zm119.08.09a17.3,17.3,0,0,1-17.29,17.31h-60.8a17.3,17.3,0,0,1-17.29-17.31V540.08a17.3,17.3,0,0,1,17.29-17.31h60.8a17.3,17.3,0,0,1,17.29,17.31Z"/><path class="cls-3" d="M408.5,540.16V602.7A17.3,17.3,0,0,1,391.21,620H330.58a17.3,17.3,0,0,1-17.29-17.32V540.16a17.29,17.29,0,0,1,17.29-17.31h60.63A17.29,17.29,0,0,1,408.5,540.16Z"/><path class="cls-3" d="M527.58,540.08v62.71a17.3,17.3,0,0,1-17.29,17.31h-60.8a17.3,17.3,0,0,1-17.29-17.31V540.08a17.3,17.3,0,0,1,17.29-17.31h60.8A17.3,17.3,0,0,1,527.58,540.08Z"/><path class="cls-3" d="M527.58,540.08v62.71a17.3,17.3,0,0,1-17.29,17.31h-60.8a17.3,17.3,0,0,1-17.29-17.31V540.08a17.3,17.3,0,0,1,17.29-17.31h60.8A17.3,17.3,0,0,1,527.58,540.08Z"/><path class="cls-3" d="M408.5,540.16V602.7A17.3,17.3,0,0,1,391.21,620H330.58a17.3,17.3,0,0,1-17.29-17.32V540.16a17.29,17.29,0,0,1,17.29-17.31h60.63A17.29,17.29,0,0,1,408.5,540.16Z"/><path class="cls-3" d="M527.2,786.54V948.91h-211V786.54A24.57,24.57,0,0,1,340.82,762h161.8A24.57,24.57,0,0,1,527.2,786.54Z"/><path class="cls-3" d="M342.86,672v20.8a2.59,2.59,0,0,1-2.61,2.6H298.3a2.58,2.58,0,0,1-2.57-2.6V672a2.58,2.58,0,0,1,2.57-2.58h41.95A2.59,2.59,0,0,1,342.86,672Z"/><path class="cls-3" d="M398.21,672v20.8a2.6,2.6,0,0,1-2.6,2.6H353.66a2.58,2.58,0,0,1-2.6-2.6V672a2.58,2.58,0,0,1,2.6-2.58h41.95A2.6,2.6,0,0,1,398.21,672Z"/><path class="cls-3" d="M453.54,672v20.8a2.58,2.58,0,0,1-2.6,2.6H409a2.58,2.58,0,0,1-2.58-2.6V672a2.59,2.59,0,0,1,2.58-2.58h41.95A2.58,2.58,0,0,1,453.54,672Z"/><path class="cls-3" d="M508.87,672v20.8a2.58,2.58,0,0,1-2.58,2.6h-42a2.58,2.58,0,0,1-2.6-2.6V672a2.58,2.58,0,0,1,2.6-2.58h42A2.58,2.58,0,0,1,508.87,672Z"/><path class="cls-3" d="M372.05,708.38v20.83a2.59,2.59,0,0,1-2.6,2.57h-42a2.59,2.59,0,0,1-2.6-2.57V708.38a2.6,2.6,0,0,1,2.6-2.58h42A2.6,2.6,0,0,1,372.05,708.38Z"/><rect class="cls-3" x="380.06" y="705.8" width="47.13" height="25.98" rx="2.57"/><path class="cls-3" d="M547.71,466.12a12.26,12.26,0,0,1-12.22,12.23H308a12.24,12.24,0,0,1-12.22-12.23A12.26,12.26,0,0,1,308,453.9H535.49A12.22,12.22,0,0,1,547.71,466.12Z"/><rect class="cls-3" x="333.93" y="780.81" width="174.95" height="14.1" rx="4.81"/><rect class="cls-3" x="333.93" y="809.91" width="174.95" height="14.1" rx="4.81"/><rect class="cls-3" x="333.93" y="839.01" width="174.95" height="14.1" rx="4.81"/><rect class="cls-3" x="333.93" y="868.12" width="174.95" height="14.1" rx="4.81"/><rect class="cls-3" x="333.93" y="897.22" width="174.95" height="14.1" rx="4.81"/><path class="cls-3" d="M228.36,372.07h414.7a22.74,22.74,0,0,1,22.74,22.74v25a0,0,0,0,1,0,0H205.63a0,0,0,0,1,0,0v-25A22.74,22.74,0,0,1,228.36,372.07Z"/><polygon class="cls-3" points="621.88 751.86 666.12 751.86 666.12 792.13 708.11 792.13 708.11 838.36 748.99 838.36 748.99 874.57 789.23 874.57 789.23 906.43 831.55 906.43 831.55 948.9 621.88 948.9 621.88 751.86"/><polyline class="cls-3" points="630.22 662.73 666.41 662.73 667.51 662.73 708.18 703.39 749.16 744.38 789.24 784.45 808.19 803.41"/><line class="cls-3" x1="666.41" y1="792.12" x2="666.41" y2="662.72"/><line class="cls-3" x1="789.24" y1="874.58" x2="789.24" y2="784.45"/><line class="cls-3" x1="708.18" y1="810.24" x2="708.18" y2="703.39"/><line class="cls-3" x1="749" y1="744.38" x2="749" y2="841.9"/><line class="cls-3" x1="259.54" y1="860.4" x2="259.54" y2="887.71"/><path class="cls-3" d="M219.06,887.71V870.93c1.72,4.93,6.33,9.22,12.28,11.34v0c-1.93-14.07-5.71-36.18-12.28-56.08"/><polyline class="cls-3" points="259.54 805.68 259.54 571.39 219.06 571.39 219.06 795.15"/><line class="cls-3" x1="219.06" y1="870.93" x2="219.06" y2="887.71"/><path class="cls-3" d="M239.68,836.87c2.21-1.79,4.77-3.44,6.54-5.42,5-5.55,3.06-12.65,6.24-18.74,3.88-7.44,16.08-12.63,28.07-12a53.72,53.72,0,0,0-2.32,10.79c-.36,3.26.49,6.88-.44,10-1.53,5.08-9.67,8.16-10.66,13.37-.88,4.61,4.52,8.91,3.62,13.6-.94,5-8.67,7.81-11.52,12.26-2.32,3.62-1.23,7.76-2.43,11.61-1.46,4.64-6.51,8.75-13.14,10.68l-.65.19a30.06,30.06,0,0,1-6.18-7.28"/><path class="cls-3" d="M273.21,806.6c-17.88,18.23-26.29,56.68-29.56,76.51h0q-.4,2.52-.72,4.59"/><path class="cls-3" d="M274.86,898.87l-8.23,46a5.58,5.58,0,0,1-5.49,4.6h-43a5.58,5.58,0,0,1-5.51-4.67l-7.59-45.92Z"/><path class="cls-3" d="M282.67,893.74h0a5.58,5.58,0,0,1-5.56,5.13H203a5.57,5.57,0,0,1-5.55-5h0A5.58,5.58,0,0,1,203,887.7h74.16A5.58,5.58,0,0,1,282.67,893.74Z"/><path class="cls-3" d="M219.06,870.93a8.27,8.27,0,0,1-.32-1c-1.18-4.45-.13-9.28-2.36-13.46-2.73-5.15-10.13-8.36-11.07-14.21-.83-5.41,4.34-10.43,3.48-15.76-.93-6-8.76-9.6-10.24-15.49-.88-3.65-.08-7.86-.4-11.64a74,74,0,0,0-2.25-12.49c8.85-.62,17.8,2.79,23.16,8.31a18.11,18.11,0,0,1,3.81,5.55c3,7,1.23,15.28,6,21.71,2.6,3.49,6.92,6.09,9.14,9.73a11.65,11.65,0,0,1,1.53,3.89c0,.11,0,.21.06.29a4.18,4.18,0,0,1,.1.54c.81,5.39-1.26,11.23-.59,16.78.59,4.61,3.09,9.22,1.67,13.73a44.8,44.8,0,0,1-4,8.66,31.21,31.21,0,0,1-4.85,6.46,6.5,6.5,0,0,1-.62-.22v0c-1.93-14.07-5.71-36.18-12.28-56.08"/><path class="cls-3" d="M232,887.69c-.19-1.64-.43-3.44-.7-5.42v0c-1.93-14.07-5.71-36.18-12.28-56.08-4.15-12.62-9.43-24.36-16.11-32.57"/><path class="cls-3" d="M228.88,822.4s1.18-18.35,11.08-23.93,9.69,25.71,9.69,25.71"/><path class="cls-3" d="M239.68,836.87A45.49,45.49,0,0,1,241.2,816"/><path class="cls-15" d="M739.24,852.5,650.8,777.67,635.56,752.6l-4.1-24.37L635.8,692l5.2-33c12.28.38,27-1.86,33.69-5a4.29,4.29,0,0,0,2.6-4.21v-.27c.06-3.88.22-30.59.41-61.13,0-4.7,0-9.51.08-14.29,0-1.22,0-2.44,0-3.64s0-2.42,0-3.64V563.1c0-2.39,0-4.78,0-7.15,0-1.19,0-2.39,0-3.58.13-26.3.27-50,.32-59.17l0-3.78v-.19c.46,1.52.92,3,1.39,4.56a1.43,1.43,0,0,0,.08.22c.43,1.44.87,2.94,1.3,4.4a.76.76,0,0,0,.06.25c1.33,4.62,2.6,9.29,3.8,13.93,0,.09.05.19.08.28.38,1.46.74,2.9,1.09,4.34,0,.11.08.22.11.36,1.14,4.59,2.2,9.15,3.23,13.63,0,.14.05.25.08.38.3,1.34.6,2.69.87,4,.06.19.08.35.14.54,1,4.35,1.82,8.59,2.63,12.69.06.22.08.43.14.65.22,1.12.43,2.23.65,3.32.05.27.11.54.16.81.22,1.14.44,2.26.63,3.37,0,.14,0,.3.08.43.24,1.28.49,2.56.73,3.81v.08c.22,1.14.41,2.28.63,3.4.05.32.11.62.16,1,.14.84.3,1.65.44,2.47,0,.33.1.68.16,1,.16.82.3,1.61.43,2.4a7.62,7.62,0,0,0,.14.81c.16,1,.33,2,.49,3,0,.25.08.46.11.71.13.73.24,1.44.35,2.12.05.4.14.78.19,1.17s.16,1,.22,1.41.13.87.22,1.3.1.68.16,1a13.92,13.92,0,0,0,.22,1.41c0,.14,0,.27,0,.41.19,1.17.35,2.28.49,3.31,0,0,0,0,0,.06.08.51.13,1,.21,1.49,0,.08,0,.14,0,.22.6,4.05.87,6.33.87,6.33h8.18v2.61a1.7,1.7,0,0,1-1.71,1.68,14.86,14.86,0,0,0-14.84,14.86v4c0,4.67,2.85,9.4,7.55,10.51a14.14,14.14,0,0,0,2.29.36,11.12,11.12,0,0,0,1.79.08c2.72,0,5.43-.33,8.12-.33s5.14,0,7.72,0h10.35c9.29,0,16.84-10.27,16.84-19.59V593.53h-.2c.12-4.76.2-9.56.2-14.46,0-90.82-22.06-201.56-99.59-236.3v0l-.09,0-.05,0A121.75,121.75,0,0,0,628.34,336c-2.61-.68-5.27-1.3-8-1.84l-6.88-26.9.06,0-2.91-11.38s10.51-9.1,12.52-29.64c17,2.71,31,3.42,40.48,1.87a25.82,25.82,0,0,0,2.78-.54l.24,0c5.71-1.36,9.43-3.72,10.76-7.14h0a9.11,9.11,0,0,0,.29-5.08c0-.52.06-1,.09-1.61a14.13,14.13,0,0,1,.35,1.39c1.09-25.95-.73-140.57-112.59-191l1,.65L565.2,64l-.74-.3,1.09.27c-.33-.13-2.09-.81-5.11-1.82C536,53.31,422.81,19.6,348.58,125.28l.06,0a9,9,0,0,0-3.15,3.86,8.87,8.87,0,0,0-.25.92,8.42,8.42,0,0,0-.24.93c0,.24,0,.51,0,.78s-.05.79,0,1.23c0,.21.11.49.14.73a8.61,8.61,0,0,0,.24,1.39c.06.24.17.46.25.7a14.09,14.09,0,0,0,.54,1.58c.08.21.22.46.33.68a18.42,18.42,0,0,0,.87,1.71c.11.22.27.43.4.68.36.6.74,1.19,1.17,1.84.14.22.33.44.49.66q.69,1,1.47,1.95l.6.68c.54.68,1.11,1.36,1.76,2.07.19.21.44.46.63.68.68.7,1.33,1.41,2.06,2.14l.68.65c.79.77,1.55,1.53,2.39,2.29.25.21.49.43.74.62.87.79,1.73,1.6,2.69,2.39.24.22.51.44.78.65.95.82,1.93,1.63,3,2.45.28.22.58.43.85.65,1.06.84,2.12,1.69,3.26,2.53.27.22.57.43.84.65,1.17.84,2.34,1.71,3.53,2.61l.95.65c1.22.87,2.47,1.74,3.78,2.64a11.61,11.61,0,0,0,1,.67q2,1.35,4,2.69c.35.22.7.47,1.06.68,1.38.9,2.77,1.82,4.24,2.75l1.14.7c1.44.9,2.9,1.82,4.42,2.75.39.24.79.46,1.2.7,1.52.93,3.07,1.85,4.65,2.78.43.24.87.51,1.27.76,1.61.92,3.18,1.84,4.84,2.77.43.27.92.51,1.38.79,1.63.92,3.26,1.82,4.95,2.74.51.3,1,.57,1.55.84,1.66.93,3.34,1.82,5,2.75.52.27,1.06.54,1.6.84,1.72.89,3.45,1.82,5.22,2.74.57.27,1.11.57,1.68.84,1.77.9,3.56,1.82,5.36,2.72.62.33,1.25.63,1.84.92,1.8.9,3.59,1.77,5.41,2.67.65.32,1.33.65,2,.95,1.82.89,3.64,1.76,5.49,2.63.68.33,1.42.66,2.12,1,1.82.87,3.64,1.71,5.52,2.58.76.36,1.52.68,2.28,1,1.85.85,3.67,1.69,5.54,2.5.79.36,1.6.74,2.42,1.09l5.57,2.45c.87.35,1.71.73,2.58,1.08,1.85.82,3.72,1.61,5.6,2.39.89.38,1.79.74,2.66,1.12,1.87.79,3.77,1.57,5.68,2.33.92.38,1.87.76,2.79,1.15,1.42.57,2.83,1.16,4.27,1.73,0,0,40.4,17.91,62,21.9l.3.08c-.33,1.55-.63,3.13-.93,4.7a23.35,23.35,0,0,1-2.31,6.47l-6.68,12.5a2,2,0,0,0,1.74,2.9h2.88c0,.22,0,.44,0,.66v1.19a80.9,80.9,0,0,0,.38,9.35h0a.21.21,0,0,0,.05.11c.9,8.58,3.59,18.17,10.79,19.69.21,0,.46,0,.7.06a7.89,7.89,0,0,0,1.39.16s0,0,0,0,0,0,.06,0a30.87,30.87,0,0,0,6.49-.76l4.54,24.48.08.38,0,.11h-.06l0-.11a.49.49,0,0,0-.16.05l.08-.43a30.31,30.31,0,0,0-18.94,6.68s0,0,0,0c-27.14,14.07-40.26,46.76-55.15,72.32-.41.65-.79,1.3-1.14,2a8.78,8.78,0,0,1-14.62-1.39c-.05,0-.05-.05-.05-.11-.2-.35-.3-.62-.41-.84v0a1.13,1.13,0,0,1-.17-.38v0L473,370.07s0,0,0-.08l-.4.08s0,0,0-.08l-2.34-11.3a31.58,31.58,0,0,1,2-11.28,67.71,67.71,0,0,0,4.21-29c-.35-4.78-1.44-14.13-7.09-15.57-3.15-.81-6.19,1.66-7.66,4.27a13.94,13.94,0,0,0-1.38,3.4v0a20,20,0,0,0-5.14-1.71,24.68,24.68,0,0,0-4.7-.43,35.56,35.56,0,0,0-13.56,2.88c-1.25.51-2.63,1.14-4,1.87-3.81,2-7.67,4.92-8.7,8.86a10.37,10.37,0,0,0,0,6.41,9,9,0,0,0-1.25,2.77,10.94,10.94,0,0,0-.16,5.95l.41,1.39h.05a16,16,0,0,0-1.79,3.75,9.61,9.61,0,0,0-.55,4.26l-10.24,1c-4.24,16.11,8.72,23.17,19.81,19.56,1.25,3.32,2.61,7.39,4,12.42L425,381.83S443.73,509.12,488,507.27a24.48,24.48,0,0,0,7.12-1.22,55.39,55.39,0,0,0,13.18-6.44c-3.67,35-5.27,68.14-5.95,90.55-.54,17,.73,23,17.47,26.08,2.72.49,5.32.92,7.71,1.28v-.06c1.5.22,2.91.41,4.19.57-1.28-.13-2.69-.29-4.19-.51L476.19,913.19l-2.5,16.87-35.31,9.29a5.14,5.14,0,0,0,1.3,10.11h73.19l7.91-36.27H549s6.87-50,28.66-118.34c50.21,73.24,121.14,120.46,121.14,120.46l14.76-23.2,15.83,12.66-4.31,33.63a4.39,4.39,0,0,0-.06.87,6.64,6.64,0,0,0,6.66,6.63h0A6.66,6.66,0,0,0,738.1,941l19.77-73.13Z"/><path class="cls-16" d="M559,338.59c-28.9,22.08-43,94.84-49.79,160.7A55.86,55.86,0,0,1,495.54,506c-49.05,15.83-69.62-124.21-69.62-124.21l9.33-2.33L473.38,370s0,0,0,.07L487,410.11v0a1.32,1.32,0,0,0,.15.38v0c.1.22.22.5.4.84a.28.28,0,0,0,.07.13,9.13,9.13,0,0,0,15,1.36c.37-.64.74-1.29,1.14-1.93C518.71,385.35,531.83,352.68,559,338.59Z"/><path class="cls-16" d="M747.6,596.22h-46s-7.37-57.73-22.87-107c0,2.33-.82,151-1,160.24v.37a5.12,5.12,0,0,0-.08-.87,4,4,0,0,0-.22-.77s0,0,0-.05a3.13,3.13,0,0,0-.4-.77,3.9,3.9,0,0,0-.52-.69,1.29,1.29,0,0,0-.32-.3,3.76,3.76,0,0,0-.67-.52,4.7,4.7,0,0,0-2.34-.6h-40a41.84,41.84,0,0,1-32.15-15,41.08,41.08,0,0,1-3.2-4.42,38.82,38.82,0,0,1-3.37-6.5,40.59,40.59,0,0,1-2.58-9c-1.71-10.27-3.48-22.25-5.11-35.4-.32-2.63-.65-5.31-1-8-.15-1.37-.3-2.73-.47-4.1-.3-2.78-.6-5.55-.89-8.38s-.57-5.68-.85-8.59-.52-5.8-.77-8.73c-.12-1.49-.22-3-.34-4.44-.23-2.95-.45-5.95-.65-8.95-2-30.54-2.43-62.84.57-91.92.27-2.68.57-5.33.92-8,.84-6.58,1.88-12.95,3.13-19.05.49-2.46,1-4.84,1.61-7.2,1.14-4.74,2.4-9.25,3.84-13.59a107.77,107.77,0,0,1,10.52-23.12,55,55,0,0,1,5.53-7.42c9.18-10.35,21.74-16.05,35.53-12.08l4.69,1.34C730.73,379.62,750.45,502.64,747.6,596.22Z"/><path class="cls-17" d="M758.32,867.84,738.54,941a6.65,6.65,0,0,1-13.07-1.72,5.08,5.08,0,0,1,0-.86l4.32-33.64L714,892.1l25.67-39.61Z"/><path class="cls-18" d="M678.64,255a19.54,19.54,0,0,0-2.24-5.58l-.67-1.06c-.27-.43-.54-.85-.84-1.29s-.55-.75-.84-1.14-.62-.85-1-1.27-.67-.84-1-1.27-.75-.86-1.15-1.31-.79-.87-1.21-1.31-.84-.9-1.29-1.34-.89-.92-1.37-1.37l-1.46-1.39c-.49-.47-1-.94-1.54-1.41l-1.61-1.44c-.55-.47-1.12-.94-1.69-1.44s-1.11-.92-1.68-1.41c-.28-.2-.52-.43-.82-.65-.57-.47-1.19-1-1.81-1.44a281.39,281.39,0,0,0-26.75-18.31c3-15.75,14.24-97.62-63.6-146.59C677.89,114.45,679.73,229.09,678.64,255Z"/><path class="cls-17" d="M521.23,913.19l-7.92,36.27H440.13a5.17,5.17,0,0,1-5.14-5.14,5.17,5.17,0,0,1,3.85-5l35.32-9.28,2.51-16.87Z"/><path class="cls-18" d="M566,64a142.93,142.93,0,0,0-30.34-4.24h0c-33.24-1.29-85.83,7-116.72,64.5-.42.74-.79,1.49-1.19,2.23a266.19,266.19,0,0,0-39.17-5.68s0,0-.07,0a112,112,0,0,0-13.28,0c41-52.82,92.93-67.63,135.33-68.94h.1A224.08,224.08,0,0,1,554,60.07,120.91,120.91,0,0,1,566,64Z"/><path class="cls-16" d="M535.45,611.1l0,.1-1.64,6.95c-3.45-.27-8.14-1-13.12-1.91-16.75-3-18-9.11-17.47-26.1.7-22.45,2.31-55.67,6-90.85C516,433.43,530.07,360.67,559,338.59c0,0,0,0,0,0a59.54,59.54,0,0,1,15.26-5.48c.94-.2,1.93-.4,2.9-.55C563.86,337,502,379.5,535.45,611.1Z"/><path class="cls-17" d="M611.1,295.79l2.9,11.39-6.28,2.31a3.14,3.14,0,0,1-4-1.86l-4-10.64a25.44,25.44,0,0,1,1.86-22,.31.31,0,0,1,.05-.1,6.09,6.09,0,0,0-9.53-7.42c-2,2-3.44,3.65-4.21,6.4a23.21,23.21,0,0,0-.67,7.87c.24,4.24,1.64,10.38.79,14.62-1.24,6.27-9.35,9.75-14.91,11a30.74,30.74,0,0,1-6.57.77c-12.13.1-13.47-20.3-13.3-29.36,3.08,1.37,6.23,6,13.67,6,9.62,0,13.2-14.31,13.2-14.31L584,254a7.16,7.16,0,0,0-7-8.81H561.8a13.89,13.89,0,0,1-1.71-1c-11.63-7.51-2.68-26.37-2.68-26.37,3.05,6.75,19.92,7.45,34.44,10.47s32.74,9.11,32.07,33.07S611.1,295.79,611.1,295.79Z"/><path class="cls-19" d="M678.71,489.2v0c0,2.33-.82,151-1,160.24v0"/><path class="cls-19" d="M747.86,596.22v16.86c0,9.31-7.55,19.57-16.86,19.57H712.94c-4,0-8.21.86-12.19-.08-4.69-1.12-7.56-5.85-7.56-10.53v-4A14.85,14.85,0,0,1,708,603.22a1.7,1.7,0,0,0,1.7-1.7v-5.3"/><path class="cls-16" d="M560,244.19c-11.64-7.51-2.68-26.37-2.68-26.37,3,6.75,19.92,7.45,34.43,10.47s32.75,9.11,32.08,33.07c-.05,1.66-.15,3.25-.3,4.79,30.34,4.86,50.73,3.3,54.33-5.83,0,0,.2-1.89.32-5.29a19.79,19.79,0,0,0-2.23-5.58c-.23-.34-.45-.69-.67-1.06s-.55-.85-.85-1.29-.54-.75-.84-1.14-.62-.85-1-1.27-.67-.84-1-1.27l-1.14-1.31c-.37-.42-.79-.87-1.22-1.31s-.84-.9-1.29-1.34-.89-.92-1.36-1.37l-1.46-1.39c-.5-.47-1-.94-1.54-1.41s-1.07-.94-1.61-1.44-1.12-.94-1.69-1.44-1.12-.92-1.69-1.41c-.27-.2-.52-.43-.82-.65-.57-.47-1.19-1-1.81-1.44a281.14,281.14,0,0,0-26.74-18.31c-13-8-28.21-16.27-45-24.51-1.11-.57-2.25-1.11-3.37-1.66s-2.28-1.11-3.42-1.64-2.29-1.11-3.45-1.63C558.86,174,542.61,167,525.54,160.24c-39.91-15.77-77.7-27.31-108.26-33.76-35.23-7.42-60.85-8-69.09-.47,0,0,0,0-.05,0-.74,1-1.46,2.06-2.21,3.1-7.46,18.88,59.62,63.14,150.21,99.23,0,0,40.41,17.91,62,21.91C562.53,251.11,556.71,244,560,244.19Z"/><path class="cls-19" d="M702.79,632.88s7.75,1.51,8.67-5.58"/><path class="cls-19" d="M719,632.52s7.76,1.52,8.68-5.57"/><line class="cls-19" x1="533.37" y1="618.14" x2="535.03" y2="611.09"/><path class="cls-19" d="M521.23,913.19h28.2s6.87-50,28.66-118.36"/><line class="cls-19" x1="550.6" y1="599.59" x2="550.62" y2="599.59"/><path class="cls-19" d="M758.29,867.84,738.52,941a6.66,6.66,0,0,1-13.08-1.72,5.08,5.08,0,0,1,0-.86l4.32-33.64L714,892.1l25.7-39.61Z"/><path class="cls-19" d="M641,658.91l-8.56,54.4A79.55,79.55,0,0,0,660.37,787l79.31,65.45"/><path class="cls-19" d="M714,892.1l-14.76,23.2S628.3,868.09,578.09,794.83c14.31-44.93,35.1-97.79,64.62-149.57"/><path class="cls-19" d="M521.23,913.19l-7.92,36.27H440.13a5.15,5.15,0,0,1-1.32-10.12l35.33-9.28,2.51-16.87Z"/><path class="cls-19" d="M508.75,499.29A55.75,55.75,0,0,1,495.1,506c-49,15.83-69.61-124.21-69.61-124.21L473,370s0,0,0,.07l13.6,40.07.27.67.27.59a.74.74,0,0,1,.08.13,9.12,9.12,0,0,0,15,1.36c.37-.64.75-1.29,1.14-1.93,14.91-25.58,28-58.25,55.18-72.34,0,0,0,0,.05,0a59.47,59.47,0,0,1,15.25-5.48c.94-.2,1.94-.4,2.9-.54,0,0,0,0,.08,0l.79-.15"/><path class="cls-19" d="M620.83,334.12c2.68.55,5.33,1.17,8,1.84a120.37,120.37,0,0,1,19.33,6.72l0,0c82.56,36.91,102.28,159.93,99.43,253.51h-46s-19-148.72-60.11-172.47"/><path class="cls-19" d="M535,611.1C501.55,379.49,563.42,337,576.74,332.54c0,0,0,0,.08,0l.77-.25"/><path class="cls-19" d="M577.51,331.89a30.36,30.36,0,0,0-18.92,6.67s0,0-.05,0c-28.91,22.08-43,94.84-49.79,160.7-3.68,35.18-5.28,68.39-6,90.85-.54,17,.73,23,17.46,26.09,5,.91,9.68,1.64,13.14,1.91L476.65,913.19"/><path class="cls-20" d="M677.66,649a4.87,4.87,0,0,1,.07.75,4.28,4.28,0,0,1-2.6,4.21c-7.69,3.57-19,6.55-34.13,5l2.13-13.65h30a4.7,4.7,0,0,1,2.34.6,3.76,3.76,0,0,1,.67.52,1.29,1.29,0,0,1,.32.3,3.9,3.9,0,0,1,.52.69,3.13,3.13,0,0,1,.4.77s0,0,0,.05A4,4,0,0,1,677.66,649Z"/><path class="cls-17" d="M677.74,649.83s0-.08,0-.12,0-.14,0-.2Z"/><path class="cls-19" d="M677.74,649.51v0a1.86,1.86,0,0,0-.08-.5,4,4,0,0,0-.22-.77"/><path class="cls-19" d="M677.42,648.14a3.53,3.53,0,0,0-.4-.77,2.37,2.37,0,0,0-.52-.69"/><path class="cls-19" d="M676.18,646.38a3.76,3.76,0,0,0-.67-.52"/><path class="cls-19" d="M643.13,645.26h-10a41.84,41.84,0,0,1-32.15-15,41.08,41.08,0,0,1-3.2-4.42,41.42,41.42,0,0,1-5.93-15.53c-1.71-10.27-3.49-22.25-5.13-35.4-.32-2.63-.65-5.31-1-8-.15-1.37-.3-2.73-.47-4.1-.3-2.78-.6-5.55-.89-8.38s-.57-5.68-.85-8.59-.52-5.8-.77-8.73c-.12-1.49-.22-3-.34-4.44-.23-2.95-.45-5.95-.65-8.95-2-30.54-2.43-62.84.57-91.92.27-2.68.57-5.33.92-8,.84-6.58,1.88-12.95,3.13-19.05.49-2.46,1-4.84,1.61-7.2,1.14-4.74,2.4-9.25,3.84-13.59a107.32,107.32,0,0,1,10.55-23.12,54.84,54.84,0,0,1,5.5-7.42c9.18-10.35,21.74-16.05,35.53-12.08l4.69,1.34.1,0"/><path class="cls-19" d="M486.56,410.11s3.85,9.75,11.3,15.95"/><path class="cls-19" d="M460.7,310.52a14.73,14.73,0,0,1,1.37-3.42c1.47-2.61,4.51-5.06,7.67-4.26,5.64,1.43,6.72,10.8,7.1,15.56a68,68,0,0,1-4.21,29,29.29,29.29,0,0,0-.69,19.46l1,3.12"/><path class="cls-19" d="M437.24,344.36c1.82-3.06,8-3.05,11.09-.38a5.76,5.76,0,0,0,2.33,1.25,5.12,5.12,0,0,0,6.26-3c1.47-3.66-1.65-8.74-4.65-10.71-4.41-2.91-10.12-2.86-15.11-1.74s-9.78,3.54-12.92,7.75a15.54,15.54,0,0,0-2.44,4.71c-1.12,3.6-.6,5.27.9,8.7l.61,1.14c.81,1.5,1.69,3,2.59,4.42,1.67,2.7,5.19,9.44,8.92,23"/><path class="cls-19" d="M424.55,328.42a10.56,10.56,0,0,1,0-6.42c1-3.94,4.89-6.83,8.71-8.85,1.4-.74,2.79-1.37,4-1.88a35.31,35.31,0,0,1,13.56-2.89,25.26,25.26,0,0,1,4.69.44,20.1,20.1,0,0,1,5.15,1.7,18.85,18.85,0,0,1,8.95,9.79c1.73,3.89,2.71,8.62-.39,11.45"/><path class="cls-19" d="M457.18,339l1.41,2.26a6.11,6.11,0,0,0,6.55,1.34c5.4-1.91,5.5-6.54,4.12-10.83a21.06,21.06,0,0,0-.86-2.29,19.67,19.67,0,0,0-7-8.65A18.87,18.87,0,0,0,454.3,318a25.8,25.8,0,0,0-6.26-.4,36.16,36.16,0,0,0-12,2.85c-3.82,1.58-9,4.16-11.5,8a9.12,9.12,0,0,0-1.25,2.75,11.07,11.07,0,0,0-.16,6l.42,1.39"/><line class="cls-21" x1="440.35" y1="318.93" x2="440.35" y2="318.91"/><path class="cls-19" d="M591.05,605.14s-28,15.8-56,6.05"/><path class="cls-19" d="M448.33,344c-3,6.21-4.93,13.5-9.93,18.48-11.2,11.16-32.67,5.13-27.37-15"/><line class="cls-19" x1="460.7" y1="310.52" x2="525.54" y2="160.25"/><path class="cls-19" d="M623.56,266.15c30.34,4.86,50.73,3.3,54.33-5.83,7.51-19-60.68-63.86-152.35-100.08s-172.07-50.13-179.61-31.08S406.61,193,498.28,229.23c20.76,8.22,41,15.26,59.86,21.07"/><path class="cls-19" d="M677.89,260.33S692.16,121.06,565.64,64c0,0-133-57.75-216.61,61.26"/><path class="cls-19" d="M629,208.72S652.05,118.38,565.64,64c0,0-101.15-29-148.36,62.49"/><path class="cls-19" d="M569.68,264.09a7.62,7.62,0,0,0-6.93-6.88"/><ellipse cx="563.58" cy="265.53" rx="2.03" ry="3.32"/><path class="cls-19" d="M553.1,278.8c3.08,1.37,6.23,6,13.67,6,9.63,0,13.2-14.31,13.2-14.31l4-16.52a7.15,7.15,0,0,0-7-8.81H561.74a14.82,14.82,0,0,1-1.72-1"/><path class="cls-19" d="M553.44,288.11s1,2.89,8.12,4.13"/><path class="cls-19" d="M573,307.39a30.91,30.91,0,0,1-6.58.77c-12.67.1-13.55-22-13.27-30.55,0-.22,0-.45,0-.67h-2.88a2,2,0,0,1-1.73-2.9l6.67-12.51a23.43,23.43,0,0,0,2.31-6.45,89.19,89.19,0,0,1,2.5-10.89c-11.63-7.51-2.68-26.37-2.68-26.37,3.06,6.75,19.93,7.45,34.44,10.47s32.74,9.11,32.08,33.07S611,295.79,611,295.79l2.9,11.39-6.27,2.31a3.15,3.15,0,0,1-4-1.86l-4-10.65a25.46,25.46,0,0,1,1.85-22l.06-.11a6.08,6.08,0,0,0-9.52-7.42c-2,2-3.45,3.65-4.22,6.4a23.46,23.46,0,0,0-.67,7.87c.25,4.24,1.64,10.38.8,14.62-1.24,6.27-9.36,9.75-14.91,11l4.63,25s-7.76,15,1.34,21.93,41.88-20.17,41.88-20.17l-6.9-26.94"/><line class="cls-19" x1="553.15" y1="276.94" x2="557.5" y2="276.94"/><line class="cls-19" x1="440.13" y1="949.46" x2="207.93" y2="949.46"/><line class="cls-19" x1="831.55" y1="949.46" x2="513.31" y2="949.46"/></svg>