<svg id="Layer_2" data-name="Layer 2" xmlns="http://www.w3.org/2000/svg" viewBox="0 0 1000 1000"><defs><style>.cls-1,.cls-5{fill:none;stroke-miterlimit:10;stroke-width:4.7px;}.cls-1{stroke:#ccdde2;}.cls-2{fill:#3fbdf1;}.cls-3{fill:#d7e8f0;}.cls-4{fill:#2e2e2e;}.cls-5{stroke:#000;}</style></defs><path class="cls-1" d="M327.25,541.87A162.55,162.55,0,0,0,329,522.45a172.49,172.49,0,0,1,5.16-37.17"/><path class="cls-1" d="M396.7,394.41c62.32-45.68,155.35-52.54,225.08-7.35,3.63,2.34,7.17,4.85,10.59,7.48"/><path class="cls-1" d="M107.88,524.71s29.06-36.18,69.53,0c0,0,10.38-38.1,59.15-32.61"/><path class="cls-1" d="M217.77,542s14.53-18.09,34.77,0c0,0,5.19-19.05,29.57-16.31"/><path class="cls-1" d="M80,578s21.79-27.13,52.15,0c0,0,7.78-28.57,44.36-24.46"/><path class="cls-1" d="M466.72,436.25a28.59,28.59,0,0,0-28.61-28.57,21.2,21.2,0,0,0-4.23.38,28,28,0,0,0-16.15,8.25"/><line class="cls-1" x1="455.8" y1="458.68" x2="447.96" y2="458.68"/><path class="cls-1" d="M466.72,436.24a28.58,28.58,0,0,0-28.6-28.56,21.11,21.11,0,0,0-4.24.37A43.81,43.81,0,0,1,515.07,414a16.41,16.41,0,0,0-2.64-.19A22.46,22.46,0,0,0,490,436.24"/><path class="cls-1" d="M490,436.25a22.44,22.44,0,0,1,22.42-22.45,15.56,15.56,0,0,1,2.67.18,22.43,22.43,0,0,1-2.67,44.7H455.8"/><path class="cls-1" d="M315.36,418.72a26.82,26.82,0,0,1,5.59-.47,37.54,37.54,0,0,1,37.57,37.51"/><path class="cls-1" d="M448.12,455.76a28.26,28.26,0,0,1-.16,2.92,29.47,29.47,0,0,1-29.35,26.59H314c-16.34,0-30.39-12.83-30.54-29.13v-.38a37.38,37.38,0,0,1,31.95-37,57.63,57.63,0,0,1,106.73,7.78A29.5,29.5,0,0,1,448.12,455.76Z"/><path class="cls-1" d="M315.36,418.72a26.82,26.82,0,0,1,5.59-.47,37.54,37.54,0,0,1,37.57,37.51"/><line class="cls-1" x1="193.26" y1="940.29" x2="163.99" y2="773.8"/><path class="cls-1" d="M282.43,745.88c-1.77-8.8-6.22-17.75-10.11-24.08a130.6,130.6,0,0,0-36.54-38.56c-27.45-18.69-57.12-25.19-89.9-19.88-62.83,10.17-95.11,76-95.88,124.79A15,15,0,0,0,59.41,802c6.36,2.61,11.48.09,16.84-3.27,10.13-6.35,25.7-16.67,37.71-9.13,12.3,7.72,34.43,14.8,43.09-1.59,2-3.86,2.27-8.61,4.88-12.21,4-5.53,9.46-1.8,14.19,1.08s9.63,5.43,15,6.53,11.25.6,15.87-2.36c4.08-2.62,6.8-6.83,10-10.48s7.49-7,12.34-6.72c2.71.14,5.22,1.38,7.71,2.47,11.22,4.9,29,11.6,39.72,2.39C283.5,762.93,284.08,754,282.43,745.88Z"/><path class="cls-2" d="M736.21,520.79c-10.74,1-30.12,4-36.94,9.11-3.83-4.32-7-12.93-5.77-22.3,2.19-15.94,15.42-51-14.64-68.46-24.85-14.45-38-22.93-31.16-39.07a32.17,32.17,0,0,1,19.94-18.45,29.43,29.43,0,0,1,4-.93A68.63,68.63,0,0,1,683.83,379c17.63,1,41.52,8.67,52.38,39.92,0,0,12.56,28.81-11.43,62.16,0,0-23.92,20.23,16.38,35.66C741.16,516.71,748,519.72,736.21,520.79Z"/><path class="cls-2" d="M624.18,498.74a47.27,47.27,0,0,1,5.91,6.67A18.15,18.15,0,0,1,624.18,498.74Z"/><path class="cls-2" d="M634.17,398.82l-3.88,6.95L627.94,410a199.92,199.92,0,0,0-5.7,19.54l-.09.47-3.66,19.48a.08.08,0,0,0,0,.06,20.34,20.34,0,0,1-6.29,7.26,9.79,9.79,0,0,0-1.72,1.41c-2.79,3.23,5.2,3.54,6.92,4.42s2.38,2.5,2.69,4.29c12.16,38.48,5.38,28.63,10,37.06-3.72-2.73-13.11-11.57-13.11-11.57-1.16-.63-2.32-2.7-3.1-3.7a71.17,71.17,0,0,1-6.57-10.52,57.42,57.42,0,0,1-5.83-35.92C604.68,423.18,613.88,403.64,634.17,398.82Z"/><path class="cls-2" d="M664,571.14a58.76,58.76,0,0,1-1.82,6.07c-1.78,5-4.07,10-5.54,15.09a131.19,131.19,0,0,0-3,15.54,2.64,2.64,0,0,1-.53,1.4,2.24,2.24,0,0,1-1.1.54,24.7,24.7,0,0,1-15.93-1,37,37,0,0,1-13.19-9.3c-4.57-4.89-8.17-10.87-9.42-17.44-1.85-9.81,1.66-19.92,6.83-28.41a151.17,151.17,0,0,1,10.77-14.78c2.88-3.69,7-7.64,8.8-12,1.84-4.6.25-9.46-2.26-13.5-1.63-2.59-4.32-7.17-7.55-7.95,4.95,1.19-10.86-11.15-5.91-12.27a21,21,0,0,1,5.07.56c4.85,6.17,11.74,10.77,20,10.24A28.62,28.62,0,0,0,659.75,501c2.19,2,2.5,11.86,2.78,14.43.32,2.76-.18,5.51-.4,8.27A63.7,63.7,0,0,0,663,537.1C664.6,548.43,666.61,560,664,571.14Z"/><path class="cls-3" d="M220.66,723c.06-1.79.12-3.6.22-5.42s.19-3.6.31-5.39l.47-5.35c7.92-79.66,59-146.23,129-175q9.63-3.9,19.7-6.89a9,9,0,0,0,2.28,8.46,8.13,8.13,0,0,0,6.92,2.41,52.41,52.41,0,0,0,6.67-1.25c6-1.57,11.31-3.23,15.82-4.82a134.78,134.78,0,0,0,14.74-6.11,3.71,3.71,0,0,1,5.36,3.1,22.15,22.15,0,0,0,.81,4.95c1.44,5.07,4.92,9.05,11.28,6.42,6.1-2.54,10.2-8.77,14.62-13.41a9.51,9.51,0,0,1,3.13-2.16c1.79.28,3.6.66,5.45,1.07l.56.15c56.9,14.53,104.46,53.08,131.8,104.46.37.63.69,1.26,1,1.91.69,1.29,1.32,2.6,2,3.92a211.62,211.62,0,0,1,14.85,39.58c-23.21-9.87-48-14.12-71.27-11.27-19.1,2.34-37.14,9.48-52.39,22.23a68.67,68.67,0,0,0-7.39-8.39,69.59,69.59,0,0,0-48.72-19.92,66.06,66.06,0,0,0-12.5,1.16l-.18,0c-4.14.5-70.55,5.87-70.86,79.05-.13,31.78,22,54.56,46.87,65.77L311.81,902l-1.25,1.07c-3.48-2.44-6.89-5-10.18-7.64A211.8,211.8,0,0,1,225,772.07c-.34-1.63-.69-3.29-.94-5-.28-1.34-.5-2.72-.72-4.1-.13-.84-.25-1.69-.38-2.53-.34-2.13-.62-4.29-.87-6.46-.13-1.22-.25-2.44-.38-3.69-.06-.53-.12-1.1-.15-1.66s-.13-1.22-.16-1.85c-.13-1.28-.22-2.6-.28-3.88-.22-2.91-.35-5.79-.41-8.74-.06-1.88-.09-3.75-.09-5.66v-.16C220.6,726.57,220.63,724.82,220.66,723ZM345.19,922.59c.85-1,1.69-2,2.6-2.94s1.85-2,2.82-2.94a103.47,103.47,0,0,1,8.67-7.61c1-.75,1.91-1.47,2.88-2.19,1.41-1,2.82-2,4.26-3,3.29-2.22,6.64-4.38,10.05-6.42,7.17-4.32,14.53-8.33,21.61-12.34,47.06-26.74,84.61-60.27,118.39-100.83,3.2-3.78,6.33-7.64,9.43-11.55,6.64,6.64,21.89,22.73,40.14,33.88C549.48,818.2,537,836.45,535,856.81a65.69,65.69,0,0,0,12.21,44.93,203.23,203.23,0,0,1-119.27,38.55c-.94,0-1.88,0-2.82,0a202.12,202.12,0,0,1-80-17.56Z"/><path class="cls-2" d="M687.32,785.19c-4.89.57-10,1.26-15.16,2.1A33.89,33.89,0,0,0,687.32,785.19Z"/><path class="cls-4" d="M845.56,871.21a21.52,21.52,0,0,1,7.77-3.16c-6.3,3.63-10.81,5.82-11.25,6a0,0,0,0,1,0,0s-4.32-43.78-46-70.49A238.53,238.53,0,0,0,811,748.81c5.45-36.51,3.35-74-4.76-110-1.85-8.26-4-16.5-6.54-24.61-8.86-28.77-20.86-56-43.56-76.65a49.78,49.78,0,0,0-31.38-12.72,47.32,47.32,0,0,0-21.63,4.39.25.25,0,0,0-.13.06,48,48,0,0,0-6.7,3.92,1.88,1.88,0,0,1-.31.21,42.53,42.53,0,0,0-9.08,8.8,37.27,37.27,0,0,0-5.8,11.18,37,37,0,0,1,11.62-17.69,56.56,56.56,0,0,1,8.3-6,79.09,79.09,0,0,1,23.73-9,51.38,51.38,0,0,1,11.43,0C781,525.89,806.2,591.27,820,647c14.87,60.27,46,86.17,46,86.17q2.29,11.28,4.19,22.51a255.46,255.46,0,0,1,3.88,32.54C875.31,820.89,867.35,852.14,845.56,871.21Z"/><path class="cls-4" d="M662.7,669c.16.41.29.85.44,1.28a177.42,177.42,0,0,0,12.78,30.32,1.23,1.23,0,0,1,.09.22c.94,1.22,26.46,35.35,29.37,58.9a20,20,0,0,1,.22,2c.07.75.1,1.5.1,2.22s0,1.19-.07,1.79c0,.4-.06.81-.12,1.19a11.09,11.09,0,0,1-.22,1.44,10.21,10.21,0,0,1-.28,1.31.13.13,0,0,0,0,.1,10,10,0,0,1-.44,1.34,12.12,12.12,0,0,1-.53,1.32c-.07.12-.1.25-.16.34a37.18,37.18,0,0,1-8.8,8.33,36,36,0,0,1-7.73,4.07,250.32,250.32,0,0,1,32.91-1.75c1.81-30.91-2.16-62.13-10.05-92.09-8.49-32.29-21.45-63.32-28.19-96-2.31-11.3-4.38-24.23-2.28-36-2.13,9.43-10,39.83-24.24,42l-.09.6C654.85,606.21,651.87,634.11,662.7,669Z"/><path class="cls-5" d="M608.38,936.69c1.5,3.38,6,3.94,9.67,4l36.89.75c7.39.16,14.9.29,21.95-1.87s13.12-6.42,19-10.81a336.11,336.11,0,0,0,75.68-79.34A241.61,241.61,0,0,0,796.1,803.6,238,238,0,0,0,811,748.81c5.45-36.51,3.36-74-4.76-110-1.84-8.26-4-16.5-6.54-24.61-8.86-28.77-20.85-56-43.56-76.65a49.76,49.76,0,0,0-31.37-12.72c-14.37-.53-28.93,5.67-37.86,17.38a37.84,37.84,0,0,0-6.29,12.9c-.07.25-.16.54-.22.85a3.63,3.63,0,0,0-.13.59,20.38,20.38,0,0,0-.5,2.32l-.09.47c-2.1,11.78,0,24.71,2.28,36,6.74,32.69,19.7,63.72,28.19,96,7.89,30,11.86,61.18,10.05,92.09-.38,6.51-1,13-1.91,19.41-5.2,37.14-19.7,73.34-44,102a44.71,44.71,0,0,1-10,9.36c-4.94,3.1-10.8,4.38-16.5,5.64L619,926.1C613.32,927.32,606.09,931.42,608.38,936.69Z"/><path class="cls-5" d="M617.44,450.83v0"/><path class="cls-5" d="M625.15,500.78a45,45,0,0,1,3.44,3.16c3.07,3.19,5.48,6.89,6.17,11.21,2.1,13.4-11.93,22.39-18.26,32.41-6.82,10.8-10.77,24.3-6.79,36.88,5.86,18.57,26.68,27.9,45,24a.18.18,0,0,0,.12,0c.53-.09,1-.22,1.5-.34"/><path class="cls-5" d="M685.41,717.49,631,685.84l-.37-.22-4.29-2.51c-46.25-27-103.4-31-142.32,1.57v0l-.47.37a98.78,98.78,0,0,0-11.93,12L398,793.52l-.18.25L310.9,902.63l-.61.24-.92.44-57.78,22.26a7.42,7.42,0,0,0-6,7.29,7.43,7.43,0,0,0,7.45,7.43h81.68c1.31-2,8.07-14.88,9.61-16.73.25-.28.46-.59.75-.87l.09-.1a36.76,36.76,0,0,1,2.6-2.94c.88-1,1.85-2,2.82-2.94a103.47,103.47,0,0,1,8.67-7.61c1-.75,1.91-1.47,2.88-2.19,1.41-1,2.82-2,4.26-3,3.26-2.22,6.64-4.35,10.05-6.42,7.17-4.32,14.53-8.33,21.61-12.34,51.48-29.24,91.53-66.6,127.82-112.38,2.47-3.16,5-6.39,7.45-9.64"/><path class="cls-5" d="M566,806.61c-18.25-11.15-33.5-27.24-40.14-33.88"/><path class="cls-5" d="M842.07,874.09c-9.52,7.3-21.39,12.43-36,14.69a229,229,0,0,1-66.35.43"/><path class="cls-5" d="M675.31,940c16.78.66,33.54,1,50.32,1l180.18.69c10.77.15,22.13.4,32.75-1.94,4.16-.94,9.74-2.32,11-7,4.32-15.75-26-16.34-34.6-18.6-13.81-3.66-31-10.11-34.22-25.89a53,53,0,0,0-1.45-5.42c-3.72-11.27-15.4-17-26-14.87a21.54,21.54,0,0,0-7.76,3.16c21.79-19.07,29.75-50.32,28.49-83a255.46,255.46,0,0,0-3.88-32.54q-1.87-11.22-4.19-22.51C855,679.23,836.89,624.4,808.33,578c-8.52-13.87-19.29-29.37-32.57-40.74"/><path class="cls-5" d="M736.21,520.79c-1.06,0-2.13,0-3.19.06A67.82,67.82,0,0,0,719.18,523h0A72.76,72.76,0,0,0,705,528.3c-.62.28-1.22.6-1.81.91a.25.25,0,0,0-.13.06c-2.28,1.19-4.54,2.51-6.7,3.92a1.88,1.88,0,0,1-.31.21c-1.1.72-2.19,1.51-3.26,2.29a81.64,81.64,0,0,0-8.17,6.76,90.93,90.93,0,0,0-19.42,26.24v0c-1,1.94-1.84,3.88-2.66,5.88a112.84,112.84,0,0,0-7,26.71c0,.19-.06.41-.1.6-.09.62-.15,1.25-.22,1.88-.18,1.56-.34,3.1-.46,4.66-1.66,20.23,1.62,40.87,8,60.56.16.41.28.85.44,1.29a217.85,217.85,0,0,0,12.78,30.31,1.23,1.23,0,0,1,.09.22c2.94,5.73,6.07,11.3,9.39,16.65.88,1.41,1.76,2.82,2.66,4.23,5.8,9,15.5,24.58,17.32,38,.09.68.19,1.34.22,2s.09,1.5.09,2.22,0,1.19-.06,1.79c0,.4-.06.81-.12,1.19s-.13,1-.22,1.44l-.28,1.31a.11.11,0,0,0,0,.1c-.12.47-.28.9-.43,1.34s-.35.88-.54,1.32c-.06.12-.09.25-.15.34s-.07.1-.1.16a17.77,17.77,0,0,1-8.7,8.17,28.22,28.22,0,0,1-3.23,1.29,132.89,132.89,0,0,1-19.66,4.88,273.79,273.79,0,0,1-32.32,3.23c-4.6.25-9.23.43-13.87.65h-.31c-20,.91-40,2.6-57.37,13.91-.75.5-1.53,1-2.25,1.53-16.57,11.59-29.09,29.84-31.1,50.2a65.75,65.75,0,0,0,12.22,44.93,2.93,2.93,0,0,0,.34.5,64.16,64.16,0,0,0,23.11,19.38A148.15,148.15,0,0,0,608,933.87"/><path class="cls-5" d="M845.48,871.27s.06,0,.09-.06-.06.06-.09.06a36,36,0,0,1-3.26,2.66,24,24,0,0,1,3.26-2.66"/><path class="cls-5" d="M842.1,874.06a.22.22,0,0,0,.12-.13.22.22,0,0,1-.12.13,0,0,0,0,1,0,0"/><line class="cls-5" x1="659.39" y1="500.78" x2="665.15" y2="568.73"/><path class="cls-5" d="M775.76,537.22c-11.27-9.64-24.42-16.31-39.55-16.43a51.38,51.38,0,0,0-11.43,0,79.09,79.09,0,0,0-23.73,9c-3.91,1.1-8,1.22-11.3-.81-3.76-2.35-4.89-7.24-5.36-11.34-.72-6.51.06-13.09,1.07-19.57.43-2.75.9-5.48,1.31-8.17,1.32-8.49,3.85-17.91,2.79-26.77a34.48,34.48,0,0,0-12.09-22.17c-6.7-5.55-15.22-8.3-23-12.22a44.28,44.28,0,0,1-11.24-7.76A22.14,22.14,0,0,1,637,410.5a19.18,19.18,0,0,1-.31-7.8,19.39,19.39,0,0,1,3.38-8.29l.47-.66a25.42,25.42,0,0,1,6.73-6.17c13.81-8.74,31.44-12,49.79-6.76,25.33,7.26,42.37,31.06,42.37,57.42v.07c0,1,0,2.06-.07,3.1-.31,11.24-2.56,22.17-8.7,31.87-4.64,7.36-12.28,13.37-12.84,22.71a14.13,14.13,0,0,0,2.6,9c2.38,3.29,6.07,5.39,9.8,7C740.25,516.43,769,527.64,775.76,537.22Z"/><path class="cls-5" d="M547.5,902.24a202.22,202.22,0,0,1-203.15,21.32c.25-.28.46-.59.75-.87l.09-.1c.85-1,1.69-2,2.6-2.94s1.85-2,2.82-2.94a103.47,103.47,0,0,1,8.67-7.61c.94-.72,1.91-1.47,2.88-2.19,1.41-1,2.82-2,4.26-3,3.29-2.22,6.64-4.38,10.05-6.42,7.17-4.32,14.53-8.33,21.61-12.34,51.48-29.24,91.53-66.6,127.82-112.38,6.64,6.64,21.89,22.73,40.14,33.88.72-.53,1.5-1,2.26-1.53,17.37-11.31,37.35-13,57.36-13.91"/><path class="cls-5" d="M398,793.52,310.54,902.28l-1.25.24C255.62,864,220.6,800.82,220.6,728.36c0-97.57,63.62-179.8,150.49-205.16"/><path class="cls-5" d="M519.23,537l.16.09c56.42,28.75,98.32,83.17,111.22,148.49l-4.29-2.51c-46.44-27.05-103.87-31-142.79,2"/><path class="cls-5" d="M398,793.52c-23.76-11.49-40.2-36.35-40.2-65.16,0-39.77,31.28-72,69.89-72a69,69,0,0,1,55.86,28.71"/><path class="cls-5" d="M609.71,584.44l-82.89-44s-2.85-1.32-7.45-3.29l-.16-.09c-9.39-4-25.89-10.49-40.83-13.91l-.56-.15c-10.43-2.32-20-3.1-25.8-.35a2.82,2.82,0,0,0-.91.47,5.67,5.67,0,0,0-1,.66.26.26,0,0,0-.16.13,9.09,9.09,0,0,0-1,.9c-4.42,4.64-8.52,10.87-14.63,13.41a9.38,9.38,0,0,1-4.63.78,1.39,1.39,0,0,1-.53-.1H429a4.83,4.83,0,0,1-.62-.18,6.2,6.2,0,0,1-.79-.32,3.16,3.16,0,0,1-.72-.44,1.83,1.83,0,0,0-.25-.15,7.87,7.87,0,0,1-1.16-1.07,10.42,10.42,0,0,1-1.06-1.5,6.47,6.47,0,0,1-.34-.63,13.57,13.57,0,0,1-1.1-2.81,11,11,0,0,1-.31-1.16,25.9,25.9,0,0,1-.5-3.79,3.71,3.71,0,0,0-5.36-3.1,145.79,145.79,0,0,1-20.6,8c-1.13.37-2.29.75-3.51,1.09-2,.6-4.2,1.19-6.45,1.79a53.06,53.06,0,0,1-6.67,1.25c-.34,0-.69.06-1,.06a7.82,7.82,0,0,1-1.47-.12.77.77,0,0,1-.29-.07,2.61,2.61,0,0,1-.5-.12,5.57,5.57,0,0,1-1.06-.38,3.26,3.26,0,0,1-.63-.28,1.11,1.11,0,0,1-.34-.22,3.16,3.16,0,0,1-.66-.44,2.59,2.59,0,0,1-.38-.31,3.15,3.15,0,0,1-.56-.53,2.5,2.5,0,0,1-.6-.66,2.6,2.6,0,0,1-.46-.66,3.68,3.68,0,0,1-.47-.78c-.13-.25-.25-.5-.35-.75a9.78,9.78,0,0,1-.34-1,3.48,3.48,0,0,1-.19-.82,9.15,9.15,0,0,1,.12-3.79,8.55,8.55,0,0,1,.69-1.84,8.46,8.46,0,0,1,3.79-3.6c75.81-37.64,176.39-31.51,250.26-18.82"/><path class="cls-5" d="M719.16,523h0c3.67,1.13,5.61,1.78,5.61,1.78"/><path class="cls-5" d="M705,528.3a20.83,20.83,0,0,1-3.91,1.44"/><line class="cls-5" x1="725.64" y1="941.04" x2="76.93" y2="941.04"/><circle cx="635.7" cy="447" r="4.27"/><path class="cls-5" d="M630.45,434.28s15.81-.65,17.37,12.72"/><path class="cls-5" d="M625.87,500.93c-3.7-1.06-7.83-4.88-10.65-7.48a64.23,64.23,0,0,1-8.45-9.52,62.83,62.83,0,0,1-4.14-67.39c4-7.26,9.58-13.84,16.85-17.88a34.49,34.49,0,0,1,19.91-4.25,61,61,0,0,0-9.45,11.36,50.21,50.21,0,0,0-7.74,20.42c-.15,1.28-.28,2.54-.4,3.82-.6,6.83-.76,13.71-3.67,19.48a20.49,20.49,0,0,1-6.32,7.32,9.11,9.11,0,0,0-1.72,1.41c-2.79,3.23,5.19,3.54,6.92,4.42,4.38,2.16,3.31,9.33,4.16,13.37a45.35,45.35,0,0,0,5.2,13.43,36.62,36.62,0,0,0,2.88,4.26c4.85,6.17,11.74,10.77,20,10.24A28.43,28.43,0,0,0,659.75,501a41.45,41.45,0,0,0,14.43-11.75"/><path class="cls-5" d="M632.21,477.76s10.3,4.95,13.7-8.35"/><path class="cls-1" d="M114,789.6s-66.08,90.26.72,151.44"/></svg>