<svg id="Layer_2" data-name="Layer 2" xmlns="http://www.w3.org/2000/svg" viewBox="0 0 1000 1000"><defs><style>.cls-1,.cls-4,.cls-5{fill:none;}.cls-1{stroke:#ccdde2;stroke-miterlimit:10;}.cls-1,.cls-5{stroke-width:5.42px;}.cls-2{fill:#2e2e2e;}.cls-3{fill:#3fbdf1;}.cls-5{stroke:#000;stroke-linecap:round;stroke-linejoin:round;}</style></defs><path class="cls-1" d="M933.78,507.74H739.58a16.2,16.2,0,0,1-14-24.3l19.1-33.05,29.8-51.64,6-10.35a16.23,16.23,0,0,1,14-8.06h84.44a16.1,16.1,0,0,1,14,8.06l54.9,95A16.2,16.2,0,0,1,933.78,507.74Z"/><polyline class="cls-1" points="844.13 776.77 844.13 761.29 844.13 507.75 823.08 507.75 823.08 740.86 823.08 782.89"/><path class="cls-1" d="M799.83,507.74v97.39a10.52,10.52,0,0,1-10.52,10.53H662.08a10.52,10.52,0,0,1-10.52-10.53V375.46a10.53,10.53,0,0,1,10.52-10.53H789.31a10.53,10.53,0,0,1,10.52,10.53v4.88"/><path class="cls-1" d="M542.41,779.55V711.78a63.28,63.28,0,0,0-63.28-63.28H453.49"/><path class="cls-1" d="M681.51,581.84l2.56-42c.86-14.16,1.08-31.7,12.4-42.11,18.84-17.32,26.62,23.44,28.77,34.25a298.54,298.54,0,0,1,5.28,49.63c.43-6.62,1-13.39,3.79-19.42,2.91-6.33,9.14-12.1,16.56-11.36,13.55,1.35,19.71,19.6,19.43,31"/><path class="cls-1" d="M714.67,441a17.37,17.37,0,1,1-1.54-19.66,9.67,9.67,0,0,0-1.8,4.64s0,0-.06,0a9.08,9.08,0,0,0-8.08,9v.07A6.13,6.13,0,0,0,709.4,441Z"/><path class="cls-1" d="M735.19,429.33A18.18,18.18,0,0,0,723.41,441h-14a6.13,6.13,0,0,1-6.21-5.89v-.07a9.08,9.08,0,0,1,8.08-9s.06,0,.06,0a9.67,9.67,0,0,1,1.8-4.64c3-4.23,9.23-6,15-1.87a8.11,8.11,0,0,1,3.18,7.79v0a.15.15,0,0,0,0,.07A6.59,6.59,0,0,1,735.19,429.33Z"/><path class="cls-1" d="M766.43,412l-27,46.72H735c-6.64,0-12.43-5.21-12.5-11.88v-.13a18.33,18.33,0,0,1,12.7-17.37,15.81,15.81,0,0,1,3.6-.79c.06,0,.09,0,.09-.06A20.32,20.32,0,0,1,766.43,412Z"/><line class="cls-1" x1="774.48" y1="398.75" x2="744.68" y2="450.39"/><path class="cls-1" d="M823.08,753.44c-19-15.19-70.16-38.48-94-46.18-43.4-14-100.47-12.4-134.46-47-44.44-45.16-10-133.44-15.41-189.21-2.53-26.14-10.66-49-24.41-67.55a111.34,111.34,0,0,0-14-15.62"/><path class="cls-1" d="M394.68,343.49c-105.41,5-145.74,91.57-145.74,91.57"/><path class="cls-2" d="M133.16,792.75s49.67-96.13,137.39-85.12c0,0-78.66-41-55.29-126.4.25-1.12.32-27.74,17.05-27.74H368.37s-3.84-4.06-14.24,17.42c0,0-18.48,24.29-21.56,38.59s17,13.39,17,13.39,51.6,36.71,56.88,32.37,19.9-39,24.45-55.8,5.69-35.56,12.92-34.43,18.5,5.1,14.62-5.73-17.23-68.12-33-79.34-66-85.79-67.55-89.41-30.68,4.37-30.68,4.37-132.64,44.65-176.18,164.3S128.65,780.13,133.16,792.75Z"/><path class="cls-3" d="M270.55,707.63s-94.63-21.55-137.39,85.12c0,0,16.78,77.28,102.71,81.3S370.2,857,405.45,856.45c7-.11-16.9-78,44.81-84.08,0,0-61.71-21.87-107.06-33.58S270.55,707.63,270.55,707.63Z"/><path class="cls-3" d="M554.85,397v69.65a34.13,34.13,0,0,1-21.15,31.65C517,505.11,495,512.74,458.48,514.05V464.36c9.9,4,21.33,1.44,29.29-5.72,1.7-1.52,3.36-3,4.92-4.3,6.11-5.28,11.06-8.68,13.56-7.74,5.17,1.92,5.82,1.92,9-14.86,2.35-12.08,21.88-25.43,26.58-47.63a47,47,0,0,0,.79-14,60,60,0,0,0-4.08-16.78,84,84,0,0,0-12.88-22.24l10.13,10.38c.94,1,1.84,1.95,2.68,3C550.91,358.87,554.85,377.56,554.85,397Z"/><path class="cls-3" d="M542.34,381.4c-.11.94-.29,1.84-.47,2.71-2.24-.14-8.68.76-16.06,5a0,0,0,0,0,0,0,47.19,47.19,0,0,0-13.38,11.58c-5.65,7-32.7,37.68-55.15,63h0c-2.86,3.25-5.65,6.4-8.31,9.41a12.63,12.63,0,0,1-19.33-.51l-55.25-69.22A23,23,0,0,1,377,372l49.84-44.56,2-1.69q1.45-1.08,2.91-2.07C463,304,493.59,306,516.12,321.22l9.58,9.84a84,84,0,0,1,12.88,22.24C542.81,364,543.57,373.3,542.34,381.4Z"/><path class="cls-3" d="M525.7,331.06l-9.58-9.84-.54-.54a.8.8,0,0,1,.22.14c.28.26.61.55.9.8a74.72,74.72,0,0,1,8.75,9.11C525.52,330.84,525.63,331,525.7,331.06Z"/><path class="cls-4" d="M458.47,464.36a11.42,11.42,0,0,1-1.22-.58"/><path class="cls-3" d="M522.56,326.1a.78.78,0,0,1,.22.15,75.5,75.5,0,0,1,9.66,9.91c.07.1.18.21.25.32Z"/><path class="cls-4" d="M465.46,469.78a12.6,12.6,0,0,1-1.23-.58"/><path class="cls-5" d="M433.74,489.53c18.63,52.83-.5,121.8-29.18,169"/><path class="cls-5" d="M357.94,390.55c-49,.68-98.26,33.85-133.7,64.08-49.44,42.13-76.38,98-89.87,160.78a507,507,0,0,0-10.56,87c-10,259.37,218.83,147.73,293.8,154.2"/><path class="cls-5" d="M298.76,446.22c-9.13.06-212.11,214.23,36.11,290.15,235.51,72,217.29,86.07,229.84,98.91,13.16,13.45,45.52-13.6-15.23-51.08S414.77,637.52,310.06,609.6"/><path class="cls-5" d="M330.31,616.25c5.51-18.9,21.79-47.38,32.64-62.76"/><path class="cls-5" d="M558.16,825.88l5.84,8.4a70.52,70.52,0,0,1,9.33,18.52c25.93,80.6-91.07,82.63-91.07,82.63h-401c-7.76,0-19.81,2.1-26.45-1.06-5.52-2.63-6-9-3-13.69,6.41-10,21.25-11.41,31-16.65,11.51-6.23,22.86-15,25.88-28.43,12.14-53.88,51.86-34.32,51.86-34.32"/><path class="cls-5" d="M433.74,490.29c5.89-6.62,14.32-16.13,23.47-26.51h0c22.45-25.35,49.5-56,55.15-63,11.64-14.47,25.89-16.86,29.47-16.64"/><path class="cls-5" d="M457.21,463.78h0a10.73,10.73,0,0,0,1.23.58c9.9,4,21.33,1.44,29.29-5.72,8.35-7.52,15.33-13.23,18.48-12,5.17,1.92,5.82,1.92,9-14.86,2.35-12.08,21.88-25.43,26.58-47.63,1.84-8.75,1.41-18.88-3.29-30.81a84,84,0,0,0-12.88-22.24c-.07-.11-.18-.22-.25-.33a76.11,76.11,0,0,0-9.66-9.91.64.64,0,0,0-.21-.14c-24.67-20.94-61.7-24.7-98.51,2.93-.65.5-1.3,1.05-1.92,1.59l-49.83,44.55a23,23,0,0,0-2.72,31.43l71.14,89.11,2.13,6,25.06,69.87H438.66"/><path class="cls-5" d="M509.41,404.94s5-.74,9.95,3.78"/><ellipse cx="506.09" cy="414.53" rx="5.41" ry="3.39" transform="translate(-138.06 528.7) rotate(-49.37)"/><path class="cls-5" d="M515.58,320.68l10.12,10.38,10.13,10.38c14.5,14.86,19,34.79,19,55.58v78.4a34.13,34.13,0,0,1-21.15,31.65C517,513.87,495,521.5,458.48,522.8V464.36"/><circle class="cls-3" cx="658.44" cy="784.38" r="6.9"/><path class="cls-5" d="M832.17,867.91c-6.16,27.72,16.38,33.88,16.38,33.88v17.86h-2a8.23,8.23,0,0,0-8.22,8.23h0a8.23,8.23,0,0,0,8.49,8.23c19.69-.55,72.34-12.55,56.81-106.4-11-66.48-71.15-61-99.57-34.27-24.66,23.19,10.53,60.86,35.72,38.25a97.43,97.43,0,0,0,9.48-9.91"/><path class="cls-5" d="M828.85,902.36v17.29h-2a8.21,8.21,0,0,0-8.24,8.25,8.2,8.2,0,0,0,8.5,8.2,60,60,0,0,0,14-2.07"/><path class="cls-5" d="M721.37,934.46a57.45,57.45,0,0,1-12.18,1.63,8.16,8.16,0,0,1-8.46-8.19,8.32,8.32,0,0,1,2.41-5.83,8,8,0,0,1,5.81-2.42h2V901.8s-17.45-.73-17.91-33.91l-.1-49.26"/><line class="cls-5" x1="780.94" y1="818.62" x2="796.24" y2="818.62"/><path class="cls-5" d="M711.83,867.91c-6.18,27.72,16.37,26.5,16.37,26.5v25.24h-2a8.24,8.24,0,0,0-8,10.31,8.5,8.5,0,0,0,8.68,6.13c12.48-.46,35.05-5.18,47.91-31.74,8.39,5.88,10.53,9.32,21.58,9.32a52,52,0,0,0,40.66-19.48"/><path class="cls-5" d="M710.77,818.63H681.39a19.69,19.69,0,0,1-19.67-19.7v-5.12a22.63,22.63,0,0,1,.24-3.31"/><path class="cls-5" d="M665,781.41a25.21,25.21,0,0,1,4-5.26,24.87,24.87,0,0,1,17.64-7.3A30.32,30.32,0,0,1,717,738.52h9.44a54.53,54.53,0,0,1,54.52,54.53v33.88a28,28,0,1,1-56.07,0V783.5"/><path class="cls-5" d="M662,790.5a6.7,6.7,0,0,1-3.2.78,6.9,6.9,0,1,1,6.24-9.87"/><path class="cls-5" d="M707.75,774.05s-2.41-6.75-12.53-5.3"/><path class="cls-5" d="M492.67,454.33s-8.12,2.73-10.53-8.11"/><line class="cls-5" x1="458.58" y1="699.71" x2="445.25" y2="566.16"/><path class="cls-5" d="M226.39,553.49H371.77a8.36,8.36,0,0,0,8.36-8.36V521"/><line class="cls-5" x1="65.69" y1="936.11" x2="926.65" y2="936.11"/></svg>