<svg id="Layer_2" data-name="Layer 2" xmlns="http://www.w3.org/2000/svg" viewBox="0 0 1000 1000"><defs><style>.cls-1,.cls-4,.cls-6{fill:none;stroke-width:4.42px;}.cls-1{stroke:#ccdde2;}.cls-1,.cls-6{stroke-miterlimit:10;}.cls-2{opacity:0.67;}.cls-3{fill:#3fbdf1;}.cls-4,.cls-6{stroke:#000;}.cls-4{stroke-linecap:round;stroke-linejoin:round;}.cls-5{opacity:0.36;}.cls-7{fill:#2e2e2e;}.cls-8{fill:#fff;}</style></defs><path class="cls-1" d="M255.29,717c33.45-9.32,65.06-39.17,65.41-75.16.62-64.54-34.31-123-24.93-187.68,6.63-46,27.46-99.08,62.5-133.74,19.88-19.67,44.33-33.42,73.39-36.54,64.71-7,134.32,29.37,168.66,84.06,13,20.77,20.47,44.42,20.47,68.46v.33a114.91,114.91,0,0,1-4.19,30.44c-.86,3.09-1.83,6.22-2.8,9.38a2.57,2.57,0,0,0-.15.47c-.3.91-.59,1.86-.89,2.77-5,16.08-10,32.42-5,48.08.27.86.59,1.71.91,2.54,4.64,11.68,14.55,20.88,25.64,26.93,17.78,9.7,37.43,14.57,57.13,19.26a0,0,0,0,1,0,0c24.93,5.93,49.91,11.65,71.26,26.58,35.19,24.6,55,65.68,59.88,107.66s-2.3,85.69-16.52,125.83"/><path class="cls-1" d="M97,948c-44.93-53.65-47.27-141.29,13.14-183.91"/><line class="cls-1" x1="518.03" y1="298.41" x2="518.03" y2="375.05"/><line class="cls-1" x1="518.03" y1="404.34" x2="518.03" y2="419.11"/><path class="cls-1" d="M616.6,467.21c-5.58,20-15.16,40.91-8.82,60.7.26.86.59,1.71.91,2.54H383.57a25.3,25.3,0,0,1-25.3-25.3V320.46c19.88-19.67,44.33-33.42,73.39-36.54,64.71-7,134.32,29.37,168.66,84.06C618.93,397.6,626.1,433.17,616.6,467.21Z"/><g class="cls-2"><path class="cls-3" d="M283.73,606.57c0,.06,0,.12-.06.18-.41,1.59-.82,3.19-1.18,4.78-.12.5-.23,1-.32,1.44-.39,1.66-.74,3.31-1,5a.11.11,0,0,0,0,.09c-.3,1.59-.56,3.15-.8,4.75-.12.62-.21,1.24-.27,1.85-.26,1.6-.44,3.16-.62,4.75-1,9.06,1.39,19.18-1.23,28-1.74,5.75-6.49,10.56-11.74,15.25-.8.7-1.63,1.41-2.42,2.15l-2.48,2.15c-1.21,1.09-2.42,2.18-3.57,3.28-.38.35-.77.7-1.12,1.09s-.74.74-1.12,1.12c-3.57,3.72-6.4,7.67-7.26,12.21a15.71,15.71,0,0,0-.12,5.07,6.64,6.64,0,0,0,.18,1.07,6.85,6.85,0,0,0,.21,1.06v0c.06.23.12.47.17.7.24.89.51,1.77.83,2.66a79.85,79.85,0,0,0,3.3,7.29c.24.47.48.91.68,1.38,1.18,2.3,2.33,4.63,3.25,7,.2.53.38,1.06.59,1.6s.26.88.41,1.32l.18.71c.14.56.26,1.12.38,1.68s.15.92.21,1.36c0,.12,0,.26,0,.41a15,15,0,0,1-.21,4.63v0c-.83,4.37-3.48,8.08-7,11.59a96.19,96.19,0,0,1-9.59,8c-1.71,1.3-3.42,2.59-5.07,3.92s-3.24,2.66-4.75,4c-.35.36-.74.71-1.09,1.06a31.67,31.67,0,0,0-4.57,5.52c-6.49,10.06-3.45,21.59-6.82,32.33a27.27,27.27,0,0,1-1.85,4.51,12.18,12.18,0,0,1-.86,1.53,9,9,0,0,1-.83,1.39,19.52,19.52,0,0,1-1.29,1.92c-.45.62-.92,1.24-1.42,1.83a14,14,0,0,1-1,1.18c-.33.41-.68.79-1.06,1.18a2.38,2.38,0,0,1-.36.32,19.88,19.88,0,0,1-1.59,1.59c-.94.89-2,1.77-3,2.6-.5.41-1,.8-1.56,1.21-.15.12-.3.21-.47.35s-.3.21-.48.33c-.41.29-.82.59-1.26.85-.18.15-.39.27-.56.39l-.83.53c-.3.2-.62.38-.94.56-.65.41-1.33.82-2,1.21-.5.26-1,.56-1.56.82a14.87,14.87,0,0,1-1.48.77h0c-.44.24-.88.44-1.35.65-.68.32-1.33.62-2,.91s-1.39.59-2.06.86l-1.69.62c-.53.23-1.06.41-1.59.59l-.29.09c-1,.35-2.07.67-3.1,1h0a7.28,7.28,0,0,1-.89.23c-.29.12-.62.18-.91.27-.62-.5-1.27-1-1.92-1.59a1.2,1.2,0,0,1-.2-.18s-.06,0-.06-.06-.06,0-.09-.06c-.33-.29-.62-.59-1-.88-1.2-1.12-2.44-2.39-3.68-3.78l-.74-.82c-.09-.09-.18-.21-.27-.3a3.72,3.72,0,0,0-.38-.44c-1.06-1.21-2.09-2.51-3.1-3.84-.44-.5-.82-1-1.18-1.53a5.7,5.7,0,0,1-.56-.77c-.44-.59-.85-1.18-1.26-1.77-.18-.23-.33-.44-.48-.67l-.7-1c-.06-.06-.09-.15-.15-.2L164,809.1v0A120.64,120.64,0,0,0,175.07,785c.2-.62.35-1.24.5-1.86a28.12,28.12,0,0,0,.59-3.66v-.15a35.66,35.66,0,0,0-.33-8.11,76,76,0,0,0-1.53-7.49c-.33-1.27-.65-2.51-1-3.77l-1-3.78a79,79,0,0,1-1.92-9.44c-.05-.38-.08-.77-.11-1.15l-.09-.85c0-.42-.06-.83-.09-1.27s0-.74,0-1.09v-.15c0-.89-.06-1.77-.06-2.63s0-1.71.06-2.56c0-.39,0-.8.06-1.18,0-.68.06-1.36.12-2s.09-1.36.14-2,.12-1.36.21-2,.15-1.36.21-2c.23-2,.47-4.07.71-6.11,0-.12,0-.27,0-.38.14-1.21.29-2.45.41-3.66v-.06c.12-1.24.23-2.45.32-3.69a1.06,1.06,0,0,1,0-.29q.14-1.68.18-3.36v0c0-.21,0-.42,0-.62v-.15c0-.77,0-1.51,0-2.27,1.44-1.21,2.92-2.33,4.45-3.45a120.53,120.53,0,0,0,11.51-9.38c.7-.65,1.32-1.33,1.94-2,5.46-6.13,7.94-12.89,9.47-19.91,2.39-10.77,2.57-22.06,7.94-32.36.44-.85.91-1.68,1.44-2.5a29.79,29.79,0,0,1,1.95-2.84,49.47,49.47,0,0,1,4.36-5,62.92,62.92,0,0,1,9.18-7.46c2.06-1.39,4.27-2.69,6.54-3.93s4.66-2.36,7.11-3.39,5.05-2,7.67-2.89c.89-.29,1.77-.59,2.66-.85,0,0,0,0,.06,0,2.65-.77,5.39-1.48,8.17-2.1.91-.17,1.85-.38,2.8-.56A109.57,109.57,0,0,1,283.73,606.57Z"/><path class="cls-3" d="M283.73,606.57c0,.06,0,.12-.06.18-.41,1.59-.82,3.19-1.18,4.78-.12.5-.23,1-.32,1.44-.39,1.66-.74,3.31-1,5a.11.11,0,0,0,0,.09c-.3,1.59-.56,3.15-.8,4.75-.12.62-.21,1.24-.27,1.85-.23,1.6-.44,3.16-.62,4.75-1,9.06,1.39,19.18-1.23,28-1.74,5.75-6.49,10.56-11.74,15.25-.8.7-1.63,1.41-2.42,2.15l-2.48,2.15c-1.21,1.09-2.42,2.18-3.57,3.28-.38.35-.77.7-1.12,1.09s-.74.74-1.12,1.12c-3.57,3.72-6.4,7.67-7.26,12.21a15.71,15.71,0,0,0-.12,5.07,6.64,6.64,0,0,0,.18,1.07,6.85,6.85,0,0,0,.21,1.06v0c.06.23.12.47.17.7.24.89.51,1.77.83,2.66a79.85,79.85,0,0,0,3.3,7.29c.24.47.48.91.68,1.38,1.18,2.3,2.33,4.63,3.25,7,.2.53.38,1.06.59,1.6s.26.88.41,1.32l.18.71c.14.56.26,1.12.38,1.68s.15.92.21,1.36c0,.12,0,.26,0,.41a15,15,0,0,1-.21,4.63v0c-.83,4.37-3.48,8.08-7,11.59a96.19,96.19,0,0,1-9.59,8c-1.71,1.3-3.42,2.59-5.07,3.92s-3.24,2.66-4.75,4c-.35.36-.74.71-1.09,1.06a31.67,31.67,0,0,0-4.57,5.52c-6.49,10.06-3.45,21.59-6.82,32.33a27.27,27.27,0,0,1-1.85,4.51,12.18,12.18,0,0,1-.86,1.53,9,9,0,0,1-.83,1.39,19.52,19.52,0,0,1-1.29,1.92c-.45.62-.92,1.24-1.42,1.83a14,14,0,0,1-1,1.18c-.33.41-.68.79-1.06,1.18a2.38,2.38,0,0,1-.36.32,19.88,19.88,0,0,1-1.59,1.59c-.94.89-2,1.77-3,2.6-.5.41-1,.8-1.56,1.21-.15.12-.3.21-.47.35s-.3.21-.48.33c-.41.29-.82.59-1.26.85-.18.15-.39.27-.56.39l-.83.53c-.3.2-.62.38-.94.56-.65.41-1.33.82-2,1.21-.5.26-1,.56-1.56.82a7.16,7.16,0,0,1-.83.42l-.65.35h0c-.44.24-.88.44-1.35.65-.68.32-1.33.62-2,.91s-1.39.56-2.06.83v0l-1.69.62c-.53.2-1.06.38-1.59.56v0l-.29.09c-1,.35-2.07.67-3.1,1h0a7.28,7.28,0,0,1-.89.23c-.29.12-.62.18-.91.27-.62-.5-1.27-1-1.92-1.59a1.2,1.2,0,0,1-.2-.18v0s0,0-.06,0-.06,0-.09-.06c-.33-.29-.62-.59-1-.88-1.2-1.12-2.44-2.39-3.68-3.78l-.74-.82c-.09-.09-.18-.21-.27-.3a3.72,3.72,0,0,0-.38-.44c-1.06-1.21-2.09-2.51-3.1-3.84-.44-.5-.82-1-1.18-1.53a5.7,5.7,0,0,1-.56-.77c-.44-.59-.85-1.18-1.26-1.77-.18-.23-.33-.44-.48-.67l-.7-1c-.06-.06-.09-.15-.15-.2L164,809.1v0A120.64,120.64,0,0,0,175.07,785c.2-.62.35-1.24.5-1.86a28.12,28.12,0,0,0,.59-3.66v-.15a35.66,35.66,0,0,0-.33-8.11c-.38-2.47-.91-5-1.53-7.49-.33-1.27-.65-2.51-1-3.77l-1-3.78a79,79,0,0,1-1.92-9.44c-.05-.38-.08-.77-.11-1.15l-.09-.85c0-.42-.06-.83-.09-1.27s0-.74,0-1.09v-.15c0-.89-.06-1.77-.06-2.63s0-1.71.06-2.56c0-.39,0-.8.06-1.18,0-.68.06-1.36.12-2s.09-1.36.14-2,.12-1.36.21-2,.15-1.36.21-2c.2-2,.47-4.07.71-6.11,0-.12,0-.27,0-.38.14-1.21.26-2.45.41-3.66v-.06c.12-1.24.23-2.45.32-3.69a1.06,1.06,0,0,1,0-.29c.06-1.12.15-2.24.18-3.36v0c0-.21,0-.42,0-.62v-.15c0-.77,0-1.51,0-2.27,1.44-1.21,2.92-2.33,4.45-3.45a120.53,120.53,0,0,0,11.51-9.38c.7-.65,1.32-1.33,1.94-2,5.46-6.13,7.94-12.89,9.47-19.91,2.39-10.77,2.57-22.06,7.94-32.36.44-.85.91-1.68,1.44-2.5a29.79,29.79,0,0,1,1.95-2.84,49.47,49.47,0,0,1,4.36-5,62.92,62.92,0,0,1,9.18-7.46c2.06-1.39,4.27-2.69,6.54-3.93s4.66-2.36,7.11-3.39,5.05-2,7.67-2.89c.89-.29,1.77-.59,2.66-.85,0,0,0,0,.06,0,2.65-.77,5.39-1.48,8.17-2.1.91-.17,1.85-.38,2.8-.56A109.57,109.57,0,0,1,283.73,606.57Z"/><path class="cls-3" d="M199.72,665c-1.53,7-4,13.77-9.46,19.91-.62.68-1.24,1.35-1.95,2a117.67,117.67,0,0,1-11.5,9.38c-1.6,1.18-3.16,2.36-4.66,3.6-.89-1.44-.56-3.76-1.74-5.67,0,0,0,0,0,0a48.72,48.72,0,0,1-2.47-5c0-.09-.48-2.33-.57-2.39A114.79,114.79,0,0,0,158,675.36c-5.57-5.75-13.76-12.13-14.44-12.84l-.06-.06s1.67-49,29.27-64.5C196.51,584.57,199.4,647.1,199.72,665Z"/><path class="cls-4" d="M278.19,657.35c-4.25,14.13-26.94,22.74-29.71,37.26-2.45,12.86,12.6,24.86,10.09,37.93-2.62,14-24.19,21.77-32.09,34.19-6.49,10-3.45,21.59-6.82,32.32-4,13-18.14,24.4-36.6,29.8-.59.17-1.21.35-1.8.5-5.6-4.34-12-12-17.26-20.27A120.87,120.87,0,0,0,175.07,785c4-12.53-3-25.42-4.64-38.25-1.91-15.46,3.87-31.8,1.63-46.81,6.13-4.93,13.24-9.53,18.2-15,13.83-15.48,8.52-35.27,17.4-52.26,10.8-20.74,44.8-35.22,78.22-33.31a152.34,152.34,0,0,0-6.46,30.09C278.42,638.42,280.81,648.53,278.19,657.35Z"/><path class="cls-4" d="M265.48,615.55c-49.83,50.83-73.27,158-82.39,213.29h0c-.74,4.67-1.42,8.94-2,12.79"/><path class="cls-4" d="M172,699.93c6.16-5,13.3-9.58,18.23-15.09,13.85-15.49,8.53-35.27,17.4-52.26,10.82-20.75,44.83-35.21,78.25-33.31a151.15,151.15,0,0,0-6.47,30.08c-1,9.08,1.38,19.19-1.23,28-4.26,14.16-26.95,22.74-29.71,37.27-2.44,12.84,12.59,24.85,10.1,37.92-2.64,14-24.18,21.77-32.11,34.18-6.48,10.08-3.44,21.62-6.79,32.35-4.07,12.94-18.15,24.39-36.62,29.77-.59.19-1.22.37-1.81.53-5.61-4.35-12-12-17.24-20.28"/><path class="cls-4" d="M265.48,615.55c-49.83,50.83-73.27,158-82.39,213.29h0c-.74,4.67-1.42,8.94-2,12.79"/><path class="cls-4" d="M230,860.56l-13.94,77.93a9.45,9.45,0,0,1-9.31,7.8H134a9.46,9.46,0,0,1-9.34-7.92l-12.85-77.81Z"/><path class="cls-4" d="M243.27,851.87h0a9.45,9.45,0,0,1-9.43,8.69H108.18A9.47,9.47,0,0,1,98.76,852h0a9.47,9.47,0,0,1,9.42-10.36H233.84A9.46,9.46,0,0,1,243.27,851.87Z"/><g class="cls-5"><path class="cls-3" d="M176.16,779.3v.06a25.28,25.28,0,0,1-1.09,5.61A120.64,120.64,0,0,1,164,809.07v0l1.54,2.36-16.08,20.29a7.43,7.43,0,0,1-.71-.24c-.44-.14-.88-.29-1.32-.47a13.31,13.31,0,0,1-1.77-.74l-1.8-5.81a11.61,11.61,0,0,1-1.18-.56c-1-.44-2-.94-2.89-1.44s-1.86-1-2.78-1.57a57.35,57.35,0,0,1-9.91-7.4c-.73-.68-1.47-1.39-2.15-2.09a47.17,47.17,0,0,1-5.07-6.17,6.59,6.59,0,0,1-.56-.82,40.9,40.9,0,0,1-4-7.5c-.3-.7-.56-1.41-.8-2.12a24.24,24.24,0,0,1-.89-2.86c-3.24-12.42-.32-25.81-6.51-37.46a45.19,45.19,0,0,0-7.67-10c-.39-.41-.77-.8-1.18-1.18-1-1-2-1.92-3-2.86-3-2.83-6.2-5.64-9.06-8.56-4.92-5-8.94-10.44-10-17-.06-.32-.09-.67-.12-1v0c1.3-12.56,11.33-24.42,9.92-36.93a8.92,8.92,0,0,0-.12-.94c-2.66-16.81-24.46-26.76-28.53-43.18a56.37,56.37,0,0,1-1.18-15c.06-4.57.33-9.2.18-13.66,0-1.26-.06-2.5-.18-3.74A204.18,204.18,0,0,0,50,565.54c.41,0,.86-.06,1.27-.06,31.68-1.71,63.65,14.93,73.92,38.64,8.52,19.68,5,40.43,18.33,58.34l.06.06c3.3,4.42,9.31,8.56,13.58,12.48a68.25,68.25,0,0,1,9.49,10.63c.09.06,4.24,2.44,1.29,2.88a16,16,0,0,1,1.41,2c.53.86-1,3-.6,3.81,0,0,1.6-1.35,1.6-1.32,1.68,3.42,1.15,8.34,1.71,11.91a44.53,44.53,0,0,1,.47,5.17v0c-.38,10.55-2.83,21.47-2.42,32.06v.15a55.55,55.55,0,0,0,.32,9.4C171.59,761,175.51,770.19,176.16,779.3Z"/><path class="cls-3" d="M170.11,742.2c-.41-10.59,2-21.51,2.42-32.06C173,720.58,170.46,731.49,170.11,742.2Z"/><path class="cls-3" d="M175.07,790a120.06,120.06,0,0,1-9.53,21.45L164,809.1v0A120.64,120.64,0,0,0,175.07,785a25.28,25.28,0,0,0,1.09-5.61A28,28,0,0,1,175.07,790Z"/><path class="cls-3" d="M150.7,841.62l-5-11.32-1.8-5.81,0-.06-74.21-240c46.51,57.28,69.11,176.36,78.4,241.78v0c.26,1.8.5,3.57.73,5.28v0c.33,2.3.62,4.55.89,6.7C150,841.22,150.41,839,150.7,841.62Z"/></g><path class="cls-4" d="M176.16,779.3a25.21,25.21,0,0,1-1.09,5.64A122,122,0,0,1,164,809.1c-1.56,2.65-3.18,5.19-4.83,7.55-.89,1.24-1.77,2.45-2.63,3.6-.56.76-1.15,1.47-1.74,2.18s-1.18,1.38-1.74,2c-.26.36-.59.68-.88,1-.56.56-1.12,1.12-1.66,1.62-.59-.21-1.18-.38-1.77-.62a3.6,3.6,0,0,1-.73-.27c-.8-.26-1.6-.59-2.36-.91l-.39-.18c-.47-.17-.94-.38-1.41-.59a11.61,11.61,0,0,1-1.18-.56c-1-.44-2-.94-2.89-1.44s-1.86-1-2.78-1.57a57.35,57.35,0,0,1-9.91-7.4c-.73-.68-1.47-1.39-2.15-2.09a47.17,47.17,0,0,1-5.07-6.17,6.59,6.59,0,0,1-.56-.82,40.9,40.9,0,0,1-4-7.5c-.3-.7-.56-1.41-.8-2.12a24.24,24.24,0,0,1-.89-2.86c-3.24-12.42-.32-25.81-6.51-37.46a45.19,45.19,0,0,0-7.67-10c-.39-.41-.77-.8-1.18-1.18-3.9-3.87-8.23-7.55-12-11.42-4.92-5-8.94-10.44-10-17-.06-.32-.09-.67-.12-1v0c-1.38-12.71,8.62-24.6,9.92-36.93a23.12,23.12,0,0,0-.12-6c-2.66-16.81-24.46-26.75-28.53-43.18a45,45,0,0,1-1.18-10c-.14-4.51.12-9.11.18-13.66a71.24,71.24,0,0,0-.18-8.79,201.61,201.61,0,0,0-4.95-29.85c-.38-1.65-.83-3.33-1.27-5,21.71-1.5,43.71,5.69,58.87,17.93q3,2.45,5.58,5.05a51.94,51.94,0,0,1,10.74,15.6c8.52,19.67,3.39,42.62,16.72,60.53a66.44,66.44,0,0,0,7.88,8.55c1.15,1.09,2.3,2.15,3.48,3.25,2.36,2.15,4.72,4.3,6.9,6.51a51.23,51.23,0,0,1,7.2,8.82c.35.59.7,1.21,1,1.83.24.45.47.92.68,1.39s.5,1.06.71,1.62.38,1,.56,1.45c0,.06,0,.12.06.17.17.54.35,1.07.5,1.6s.32,1.15.47,1.74.23,1,.32,1.47.27,1.27.36,1.89a55.92,55.92,0,0,1,.47,10.21c-.35,10.56-2.83,21.47-2.42,32.09,0,1.53.15,3,.32,4.51C171.82,757.62,177.07,768.6,176.16,779.3Z"/><path class="cls-4" d="M69.6,579.32c47.84,58.88,70.35,183,79.15,247.1.75,5.55,1.43,10.65,2,15.21"/><path class="cls-4" d="M278.19,657.37c-4.25,14.12-26.94,22.74-29.71,37.25-2.45,12.86,12.6,24.87,10.09,37.93-2.62,14-24.19,21.77-32.09,34.19-6.49,10.06-3.45,21.59-6.82,32.33-3.8,12.21-16.57,23.09-33.47,28.79-1,.35-2.07.67-3.1,1h0c-.59.18-1.21.35-1.8.5-5.07-3.92-10.8-10.56-15.72-17.9L164,809.1c-1.56,2.65-3.18,5.19-4.83,7.55-.89,1.24-1.77,2.45-2.63,3.6-.56.76-1.15,1.47-1.74,2.18s-1.18,1.38-1.74,2c-.26.36-.59.68-.88,1-.56.59-1.12,1.15-1.66,1.65-.59-.21-1.18-.38-1.77-.62l-.73-.27a21.88,21.88,0,0,1-2.36-.94l-.39-.18a10.94,10.94,0,0,1-1.44-.65c-.38-.14-.77-.32-1.15-.5-1-.44-2-.94-2.89-1.44s-1.86-1-2.78-1.57a57.35,57.35,0,0,1-9.91-7.4c-.73-.68-1.47-1.39-2.15-2.09a47.17,47.17,0,0,1-5.07-6.17,6.59,6.59,0,0,1-.56-.82,40.9,40.9,0,0,1-4-7.5c-.3-.7-.56-1.41-.8-2.12a24.24,24.24,0,0,1-.89-2.86c-3.24-12.42-.32-25.81-6.51-37.46a45.19,45.19,0,0,0-7.67-10c-.39-.41-.77-.8-1.18-1.18-3.9-3.84-8.23-7.52-12-11.42-4.92-5-8.94-10.44-10-17-.06-.32-.09-.67-.12-1v0c-1.38-12.71,8.62-24.6,9.92-36.93a23.12,23.12,0,0,0-.12-6c-2.66-16.81-24.46-26.75-28.53-43.18a45,45,0,0,1-1.18-10c-.14-4.51.12-9.11.18-13.66a71.24,71.24,0,0,0-.18-8.79,201.61,201.61,0,0,0-4.95-29.85c-.38-1.65-.83-3.33-1.27-5,21.71-1.5,43.71,5.69,58.87,17.93a65.81,65.81,0,0,1,5.58,5.05,51.94,51.94,0,0,1,10.74,15.6c8.52,19.67,3.39,42.62,16.72,60.53a66.44,66.44,0,0,0,7.88,8.55c1.15,1.09,2.3,2.18,3.48,3.25,2.36,2.15,4.72,4.3,6.9,6.51a51.23,51.23,0,0,1,7.2,8.82c.35.59.7,1.21,1,1.83.24.45.47.92.68,1.39s.5,1.06.71,1.62.38,1,.56,1.45c0,.06,0,.12.06.17.17.54.35,1.07.5,1.6s.32,1.15.47,1.74.23,1,.32,1.47.27,1.27.36,1.89c6.13-4.93,13.24-9.53,18.2-15,13.83-15.49,8.52-35.28,17.4-52.27,10.8-20.74,44.8-35.22,78.22-33.3a152.39,152.39,0,0,0-6.46,30.08C278.42,638.43,280.81,648.55,278.19,657.37Z"/><path class="cls-4" d="M141.9,659.61s3.29-51.17,30.89-66.72,27,71.66,27,71.66"/><path class="cls-4" d="M172,699.93s-5.64-29.27,4.25-58"/></g><line class="cls-1" x1="756.27" y1="925.97" x2="756.24" y2="926"/><path class="cls-3" d="M475,423.72s22.51-14.51,13-29.94S475,423.72,475,423.72Z"/><path class="cls-3" d="M707.57,517c-12.6,6.46-26.17,6-39.17,1.06-11.8-4.51-22.33-11.92-31.8-20.15l-64-48.49a152.76,152.76,0,0,1-36.75-31.15c-15.07-17.67-39.38-21.53-45.13-22.21l-4.13-7.93c7.7-3.13,15.75-7.17,24-8.26,16.49-2.24,33.8,4.75,45.81,15.75,6.66,6.13,12.48,13.18,19.11,19.35,16.58,15.45,40.18,21,62,25.74,11,2.39,23.12,3.15,34.3,4.3a95.38,95.38,0,0,1,32,9c6.61,3.07,10.86,9.06,16,14.9a36.42,36.42,0,0,1,6.84,18.49C727.42,500.44,718.72,511.24,707.57,517Z"/><path class="cls-3" d="M475,423.72a14.1,14.1,0,0,1-10.06,1.59l-.09,0c-1-.29-2-.53-2.86-.71a6.88,6.88,0,0,1-1.12-.35c-10.06-3.66-15.93-2.24-14,8.5,2.24,12.65-14.28,14.3-25.16,12.35-19.2-8.64-24.46-42.35-9.23-63.12.38-.53.82-1.09,1.26-1.65s.92-1.09,1.39-1.62a40.28,40.28,0,0,1,3.63-3.48c.44-.39.88-.77,1.35-1.12s1.13-.86,1.69-1.27a15.81,15.81,0,0,1,1.71-1.18h0a45.37,45.37,0,0,1,35.3-6.28l.31.09a52.69,52.69,0,0,1,6.1,2.74,18,18,0,0,1,1.65.94,7.44,7.44,0,0,1,.68.38c.53.33,1.06.65,1.59,1,1.06.68,2.12,1.41,3.13,2.21a48.7,48.7,0,0,1,9.67,9.88,21.59,21.59,0,0,1,1.3,1.92,13.4,13.4,0,0,1,.88,1.38c.41.65.8,1.3,1.15,2s.86,1.62,1.24,2.45c.3.65.59,1.3.86,2,.2.5.41,1,.59,1.47a37.17,37.17,0,0,1,1.47,4.81,7.63,7.63,0,0,1,.27,1.21,11.16,11.16,0,0,1,.32,1.44c.09.47.18,1,.27,1.48Z"/><path class="cls-6" d="M483.11,383.74c7.69-3.14,15.74-7.17,24-8.28,16.47-2.22,33.81,4.76,45.79,15.76,6.69,6.14,12.49,13.18,19.13,19.37C588.62,426,610.12,434.47,632,439.24a303.06,303.06,0,0,0,33.26,5.08c11.6,1.21,22.09,1.56,32.83,6.57,14,6.48,27.49,20.38,28.52,36.48.83,13.06-7.87,23.85-19,29.58C695,523.41,681.41,523,668.39,518c-11.8-4.51-22.33-11.91-31.81-20.17"/><path class="cls-6" d="M406.14,380.12c.39-.53.83-1.09,1.27-1.65s.92-1.09,1.39-1.62a43.47,43.47,0,0,1,5-4.6c.56-.45,1.12-.86,1.68-1.27l.36-.27c.47-.32.91-.65,1.38-.91,12.95-8.55,28.29-9.35,41.59-4.45a16.67,16.67,0,0,1,1.71.64,46.38,46.38,0,0,1,4.69,2.19,16.88,16.88,0,0,1,1.66.94,7.44,7.44,0,0,1,.68.38c.56.33,1.09.65,1.59,1a36.77,36.77,0,0,1,3.12,2.21,48.49,48.49,0,0,1,9.68,9.88,21.59,21.59,0,0,1,1.3,1.92,13.4,13.4,0,0,1,.88,1.38c.42.65.8,1.3,1.15,2s.86,1.62,1.24,2.45c.3.65.59,1.3.86,2,.2.5.41,1,.59,1.47a37.17,37.17,0,0,1,1.47,4.81,7.63,7.63,0,0,1,.27,1.21,13.12,13.12,0,0,1,.32,1.44c.09.47.18,1,.27,1.48s.14,1.06.2,1.62"/><path class="cls-3" d="M548.11,927.35H625l1,20.43H525.25s-17.81-12.15,2.53-20.43Z"/><path class="cls-7" d="M454,548.13s53.59-36.66,118.6,30.16c0,0-8.77,52.83-36.78,75.07,0,0,164.53-24.19,181.83,36.63,0,0,5.72-106-84.11-195.17s-141.79-58.75-158.56-12S459.91,510.65,454,548.13Z"/><path class="cls-3" d="M809.11,925.68V836.75l29.86,1v110l-50.46,0s-6.82-10.25,3.78-13.57S809.11,936,809.11,925.68Z"/><circle class="cls-3" cx="355.81" cy="824.28" r="5.63"/><path class="cls-4" d="M555.49,440.67c95.81,44.7,162.19,141.9,162.19,254.59A279.51,279.51,0,0,1,667,856.18a285.21,285.21,0,0,1-17.59,22.59"/><path class="cls-4" d="M613.92,649.16s-185.83-10.15-185,84.66a74.31,74.31,0,0,0,20,49.43l105.6,115c6.17,6.7,9.62,12.09,11.47,16.31a9.14,9.14,0,0,1-8.43,12.77H527.79a10.28,10.28,0,0,0-10.24,10.24,10.21,10.21,0,0,0,10.24,10.2H626c-.91-73.15-29.11-124.41-52.77-154.65a214.13,214.13,0,0,0-24.42-26.48"/><path class="cls-4" d="M667,856.18s73.72-24.71,172-18.42v110H793.14a6.82,6.82,0,0,1-6.82-6.82h0a6.82,6.82,0,0,1,6-6.77l10.49-1.33a7.23,7.23,0,0,0,6.33-7.18h0a7.24,7.24,0,0,0-8.43-7.14L626,947.78"/><path class="cls-4" d="M573.21,793.16a0,0,0,0,1,0,0c5.63-11.41,10.62-20.73,13.81-26.48"/><path class="cls-4" d="M538.5,927.35c-3.89-12.07-2.83-28.09,1-45.42"/><path class="cls-8" d="M361.16,824.26a5.61,5.61,0,0,1-5.61,5.64,5.51,5.51,0,0,1-2.62-.62,15.89,15.89,0,0,1,.21,2.68v4.19a16.07,16.07,0,0,1-16.05,16.08h-9.41l-.09,40.17C327.21,919.45,313,920,313,920v14.57h1.62a6.54,6.54,0,0,1,4.72,2A6.69,6.69,0,0,1,314.41,948a50.18,50.18,0,0,1-9.94-1.33A7.24,7.24,0,0,1,300,948c-10.17-.38-28.58-4.25-39.05-25.9-6.84,4.78-8.61,7.58-17.61,7.58a42.64,42.64,0,0,1-26.49-9.2v14.1h1.66a6.71,6.71,0,1,1-.24,13.42,48.57,48.57,0,0,1-11.39-1.68l0-.06a6.62,6.62,0,0,0,2.22-5,4.79,4.79,0,0,0,0-.67l-2.19,5.63a6.62,6.62,0,0,1-4.51,1.74h-.21c-16-.44-59-10.23-46.34-86.78,9-54.21,58-49.73,81.24-28,6.13,5.78,7.73,12.65,6.4,18.91h12.45V831.34a44.49,44.49,0,0,1,44.48-44.48h7.7a24.73,24.73,0,0,1,24.71,24.75,20.56,20.56,0,0,1,17.67,10.23,5.64,5.64,0,0,1,10.71,2.42Z"/><path class="cls-8" d="M209.08,941.33a6.62,6.62,0,0,1-2.22,5l2.19-5.63A4.79,4.79,0,0,1,209.08,941.33Z"/><path class="cls-8" d="M209.08,941.33a6.62,6.62,0,0,1-2.22,5l2.19-5.63A4.79,4.79,0,0,1,209.08,941.33Z"/><path class="cls-4" d="M214.1,892.4c5,22.62-13.35,27.64-13.35,27.64v14.57h1.62a6.72,6.72,0,0,1,6.71,6.71h0a6.73,6.73,0,0,1-6.93,6.72c-16.06-.46-59-10.24-46.33-86.79,9-54.23,58-49.74,81.21-28,20.11,18.91-8.59,49.64-29.14,31.2a79.22,79.22,0,0,1-7.73-8.09"/><path class="cls-4" d="M216.82,920.5v14.11h1.62a6.69,6.69,0,0,1,6.73,6.73,6.7,6.7,0,0,1-6.94,6.69,48.64,48.64,0,0,1-11.39-1.69"/><path class="cls-4" d="M304.48,946.69a47.45,47.45,0,0,0,9.93,1.33,6.66,6.66,0,0,0,6.91-6.68,6.82,6.82,0,0,0-2-4.76,6.59,6.59,0,0,0-4.74-2H313V920.05s14.22-.6,14.6-27.66l.09-40.18"/><line class="cls-4" x1="255.89" y1="852.21" x2="243.42" y2="852.21"/><path class="cls-4" d="M312.26,892.4C317.3,915,298.91,914,298.91,914v20.59h1.62a6.88,6.88,0,0,1,4.77,2,6.8,6.8,0,0,1,1.75,6.45,6.93,6.93,0,0,1-7.08,5c-10.18-.38-28.59-4.23-39.08-25.89-6.84,4.79-8.59,7.6-17.6,7.6a42.55,42.55,0,0,1-33.17-15.89"/><path class="cls-4" d="M313.13,852.21h24a16.06,16.06,0,0,0,16-16.06V832a17.25,17.25,0,0,0-.2-2.7"/><path class="cls-4" d="M350.46,821.86a20.92,20.92,0,0,0-3.3-4.3,20.28,20.28,0,0,0-14.38-5.95,24.74,24.74,0,0,0-24.72-24.74h-7.7a44.48,44.48,0,0,0-44.47,44.48V859a22.87,22.87,0,1,0,45.73,0V823.56"/><path class="cls-4" d="M352.93,829.27a5.45,5.45,0,0,0,2.61.64,5.63,5.63,0,1,0-5.08-8"/><path class="cls-4" d="M315.59,815.85s2-5.5,10.22-4.32"/><path class="cls-8" d="M265.42,791s-1.38,12.3,6.63,10.15,8.11-8.26,9.41-3,8.75,9,13.75,2.81,2.06,2.51,4.89,4.17,10.22,2.34,13.19-3.36,5.24-6.08,7.08-1.17,18.77-6.93,18.76-8.25S349.89,786,349.89,786l-4.57-16.85s-6.51-3.93-8.11-4.3-4.67-.25-6.27-1.11-19.14-5.37-19.14-5.37S265.9,770.11,265.42,791Z"/><path class="cls-4" d="M283.11,790c-.2.53-.41,1.09-.62,1.62a1,1,0,0,1-.09.27,11.91,11.91,0,0,0-.94,6.28c.41,2.21,2.07,5.51,4.37,6.07,6.72,1.69,10-3,12.21-8.34,1.35-3.25,2.36-6.73,3.54-9.18a26.05,26.05,0,0,1,6.19-8.17"/><path class="cls-4" d="M283.44,789c-.09.33-.21.62-.33,1a15.35,15.35,0,0,1-.62,1.62,1,1,0,0,1-.09.27c-1.94,4.51-5.28,8.58-10.35,9.29-5.72.76-9.32-8.35-4.07-17.67a.09.09,0,0,1,0-.06"/><path class="cls-4" d="M298,795.88s-1.62,12,7.58,11c10.68-1.15,7.46-13.51,21.15-23.75"/><path class="cls-4" d="M317.42,795.17c1.53,3.63,4.72,5.84,8.7,5.37,5.66-.71,8.85-5.61,12.68-9.21.12-.08.21-.2.33-.29A20.22,20.22,0,0,1,355.76,786s33.95,9.08,81.47-19.32"/><path class="cls-4" d="M540.53,652.67a209.49,209.49,0,0,0,36.75-118.75"/><path class="cls-4" d="M283.44,789s3.45-7.69,8.34-11.32"/><path class="cls-4" d="M490.27,402.72l65.21,38c-86-26.25-105.53,110.73-110,171.37,0,0-4,86.45-89.29,126.21l-12.44,5.68a195.6,195.6,0,0,1-33.61,11.63C273.33,764.83,268,783.48,268,783.48"/><line class="cls-4" x1="482.48" y1="469.73" x2="474.6" y2="457.96"/><path class="cls-4" d="M421.66,445.07l15.08,14.57a2,2,0,0,0,3-.23l1.77-2.37c.27,0,35.54,19,39.52-14"/><path class="cls-6" d="M489.41,395.87s29.2,2.22,46.41,22.37a152.46,152.46,0,0,0,36.76,31.13"/><path class="cls-6" d="M417.19,369.8c-27.87,17.27-24.68,63.4-1.64,73.55,8.79,3.88,34,4.83,31.27-10.64-1.92-10.72,4-12.14,14-8.49,6.23,2.25,13.06,1.91,18-2.88a19,19,0,0,0,2.6-3.13"/><path class="cls-4" d="M950,947.76c-4.8,0-864.16,0-864.16,0"/><path class="cls-4" d="M717.63,696.41h0a70.24,70.24,0,0,1-70.24,70.24H522"/><path class="cls-4" d="M526.47,867.75S517,900.83,522,910.69s13.15,2.07,14-6.05"/></svg>