<svg id="Layer_2" data-name="Layer 2" xmlns="http://www.w3.org/2000/svg" xmlns:xlink="http://www.w3.org/1999/xlink" viewBox="0 0 1000 1000"><defs><style>.cls-1,.cls-3,.cls-6,.cls-7,.cls-9{fill:none;}.cls-2{fill:#d7e8f0;}.cls-3,.cls-9{stroke:#ccdde2;}.cls-3,.cls-6,.cls-7,.cls-9{stroke-miterlimit:10;}.cls-3,.cls-6{stroke-width:4.46px;}.cls-4{fill:#3fbdf1;}.cls-5{fill:#2e2e2e;}.cls-6,.cls-7{stroke:#000;}.cls-7{stroke-width:2.97px;}.cls-8{clip-path:url(#clip-path);}.cls-9{stroke-width:5.77px;}</style><clipPath id="clip-path"><path class="cls-1" d="M104.18-65S15.26-153.86,65.25-226.07,231.91-360.25,183.3-477.87s38.33-178.34,123.25-172.51S620.31-592,679.56-677s307.13,15.59,265.82,315.22S679.56-65,679.56-65Z"/></clipPath></defs><path class="cls-2" d="M950,863.68H821.56v13.7a64.22,64.22,0,1,0,128.44,0v-13.7"/><path class="cls-3" d="M395,249.83l-.21-127.31A64.25,64.25,0,0,1,459,58.28H885.76"/><polyline class="cls-3" points="821.55 876.41 821.55 863.67 821.55 239.29 821.55 122.52"/><path class="cls-2" d="M821.56,224.4H950V122.52a64.22,64.22,0,1,0-128.44,0V239.29"/><path class="cls-3" d="M821.56,224.4H950V122.52a64.22,64.22,0,1,0-128.44,0V239.29"/><path class="cls-3" d="M821.54,863.68v12.74a64.23,64.23,0,0,0,64.23,64.22h0"/><line class="cls-3" x1="488.92" y1="940.65" x2="459.04" y2="940.65"/><path class="cls-3" d="M821.56,863.67H950v12.74a64.26,64.26,0,0,1-64.24,64.24H575.69"/><line class="cls-3" x1="749.68" y1="340.7" x2="645.92" y2="340.7"/><line class="cls-3" x1="749.68" y1="380.93" x2="645.92" y2="380.93"/><line class="cls-3" x1="749.68" y1="421.17" x2="645.92" y2="421.17"/><line class="cls-3" x1="749.68" y1="461.4" x2="645.92" y2="461.4"/><line class="cls-3" x1="749.68" y1="501.64" x2="645.92" y2="501.64"/><line class="cls-3" x1="749.68" y1="541.87" x2="645.92" y2="541.87"/><line class="cls-3" x1="749.68" y1="676.28" x2="645.92" y2="676.28"/><line class="cls-3" x1="749.68" y1="695.04" x2="645.92" y2="695.04"/><line class="cls-3" x1="749.68" y1="713.8" x2="645.92" y2="713.8"/><line class="cls-3" x1="749.68" y1="732.56" x2="645.92" y2="732.56"/><rect class="cls-3" x="599.48" y="287.95" width="194.89" height="499.08" rx="20.3"/><line class="cls-3" x1="645.92" y1="247.84" x2="563.83" y2="247.84"/><line class="cls-3" x1="645.92" y1="200.58" x2="577.08" y2="200.58"/><line class="cls-3" x1="645.92" y1="224.21" x2="567.46" y2="224.21"/><line class="cls-3" x1="645.92" y1="176.94" x2="553.05" y2="176.94"/><circle class="cls-2" cx="720.72" cy="192.85" r="12.71"/><path class="cls-2" d="M688.52,244.65a32.21,32.21,0,0,1,64.41,0Z"/><rect class="cls-3" x="677.46" y="169.13" width="86.53" height="86.53" rx="9.18"/><path class="cls-2" d="M723.86,822l9.42,19.07a3.52,3.52,0,0,0,2.63,1.92L757,846.05a3.5,3.5,0,0,1,1.94,6l-15.23,14.85a3.49,3.49,0,0,0-1,3.1l3.59,21a3.5,3.5,0,0,1-5.08,3.69l-18.83-9.89a3.48,3.48,0,0,0-3.26,0l-18.82,9.89a3.51,3.51,0,0,1-5.09-3.69l3.6-21a3.5,3.5,0,0,0-1-3.1L682.54,852a3.5,3.5,0,0,1,1.94-6l21-3.06a3.53,3.53,0,0,0,2.64-1.92L717.58,822A3.5,3.5,0,0,1,723.86,822Z"/><line class="cls-3" x1="457.73" y1="869.93" x2="636.71" y2="869.93"/><line class="cls-3" x1="457.73" y1="895.03" x2="636.71" y2="895.03"/><path class="cls-3" d="M396,255.6c-5.4,27.7-17.36,150.2-28.09,267.3a10.19,10.19,0,0,1-1.11.74c-.78.49-1.56,1-2.37,1.43,0,0-.06,0-.1.07a.09.09,0,0,0-.06,0l-1.46.81-.59.3c-.62.32-1.2.61-1.82.87l-.19.1c-.49.23-1,.46-1.53.65l-.78.36c-.62.23-1.27.49-1.89.71l-1.66.59a6.34,6.34,0,0,0-.81.26c-.52.16-1,.32-1.56.45-.19.07-.39.1-.58.17-.69.19-1.4.36-2.12.52s-1.3.29-2,.42a1.11,1.11,0,0,1-.29.07.46.46,0,0,1-.2,0c-.71.13-1.43.26-2.11.36-.13,0-.26,0-.42.06-.85.13-1.69.23-2.54.29s-1.76.17-2.67.2-1.82.06-2.73.06A56.54,56.54,0,0,1,323.6,531a57.51,57.51,0,0,1-42.69-41.38c-.22-1-.45-2-.65-3a55.89,55.89,0,0,1-1.17-11.48,57.36,57.36,0,0,1-.87,10.05c-.26,1.49-.59,2.93-1,4.39a57.26,57.26,0,0,1-110.82,0,53.71,53.71,0,0,1-1.33-6.89,57.22,57.22,0,0,1-.49-7.55,62,62,0,0,1-.52,7.74,58.81,58.81,0,0,1-1.33,6.7,57.36,57.36,0,0,1-53,42.75c-.81,0-1.62.06-2.43.06A57.23,57.23,0,0,1,50.13,475.2v-.09H50V420.23a47.73,47.73,0,0,1,47.76-47.76H326.27a11,11,0,0,0,0-22h-94A19.54,19.54,0,0,1,212.74,331V275.08a19.52,19.52,0,0,1,19.48-19.48Z"/><path class="cls-3" d="M681.8,940.43l-575.39,1.19a19.52,19.52,0,0,1-19.47-19.46V528.68a57,57,0,0,0,20.42,3.76c.81,0,1.61,0,2.42-.06A57,57,0,0,0,149,514.51"/><path class="cls-3" d="M287.63,505.26a57.36,57.36,0,0,0,36,25.76"/><line class="cls-3" x1="358.14" y1="861.77" x2="245.75" y2="861.77"/><path class="cls-3" d="M124.53,861.17a19.51,19.51,0,0,1-14.74-18.89V532.4A57.18,57.18,0,0,0,149,514.5"/><path class="cls-3" d="M287.63,505.26a57.36,57.36,0,0,0,36,25.76"/><path class="cls-3" d="M178,733.65a38.93,38.93,0,0,1-13-29v-95a39.13,39.13,0,0,1,39-39h89.82a39.13,39.13,0,0,1,39,39v95a39.13,39.13,0,0,1-39,39H239.63"/><path class="cls-3" d="M575.17,622.15c2.84-6.83,5.58-12.23,7.2-15.27a3.21,3.21,0,0,0-1.26-4.32l-17.18-7.24a4.39,4.39,0,0,0-6.55,3.82h0c0,15-4.3,29.13-19.3,29.13h0c-15,0-19.31-14.13-19.31-29.13v-.65a4.39,4.39,0,0,0-6.24-4L495,601a3.22,3.22,0,0,0-1.26,4.82l.24.33a91.75,91.75,0,0,1,8.83,91.59l-6.19,13.6a6.31,6.31,0,0,0,5.75,8.92h76.25a6.31,6.31,0,0,0,5.65-9.11l-6.47-13.06A91.74,91.74,0,0,1,575.17,622.15Z"/><line class="cls-3" x1="510.93" y1="665.47" x2="568.6" y2="665.47"/><path class="cls-3" d="M523.93,665.48c.27,9.82.1,35.1-8,54.74"/><path class="cls-3" d="M563.53,720.22c-8.09-19.64-8.25-44.92-8-54.74"/><line class="cls-3" x1="539.77" y1="720.22" x2="539.77" y2="665.48"/><path class="cls-3" d="M303.38,640.21,284.73,651l-5.15-6.36,4.21,66.75a8.36,8.36,0,0,1-8.35,8.82H219.56a8.36,8.36,0,0,1-8.34-8.9l5-68.66L211.12,649l-16.67-10.79c0-.13,0-.25,0-.37.71-14.52,15.22-33.66,29.76-33.66h10.33a16.14,16.14,0,0,1,.79,1.79c4.59,12.44,24,12,27.9-.47.14-.46.29-.91.45-1.32h6.53c16.29,0,30.48,19.49,33.08,35.56C303.34,639.92,303.36,640.07,303.38,640.21Z"/><path class="cls-2" d="M260.58,319.83c-8.34,0-12.93-6.26-12.93-13.72,0-7.82,5.11-14.05,13.37-14.05,8.66,0,13.05,6.43,13.05,13.61,0,8.66-5.19,14.16-13.45,14.16Zm.36-5.7c3.47,0,5.5-3.36,5.5-8.22,0-4.63-2.07-8.14-5.58-8.14s-5.59,3.51-5.59,8.18,2.12,8.18,5.59,8.18Z"/><path class="cls-2" d="M277.89,316.38v-18.6a5.28,5.28,0,0,1,5.29-5.28h0a5.27,5.27,0,0,1,4.69,2.86l2.79,5.4a76.44,76.44,0,0,1,4.23,9.42H295a101.24,101.24,0,0,1-.55-11.3v-3.37a3,3,0,0,1,3-3H298a3,3,0,0,1,3,3v20.87a3,3,0,0,1-3,3H295.3a3,3,0,0,1-2.68-1.64l-3.75-7.3c-1.48-2.84-3.23-6.47-4.51-9.7h-.16c.2,3.63.28,7.66.28,12v3.61a3,3,0,0,1-3,3h-.56A3,3,0,0,1,277.89,316.38Z"/><path class="cls-2" d="M309,292.5h1.19a3,3,0,0,1,3,3v14.85a3,3,0,0,0,3,3h4.31a3,3,0,0,1,3,3h0a3,3,0,0,1-3,3H309a3,3,0,0,1-3-3V295.51A3,3,0,0,1,309,292.5Z"/><path class="cls-2" d="M334.32,296.11v19.67a3.62,3.62,0,0,1-3.62,3.62h0a3.62,3.62,0,0,1-3.61-3.62V296.11a3.61,3.61,0,0,1,3.61-3.61h0A3.62,3.62,0,0,1,334.32,296.11Z"/><path class="cls-2" d="M339.26,316.1V297.21A4.71,4.71,0,0,1,344,292.5h.93a4.7,4.7,0,0,1,4.18,2.55l2.95,5.71a78,78,0,0,1,4.23,9.42h.12a101.16,101.16,0,0,1-.56-11.3v-3.09a3.29,3.29,0,0,1,3.3-3.29h0a3.29,3.29,0,0,1,3.29,3.29v18.9a4.71,4.71,0,0,1-4.71,4.71h0a4.71,4.71,0,0,1-4.19-2.56l-3.27-6.38c-1.48-2.84-3.24-6.47-4.51-9.7h-.16c.2,3.63.28,7.66.28,12v3.33a3.3,3.3,0,0,1-3.3,3.3h0A3.3,3.3,0,0,1,339.26,316.1Z"/><path class="cls-2" d="M381.36,308.54h-4.27a2.47,2.47,0,0,0-2.47,2.48h0a2.47,2.47,0,0,0,2.47,2.47h5.43a2.91,2.91,0,0,1,2.91,2.91v.08a2.91,2.91,0,0,1-2.91,2.92H369.87a2.48,2.48,0,0,1-2.48-2.48V294.58a2.48,2.48,0,0,1,2.48-2.48H382a2.91,2.91,0,0,1,2.91,2.91v.09A2.91,2.91,0,0,1,382,298h-5a2.35,2.35,0,0,0-2.35,2.35h0a2.35,2.35,0,0,0,2.35,2.35h4.39a2.91,2.91,0,0,1,2.91,2.92h0A2.91,2.91,0,0,1,381.36,308.54Z"/><path class="cls-2" d="M397,315.52a3,3,0,0,1,3.75-2.18,15.5,15.5,0,0,0,4,.55c2.48,0,3.67-.84,3.67-2.2s-1.19-2-4.23-3.07c-4.54-1.63-7.58-4.11-7.58-8.1,0-4.75,4-8.42,10.82-8.42a20.62,20.62,0,0,1,4.38.44,2.93,2.93,0,0,1,2.16,3.64h0a2.92,2.92,0,0,1-3.49,2.14,13.78,13.78,0,0,0-3.13-.35c-2.2,0-3.39.79-3.39,2,0,1.36,1.43,1.88,4.82,3.15,4.83,1.8,7,4.36,7,8.11,0,4.62-3.6,8.57-11.46,8.57a21.55,21.55,0,0,1-5.24-.67A3,3,0,0,1,397,315.6Z"/><path class="cls-2" d="M421.9,298.57h-.8a3,3,0,0,1-3-3h0a3,3,0,0,1,3-3h15a3,3,0,0,1,3,3h0a3,3,0,0,1-3,3h-.92a3,3,0,0,0-3,3v14.76a3,3,0,0,1-3,3H428a3,3,0,0,1-3-3V301.6A3,3,0,0,0,421.9,298.57Z"/><path class="cls-2" d="M453.06,319.83c-8.34,0-12.93-6.26-12.93-13.72,0-7.82,5.11-14.05,13.37-14.05,8.66,0,13.05,6.43,13.05,13.61,0,8.66-5.19,14.16-13.45,14.16Zm.36-5.7c3.47,0,5.51-3.36,5.51-8.22,0-4.63-2.08-8.14-5.59-8.14s-5.59,3.51-5.59,8.18,2.12,8.18,5.59,8.18Z"/><path class="cls-2" d="M470.38,295.2a2.59,2.59,0,0,1,2.32-2.59c1.79-.18,4-.31,6.38-.31,4.11,0,7.06.56,9.1,2.11a6.93,6.93,0,0,1,2.63,5.83,7.23,7.23,0,0,1-4.59,6.51v.12c1.76.79,2.76,2.51,3.43,4.82.29,1,.59,2.13.87,3.23a3.57,3.57,0,0,1-3.45,4.48H487a3.55,3.55,0,0,1-3.42-2.54c-.3-1-.63-2.21-1-3.69-.72-3.19-1.72-3.87-3.95-3.87h-1.16v6.52A3.57,3.57,0,0,1,474,319.4h0a3.57,3.57,0,0,1-3.57-3.58Zm7.14,8.91h1.88c2.71,0,4.27-1.31,4.27-3.31s-1.32-3.15-3.71-3.15a12.48,12.48,0,0,0-2.44.16Z"/><path class="cls-2" d="M509,308.54H504.7a2.48,2.48,0,0,0-2.48,2.48h0a2.48,2.48,0,0,0,2.48,2.47h5.42A2.91,2.91,0,0,1,513,316.4v.08a2.92,2.92,0,0,1-2.92,2.92H497.47a2.47,2.47,0,0,1-2.47-2.48V295.33a3.07,3.07,0,0,1,3.07-3.08h11.49a2.92,2.92,0,0,1,2.92,2.92v.08a2.91,2.91,0,0,1-2.92,2.91H504.5a2.28,2.28,0,0,0-2.28,2.28h0a2.27,2.27,0,0,0,2.28,2.27H509a2.92,2.92,0,0,1,2.91,2.92h0A2.91,2.91,0,0,1,509,308.54Z"/><path class="cls-3" d="M184.61,781.63c3.13-2.54,6.77-4.88,9.29-7.69,7.06-7.9,4.34-18,8.87-26.64,5.51-10.57,22.85-17.95,39.88-17a77.87,77.87,0,0,0-3.3,15.33c-.5,4.63.71,9.79-.62,14.27-2.17,7.22-13.74,11.59-15.15,19-1.24,6.55,6.42,12.67,5.15,19.33-1.34,7.15-12.33,11.1-16.37,17.42-3.3,5.14-1.75,11-3.46,16.49-2.07,6.6-9.25,12.44-18.66,15.18l-.93.27a43.09,43.09,0,0,1-8.79-10.34"/><path class="cls-3" d="M232.25,738.62c-25.4,25.91-37.35,80.54-42,108.72h0c-.38,2.38-.72,4.56-1,6.52"/><path class="cls-3" d="M234.59,869.74,222.9,935.08a7.92,7.92,0,0,1-7.81,6.54H154a7.94,7.94,0,0,1-7.83-6.64l-10.77-65.24Z"/><path class="cls-3" d="M245.7,862.45h0a7.94,7.94,0,0,1-7.91,7.29H132.42a7.94,7.94,0,0,1-7.9-7.18h0a7.94,7.94,0,0,1,7.9-8.69H237.79A7.94,7.94,0,0,1,245.7,862.45Z"/><path class="cls-3" d="M155.31,766.42c9.33,28.27,14.7,59.69,17.44,79.69v0a8.32,8.32,0,0,0,.88.3,43.41,43.41,0,0,0,6.9-9.18,61.79,61.79,0,0,0,5.63-12.3c2-6.4-1.52-13-2.36-19.5-1-7.89,2-16.19.84-23.85,0-.23-.08-.49-.15-.76,0-.11,0-.27-.08-.42a16.63,16.63,0,0,0-2.17-5.52c-3.16-5.18-9.3-8.88-13-13.83-6.78-9.14-4.19-20.83-8.53-30.85a25.85,25.85,0,0,0-5.41-7.89c-7.62-7.84-20.34-12.68-32.91-11.81a105.87,105.87,0,0,1,3.2,17.75c.45,5.38-.69,11.36.57,16.54,2.09,8.38,13.22,13.44,14.55,22,1.22,7.58-6.13,14.71-4.95,22.4,1.33,8.3,11.84,12.88,15.73,20.19,3.16,5.94,1.68,12.8,3.35,19.12a12.13,12.13,0,0,0,.46,1.49s3.09,11.84,17.44,16.11"/><path class="cls-3" d="M173.74,853.84c-.26-2.32-.6-4.87-1-7.69v0c-2.74-20-8.11-51.42-17.44-79.69-5.91-17.94-13.41-34.62-22.89-46.28"/><path class="cls-3" d="M169.26,761.08s1.67-26.08,15.74-34,13.77,36.53,13.77,36.53"/><path class="cls-3" d="M184.61,781.63s-2.88-14.92,2.16-29.59"/><rect class="cls-3" x="86.94" y="399.19" width="271.2" height="36.99" rx="15.5"/><path class="cls-4" d="M497.11,204.63s-39.2.42-64.25,38.07S398.32,325.82,399.92,381l-2.79,115.62s41.57,5.45,55.59-13.53c0,0,3.12-15.72,26.51-29.15Z"/><path class="cls-5" d="M469.61,737.83l13.73,12v6.89l-4,1.37s-19,1.95-17.49-1.5S469.61,737.83,469.61,737.83Z"/><path d="M417.74,856.54l-37,83.89h-94a13.2,13.2,0,1,1,0-26.39h0a59.62,59.62,0,0,0,58.55-48.27l1.8-9.23C347.2,856,417.74,856.54,417.74,856.54Z"/><path d="M672.4,853l-47.69,80.95A13.2,13.2,0,1,1,602,920.54a59.67,59.67,0,0,0-11.81-74.95c-3.31-2.93-6-5.31-7.52-6.64l49.29-42.39Z"/><path class="cls-5" d="M682.15,786.87h-199V513.4h-.05c-2.44-41.48-19.28-47-19.28-47l9-7.11c-25.55-118.34-3-205,21-254.66a247.14,247.14,0,0,1,25.34-41.91c.11-.15.23-.27.32-.41a7.42,7.42,0,0,1,13.32,4.47l.12,32.6c40.81-1.69,64.76,44.76,74.6,78.26,10.45,35.64,10.19,74.63,2.55,110.48a177,177,0,0,1-13.82,40.55Z"/><path class="cls-5" d="M452.72,166.34l-44.33,53.88,16.55-.09-27.2,29.7c-7.63,2.41-50.62,508.24-50.62,508.24h19.13l50.68-260.81a64,64,0,0,1-19.8-.67L400,353.4c2-45.95,20.46-118.87,66.53-141.72v0l.17-.09c1.11-22.47,6.94-37.19,6.94-37.19C461.75,177.05,452.72,166.34,452.72,166.34Z"/><path class="cls-6" d="M416.93,497.26,347.12,856.54l-1.8,9.23A59.62,59.62,0,0,1,286.77,914h0a13.2,13.2,0,1,0,0,26.39h94l37-83.89,65.34-148.07"/><polyline class="cls-6" points="483.1 513.41 483.1 786.86 682.16 786.86 596.24 428.73"/><path class="cls-6" d="M532.89,199.38l-38.6,34,38.6-.81L534,369.68a80,80,0,0,1-28.07,61.45l-31.64,27C437.8,293.55,492.72,197.4,519.46,162.3a7.41,7.41,0,0,1,13.31,4.48l.12,32.6c40.82-1.69,64.77,44.76,74.61,78.26,10.45,35.64,10.18,74.63,2.55,110.48-4.67,21.85-13.21,43.25-26.13,61.59-12.07,17.07-28.06,30.74-43.3,44.94-5.4,5-11,9.78-16.78,14.37l-40.76,31.61"/><path class="cls-4" d="M523.72,140.22a16.58,16.58,0,0,1-13.64,7,50.37,50.37,0,0,1-6.91-.38c-2.67-.35-4.12-1.08-2.29-2.41A13.19,13.19,0,0,0,502.5,143a25.47,25.47,0,0,0,6.53-12c1.14-5.05,0-10-3.94-12.71a10.68,10.68,0,0,0-3.08-1.45,23.69,23.69,0,0,0-5.46-1c-.93-.06-1.89-.09-2.84-.09-1-6.09-3.28-14.66-7.93-18.23a7.89,7.89,0,0,0-8.07-.93c-7,2.67-17.39,4.73-22.93,3.66a2.33,2.33,0,0,1-.64-1.28,50.06,50.06,0,0,1,2.67-5.63,47.9,47.9,0,0,1,3.6-5.37c9.93-12.65,27.29-18.6,43-15.64a37,37,0,0,1,7.32,2.14c7.22,3.86,12.28,10,15.56,17.42C535.3,116.74,529.29,132.24,523.72,140.22Z"/><path class="cls-6" d="M523.78,786.87,582.62,839c1.54,1.33,4.21,3.71,7.52,6.64A59.67,59.67,0,0,1,602,920.54a13.2,13.2,0,1,0,22.76,13.38L672.4,853l-40.49-56.41-7-9.69"/><path class="cls-6" d="M483.08,750.88l-13.47-11.94"/><path class="cls-6" d="M452.73,166.33l-44.35,53.9,16.55-.1-27.18,29.69c-.45.13-1,2.14-1.75,5.78-5.4,27.7-17.36,150.2-28.09,267.3C356.86,643.34,347.1,758.07,347.1,758.07h19.15"/><line class="cls-6" x1="483.08" y1="758.07" x2="461.2" y2="758.07"/><path class="cls-6" d="M483.08,513.4h0c-16.48-.38-24.29-7.26-27.78-15.15-4.9-11.18-1.07-24.3,8.51-31.85l10.51-8.27"/><path class="cls-6" d="M452.72,485.33s-27.78,16.84-55.59,11.26L400,353.4c2.41-54.14,27.54-145.72,93.84-148.77"/><path class="cls-6" d="M486.42,169.42s-38.81,24.33-41-31.55c-.66-17.1.09-37.36,11.18-51.44,9.93-12.66,27.29-18.61,43-15.65,13,2.47,21.28,10.45,25.95,21"/><path class="cls-7" d="M483.08,513.81a1.76,1.76,0,0,0,0-.41c-2.43-41.48-19.27-47-19.27-47"/><line class="cls-6" x1="472.27" y1="174.7" x2="466.47" y2="211.68"/><path class="cls-6" d="M453,91.8c-10.45,12.08,11.93,9.32,24,4.7,10.42-4,14.51,10.37,16,19.28"/><line class="cls-6" x1="519.14" y1="144.07" x2="519.14" y2="162.72"/><ellipse class="cls-7" cx="458.53" cy="127.53" rx="6.12" ry="13.97"/><ellipse class="cls-7" cx="441.06" cy="127.53" rx="6.12" ry="13.97"/><ellipse cx="458.53" cy="127.53" rx="6.12" ry="13.97"/><ellipse cx="441.06" cy="127.53" rx="6.12" ry="13.97"/><path class="cls-6" d="M464.05,121.51a135.66,135.66,0,0,1,18.61-4.73c6-1,12.72-1.87,18.62-.06,6.42,2,8.42,8,7,14.17A25.67,25.67,0,0,1,501.79,143a13.29,13.29,0,0,1-1.64,1.45c-3.16,2.32,3.43,2.79,9.2,2.79a16.61,16.61,0,0,0,13.65-7c5.57-8,11.58-23.48,2.55-48.42"/><path class="cls-6" d="M498.89,116.14A10.61,10.61,0,0,0,493,126.5"/><line class="cls-6" x1="890.91" y1="941.72" x2="122.4" y2="941.72"/><g class="cls-8"><path class="cls-9" d="M910.68-367.62c-9.5,15.08-21.54,28.25-37,37.46a86.75,86.75,0,0,1-29.5,10.91c-23.54,4.13-48.33-1.08-70.12-12a139,139,0,0,1-20.41-12.5,158,158,0,0,1-14.13-11.83c-2-1.91-3.95-3.87-5.83-5.91a114.46,114.46,0,0,1-14.25-18.88,92.88,92.88,0,0,1-11.87-30.16M945.38-65V-495.15h-787V-66.93L416-65.68l17.79.08,114,.58M158.4,78.6h1.79l-1.79-2.17Z"/></g></svg>