<svg id="Layer_2" data-name="Layer 2" xmlns="http://www.w3.org/2000/svg" viewBox="0 0 1000 1000"><defs><style>.cls-1,.cls-3,.cls-6,.cls-8{fill:none;}.cls-1{stroke:#ccdde2;}.cls-1,.cls-6{stroke-miterlimit:10;}.cls-1,.cls-6,.cls-8{stroke-width:3.7px;}.cls-2{fill:#fff;}.cls-4{fill:#2e2e2e;}.cls-5{fill:#3fbdf1;}.cls-6,.cls-8{stroke:#000;}.cls-7{fill:#d7e8f0;}.cls-8{stroke-linejoin:round;}</style></defs><path class="cls-1" d="M264.73,545.83s-15.34-146,89.08-165.66S477.64,377,550.37,327.08s302.52,97.43,256,304.69a627.12,627.12,0,0,1-20.85,72.55"/><rect class="cls-1" x="677.09" y="449.18" width="37.98" height="495.99"/><path class="cls-1" d="M411.49,707.37a2.42,2.42,0,0,1-2.41-2.44V685.41a2.41,2.41,0,0,1,2.41-2.41h39.36a2.42,2.42,0,0,1,2.44,2.41v19.52a2.43,2.43,0,0,1-2.44,2.44Zm69.19,31.68a2.44,2.44,0,0,1-2.44,2.42H438.88a2.44,2.44,0,0,1-2.44-2.42V719.51a2.44,2.44,0,0,1,2.44-2.41h39.36a2.44,2.44,0,0,1,2.44,2.41ZM461,704.93V685.41a2.42,2.42,0,0,1,2.44-2.41h39.36a2.44,2.44,0,0,1,2.44,2.41v19.52a2.45,2.45,0,0,1-2.44,2.44H463.43A2.43,2.43,0,0,1,461,704.93Zm71.42,34.12a2.41,2.41,0,0,1-2.41,2.42H490.61a2.41,2.41,0,0,1-2.41-2.42V719.51a2.41,2.41,0,0,1,2.41-2.41H530a2.41,2.41,0,0,1,2.41,2.41Zm24.72-34.12a2.43,2.43,0,0,1-2.44,2.44H515.34a2.43,2.43,0,0,1-2.42-2.44V685.41a2.41,2.41,0,0,1,2.42-2.41h39.35a2.42,2.42,0,0,1,2.44,2.41Zm51.91,0a2.42,2.42,0,0,1-2.41,2.44H567.27a2.43,2.43,0,0,1-2.44-2.44V685.41a2.42,2.42,0,0,1,2.44-2.41h39.36a2.41,2.41,0,0,1,2.41,2.41Zm36.44-73.29a23,23,0,0,1-23,23.06H430.33a23.07,23.07,0,0,1-23.06-23.06V550.33a23.06,23.06,0,0,1,23.06-23.06H622.45a23,23,0,0,1,23,23.06Zm-3.37-131.3a11.33,11.33,0,0,1-8.1,3.37H420.55a11.48,11.48,0,0,1-11.47-11.47,11.51,11.51,0,0,1,11.47-11.47H634a11.46,11.46,0,0,1,11.47,11.47A11.33,11.33,0,0,1,642.11,500.34ZM375.28,887.76V861.91m0-31V449.18H677.09v496H626.24V792.85a23.05,23.05,0,0,0-23.06-23H451.38a23.06,23.06,0,0,0-23.06,23V945.18H378.83"/><path class="cls-1" d="M450.85,707.37H411.49a2.42,2.42,0,0,1-2.41-2.44V685.41a2.41,2.41,0,0,1,2.41-2.41h39.36a2.42,2.42,0,0,1,2.44,2.41v19.52A2.43,2.43,0,0,1,450.85,707.37Z"/><path class="cls-1" d="M438.88,717.1h39.36a2.44,2.44,0,0,1,2.44,2.41v19.54a2.44,2.44,0,0,1-2.44,2.42H438.88a2.44,2.44,0,0,1-2.44-2.42V719.51A2.44,2.44,0,0,1,438.88,717.1Z"/><path class="cls-1" d="M505.23,685.41v19.52a2.45,2.45,0,0,1-2.44,2.44H463.43a2.43,2.43,0,0,1-2.44-2.44V685.41a2.42,2.42,0,0,1,2.44-2.41h39.36A2.44,2.44,0,0,1,505.23,685.41Z"/><rect class="cls-1" x="488.2" y="717.1" width="44.21" height="24.37" rx="2.41"/><path class="cls-1" d="M515.34,707.37a2.43,2.43,0,0,1-2.42-2.44V685.41a2.41,2.41,0,0,1,2.42-2.41h39.35a2.42,2.42,0,0,1,2.44,2.41v19.52a2.43,2.43,0,0,1-2.44,2.44Z"/><path class="cls-1" d="M567.27,707.37a2.43,2.43,0,0,1-2.44-2.44V685.41a2.42,2.42,0,0,1,2.44-2.41h39.36a2.41,2.41,0,0,1,2.41,2.41v19.52a2.42,2.42,0,0,1-2.41,2.44Z"/><path class="cls-1" d="M626.24,792.85V945.18H428.32V792.85a23.06,23.06,0,0,1,23.06-23h151.8A23.05,23.05,0,0,1,626.24,792.85Z"/><path class="cls-1" d="M409.08,492.24a11.51,11.51,0,0,1,11.47-11.47H634a11.46,11.46,0,0,1,11.47,11.47A11.51,11.51,0,0,1,634,503.71H420.55A11.48,11.48,0,0,1,409.08,492.24Z"/><path class="cls-1" d="M514.88,561.7v58.67a16.23,16.23,0,0,1-16.22,16.25H441.77a16.24,16.24,0,0,1-16.22-16.25V561.7a16.23,16.23,0,0,1,16.22-16.24h56.89A16.22,16.22,0,0,1,514.88,561.7Z"/><path class="cls-1" d="M626.59,561.63v58.82a16.23,16.23,0,0,1-16.22,16.25h-57a16.24,16.24,0,0,1-16.23-16.25V561.63a16.24,16.24,0,0,1,16.23-16.25h57A16.23,16.23,0,0,1,626.59,561.63Z"/><path class="cls-1" d="M622.45,527.27H430.33a23.06,23.06,0,0,0-23.06,23.06v81.31a23.07,23.07,0,0,0,23.06,23.06H622.45a23,23,0,0,0,23-23.06V550.33A23,23,0,0,0,622.45,527.27Zm-107.57,93.1a16.23,16.23,0,0,1-16.22,16.25H441.77a16.24,16.24,0,0,1-16.22-16.25V561.7a16.23,16.23,0,0,1,16.22-16.24h56.89a16.22,16.22,0,0,1,16.22,16.24Zm111.71.08a16.23,16.23,0,0,1-16.22,16.25h-57a16.24,16.24,0,0,1-16.23-16.25V561.63a16.24,16.24,0,0,1,16.23-16.25h57a16.23,16.23,0,0,1,16.22,16.25Z"/><path class="cls-1" d="M514.88,561.7v58.67a16.23,16.23,0,0,1-16.22,16.25H441.77a16.24,16.24,0,0,1-16.22-16.25V561.7a16.23,16.23,0,0,1,16.22-16.24h56.89A16.22,16.22,0,0,1,514.88,561.7Z"/><path class="cls-1" d="M626.59,561.63v58.82a16.23,16.23,0,0,1-16.22,16.25h-57a16.24,16.24,0,0,1-16.23-16.25V561.63a16.24,16.24,0,0,1,16.23-16.25h57A16.23,16.23,0,0,1,626.59,561.63Z"/><path class="cls-1" d="M626.59,561.63v58.82a16.23,16.23,0,0,1-16.22,16.25h-57a16.24,16.24,0,0,1-16.23-16.25V561.63a16.24,16.24,0,0,1,16.23-16.25h57A16.23,16.23,0,0,1,626.59,561.63Z"/><path class="cls-1" d="M514.88,561.7v58.67a16.23,16.23,0,0,1-16.22,16.25H441.77a16.24,16.24,0,0,1-16.22-16.25V561.7a16.23,16.23,0,0,1,16.22-16.24h56.89A16.22,16.22,0,0,1,514.88,561.7Z"/><path class="cls-1" d="M626.24,792.85V945.18H428.32V792.85a23.06,23.06,0,0,1,23.06-23h151.8A23.05,23.05,0,0,1,626.24,792.85Z"/><path class="cls-1" d="M453.29,685.41v19.52a2.43,2.43,0,0,1-2.44,2.44H411.49a2.42,2.42,0,0,1-2.41-2.44V685.41a2.41,2.41,0,0,1,2.41-2.41h39.36A2.42,2.42,0,0,1,453.29,685.41Z"/><path class="cls-1" d="M505.23,685.41v19.52a2.45,2.45,0,0,1-2.44,2.44H463.43a2.43,2.43,0,0,1-2.44-2.44V685.41a2.42,2.42,0,0,1,2.44-2.41h39.36A2.44,2.44,0,0,1,505.23,685.41Z"/><path class="cls-1" d="M557.13,685.41v19.52a2.43,2.43,0,0,1-2.44,2.44H515.34a2.43,2.43,0,0,1-2.42-2.44V685.41a2.41,2.41,0,0,1,2.42-2.41h39.35A2.42,2.42,0,0,1,557.13,685.41Z"/><path class="cls-1" d="M609,685.41v19.52a2.42,2.42,0,0,1-2.41,2.44H567.27a2.43,2.43,0,0,1-2.44-2.44V685.41a2.42,2.42,0,0,1,2.44-2.41h39.36A2.41,2.41,0,0,1,609,685.41Z"/><path class="cls-1" d="M480.68,719.51v19.54a2.44,2.44,0,0,1-2.44,2.42H438.88a2.44,2.44,0,0,1-2.44-2.42V719.51a2.44,2.44,0,0,1,2.44-2.41h39.36A2.44,2.44,0,0,1,480.68,719.51Z"/><rect class="cls-1" x="488.2" y="717.1" width="44.21" height="24.37" rx="2.41"/><path class="cls-1" d="M645.48,492.24A11.51,11.51,0,0,1,634,503.71H420.55a11.48,11.48,0,0,1-11.47-11.47,11.51,11.51,0,0,1,11.47-11.47H634A11.46,11.46,0,0,1,645.48,492.24Z"/><rect class="cls-1" x="444.92" y="787.47" width="164.13" height="13.23" rx="6.49"/><rect class="cls-1" x="444.92" y="814.77" width="164.13" height="13.23" rx="6.49"/><rect class="cls-1" x="444.92" y="842.07" width="164.13" height="13.23" rx="6.49"/><rect class="cls-1" x="444.92" y="869.38" width="164.13" height="13.23" rx="6.49"/><rect class="cls-1" x="444.92" y="896.68" width="164.13" height="13.23" rx="6.49"/><path class="cls-1" d="M347.37,404H733.45a22.82,22.82,0,0,1,22.82,22.82v22a0,0,0,0,1,0,0H324.55a0,0,0,0,1,0,0v-22A22.82,22.82,0,0,1,347.37,404Z"/><polygon class="cls-1" points="715.06 760.31 756.57 760.31 756.57 798.08 795.96 798.08 795.96 841.46 834.32 841.46 834.32 875.43 872.07 875.43 872.07 905.32 950 905.32 950 945.16 715.06 945.16 715.06 760.31"/><polyline class="cls-1" points="722.89 676.68 756.84 676.68 757.87 676.68 796.02 714.84 834.48 753.29 872.08 790.89 889.86 808.67"/><line class="cls-1" x1="756.84" y1="798.08" x2="756.84" y2="676.68"/><line class="cls-1" x1="872.08" y1="875.44" x2="872.08" y2="790.89"/><line class="cls-1" x1="796.02" y1="815.08" x2="796.02" y2="714.83"/><line class="cls-1" x1="834.32" y1="753.29" x2="834.32" y2="844.78"/><line class="cls-1" x1="375.13" y1="862.13" x2="375.13" y2="887.76"/><path class="cls-1" d="M337.15,887.76V872c1.61,4.62,5.94,8.65,11.52,10.64v0c-1.81-13.2-5.35-34-11.52-52.61"/><polyline class="cls-1" points="375.13 810.8 375.13 591 337.15 591 337.15 800.92"/><line class="cls-1" x1="337.15" y1="872.02" x2="337.15" y2="887.76"/><polyline class="cls-1" points="337.15 800.92 337.15 591 100.73 591 100.73 945.18 334.08 945.18 337.15 945.18"/><rect class="cls-1" x="129.95" y="662.95" width="183.61" height="98.22" rx="22.61" transform="translate(-490.31 933.82) rotate(-90)"/><rect class="cls-1" x="187.31" y="634.11" width="68.98" height="70.38" rx="15.93" transform="translate(-447.5 891.11) rotate(-90)"/><rect class="cls-1" x="187.37" y="720.22" width="68.87" height="70.26" rx="15.93" transform="translate(-533.55 977.15) rotate(-90)"/><rect class="cls-1" x="134.52" y="824.82" width="44.22" height="24.38" rx="2.39"/><rect class="cls-1" x="186.44" y="824.82" width="44.22" height="24.38" rx="2.39"/><rect class="cls-1" x="238.36" y="824.82" width="44.22" height="24.38" rx="2.39"/><rect class="cls-1" x="161.9" y="858.93" width="44.22" height="24.38" rx="2.39"/><rect class="cls-1" x="213.64" y="858.93" width="44.22" height="24.38" rx="2.39"/><path class="cls-1" d="M73.26,545.83h302v44.79H50V569.1A23.28,23.28,0,0,1,73.26,545.83Z"/><path class="cls-1" d="M356.5,840.06c2.07-1.68,4.47-3.23,6.13-5.08,4.66-5.21,2.87-11.87,5.86-17.59,3.64-7,15.08-11.85,26.33-11.21a51.38,51.38,0,0,0-2.18,10.12c-.33,3.06.47,6.46-.41,9.43-1.43,4.76-9.07,7.65-10,12.54-.82,4.32,4.24,8.36,3.4,12.76-.89,4.72-8.14,7.33-10.81,11.5-2.18,3.4-1.15,7.28-2.28,10.89-1.37,4.36-6.11,8.21-12.32,10l-.62.18a28.53,28.53,0,0,1-5.8-6.83"/><path class="cls-1" d="M388,811.66c-16.77,17.11-24.66,53.18-27.73,71.78h0c-.25,1.57-.48,3-.67,4.31"/><path class="cls-1" d="M389.5,898.23l-7.72,43.14a5.23,5.23,0,0,1-5.15,4.32H336.3a5.23,5.23,0,0,1-5.16-4.39L324,898.23Z"/><path class="cls-1" d="M396.83,893.42h0a5.24,5.24,0,0,1-5.22,4.81H322a5.23,5.23,0,0,1-5.21-4.74h0a5.24,5.24,0,0,1,5.21-5.74h69.57A5.24,5.24,0,0,1,396.83,893.42Z"/><path class="cls-1" d="M337.15,872a9.92,9.92,0,0,1-.3-1c-1.11-4.18-.12-8.71-2.21-12.63-2.57-4.83-9.51-7.85-10.39-13.33-.78-5.08,4.08-9.78,3.27-14.79-.88-5.65-8.22-9-9.61-14.53-.83-3.42-.07-7.37-.37-10.92a70,70,0,0,0-2.12-11.72c8.3-.57,16.7,2.62,21.73,7.8a16.83,16.83,0,0,1,3.57,5.21c2.87,6.61,1.16,14.33,5.64,20.37,2.44,3.27,6.49,5.71,8.57,9.13a10.9,10.9,0,0,1,1.44,3.64,2,2,0,0,0,.05.28c.05.18.07.35.1.5.75,5.06-1.18,10.54-.56,15.75.56,4.32,2.9,8.65,1.56,12.87a40.85,40.85,0,0,1-3.72,8.13,28.89,28.89,0,0,1-4.55,6.06c-.2-.05-.38-.13-.58-.2v0c-1.81-13.2-5.35-34-11.52-52.61"/><path class="cls-1" d="M349.33,887.74c-.18-1.54-.41-3.22-.66-5.08v0c-1.81-13.2-5.35-34-11.52-52.61-3.89-11.85-8.85-22.86-15.11-30.56"/><path class="cls-1" d="M346.36,826.49s1.11-17.22,10.4-22.46,9.09,24.12,9.09,24.12"/><path class="cls-1" d="M356.5,840.06a42.56,42.56,0,0,1,1.43-19.54"/><path class="cls-2" d="M496.42,517.89a7.94,7.94,0,0,1,.35,10.36L473.66,568l-.81,8-7.19,72.25L454.24,763c-.07.73-.22,1.46-.35,2.19-.07.58-.15,1.16-.25,1.74-.15.75-.33,1.46-.5,2.18s-.28,1.19-.46,1.77-.42,1.38-.67,2.06l-.61,1.71c-.27.68-.55,1.33-.83,2s-.53,1.09-.8,1.64-.63,1.26-1,1.86-.61,1.06-.93,1.56-.73,1.18-1.14,1.76-.7,1-1.05,1.46c-.76,1-1.51,1.94-2.34,2.84-.43.5-.88,1-1.33,1.48s-1,.93-1.46,1.39-.91.85-1.39,1.25-1,.86-1.55,1.26-1,.78-1.51,1.13-1.09.76-1.64,1.14-1.08.67-1.63,1-1.14.66-1.71,1-1.16.58-1.76.85-1.16.58-1.76.83-1.29.51-1.94.73-1.16.45-1.74.63c-1.1.35-2.23.65-3.37.91-.65.15-1.28.27-1.93.37s-1.26.25-1.91.36h.1l8.92,19,8.35.08a41.62,41.62,0,0,1-8.14.35l13.22,28.19A29.67,29.67,0,0,1,412.29,892h-16a4.71,4.71,0,0,0-4.7,4.73v2.34a24.33,24.33,0,1,1-15.62,0v-2.34a4.72,4.72,0,0,0-4.72-4.73H194.7a4.72,4.72,0,0,0-4.72,4.73v2.34a24.36,24.36,0,1,1-15.62,0v-2.34a4.73,4.73,0,0,0-4.73-4.73H142.19a6.39,6.39,0,0,1-4.5-10.91,6.32,6.32,0,0,1,4.5-1.86H406.54a19.87,19.87,0,0,0,18-28.24l-22.73-49.05L174,783.52a3.4,3.4,0,0,0-.53-.08c-1-.1-2-.23-3-.4a10.09,10.09,0,0,1-1-.18c-1.13-.2-2.21-.45-3.3-.73l-.93-.27c-1-.31-2-.63-3-1l-.78-.3c-.91-.35-1.81-.75-2.69-1.18a10.9,10.9,0,0,1-1.09-.53c-.8-.4-1.6-.83-2.38-1.31v0a43.7,43.7,0,0,1-21.56-37.67V641.12a43.78,43.78,0,0,1,37.57-43.33l285.35-41,28.11-38.93A8,8,0,0,1,496.42,517.89Z"/><path class="cls-2" d="M821.17,854.56l0,0v0c-18.45-38.28-56.43-106.61-108.59-147.88l-5.08-91.69a46.12,46.12,0,0,0,11.34-2c4.18-.68,7-1.74,8-3.3a13.08,13.08,0,0,0,1.59-4.2,12.84,12.84,0,0,0,1.16-5.83c0-1-.08-2.19-.1-3.4.37-10.08-.61-24.57-1.79-41.77-1.21-24.8-2.56-49-2.59-49.22v-.05c0-.35.15-22.08,1.16-46.07,1.3,13.61,6.94,22.13,14.33,27.36,8,6.59,18.49,8.38,27.49,8.38a76.48,76.48,0,0,0,19.49-2.57c10.71-3.34,19.52-8.67,26.06-16.27,6-5.78,11-13.15,12.37-22.21a50.2,50.2,0,0,0-1.16-22A35.22,35.22,0,0,0,811.56,411a24.65,24.65,0,0,0-5.25-3.4h0c-3.17-1.84-6.44-3.62-9.54-5.66A44.11,44.11,0,0,1,786,391.21a29.56,29.56,0,0,1-3.47-11.54,168,168,0,0,0-.28-20.27c0-1.41-.15-2.82-.3-4.2-.38-4.83-.73-8.17-.73-8.17A60.07,60.07,0,0,0,761,320.52c-.56-.45-1.13-.88-1.69-1.31a61.52,61.52,0,0,0-27.06-11.14c-.9-.13-1.81-.23-2.69-.3a60.49,60.49,0,0,0-8.73-.78,21.2,21.2,0,0,1-9.25-7.5,40.26,40.26,0,0,1-4.25-11.77c-1.13-6.74-1.23-14.83-1.79-24.16a52.14,52.14,0,0,0-7.06-26.69.48.48,0,0,0-.1-.17,45.63,45.63,0,0,0-7.25-9.23c-8.07-9.56-19.31-15.54-33.29-12.05-.13,0-.26.08-.41.13-.58,0-1.15,0-1.73.1,0,0,0,0,0,0a.08.08,0,0,0-.05,0,37,37,0,0,0-15.52,4.88,32.83,32.83,0,0,0-4.93,3.5c-9.25,8-14.56,20.37-16,32.62-.07.5-.1,1-.12,1.5a12,12,0,0,0-2.74,6.9,12.76,12.76,0,0,0,6.81,12.12v.63a35.46,35.46,0,0,0,2.79,12.57c2.84,6.74,7.92,14.41,16.52,15.64.31,0,.61.05.88.1l6.29,11.22,1.51,6.51,3.5,15.09,1.2-.68c1.39-.78,2.77-1.55,4.2-2.31l.91,1.66A121.75,121.75,0,0,0,645.6,348c-12.37,9.33-27.56,23.59-38.25,43.1-6.29,10.92-10.74,22.79-12.12,35.39a5,5,0,0,1-.05.5c-.18,1.13-.33,2.26-.45,3.42l0-5.51c-.22,0-.43-.1-.65-.12v-.1a21.58,21.58,0,0,1-2.29-.46l-57.64-34.32a18.23,18.23,0,0,1-5.39-8.68,31.31,31.31,0,0,0-10.31-16.5,33.29,33.29,0,0,0-14.93-6.56c-.33-.08-.68-.13-1-.18v0a3.73,3.73,0,0,0-2.29-5.11l-42.6-13.45a3.74,3.74,0,0,0-4.58,2.11l-9.81,23.21a3.73,3.73,0,0,0,2.34,5l1.11.35,0,.1L471.87,378l.46.15c0,.5,0,1,.05,1.5a47.1,47.1,0,0,0,.75,7.12c.18,1,.4,2,.65,3,.15.55.28,1.08.48,1.61l.08.28c.15.47.3,1,.5,1.45v0a5,5,0,0,0,.18.55v0h0l0,0a.07.07,0,0,0,.05,0,26.11,26.11,0,0,0,2.34,4.63,19.65,19.65,0,0,0,9.18,7.62c3.57,1.4,7.39,1.13,11,2.56a25.1,25.1,0,0,1,7.52,4.88l1.36,1.48c-.73,1.09-7.29,11.22-2.56,14.41l-.18.08,4.78,3,58.65,38.73c.58.45,1.18.88,1.76,1.3L564.7,477c-11.64,4.12-25.38,8.62-36.27,11.74-6.53,1.66-13.12,3.12-19.76,4.3-10.19,1.76-20.58,1.84-30.71,3.57-7.37,1.21-13.61,8.08-15,15.77-1.16,6.26-1.44,13,5.48,16.22,7.92,3.68,11.87-7.59,16.67-11.59,7.4-6.26,14.76,1.21,22.46,5.46h0c.7,4.12,1.91,8.09,2.84,12.14a10,10,0,0,0,1.63,4c1.41,1.81,2.89,2,4.2,1.33l-.33.28q3.78-1,7.62-2a43.81,43.81,0,0,0,7.07-1.71c17.18-4.08,35.49-7.88,53.8-12.48h.07c.86-.22,1.74-.45,2.59-.65a2.17,2.17,0,0,1,2.24,2.11c-.1,1.31-.23,2.64-.35,4-1.33,5.86-3.52,21.68-6,34.45-1.36,5.66-2.77,10.94-4.13,15.62-2.21,5-4.37,9.93-3.69,14a7.83,7.83,0,0,0,6.64,7.42l3.16.48c2.17.52,5.84,1.15,10.44,1.81.63,4.47,1.31,9,2.06,13.4l.18,1.11c.53,2.91,1.08,5.88,1.63,8.82l0,.08v.1l.45,2.41.48,2.6-3.65,32.34L595.43,674,567.67,918.79l-29.2,7.77-21.88,5.84a6.64,6.64,0,0,0-2.24.93,7,7,0,0,0-3.29,6,6.86,6.86,0,0,0,.88,3.35,7.38,7.38,0,0,0,1.18,1.66,7.08,7.08,0,0,0,3.52,1.89,6.36,6.36,0,0,0,1.51.17h85.28l7-27.59,41.8-165.4,2.19,2s0,.08.08.1l0,.05,64.1,60.94v0l.76.67,1,1,13.35,12.67,1,.93.4.4c49.85,48.16,51.63,54.45,50.52,55.11H785L762,935a7.14,7.14,0,0,0,2.21,8.83l1.61,1.18a7.09,7.09,0,0,0,9.56-1.16l58.39-68.25S829.44,871.61,821.17,854.56ZM518,538.44a10.62,10.62,0,0,0,.83-1.16.71.71,0,0,0,.13.35ZM567.49,476c.33-.15.65-.28,1-.41l3.45-1.35h0l.15.07C570.61,474.86,569.07,475.44,567.49,476Zm23.41-52a22,22,0,0,1-8.07-4.58l-3.19-1.91,11.82,6.59C591.26,424.11,591.08,424.11,590.9,424.06Z"/><path class="cls-2" d="M575.16,474.91l-1.74-.65a3.48,3.48,0,0,1-.36-.22c-9.09-5.88-16.19-14.18-22.26-23-6.4-9.31-28.36-18.89-35.46-27.71-4.55-5.58-9.31-12-16.28-14.78-3.59-1.41-7.43-1.14-11-2.56a19.46,19.46,0,0,1-9.17-7.62,25.45,25.45,0,0,1-2.37-4.65l0,0v0a4.23,4.23,0,0,1-.19-.57,11.8,11.8,0,0,1-.57-1.74c-.19-.54-.33-1.06-.47-1.61a26.9,26.9,0,0,1-.65-3,57.47,57.47,0,0,1-.71-6.83v-.11c-.08-2.32-.05-4.6.06-6.83v-.06l-.11,0-10.21-3.59a8.23,8.23,0,0,1-5.52-6.37,6.12,6.12,0,0,1,.08-2.45,7.46,7.46,0,0,1,3.81-5,7.29,7.29,0,0,1,5.82-.44l20.55,7.46,4.22,1.52.11.06s0-6.26,6-6.13c5.55.14,25.66,1.77,31.62,23.76a18.11,18.11,0,0,0,5.39,8.66l48.58,29.09a21.69,21.69,0,0,0,11.87,5.45l0,6.17a.06.06,0,0,0,0,.09v4.49l3.86,27.05,2.72,18.91a45.61,45.61,0,0,1-10.64-.38l-2.31-.87h-.06Z"/><path class="cls-3" d="M492.73,364.1s-1,9.78,13.13,11.86"/><path class="cls-3" d="M474,380.16s1.94,10.91,17.11,10.61a5.76,5.76,0,0,0,3.39-10.29l-.21-.15"/><path class="cls-3" d="M493.33,389.12s.23.32.53.85c1,1.73,2.43,5.75-2.59,8-6.95,3.14-13.9-3.46-14.78-4.31"/><path class="cls-3" d="M476.49,393.67l-.07-.07"/><line class="cls-3" x1="473.96" y1="372.97" x2="483.74" y2="376"/><path class="cls-4" d="M595.56,430.84v.08s0,0,0,0c-1.15,10.13-2.29,21.89-3.19,34.9-6.48,3-13.09,5.6-19.59,8.19a3.48,3.48,0,0,1-.36-.22,66.46,66.46,0,0,1-12.08-10.18L505.2,429.39a29.29,29.29,0,0,0,8.95-7l.17-.17c10.39-11.16,19.4-30,20.52-32.36l.24.25,48.58,29.09a21.67,21.67,0,0,0,11.87,5.44Z"/><path class="cls-5" d="M497.75,373.44l-1.11,3-1.06,2.91L495,381v0l-.08.25-.11.3A3,3,0,0,1,491,383.4L473.42,378l-.08,0-25.26-7.76,6.56-15.51,2.89-6.83a3.76,3.76,0,0,1,4.6-2.1l34.81,11a21,21,0,0,0-3.43-.49,5.56,5.56,0,0,0-4.41,1.77,5.14,5.14,0,0,0-1.17,4.46,12,12,0,0,0,3,5.34c.14.16.28.3.44.46a19.78,19.78,0,0,0,4.44,3.67s.05,0,.11.08,0,0,0,0A16.46,16.46,0,0,0,497.75,373.44Z"/><path class="cls-6" d="M473.8,378c0,.54,0,1.12.06,1.66a47.11,47.11,0,0,0,.76,7.13,27.08,27.08,0,0,0,.65,3c.14.54.27,1.06.46,1.6s.39,1.2.63,1.8l0,0a6,6,0,0,0,.27.65,0,0,0,0,0,0,0,23,23,0,0,0,2.09,4A19.69,19.69,0,0,0,488,405.5c3.54,1.38,7.41,1.14,11,2.55,6.86,2.75,11.57,8.93,16,14.46"/><path class="cls-6" d="M505.75,375.45c-1-.16-2-.35-3-.6s-1.74-.52-2.58-.84a22.31,22.31,0,0,1-3.84-1.94s-.08,0-.11-.08a20.66,20.66,0,0,1-4.87-4.13,11.94,11.94,0,0,1-3-5.34,4.93,4.93,0,0,1,1.17-4.46,5.58,5.58,0,0,1,4.41-1.77,30.79,30.79,0,0,1,4.57.71c2.15.38,4.3.73,6.43,1.17a33.65,33.65,0,0,1,14.94,6.56,31.48,31.48,0,0,1,10.31,16.49,18.15,18.15,0,0,0,5.36,8.68L596.17,426"/><path class="cls-6" d="M473.87,379.65s1.94,10.91,17.11,10.61A5.76,5.76,0,0,0,494.36,380l-.2-.15"/><path class="cls-6" d="M476.31,393.1s7.43,7.73,14.84,4.39c6.55-3,2.07-8.87,2.07-8.87"/><line class="cls-6" x1="496.58" y1="379.5" x2="496.04" y2="379.34"/><path class="cls-7" d="M418.14,802.08a41.91,41.91,0,0,1-9.52.27l-5-.4Z"/><path class="cls-5" d="M474.34,576.05l-18.65,187a43.77,43.77,0,0,1-37.56,39,41.91,41.91,0,0,1-9.52.27l-5-.4L175.44,783.49a43.28,43.28,0,0,1-18.72-5.93A43,43,0,0,1,152.55,759v-4.35l209.63,17,5,.41a43.11,43.11,0,0,0,9.52-.27,43.8,43.8,0,0,0,37.56-39l15-150.15Z"/><path class="cls-7" d="M429.24,582.53l-15,150.15a43.8,43.8,0,0,1-37.56,39,43.11,43.11,0,0,1-9.52.27l-5-.41-209.63-17V660.23a43.83,43.83,0,0,1,37.56-43.36Z"/><path class="cls-7" d="M435.54,821.19a42,42,0,0,1-9.53.27l-5-.4Z"/><path class="cls-4" d="M418.26,802.08l22.36,47.66A29.67,29.67,0,0,1,413.77,892h-16a4.71,4.71,0,0,0-4.72,4.71v23.24a7.81,7.81,0,1,1-15.62,0V896.7a4.7,4.7,0,0,0-4.72-4.71H196.17a4.7,4.7,0,0,0-4.71,4.71v23.24a7.82,7.82,0,0,1-15.63,0V896.7a4.7,4.7,0,0,0-4.71-4.71H143.68a6.4,6.4,0,0,1,0-12.79H408A19.86,19.86,0,0,0,426,851l-22.73-49"/><path class="cls-6" d="M408.61,802.35,175.44,783.5a43.78,43.78,0,0,1-40.26-43.64V641.12a43.8,43.8,0,0,1,37.56-43.34l285.34-41,28.13-38.95a8,8,0,0,1,11.69.07h0a8,8,0,0,1,.36,10.36l-23.14,39.79-19.41,195A43.79,43.79,0,0,1,408.61,802.35Z"/><path class="cls-6" d="M409.63,922.07a24.34,24.34,0,1,1-32.16-23v20.88a7.81,7.81,0,0,0,7.81,7.81h0a7.81,7.81,0,0,0,7.81-7.81V899.06A24.26,24.26,0,0,1,409.63,922.07Z"/><path class="cls-6" d="M208,922.07a24.33,24.33,0,1,1-32.13-23v20.88a7.82,7.82,0,0,0,7.82,7.81h0a7.81,7.81,0,0,0,7.81-7.81V899.06A24.23,24.23,0,0,1,208,922.07Z"/><path class="cls-6" d="M418.26,802.08l22.36,47.66A29.67,29.67,0,0,1,413.77,892h-16a4.71,4.71,0,0,0-4.72,4.71v23.24a7.81,7.81,0,1,1-15.62,0V896.7a4.7,4.7,0,0,0-4.72-4.71H196.17a4.7,4.7,0,0,0-4.71,4.71v23.24a7.82,7.82,0,0,1-15.63,0V896.7a4.7,4.7,0,0,0-4.71-4.71H143.68a6.4,6.4,0,0,1,0-12.79H408A19.86,19.86,0,0,0,426,851l-22.73-49"/><path class="cls-6" d="M498.32,373.16,496,379.34l-.63,1.66-.19.55a3,3,0,0,1-3.75,1.85L473.8,378,447,369.76a3.73,3.73,0,0,1-2.34-5l9.8-23.22a3.77,3.77,0,0,1,4.6-2.1l42.59,13.45A3.76,3.76,0,0,1,504,358"/><line class="cls-6" x1="489.5" y1="360.61" x2="451.59" y2="348.34"/><path class="cls-6" d="M535.58,389.9S521,421.61,506.87,429.14a.65.65,0,0,0-.06,1.13L573.06,474"/><path class="cls-6" d="M508,414.8s-8.18,11.92-2.14,14.84"/><path class="cls-4" d="M512.53,492.6s-3.35.15,3.37,8.61,9,24.56,4.43,36.07c0,0-.2,3,11.76-.74S586,524.05,586,524.05s6.55-3.45,4.52,5.29-6,40.89-10.15,50.16-8.19,18.46,6.09,21.94,92.18,10.8,92.18,10.8,53,11.75,52.44-12.59-4.45-94.41-4.45-94.41.32-54.09,3.89-86.07c0,0,9.32-81.25-18.39-88.76s-37.12.48-44.15,4.27-69,36.18-72.38,103c0,0-.23,25.82-5.46,29.67S523.71,492.37,512.53,492.6Z"/><path class="cls-4" d="M611.87,918.79l-7,27.59H519.64a7.22,7.22,0,0,1-5-2.06,7.09,7.09,0,0,1,3.46-11.92l51.08-13.61S598.75,929.18,611.87,918.79Z"/><path class="cls-5" d="M710.91,613.77c-.65,0-1.33.06-2,.06q-4,25.83-8.9,51.49c-38.18-8.55-90.93,6.61-90.93,6.61l1.11,6c-8.7.47-11.37-2.74-11.37-2.74L596.9,674l4.79-42.27-.92-5,0-.16c-.57-2.94-1.11-5.91-1.63-8.85l-.19-1.08c-.76-4.55-1.47-9.12-2.1-13.67l.63.09c.22,0,.43.08.68.1l.54.09c.47.05.93.13,1.39.19,1,.13,2.29.32,3.73.54.57,0,1.17.14,1.8.25C627.3,607.24,683.78,614.59,710.91,613.77Z"/><path class="cls-6" d="M653.81,752.87l-.13.52-41.81,165.4-7,27.59H519.64a7.22,7.22,0,0,1-5-2.06,7.1,7.1,0,0,1,3.46-11.93l51.08-13.6L596.9,674l4.79-42.27"/><path class="cls-6" d="M522.52,524.77c-3,.14-4.68.17-4.68.17-3,.21-5.91-.93-8.79-2.48-7.7-4.25-15.08-11.7-22.48-5.44-4.79,4-8.74,15.26-16.66,11.59-6.91-3.21-6.64-10-5.5-16.22,1.42-7.7,7.65-14.56,15-15.79,10.12-1.71,20.52-1.79,30.7-3.56A305.66,305.66,0,0,0,570,475.62c21.45-8.55,44.85-17.36,60.69-34.92,18.81-20.79,30.76-48,37.29-75.06"/><path class="cls-2" d="M825.15,432.46c0-.22-.1-.44-.17-.66a42.3,42.3,0,0,0-13.59-21.05l-.24-.17c-.61-.44-1.24-.85-1.88-1.27-.85-.53-1.73-1.05-2.61-1.56a.9.9,0,0,0-.24-.12,56.81,56.81,0,0,1-9.63-5.73l-.15-.1c-4.07-2.71-7.76-5.85-10.29-10.22a1.14,1.14,0,0,1-.15-.29c-.05,0-.05-.07-.07-.1a18.61,18.61,0,0,1-3.47-11.51v-.12c-.73-6.61,0-13.56-.26-20.27,0-.41,0-.83-.08-1.24s-.07-.93-.1-1.34a1.15,1.15,0,0,0,0-.42,36.43,36.43,0,0,0-.51-4c-2.32-12.53-10.37-23.7-20.22-31.58a5,5,0,0,0-.68-.51c-11-8.1-23.15-11.25-31.07-12.47a.86.86,0,0,0-.22,0,59.32,59.32,0,0,1-8.42-.76c-.05,0-.1,0-.12,0a12.06,12.06,0,0,1-7.32-4.59,20,20,0,0,1-1.8-2.75.45.45,0,0,1-.15-.22,27,27,0,0,1-4-10.54c-.08-.36-.17-.73-.22-1.07-1.71-8.12-1.76-16.95-1.81-24.24-.66-11.25-5.65-25.73-14.34-36,0,0,0-.05-.05-.05a41.18,41.18,0,0,0-8.43-6.49,43.66,43.66,0,0,0-25.66-5.34s0,0-.05,0a.07.07,0,0,0,0,0,37.28,37.28,0,0,0-15.51,4.87,33.69,33.69,0,0,0-4.93,3.52c-9.27,7.95-14.56,20.36-16,32.6-.12,1-.2,1.88-.24,2.83a.8.8,0,0,0,0,.34v0a10.19,10.19,0,0,0-2,5.39,10.79,10.79,0,0,0,6.19,10.44v.19c0,.64,0,1.3,0,1.93a35.19,35.19,0,0,0,2.78,12.58c2.85,6.74,7.93,14.42,16.54,15.64a45.5,45.5,0,0,0,4.61.41l4.07,17.42L656.09,339c15.21-8.66,32.12-16.91,48.2-11.86l7.17,3c7.44,2.32,9.06,8.91,14.67,14.64,17.85,14.56,38,83.85,39.17,88.14a.3.3,0,0,0,.05.15s0,0,0,.05,0,.07,0,.12a2.83,2.83,0,0,0,.22.59c.07.21.15.43.24.65.18.44.35.88.52,1.32,3.53,9.2,15,39.17,17.61,46.56,3,8.73,5.43,9.41,5.43,9.41a1,1,0,0,0,.37-.14c.12-.05.29-.13.49-.2a76.75,76.75,0,0,0,21.17-12.9h0s0,0,0-.05a49.22,49.22,0,0,0,12.32-21.29A50.71,50.71,0,0,0,825.15,432.46Z"/><path class="cls-5" d="M628.43,253.84s1.87-31.13,30.93-38.42,46.4,26.47,47.71,48.14,0,36.62,15.27,43.44c0,0,44.13-.54,60.39,40,0,0,2.2,19.87,1.3,32.66s15.06,24,23.75,27.94,23.81,20,19.7,46.23-38.42,38.46-38.42,38.46-29.32,8.68-47-5.81C723.29,471.11,728.6,443,728.6,443s10.13-91.42-8.31-106.44c-10.15-8.27-14.76-7.52-21.93-11.88-7.55-4.59-10.25-6-12.78-9.23-4.92-6.33-13.64-15.89-7.33-38.44s0-11.18-6-14.36c0,0-7.36-11.36-18.47-3.33s-8.4-11.56-8.4-11.56l-4.88,6.56S632.87,255.85,628.43,253.84Z"/><path class="cls-6" d="M621.59,264.6c-.27-14.53,5.15-30.85,16.44-40.53a34.2,34.2,0,0,1,4.92-3.53c12.2-7.21,29.15-6.56,41.29.45a44.68,44.68,0,0,1,15.66,15.7l.1.18a52.32,52.32,0,0,1,7.07,26.69c.06,12.18.13,28.71,7.95,38.82,4.94,6.4,11.51,4.6,18.74,5.69a61.13,61.13,0,0,1,27.06,11.15c10.78,7.93,19.76,19.76,22.24,33.12,2.39,12.86-2.28,27.36,4.65,39.25,5.08,8.69,14.74,12.66,22.92,17.73,16.42,10.3,19.8,30.26,14.6,47.82-5.42,18.31-18.16,29.56-36.17,35.17,0,0-60.86,15-61.61-38.34"/><path class="cls-6" d="M644.53,246.84c-.63,4.28-3.23,8.23-7.86,9.41-5.22,1.33-8,6.41-9.46,11.52a34.08,34.08,0,0,0,1.53,22.63c2.85,6.72,7.94,14.4,16.54,15.63,15.74,2.24,23.57-4.39,23.57-4.39"/><circle cx="657.64" cy="267" r="2.71"/><circle cx="633.87" cy="265.22" r="2.71"/><path class="cls-6" d="M644.53,246.84a15,15,0,0,0,.27,7.78,7.5,7.5,0,0,0,.46,1.19c1.88,4.41,6.25,7.93,14,7.49,16.83-.93,22.83-2,21.46,5.73a45.78,45.78,0,0,1-2.44,8c-1.85,4.91-3.14,13.34-1.24,22.52,0,0,0,0,0,0,2.19,10.73,7.39,21.69,24.92,27.79"/><path class="cls-6" d="M646,267.66s-2.84,10.38-2.55,11.91,3.92.34,3.92.34"/><path class="cls-6" d="M648,289.42c5.43,2.93,11.73,1.08,14.19-3.82"/><ellipse class="cls-6" cx="661.76" cy="269.1" rx="12.32" ry="12.62" transform="translate(11.82 565.6) rotate(-46.65)"/><ellipse class="cls-6" cx="630.24" cy="266.21" rx="12.32" ry="12.62" transform="translate(4.03 541.77) rotate(-46.65)"/><path class="cls-2" d="M630,257.58a7.32,7.32,0,0,1,.81,0,8.92,8.92,0,0,1,8.08,9.43,8.3,8.3,0,0,1-8.36,7.8c-.27,0-.54,0-.81,0a8.94,8.94,0,0,1-8.08-9.43,8.3,8.3,0,0,1,8.36-7.8m0-1.85a10.18,10.18,0,0,0-10.21,9.52,10.79,10.79,0,0,0,9.76,11.4c.33,0,.66.05,1,.05a10.19,10.19,0,0,0,10.21-9.53,10.8,10.8,0,0,0-9.76-11.4c-.33,0-.66,0-1,0Z"/><line class="cls-6" x1="649.31" y1="267.96" x2="642.69" y2="267.35"/><path class="cls-2" d="M661.49,260.21l.83,0a9.21,9.21,0,0,1,8.33,9.72,8.56,8.56,0,0,1-8.62,8c-.28,0-.55,0-.83,0a9.21,9.21,0,0,1-8.33-9.72,8.55,8.55,0,0,1,8.62-8m0-1.85A10.44,10.44,0,0,0,651,268.12a11.06,11.06,0,0,0,10,11.68c.34,0,.67.05,1,.05a10.44,10.44,0,0,0,10.46-9.77,11,11,0,0,0-10-11.68c-.34,0-.67,0-1,0Z"/><ellipse class="cls-5" cx="630.24" cy="266.21" rx="10.57" ry="10.83" transform="translate(4.03 541.77) rotate(-46.65)"/><ellipse class="cls-5" cx="661.77" cy="269.09" rx="10.62" ry="10.88" transform="translate(11.83 565.61) rotate(-46.65)"/><polyline class="cls-6" points="657.64 339.79 653.96 323.87 649.96 306.7"/><path class="cls-4" d="M835.27,875.64l-58.38,68.25a7.09,7.09,0,0,1-9.56,1.15l-1.6-1.17a7.12,7.12,0,0,1-2.23-8.82l22.94-47.74s36.5,1.05,36.2-32.78C830.91,871.62,835.27,875.64,835.27,875.64Z"/><path class="cls-6" d="M736.61,832.21l-.41-.41-15.35-14.59-.74-.68-64.12-61,0-.06-.09-.08-2.17-2-19.49-18.53a69.81,69.81,0,0,1-20.52-37.94L610.19,678l-1.12-6-7.38-40.17-.92-5,0-.16c-.57-2.94-1.11-5.91-1.63-8.85l-.19-1.08"/><path class="cls-8" d="M596.82,603c.63,4.55,1.34,9.12,2.1,13.67l.19,1.08c.52,2.94,1.06,5.91,1.63,8.85l0,.16"/><path class="cls-8" d="M655.84,755.43l.08.08.06.06"/><path class="cls-8" d="M720.1,816.53l.74.68q8.32,7.8,15.35,14.59l.4.41c61.49,59.41,49.84,55.1,49.84,55.1l-22.95,47.74a7.13,7.13,0,0,0,2.24,8.82l1.6,1.17a7.09,7.09,0,0,0,9.56-1.15l58.37-68.25s-4.35-4-12.62-21.11v0c-19.87-41.18-62.3-117.17-120.71-156.77a13.25,13.25,0,0,1-5.61-13.6c1.12-5.42,2.18-10.84,3.22-16.28.16-.84.32-1.69.46-2.53q4.89-25.68,8.9-51.49"/><path class="cls-8" d="M593,466.07c.9-13,2-24.77,3.19-35,.16-1.55.35-3.08.51-4.58,2.44-22.29,14.53-42.41,29.4-58.72,14.7-16.12,33.41-31.79,54.64-38.14a54.27,54.27,0,0,1,21.18-2.29,30.45,30.45,0,0,1,23.33,16.09,52.22,52.22,0,0,1,5.36,17.88c0,.08,0,.16,0,.25,1.25,10,.54,20.49.65,30.42.19,20.72-1.58,41.4-3.87,62"/><line class="cls-8" x1="591.22" y1="517.89" x2="591.22" y2="517.86"/><path class="cls-6" d="M510.14,493c9.47,11.08,15.37,27.25,11.31,41.71-1,3.43-4.62,8.08-7.91,3.85a9.87,9.87,0,0,1-1.63-4c-.93-4.07-2.15-8.07-2.86-12.2"/><path class="cls-6" d="M517.41,540.2C594.76,519.76,704.29,512.84,727.88,405a147.33,147.33,0,0,0,2.74-43.73"/><path class="cls-6" d="M591,522.76c-1.53,25.8-9.61,54-14.07,68a7.88,7.88,0,0,0,6.31,10.2c3.65.57,8.27,1.25,13.58,2l.63.09c.22,0,.43.08.68.1l.54.09c.47.05.93.13,1.39.19,1.2.19,2.45.35,3.73.54.57,0,1.17.14,1.8.25,31,4.4,77.18,10.15,103.31,9.58.68,0,1.36,0,2-.06l2-.08,1.94-.11h0c7.14-.52,12-1.74,13.39-3.89,9-13.61-7.7-91.83.3-166.7"/><line class="cls-8" x1="799.03" y1="946.39" x2="66.8" y2="946.39"/><path class="cls-1" d="M100.73,717.1s-99.15,116.29,0,228.08"/></svg>