<svg id="Layer_2" data-name="Layer 2" xmlns="http://www.w3.org/2000/svg" xmlns:xlink="http://www.w3.org/1999/xlink" viewBox="0 0 1000 1000"><defs><style>.cls-1,.cls-2,.cls-6,.cls-9{fill:none;}.cls-2{stroke:#ccdde2;}.cls-2,.cls-6,.cls-9{stroke-miterlimit:10;stroke-width:4.35px;}.cls-3{clip-path:url(#clip-path);}.cls-4{fill:#d7e8f0;}.cls-5{fill:#3fbdf1;}.cls-6{stroke:#fff;}.cls-7{fill:#fff;}.cls-8{fill:#2e2e2e;}.cls-9{stroke:#000;}</style><clipPath id="clip-path"><path class="cls-1" d="M383.7,934.88c-47.67-15.4-101-27.1-147.24-47.52q-6.69-3-13.17-6.17c-46.9-23.28-90.8-86.28-59.27-138,15.84-26,46.66-39.92,58.89-68.13,16-36.93-13.6-73.41-21.61-108.49-9.06-39.7.3-85.94,21.44-121.42,16.47-27.64,46.29-52.68,77.68-89.45C344.09,304.58,457,251.07,530.7,247.11c86.42-4.65,191.66,20.26,260.64,74.23,40.09,31.37,56.69,84.31,55.22,133.74-1.76,58.73-28.46,96.69-69.45,136.49-52.36,50.85-2.39,116.14-3.82,175.16A183.29,183.29,0,0,1,743.15,863a221.52,221.52,0,0,1-38.87,45.05c-12.29,10.78-35.17,18.64-43.49,32.4"/></clipPath></defs><path class="cls-2" d="M530.71,247.11c86.41-4.63,191.66,20.26,260.63,74.25,40.1,31.35,56.68,84.29,55.23,133.73-1.77,58.74-28.46,96.67-69.46,136.49-52.37,50.82-2.41,116.14-3.83,175.14A183.29,183.29,0,0,1,743.15,863c-10.9,16.61-46,49.76-60.91,62.85"/><path class="cls-2" d="M259,896.48q-11.52-4.26-22.58-9.12-6.69-3-13.18-6.18c-46.89-23.27-90.79-86.26-59.26-138,15.85-26,46.65-39.93,58.88-68.13,16-36.92-13.59-73.4-21.59-108.49a197.54,197.54,0,0,1-1.09-82.94c5.38-26.52,15.89-55.3,35.95-74.3,6.25-5.92,13.86-10.62,22.29-12.34"/><g class="cls-3"><rect class="cls-2" x="783.87" y="495.62" width="34.74" height="453.75"/><path class="cls-2" d="M540.89,731.82a2.22,2.22,0,0,1-2.21-2.24V711.73a2.21,2.21,0,0,1,2.21-2.21h36a2.22,2.22,0,0,1,2.23,2.21v17.85a2.22,2.22,0,0,1-2.23,2.24Zm63.3,29A2.24,2.24,0,0,1,602,763H566a2.23,2.23,0,0,1-2.23-2.21V742.93a2.23,2.23,0,0,1,2.23-2.21h36a2.24,2.24,0,0,1,2.24,2.21Zm-18-31.22V711.73a2.22,2.22,0,0,1,2.23-2.21h36a2.23,2.23,0,0,1,2.23,2.21v17.85a2.23,2.23,0,0,1-2.23,2.24h-36A2.22,2.22,0,0,1,586.17,729.58Zm65.34,31.22A2.21,2.21,0,0,1,649.3,763h-36a2.21,2.21,0,0,1-2.21-2.21V742.93a2.21,2.21,0,0,1,2.21-2.21h36a2.21,2.21,0,0,1,2.21,2.21Zm22.62-31.22a2.22,2.22,0,0,1-2.23,2.24h-36a2.22,2.22,0,0,1-2.21-2.24V711.73a2.21,2.21,0,0,1,2.21-2.21h36a2.22,2.22,0,0,1,2.23,2.21Zm47.48,0a2.22,2.22,0,0,1-2.21,2.24h-36a2.22,2.22,0,0,1-2.23-2.24V711.73a2.22,2.22,0,0,1,2.23-2.21h36a2.21,2.21,0,0,1,2.21,2.21Zm33.34-67a21.09,21.09,0,0,1-21.07,21.1H558.12A21.11,21.11,0,0,1,537,662.54V588.16a21.09,21.09,0,0,1,21.09-21.1H733.88A21.07,21.07,0,0,1,755,588.16Zm-3.08-120.12a10.38,10.38,0,0,1-7.41,3.08H549.18A10.5,10.5,0,0,1,538.68,535a10.53,10.53,0,0,1,10.5-10.49H744.46A10.49,10.49,0,0,1,755,535,10.38,10.38,0,0,1,751.87,542.42Zm-244.11-46.8H783.87V949.37H737.35V810a21.09,21.09,0,0,0-21.1-21.08H577.38A21.09,21.09,0,0,0,556.28,810V949.37H511"/><path class="cls-2" d="M538.68,535a10.53,10.53,0,0,1,10.5-10.49H744.46A10.49,10.49,0,0,1,755,535a10.52,10.52,0,0,1-10.49,10.49H549.18A10.5,10.5,0,0,1,538.68,535Z"/><path class="cls-2" d="M733.88,567.06H558.12A21.09,21.09,0,0,0,537,588.16v74.38a21.11,21.11,0,0,0,21.09,21.1H733.88A21.09,21.09,0,0,0,755,662.54V588.16A21.07,21.07,0,0,0,733.88,567.06Zm-98.41,85.17a14.85,14.85,0,0,1-14.84,14.87h-52a14.85,14.85,0,0,1-14.84-14.87V598.56a14.85,14.85,0,0,1,14.84-14.86h52a14.84,14.84,0,0,1,14.84,14.86Zm102.2.07a14.85,14.85,0,0,1-14.84,14.87H670.65a14.85,14.85,0,0,1-14.84-14.87V598.49a14.85,14.85,0,0,1,14.84-14.86h52.18a14.85,14.85,0,0,1,14.84,14.86Z"/><path class="cls-2" d="M755,535a10.52,10.52,0,0,1-10.49,10.49H549.18A10.5,10.5,0,0,1,538.68,535a10.53,10.53,0,0,1,10.5-10.49H744.46A10.49,10.49,0,0,1,755,535Z"/><rect class="cls-2" x="571.47" y="805.09" width="150.15" height="12.1" rx="6.05"/><rect class="cls-2" x="571.47" y="830.07" width="150.15" height="12.1" rx="6.05"/><rect class="cls-2" x="571.47" y="855.05" width="150.15" height="12.1" rx="6.05"/><rect class="cls-2" x="571.47" y="880.03" width="150.15" height="12.1" rx="6.05"/><rect class="cls-2" x="571.47" y="905" width="150.15" height="12.1" rx="6.05"/><path class="cls-2" d="M488.16,454.29H829.49A26.81,26.81,0,0,1,856.3,481.1v14.17H467.15"/><rect class="cls-2" x="579.13" y="300.23" width="248.97" height="102.39" rx="20.77"/><path class="cls-4" d="M697.57,349.62c0,14.82-10.51,21.6-21.36,21.6-11.83,0-20.93-7.78-20.93-20.85s8.61-21.43,21.6-21.43C689.29,328.94,697.57,337.46,697.57,349.62Zm-29.3.42c0,6.95,2.9,12.16,8.28,12.16,4.88,0,8-4.88,8-12.16,0-6-2.32-12.17-8-12.17C670.51,337.87,668.27,344.08,668.27,350Z"/><path class="cls-4" d="M711.17,343.42c0-2.57,0-5-.1-7.16a6.27,6.27,0,0,1,6.29-6.41h4.4l.58,5.62h.17c3-4.3,7.61-6.53,13.49-6.53,8.85,0,16.8,7.69,16.8,20.6,0,14.73-9.36,21.68-18.38,21.68-4.88,0-8.69-2-10.51-4.63h-.16v13.82a6.29,6.29,0,0,1-6.29,6.29h0a6.29,6.29,0,0,1-6.29-6.29Zm12.58,9.51a12.17,12.17,0,0,0,.25,2.65,7.61,7.61,0,0,0,7.36,6c5.46,0,8.69-4.55,8.69-11.42,0-6.45-2.9-11.34-8.53-11.34a7.9,7.9,0,0,0-7.52,6.38,9.41,9.41,0,0,0-.25,2.23Z"/><line class="cls-2" x1="711.07" y1="402.62" x2="711.07" y2="454.29"/></g><path class="cls-4" d="M155.81,887.36H259v11a51.62,51.62,0,1,1-103.23,0v-11Z"/><path class="cls-5" d="M602.05,291.65l-.17,34.43V922.33c0,33.3-27,27-60.3,26.95l-84.91-.06H216.3A51.51,51.51,0,0,0,259,900.45c.06-.69.06-1.39.06-2.08a6.78,6.78,0,0,0,0-.78l-.75-610.88a52.2,52.2,0,0,0-25.1-39.8,51.25,51.25,0,0,0-25.79-6.9h343A51.65,51.65,0,0,1,602.05,291.65Z"/><path class="cls-4" d="M259,373.54H155.81V291.65a51.62,51.62,0,1,1,103.23,0v93.86"/><rect class="cls-5" x="280.89" y="424.61" width="165.34" height="401.14" rx="19.8" transform="translate(727.12 1250.36) rotate(180)"/><line class="cls-6" x1="400.21" y1="392.38" x2="459.38" y2="392.38"/><line class="cls-6" x1="316.82" y1="467.01" x2="408.91" y2="467.01"/><line class="cls-6" x1="316.82" y1="499.35" x2="408.91" y2="499.35"/><line class="cls-6" x1="316.82" y1="531.69" x2="408.91" y2="531.69"/><line class="cls-6" x1="316.82" y1="564.03" x2="408.91" y2="564.03"/><line class="cls-6" x1="316.82" y1="596.36" x2="408.91" y2="596.36"/><line class="cls-6" x1="316.82" y1="628.7" x2="408.91" y2="628.7"/><line class="cls-6" x1="316.82" y1="736.74" x2="408.91" y2="736.74"/><line class="cls-6" x1="316.82" y1="751.82" x2="408.91" y2="751.82"/><line class="cls-6" x1="316.82" y1="766.89" x2="408.91" y2="766.89"/><line class="cls-6" x1="400.21" y1="354.39" x2="449.83" y2="354.39"/><line class="cls-6" x1="400.21" y1="373.39" x2="456.76" y2="373.39"/><line class="cls-6" x1="400.21" y1="335.4" x2="467.15" y2="335.4"/><rect class="cls-5" x="305.32" y="329.11" width="69.55" height="69.55" rx="8.95" transform="translate(680.18 727.78) rotate(180)"/><circle class="cls-4" cx="340.09" cy="348.18" r="10.22"/><path class="cls-4" d="M366,389.82a25.88,25.88,0,1,0-51.76,0Z"/><path class="cls-4" d="M337.56,853.86,330,869.18a2.8,2.8,0,0,1-2.12,1.54L311,873.18A2.82,2.82,0,0,0,309.4,878l12.24,11.93a2.78,2.78,0,0,1,.81,2.49l-2.89,16.85a2.82,2.82,0,0,0,4.09,3l15.13-8a2.82,2.82,0,0,1,2.62,0l15.13,8a2.81,2.81,0,0,0,4.08-3l-2.88-16.85a2.78,2.78,0,0,1,.81-2.49L370.78,878a2.82,2.82,0,0,0-1.57-4.81l-16.91-2.46a2.8,2.8,0,0,1-2.12-1.54l-7.57-15.32A2.81,2.81,0,0,0,337.56,853.86Z"/><line class="cls-2" x1="452.01" y1="892.38" x2="394.55" y2="892.38"/><path class="cls-7" d="M683.62,926.12H659.68a25.27,25.27,0,0,1-24.46-31.55l8.52-33h86.18L678.49,702.3h11.73a26.36,26.36,0,0,0,13.94-3.95h0a24.86,24.86,0,0,0,4.09-3.1c.32-.29.64-.6.93-.89.6-.61,1.15-1.25,1.7-1.89a0,0,0,0,1,0,0c.52-.66,1-1.33,1.51-2a26.7,26.7,0,0,0,4.2-18.89q-2.52-16.6-5.1-32.37c-53.06-326.44-114.4-395.84-145-410.59l2.7-34.63a20.8,20.8,0,0,0,11-9.18c.7.2,1.42.46,2.18.75,6.46,2.35,14.28,3.82,20.92,1.3,8.17-3.1,3.36-11.65,2.81-17.82-.18-1.45-1.54-10.55,1.27-10.57h6.2a2,2,0,0,0,1.77-3.11,58.28,58.28,0,0,1-7.88-31.44,11.81,11.81,0,0,1-1.13,1.39c.38-.46.75-.92,1.1-1.39,0,0,0,0,0,0,.2-.29.41-.56.61-.85s.38-.6.58-.92a17.4,17.4,0,0,0,1-2v0a20.23,20.23,0,0,0,1.42-4.23,21.39,21.39,0,0,0-.66-11.94s0-.06,0-.09a3.76,3.76,0,0,0-.29-.75,16.15,16.15,0,0,0-1-2.32c-.23-.43-.46-.87-.72-1.3a11.69,11.69,0,0,0-.64-1c-.46-.67-.92-1.3-1.42-1.94a26.13,26.13,0,0,0-2.43-2.75c-6-6-14.41-10.35-21.91-13-.75-.26-1.54-.52-2.29-.75s-1.22-.38-1.82-.55c-1.45-.43-2.9-.81-4.38-1.13-.78-.17-1.56-.35-2.35-.46-1-.21-2-.38-3.1-.52-.78-.12-1.56-.21-2.35-.29s-1.59-.15-2.37-.21l-.2,0c-13.65-.9-27.33,2.49-37.85,12.11-.55.53-1.1,1-1.65,1.63.26-.38.55-.79.78-1.19a25.83,25.83,0,0,0,2-3.85,16.46,16.46,0,0,0,.67-1.83c.2-.61.37-1.25.55-1.88a24.34,24.34,0,0,0,.72-6,25.35,25.35,0,0,0-1.39-8.29c-.14-.38-.26-.75-.4-1.1a25.65,25.65,0,0,0-1.31-2.81,30.35,30.35,0,0,0-2-3.1,25.39,25.39,0,0,0-20.48-10.29c-.64,0-1.25,0-1.89.09a16.21,16.21,0,0,0-2.11.23,25.59,25.59,0,0,0,4,50.86A25.17,25.17,0,0,0,515,98.19h.06a27.41,27.41,0,0,0,2.43-1.51,5.66,5.66,0,0,0,.53-.37c.6-.47,1.15-.93,1.71-1.42-11,13.85-14.87,33-11.28,50.21a110.85,110.85,0,0,0,5.45,18c2.46,6.23,6.9,10.75,7.71,17.62.61,5.3-10,35.38-13.39,48.6-6.72,5.94-12.46,14.31-17,24.4.21-.58.44-1.13.64-1.71-.55,1.15-1.07,2.34-1.6,3.56a78,78,0,0,0-2.89,7.8,115.94,115.94,0,0,0-4.49,20.19c-.32,2.29-.61,4.58-.84,6.9l-.09,1a3.19,3.19,0,0,1-.06.52c-.11,1.21-.2,2.43-.29,3.65-.12,1.53-.23,3.07-.29,4.61s-.14,2.89-.23,4.37v.29c-.09,1.68-.15,3.36-.17,5.07v.61c-.15,6.06-.12,12.17,0,18.26.14,9.65.43,19.27.43,28.54,0,1.42,0,2.84,0,4.23s0,2.81-.06,4.17-.06,2.64-.11,3.92c0,1.45-.12,2.87-.18,4.29,0,.14,0,.26,0,.4a3.24,3.24,0,0,1,0,.44v.2c-.06,1.13-.15,2.26-.24,3.39a750.08,750.08,0,0,1-20.72,128.84c-14.63,57.37-38.07,112.34-49.81,170.39-2.78,13.65-4.37,29.06-.26,41.87a40.32,40.32,0,0,0,1.54,4.09c.29.66.6,1.33.92,2,.52,1,1.08,1.91,1.63,2.84s1.21,1.82,1.88,2.69c.43.58.93,1.13,1.42,1.71s1,1.1,1.54,1.62h0c7.28,7.19,17.28,10.44,27.48,12.32l-43.64,59.9,26.89,12.92,1.94.93-.38.58-1.13-.55-54,70.39,90.39,44.54a11.09,11.09,0,0,0,5.91,1.16,11.56,11.56,0,0,0,11.24-6.47,11.34,11.34,0,0,0,1.22-5.16,11.68,11.68,0,0,0-6.52-10.46l-20.05-9.88a25.24,25.24,0,0,1-8-39.09l18.95-23.82,4.69-.9,56.25,27,37.47-45.15v38.92h31.24L581.3,949.42H683.62a11.65,11.65,0,0,0,0-23.3Z"/><path class="cls-8" d="M579.49,275.8c14.72,64.47,21.64,160.25,24.83,247-3.22-86.68-10.17-182.25-24.83-246.61-7.39-32.16-17.86-47.43-30.17-53.52,1.13.46,2.29,1,3.45,1.57a.78.78,0,0,0,.2.11C563.72,231.58,572.85,246.82,579.49,275.8Z"/><path class="cls-8" d="M606.64,625.36c-.52-.69-1-1.19-1-1.19a27,27,0,0,0,.93-3.62C606.64,622.17,606.64,623.77,606.64,625.36Z"/><path d="M583.28,174a20.31,20.31,0,0,1-13.37,19.09,19.61,19.61,0,0,1-6.92,1.23,17.65,17.65,0,0,1-3.65-.36,20.29,20.29,0,0,1-4.09-35,20,20,0,0,1,12.08-4,17.65,17.65,0,0,1,3.65.36A20.29,20.29,0,0,1,583.28,174Z"/><path class="cls-5" d="M606.84,652.31c0-1.33,0-2.69-.06-4.06C612.84,647.44,606.84,651,606.84,652.31Z"/><path class="cls-8" d="M657.35,673.38c-2.26-18.14-4-36.4-5.62-54.66v0c-1.39-15.71-2.78-31.42-4.49-47.09-8.52-78.74-18.06-157.53-30.72-235.71-6-37-17.07-75.4-46.92-100.5a88.47,88.47,0,0,0-16.63-11c10.75,7.22,19.88,22.46,26.52,51.44,9.65,42.31,16,98.09,20,156-4.14-57.76-10.43-113.37-20-155.59-7.39-32.16-17.86-47.43-30.17-53.52,1.13.46,2.29,1,3.45,1.57a30.5,30.5,0,0,0-3.42-2l-.18-.08a.14.14,0,0,0-.11,0,43.49,43.49,0,0,0-11-3.07H538a33.81,33.81,0,0,0-9.74,0c.9,0,1.83,0,2.76,0,44.91,2.34,44.22,43.09,46.16,128.22,1.36,60.05,18.8,176.25,29,239.45-.06-1.94-.09-3.88-.15-5.85.9,5.85,1.45,11.07,1.71,15.67,3.39,20.72,5.62,33.71,5.62,33.71l-30-.41,3.65,16.6h14a1.57,1.57,0,0,1,.32,0,5.68,5.68,0,0,1,4,1.62c.61-.12,1.16-.2,1.62-.26,0,1.5,0,3,0,4.49v3.53c.06,31.71-.23,58.34-.38,67.47a4.44,4.44,0,0,1-4.46,4.37H485.54a4.45,4.45,0,0,1-4.44-4.46V716h-2.52v-63.2A6,6,0,0,1,481.1,648V374.09c-.08,1.36-.17,2.73-.26,4.06A750,750,0,0,1,460.12,507c-14.63,57.34-38.07,112.34-49.81,170.36-4,19.59-5.56,42.74,8.69,56.8,9.39,9.3,23.33,12,36.43,13.73a563.42,563.42,0,0,0,177.72-4.35h0c5.1-.95,10.41-2,14.58-5.18C667,723.94,659.84,693.37,657.35,673.38Zm-97.63-26.87-28.92-1.1L528,627.85h.79c-38-119-46-311.86-46-311.86-.6-11.21.41-40.71,9.25-64.24-.55,1.15-1.07,2.34-1.59,3.56a75.65,75.65,0,0,0-2.9,7.8,129.5,129.5,0,0,0-5.39,27.64c-.58,6.09-.9,12.26-1,18.52v20.51c.24,15.13.73,30.11,0,43.91v273.9a5.9,5.9,0,0,1,3.39-1.08Z"/><path class="cls-8" d="M579.49,275.8c14.72,64.47,21.64,160.25,24.83,247-3.22-86.68-10.17-182.25-24.83-246.61-7.39-32.16-17.86-47.43-30.17-53.52,1.13.46,2.29,1,3.45,1.57a.78.78,0,0,0,.2.11C563.72,231.58,572.85,246.82,579.49,275.8Z"/><path class="cls-8" d="M606.64,625.36c-.52-.69-1-1.19-1-1.19a27,27,0,0,0,.93-3.62C606.64,622.17,606.64,623.77,606.64,625.36Z"/><path class="cls-5" d="M690.41,702.07H678.67l-26.95-83.35v0c-1.39-15.71-2.78-31.42-4.49-47.09-8.52-78.74-18.05-157.53-30.72-235.71-6-37-17.06-75.4-46.91-100.5a88.22,88.22,0,0,0-16.64-11s5.11-.23,13.8,4c31.56,15.22,95.92,88.7,150.08,443A26.75,26.75,0,0,1,690.41,702.07Z"/><path class="cls-5" d="M693.92,937.54a11.66,11.66,0,0,1-11.68,11.65H581.48L599,861.33h45l-8.52,33a25.27,25.27,0,0,0,24.46,31.55h22.37a11.68,11.68,0,0,1,11.68,11.65Z"/><path class="cls-5" d="M483.36,924.7a11.34,11.34,0,0,1-1.22,5.16,11.6,11.6,0,0,1-15.59,5.31l-90.38-44.54,54-70.39,40.59,19.5-22,25.53a25.24,25.24,0,0,0,8,39.09l20,9.91A11.66,11.66,0,0,1,483.36,924.7Z"/><path class="cls-4" d="M479.15,714.48s1.93,3,1.93,8.77S499,728,501.37,728l92.25-.24s13,3.35,13-9.66,4-66.94-1.47-69.57-39.32-.53-39.32-.53l-76.55-1.1s-11.29-7-10.72,14.69S479.15,714.48,479.15,714.48Z"/><path class="cls-5" d="M611.3,115.58a21.09,21.09,0,0,1-3.62,8,28.4,28.4,0,0,1-11.33,8.84c-10.32,4.78-23.65,5.51-33,3.3a39,39,0,0,0-7.62-1.12c-3,0-5.85.55-8.05,2.57-6.61,6.09-3.1,13.94,2.11,19.91A20.94,20.94,0,0,0,541.26,174a13.47,13.47,0,0,1-3.39,5.39c-.87,0-3,3.07-3.74,3-6.08-1.07-8.54,1.94-10.54-3a119,119,0,0,1-7.73-33.13c-1.29-13.11-1.8-27.86,4-40A49,49,0,0,1,538,86.52a67.57,67.57,0,0,1,25.52-10,69.79,69.79,0,0,1,18.63,3.92C596.87,85.67,615.24,97.32,611.3,115.58Z"/><path class="cls-5" d="M528.48,75.59a25.39,25.39,0,0,1-4.69,14.75,47.71,47.71,0,0,0-3.85,4.32,24.19,24.19,0,0,1-4.67,3.3,25.57,25.57,0,0,1-16.34-47.64,26.23,26.23,0,0,1,4-.32A25.59,25.59,0,0,1,528.48,75.59Z"/><path class="cls-9" d="M487.49,263.5c-11.21,34.88-4,79.1-6.65,114.64A749.49,749.49,0,0,1,460.11,507C445.48,564.33,422,619.32,410.3,677.34c-4,19.61-5.56,42.76,8.68,56.82,9.41,9.29,23.34,12,36.44,13.73a563,563,0,0,0,177.75-4.37c5.12-.95,10.42-2.06,14.59-5.18,19.23-14.39,12.08-45,9.57-65-4.23-33.78-6.44-67.91-10.1-101.77-8.52-78.73-18.05-157.54-30.72-235.72-6-37-17.07-75.39-46.92-100.48a88.11,88.11,0,0,0-16.64-11c-27.7-14.15-50,1.77-62.56,31.35C489.31,258.25,488.35,260.85,487.49,263.5Z"/><path class="cls-9" d="M482.11,291.15c-.45,5.37,10.16,181.65,31.82,277.43q7.65,33.92,13.39,60.66c31-.32,86.54,1.08,86.54,1.08s-37.72-224.8-36.65-305.69"/><polyline class="cls-9" points="481.08 309.67 481.08 329.78 481.08 374.75 481.08 648"/><path class="cls-9" d="M606.82,652.33c.1,33.25-.23,61.53-.38,71A4.42,4.42,0,0,1,602,727.7H485.53a4.46,4.46,0,0,1-4.45-4.45V716"/><path class="cls-9" d="M537.94,219.48a32.38,32.38,0,0,1,11.12,3.07s.05,0,.07,0c12.39,6,22.94,21.29,30.33,53.61,22.86,100.21,27,276,27.36,376.12"/><path class="cls-9" d="M601.05,646.91H484.49a5.92,5.92,0,0,0-5.91,5.91V716h117l0-58.92"/><path class="cls-9" d="M595.53,657.12v-4.69a5.6,5.6,0,0,1,5.64-5.53,5.7,5.7,0,0,1,4,1.63,5.44,5.44,0,0,1,1.65,3.8"/><line class="cls-9" x1="606.84" y1="655.86" x2="595.53" y2="655.86"/><polyline class="cls-9" points="527.32 629.24 531 646.9 585.64 646.9 582.14 629.79"/><polyline class="cls-9" points="446.46 746.48 402.84 806.37 530.25 867.58 567.72 822.41"/><polyline class="cls-9" points="633.17 743.51 567.72 822.41 567.72 861.33 730.11 861.33 678.67 702.07 651.71 618.7"/><path class="cls-9" d="M600.52,861.32,583,949.2H683.81a11.66,11.66,0,0,0,11.65-11.66h0a11.66,11.66,0,0,0-11.65-11.66H661.42A25.24,25.24,0,0,1,637,894.34l8.51-33"/><path class="cls-9" d="M432.26,819.52l-54.54,71.1,90.38,44.56a11.67,11.67,0,0,0,15.62-5.31h0a11.66,11.66,0,0,0-5.31-15.61l-20.07-9.9a25.24,25.24,0,0,1-8-39.1l22.24-25.85"/><path class="cls-9" d="M553,224.36s94.81-5,163.88,446.95a26.72,26.72,0,0,1-26.42,30.74H678.66"/><path class="cls-9" d="M508.41,229.07c3.4-13.21,14-43.32,13.39-48.61-.8-6.87-5.22-11.4-7.69-17.62a109.75,109.75,0,0,1-5.45-18c-4.15-19.86,1.6-42.27,16.81-56.16,15.47-14.14,37.7-14.94,56.69-8.24,14.74,5.19,33.1,16.83,29.15,35.1-4.14,19.16-31.9,23.93-48,20.21-5-1.15-11.52-2.38-15.67,1.45-6.59,6.07-3.09,13.91,2.1,19.88"/><path class="cls-9" d="M580.44,184.52c.7.2,1.42.46,2.17.75,6.47,2.35,14.29,3.82,20.93,1.3,8.17-3.1,3.36-11.65,2.81-17.82-.18-1.45-1.54-10.55,1.27-10.57h6.2a2,2,0,0,0,1.77-3.11,58.24,58.24,0,0,1-7.88-31.49"/><circle class="cls-9" cx="562.28" cy="174" r="21"/><circle class="cls-9" cx="502.93" cy="75.59" r="25.58"/><line class="cls-9" x1="569.44" y1="193.72" x2="566.77" y2="228.33"/><path class="cls-9" d="M521.8,180.46s14.48,7.13,19.48-6.46"/><path class="cls-5" d="M515.39,127.11c0,1.83-.09,3.51-.18,5.1C515.24,130.5,515.27,128.82,515.39,127.11Z"/><line class="cls-9" x1="207.43" y1="949.19" x2="799.6" y2="949.19"/></svg>