<svg id="Layer_2" data-name="Layer 2" xmlns="http://www.w3.org/2000/svg" xmlns:xlink="http://www.w3.org/1999/xlink" viewBox="0 0 1000 1000"><defs><style>.cls-1,.cls-3,.cls-7{fill:none;}.cls-2{clip-path:url(#clip-path);}.cls-3{stroke:#ccdde2;}.cls-3,.cls-7{stroke-miterlimit:10;stroke-width:5.77px;}.cls-4{fill:#fff;}.cls-5{fill:#2e2e2e;}.cls-6{fill:#3fbdf1;}.cls-7{stroke:#000;}.cls-8{fill:#d7e8f0;}</style><clipPath id="clip-path"><path class="cls-1" d="M104.18,950S15.26,861.14,65.25,788.93,231.91,654.75,183.3,537.13s38.33-178.34,123.25-172.51S620.31,423,679.56,338s307.13,15.59,265.82,315.22S679.56,950,679.56,950Z"/></clipPath></defs><g class="cls-2"><polyline class="cls-3" points="151.36 406.32 151.36 519.85 158.4 519.85 945.38 519.85 952.47 519.85 952.47 406.32"/><path class="cls-3" d="M910.68,647.38c-9.5,15.08-21.54,28.25-37,37.46a86.75,86.75,0,0,1-29.5,10.91c-23.54,4.13-48.33-1.08-70.12-12a139,139,0,0,1-20.41-12.5,158,158,0,0,1-14.13-11.83c-2-1.91-3.95-3.87-5.83-5.91a114.46,114.46,0,0,1-14.25-18.88,92.88,92.88,0,0,1-11.87-30.16M945.38,950V519.85h-787V948.07L416,949.32l17.79.08,114,.58M158.4,1093.6h1.79l-1.79-2.17Z"/><path class="cls-3" d="M158.4,519.84S147.19,695,306.55,699.59"/><path class="cls-3" d="M707.57,604.47a92.88,92.88,0,0,0,11.87,30.16,114.46,114.46,0,0,0,14.25,18.88c1.88,2,3.83,4,5.83,5.91a158,158,0,0,0,14.13,11.83,139,139,0,0,0,20.41,12.5c21.79,10.92,46.58,16.13,70.12,12a86.75,86.75,0,0,0,29.5-10.91c15.46-9.21,27.5-22.38,37-37.46,11.33-18,19-38.75,24.54-58.58,5.83-21.12,10.16-42.79,10.16-64.78"/><path class="cls-3" d="M112.63,406.32H990.31a8.44,8.44,0,0,0,6-14.4l-85.81-85.81H181.56l-75.28,86.23A8.43,8.43,0,0,0,112.63,406.32Z"/><path class="cls-3" d="M811,826.08c3.9-4.22,8.43-8.13,11.56-12.79,8.77-13.14,5.4-29.91,11-44.31,6.85-17.59,28.41-29.86,49.58-28.25a167.53,167.53,0,0,0-4.1,25.51c-.62,7.7.88,16.27-.77,23.73-2.7,12-17.08,19.28-18.83,31.6-1.55,10.89,8,21.07,6.4,32.15-1.67,11.89-15.33,18.46-20.35,29-4.1,8.55-2.18,18.33-4.3,27.43-2.58,11-11.5,20.68-23.2,25.24-.38.16-.78.32-1.16.45-3.55-3.69-7.6-10.18-10.92-17.2"/><path class="cls-3" d="M870.19,754.54c-31.58,43.09-46.43,134-52.21,180.84h0q-.72,5.94-1.27,10.84"/><path class="cls-3" d="M738.4,950a9.69,9.69,0,0,1,7.71-3.74H877.06a9.8,9.8,0,0,1,7.75,3.74"/><path class="cls-3" d="M797.34,933.88c5.62-7.08,12.51-22.84,15.55-35.72,2.52-10.61-1.91-21.54-2.92-32.43-1.58-17.05,5.09-35.39-1.94-50.83-3.93-8.62-11.57-14.75-16.15-23-8.44-15.2-5.2-34.64-10.59-51.32-6.6-20.38-27.3-34.6-47.64-32.72a229,229,0,0,1,3.94,29.54c.6,8.91-.85,18.84.75,27.49,2.58,13.92,16.39,22.35,18.08,36.62,1.49,12.6-7.65,24.41-6.15,37.24,1.62,13.78,14.72,21.38,19.56,33.58,3.93,9.91,2.08,21.26,4.13,31.78C776.51,917.24,785.57,928.79,797.34,933.88Z"/><path class="cls-3" d="M746.07,723.82c30.31,49.92,44.58,155.17,50.15,209.51.48,4.71.91,9,1.24,12.89"/><path class="cls-3" d="M791.88,791.89s2.09-43.38,19.58-56.57,17.11,60.77,17.11,60.77"/><path class="cls-3" d="M811,826.08s-3.57-24.82,2.7-49.22"/><line class="cls-3" x1="774.06" y1="796.66" x2="773.52" y2="796.66"/><polyline class="cls-3" points="910.68 647.38 910.68 722.21 910.68 796.66 875.43 796.66"/><polyline class="cls-3" points="707.57 604.47 707.57 634.63 707.57 722.21 707.57 796.66 755.36 796.66"/><polyline class="cls-3" points="844.18 754.04 844.18 722.21 844.18 695.75"/><polyline class="cls-3" points="774.06 683.75 774.06 722.21 774.06 726.79"/><polyline class="cls-3" points="736.07 722.21 707.57 722.21 707.57 634.63 719.44 634.63"/><polyline class="cls-3" points="910.68 647.38 910.68 722.21 844.18 722.21 774.06 722.21 770.11 722.21"/><polyline class="cls-3" points="193.27 645.76 193.27 722.21 193.27 796.66 259.73 796.66 329.89 796.66 396.38 796.66 396.38 722.21 396.38 634.63 396.38 560.22 329.89 560.22"/><polyline class="cls-3" points="329.89 560.22 329.89 634.63 329.89 722.21 329.89 796.66 259.73 796.66 259.73 722.21 259.73 692.25 259.73 634.63"/><polyline class="cls-3" points="259.73 634.63 329.89 634.63 396.38 634.63 396.38 722.21 329.89 722.21 259.73 722.21 193.27 722.21 193.27 645.76"/><polygon class="cls-3" points="679.57 653.17 679.57 949.99 547.75 949.99 433.75 949.4 415.96 949.32 415.96 653.17 679.57 653.17"/><polygon class="cls-3" points="661.74 678.05 661.74 949.99 547.75 949.99 433.75 949.4 433.75 678.05 661.74 678.05"/></g><path class="cls-3" d="M104.18,950S15.26,861.14,65.25,788.93,231.91,654.75,183.3,537.13s38.33-178.34,123.25-172.51S620.31,423,679.56,338s307.13,15.59,265.82,315.22S679.56,950,679.56,950Z"/><path class="cls-4" d="M716,440.19s0-.09,0-.09c-.79-2-20.25-49.12-79.83-77.82-.58-.29-1.12-.59-1.7-.84a193.85,193.85,0,0,0-94.16-20.91h-.38A176.15,176.15,0,0,0,516.33,343h-.08c-3.92.62-7.75,1.41-11.58,2.33a3.7,3.7,0,0,1-3.84-1.42l-15.54-21.71-1.16-1.62a2.1,2.1,0,0,1-.25-.5c-.84-2.54.5-10.46.5-12.5,0-7.92-1.42-21.83-6.84-32.5v0c.34-.58,2.75-5.21.92-13.41-.08-.38-.17-.8-.29-1.21a34,34,0,0,0-1.84-5.38c-.16-.46-.37-.91-.58-1.41a56.1,56.1,0,0,0-3.54-6.38c-.33-.58-.71-1.12-1.08-1.71s-.79-1.16-1.25-1.75c-.8-1.16-1.75-2.41-2.75-3.66-.75-.92-1.55-1.84-2.34-2.67a14.73,14.73,0,0,0-1.58-1.58,24.6,24.6,0,0,0-2.21-2,20.76,20.76,0,0,0-1.87-1.55,4.4,4.4,0,0,0-.71-.5,17.77,17.77,0,0,0-2-1.5c-.71-.5-1.42-1-2.13-1.37l-.37-.25c-.67-.42-1.38-.79-2.09-1.17a11.89,11.89,0,0,0-1.58-.83c-.54-.33-1.12-.58-1.71-.87l-1.12-.5c-.71-.34-1.42-.63-2.17-.92a3.2,3.2,0,0,0-.71-.29,27.36,27.36,0,0,0-2.71-1,82.56,82.56,0,0,0-22.12-4.17,74,74,0,0,0-18.87,1.29c-.63.13-1.21.25-1.75.42s-1.34.29-2,.5c-28.67,8-42.5,41.37-37.79,69.12-10.87-3.71-22.58-6-33.91-3.79-33,6.58-50.29,51.58-60.25,80-38.75,110.87,13.21,191.49,18.12,198.74a69.4,69.4,0,0,0-27.49,4.91c-28.84,11.92-39.79,40.83-38.09,74,0,0-1.29,105.53,57.46,276.61H226a13.6,13.6,0,0,0-.09,27.2l16.84.13.12-.13L366.3,948l-5-27.33L327.76,735.63,442,796.25a35.8,35.8,0,0,1,19.33,23.62V820a30.74,30.74,0,0,1,.92,5.17l12,122.87h144c12.12-73.46,22-140.83,24.29-178a50,50,0,0,1,17.12-34.21c39.79-34.91,82.83-90.24,89.83-138.82C756.48,548.22,742.44,486.93,716,440.19ZM428,391.82s-80.78,82.12-90.28,50.33S345,389.52,345,389.52s50.08-26.24,78.87-24.16c5.25.38,8.71,1.5,10.87,3.08l3,6.75c-.25,3.46-2.29,7.21-4.45,10.25A54.42,54.42,0,0,1,428,391.82Z"/><path class="cls-5" d="M437.39,529.2c4.49-57.18-55-87.06-55-87.06l54.09-59.61c-4.58,9.23,14,24.45,32.36,25.84s41.32-19.79,46.18-36.8,1.86-26.68,1.86-26.68l23.82-2.39c138.52,3.91,175.92,99.64,175.92,99.64-80.32-27.68-95,41.93-95,41.93,14.25,22.13,20.91,56.43,20.91,56.43,13.33,58.18-42.19,137-42.19,137C571.5,647.72,425.07,629,421.85,633.8,421.85,633.8,447.12,597.94,437.39,529.2Z"/><path class="cls-6" d="M478.15,277c-3.92-9.7-13.8-16.83-21-20.95a68,68,0,0,0-8.5-4.21c-1.08,18.71-24.7,29.29-36.78,33.45-4.21,1.46-7,2.17-7,2.17s-1.25-1.37-3.42-3.58c-3-3-7.67-7.63-13.08-12.42.37.88,6.21,14.92,6.58,30a51.22,51.22,0,0,1-.08,5.67l-20.52-.38c2-8.58-5.35-14.58-5.35-14.58-4.71-27.75,9.12-61.16,37.78-69.12.67-.21,1.34-.33,2-.5a62.1,62.1,0,0,1,11.54-1.71h.05c16.08.84,35.45,6.34,47.41,21.21,8,10,11,18,11.75,23.79C480.48,273.13,478.15,277,478.15,277Z"/><path class="cls-6" d="M275.7,922.67h86.24l5,27.33-140.42-.14s-25.45-13.9.11-27.19Z"/><path class="cls-7" d="M359.86,292.17c-4.71-27.75,9.13-61.16,37.79-69.12.67-.21,1.33-.33,2-.5s1.13-.29,1.75-.42"/><path class="cls-7" d="M399.65,222.55c15.12-4,50-3,68.08,19.5S478.14,277,478.14,277c-6.5-16.16-29.52-25.19-29.52-25.19-1.46,25.2-43.8,35.63-43.8,35.63s-7.21-7.75-16.5-16l0,0,0,0c.37.88,6.21,14.92,6.58,30a53.78,53.78,0,0,1-.08,5.67"/><path class="cls-7" d="M591.55,442.14c30.22,34.4,54.09,78.34,53.1,125.26-1,50.26-34.06,90.16-57.27,132.26"/><path class="cls-7" d="M587.38,670.37S569.59,717,643.57,762.56"/><path class="cls-7" d="M472.73,269.13c10,10.42,12.25,30.29,12.25,40.37,0,2.21-1.54,11.25-.25,13h0l16.69,23.31a3.65,3.65,0,0,0,3.84,1.42C571.72,331.42,647.2,354.5,694.38,410c40.25,47.25,64.49,128,55.66,189-7,48.58-50,103.91-89.82,138.83A49.9,49.9,0,0,0,643.09,772c-2.33,37.17-12.16,104.54-24.29,178"/><path class="cls-7" d="M518.86,345.12s-4.22,54.4-38.59,60.65-47.12-20.15-47.12-20.15c-1.21,1-2.38,2-3.54,3.09a406.26,406.26,0,0,0-53.92,59,390.09,390.09,0,0,0-24.12,36.37"/><path class="cls-7" d="M366.9,950,328.36,737.6l114.2,60.62a35.85,35.85,0,0,1,20.25,28.91l12,122.87"/><path class="cls-7" d="M243.31,950l-16.83-.14a13.6,13.6,0,0,1,.11-27.19H275.7C217,751.6,218.25,646.06,218.25,646.06c-1.71-33.2,9.25-62.12,38.08-74,23.89-9.88,52.46-3.41,75.3,6.36,19,8.13,36.76,18.81,53.86,30.36,8.39,5.67,16.64,11.55,24.86,17.46,2.19,1.57,8.76,8.14,11.5,7.59,0,0,24-40.42,16.72-95.17"/><path class="cls-7" d="M448.94,517.46C440.51,538.29,399,594.82,376.77,603"/><path class="cls-7" d="M369.86,529.2l-18.29-45.13c-9.46-20.79-17.21-44.12-15.12-67.28.87-9.5,3.29-19.17,8.58-27.25,4.29-6.63,11.17-10.33,17.75-14.25,3.33-2,8.37-5,8.87-9.21.88-7.54-10.16-10.21-15.62-10.08-7.88.12-13.92,4-21.79,1.75a19,19,0,0,1-14-15.33c-.74-4.66-.11-9.41.63-14.06,1.16-7.22,3-17.65,10.75-20.69a3.44,3.44,0,0,1,.87-.33.27.27,0,0,1,.17,0,.83.83,0,0,1,.46-.09,25.81,25.81,0,0,1,9.33-.08"/><path class="cls-7" d="M284.2,567.65s-59.12-83-18.5-199.28C275.66,340,293,295,326,288.38c12.87-2.54,26.29.79,38.33,5.42,3.66,1.41,10.41,4.83,10,9.58a5.69,5.69,0,0,1-2.13,3.75"/><line class="cls-7" x1="79.6" y1="950" x2="679.56" y2="950"/><rect class="cls-8" x="328.98" y="307.11" width="86.97" height="47.79" rx="4.55"/><rect class="cls-7" x="328.98" y="307.11" width="86.97" height="47.79" rx="4.55"/><path class="cls-7" d="M484.33,316.32s-.08,1.42-.45,3.71c-1.21,7.83-5.55,25.87-20.29,32.83-14.09,6.63-28.54,3.46-35.17,1.38l6.33,14.2,3,6.75.13.25a6.28,6.28,0,0,1-1.42,7.09l-3.16,2.91-.17.17"/><circle class="cls-7" cx="454.93" cy="285.7" r="18.47"/><path class="cls-7" d="M391.94,307.13a19.55,19.55,0,0,1,3-5.67,18.47,18.47,0,1,1,21,28.58"/><path class="cls-7" d="M425.14,302.86s2.46-9.44,13.43-8.6"/><circle cx="452.15" cy="294.05" r="5.61"/><path class="cls-7" d="M432,336.25s10,4.15,16.61-.53"/><circle cx="401.37" cy="322.18" r="4.6"/><path class="cls-7" d="M462.81,827.13c-1.27-6.57-10.31-61.33-7.88-89.53"/><path class="cls-1" d="M565.86,323.17s-.07.21-.17.63"/><circle class="cls-6" cx="821.91" cy="527.39" r="53.01"/><path class="cls-4" d="M801.79,512.85a18.4,18.4,0,0,1,2.14-5.18,13.37,13.37,0,0,1,16.8-5.49,13.73,13.73,0,0,1,7.89,9.37,13.71,13.71,0,0,1,18.87,18.36c-2.93,5.51-8.75,9.79-14.2,12.63a47.23,47.23,0,0,1-8.95,3.54c-1.57.45-10.47,3.22-11.55,2C805.67,540.12,798.88,524.5,801.79,512.85Z"/><circle class="cls-6" cx="252.48" cy="755.65" r="99.72"/><path class="cls-4" d="M214.62,728.28a34.39,34.39,0,0,1,4-9.73c6.67-10.88,19.85-15.42,31.61-10.33a25.84,25.84,0,0,1,14.84,17.63,25.78,25.78,0,0,1,35.5,34.53c-5.51,10.38-16.45,18.43-26.72,23.77a89.33,89.33,0,0,1-16.83,6.66c-3,.84-19.7,6.05-21.73,3.77C221.92,779.59,209.14,750.21,214.62,728.28Z"/><circle class="cls-6" cx="569.63" cy="278.91" r="31.71"/><path class="cls-4" d="M557.59,270.21a10.8,10.8,0,0,1,1.28-3.1,8,8,0,0,1,10-3.28,8.2,8.2,0,0,1,4.72,5.6,8.2,8.2,0,0,1,11.29,11c-1.75,3.3-5.23,5.86-8.5,7.56a28.38,28.38,0,0,1-5.35,2.12c-.94.27-6.27,1.92-6.91,1.2C559.91,286.52,555.85,277.18,557.59,270.21Z"/></svg>