<svg id="Layer_2" data-name="Layer 2" xmlns="http://www.w3.org/2000/svg" viewBox="0 0 1000 1000"><defs><style>.cls-1,.cls-4,.cls-5,.cls-6{fill:none;}.cls-1{stroke:#ccdde2;stroke-miterlimit:10;}.cls-1,.cls-4,.cls-6{stroke-width:4.13px;}.cls-2{fill:#2e2e2e;}.cls-3{fill:#3fbdf1;}.cls-4,.cls-6{stroke:#000;stroke-linejoin:round;}.cls-6{stroke-linecap:round;}</style></defs><line class="cls-1" x1="377.52" y1="630.04" x2="377.52" y2="782.72"/><path class="cls-1" d="M249.8,558.42c-5.23-8.53-32.18-46.14-37-54.93a457,457,0,0,1-25.25-54.75,305.76,305.76,0,0,1-19.09-86,294.37,294.37,0,0,1-.11-42.31,272.47,272.47,0,0,1,3.27-27.51C183.43,223.78,229,149.61,301.58,133.37c51.25-11.47,100.53,8.11,134.83,46.55C459,205.21,484.24,225.84,515,240.3a264.38,264.38,0,0,0,77.35,22.78c27.81,3.71,55.65,8.32,83.85,8.65"/><path class="cls-1" d="M872.65,773.14V586.55a5.39,5.39,0,0,0-5.37-5.42H681.7a12.61,12.61,0,0,0-12.63,12.63V704.68"/><polyline class="cls-1" points="872.65 773.14 872.65 678.23 669.11 678.23 669.11 704.68"/><line class="cls-1" x1="719.12" y1="777.01" x2="870.58" y2="777.01"/><circle class="cls-1" cx="770.87" cy="727.6" r="14.83"/><circle class="cls-1" cx="770.87" cy="632.8" r="14.83"/><circle class="cls-1" cx="770.87" cy="827.54" r="14.83"/><path class="cls-1" d="M681.69,581.12h208.5V560.49c-2.74-.66-238,0-238,0v20.63Z"/><path class="cls-1" d="M732,500l9.6,53.64a6.51,6.51,0,0,0,6.41,5.37H798.1a6.52,6.52,0,0,0,6.42-5.46L813.37,500Z"/><path class="cls-1" d="M722.85,494.06h0a6.51,6.51,0,0,0,6.49,6h86.49a6.51,6.51,0,0,0,6.48-5.89h0a6.51,6.51,0,0,0-6.48-7.13H729.34A6.51,6.51,0,0,0,722.85,494.06Z"/><path class="cls-1" d="M769.88,487c0-2.75-7-37-1.19-67.32,3.17-16.65,10.19-32.13,24.32-40.6"/><path class="cls-1" d="M768.69,419.7s-1.6-23.06-21.54-24.65"/><path class="cls-1" d="M766.57,454.88a31.24,31.24,0,0,0-19.42-5.6"/><path class="cls-1" d="M766.57,438.5s14.47-17.14,37.6-3.58"/><path class="cls-1" d="M776.76,431.61s32.6-29.79,39,10.49c0,0-9.18,6-22.73,0S776.76,431.61,776.76,431.61Z"/><path class="cls-1" d="M761.52,402.07s1.18-13.4-14.37-17.79-24.32,14-24.32,14S734.81,411.48,761.52,402.07Z"/><path class="cls-1" d="M757.92,449.26s.53-13.55-17.55-10.76-21,18.22-21,18.22,29.61,10.86,38.55-6"/><path class="cls-1" d="M779.7,391.63c0,1,13.59-1.22,14.46-1.47,6.58-2,11.26-6.52,14.33-12.56,1-1.87,6.43-12.36,4.88-14.19C813.37,363.41,781,353,779.7,391.63Z"/><path class="cls-1" d="M670.51,203.27H874.66a0,0,0,0,1,0,0V369.35A102.08,102.08,0,0,1,772.58,471.43h0A102.08,102.08,0,0,1,670.51,369.35V203.27A0,0,0,0,1,670.51,203.27Z" transform="translate(1545.17 674.69) rotate(180)"/><line class="cls-1" x1="756.69" y1="431.61" x2="756.77" y2="431.61"/><path class="cls-1" d="M811.2,431.61h33.14V314.87a71.77,71.77,0,0,0-71.77-71.77h0a71.76,71.76,0,0,0-71.76,71.77V431.61h64.55"/><path class="cls-1" d="M136.55,869.86a82.32,82.32,0,0,1-12.84-1,86.6,86.6,0,1,1,59.41-158.61"/><path class="cls-1" d="M205.75,731.26a0,0,0,0,1,0,0"/><path class="cls-1" d="M136.55,869.85H632.82A86.56,86.56,0,0,0,635,696.75c-.71-.06-1.48-.06-2.19-.06a86.59,86.59,0,0,0-86.61,86.61"/><path class="cls-1" d="M183.12,710.29A86.11,86.11,0,0,0,156.45,699"/><path class="cls-1" d="M136.55,696.7A140.55,140.55,0,0,1,153.28,630"/><path class="cls-1" d="M205.75,731.26a0,0,0,0,1,0,0"/><path class="cls-1" d="M175.85,599a140.47,140.47,0,0,1,73.93-40.64h0a141.47,141.47,0,0,1,27.75-2.73H492.11c79,0,143.15,59.63,143.15,133.15,0,2.67-.06,5.32-.25,7.94-.72-.06-1.49-.06-2.18-.06a86.55,86.55,0,0,0-86.61,86.61H223.16"/><line class="cls-1" x1="127.32" y1="869.85" x2="136.55" y2="869.85"/><path class="cls-1" d="M620,869.85H819.4a17.85,17.85,0,0,0,17.43-13.71c3.23-13.81,12-37.83,33.75-79.13.68-1.28,1.36-2.56,2.07-3.87,11.35-21.31,26.08-47,45.09-78.08,77.51-126.55-4-239.2-43.06-282.11"/><path class="cls-2" d="M242.65,211.78V392.2s11.15,10.91,38.91,12.4c12.15-25.09,28.19-65.73,30.32-109,15.5.87,52.87,8.62,74.53,61.32,12.63,30.71,35,42.34,55.62,45.88h.3a241.06,241.06,0,0,0,40-1.38.3.3,0,0,1,.14,0c23.3-2.65,52.76-9.18,77.17-24.82-38.83-77.12-118-159.69-281.06-194A29.79,29.79,0,0,0,242.65,211.78Z"/><path class="cls-3" d="M448,403.65c6.94,18.17,13.07,59.19,0,93.94l24.65,22,.06.06a.37.37,0,0,1,.11.11,3.34,3.34,0,0,1,.54.54c.1.1.24.24.35.37a1.42,1.42,0,0,1,.21.22,18.79,18.79,0,0,1,1.25,1.65c2.56,3.78,5.37,11-.49,20.52-2.94,4.78-6.13,9.37-9.07,14.82-4.3,7.89-8.13,17.55-10.18,32.08a159.68,159.68,0,0,0-1.46,18.93V609a35.61,35.61,0,0,1-.35,4.42c-5.46,78.61,20.2,184.37,31.08,224.85h32.48l19.52-227.19s64-28.76,61.24-80.71c-1.27-23.31-4.37-86.49-38.26-153.78-24.41,15.64-53.87,22.17-77.17,24.82a.3.3,0,0,0-.14,0,241.06,241.06,0,0,1-40,1.38h-.25C444.06,403.19,446,403.46,448,403.65Z"/><path class="cls-4" d="M470.68,548.08a87.37,87.37,0,0,0-5.1,9.83,137,137,0,0,0-9.21,31.89q-1.58,9.19-2.43,19.12V609c-.14,1.45-.24,2.94-.35,4.42-5.46,78.61,20.2,184.37,31.08,224.85,2.86,10.61,4.7,16.74,4.7,16.74H459.06a7.61,7.61,0,0,0-7.69,6.86,7.46,7.46,0,0,0,7.4,8h55.65l2.73-31.59,19.52-227.19s64-28.76,61.24-80.71c-1.27-23.31-4.37-86.49-38.26-153.78-38.83-77.12-118-159.69-281.06-194a29.8,29.8,0,0,0-35.94,29.14V413.55l-3.79,3.87a13.17,13.17,0,0,0-3.4,12.4l1.86,7.55L229.15,454A17.27,17.27,0,0,0,238,477.53l29.67-47.31a272.12,272.12,0,0,0,13.88-25.62c12.15-25.09,28.19-65.73,30.32-109a182.25,182.25,0,0,0-.59-26.81"/><path class="cls-4" d="M489.37,399.63a70.89,70.89,0,0,1-6.89,1.81.3.3,0,0,0-.14,0A109.75,109.75,0,0,1,448,403.65c-1.94-.19-3.91-.46-5.88-.81H442c-20.66-3.54-43-15.17-55.62-45.88-21.66-52.7-59-60.45-74.53-61.32"/><path class="cls-4" d="M448,497.59c13.07-34.75,6.94-75.77,0-93.94"/><path class="cls-3" d="M331.09,540v52a25.45,25.45,0,0,0,15.8,23.62c12.45,5.08,28.92,10.78,56.16,11.75v-37.1A21.18,21.18,0,0,1,381.18,586c-1.27-1.13-2.51-2.24-3.67-3.21-4.56-3.94-8.26-6.48-10.13-5.78-3.86,1.43-4.34,1.43-6.75-11.1-1.75-9-16.33-19-19.84-35.56a34.77,34.77,0,0,1-.6-10.47,45.3,45.3,0,0,1,3.05-12.53,62.73,62.73,0,0,1,9.62-16.61l-7.56,7.75c-.71.73-1.38,1.46-2,2.21C334,511.48,331.09,525.44,331.09,540Z"/><path class="cls-3" d="M340.44,528.3c.08.7.21,1.37.35,2,1.67-.1,6.48.57,12,3.76a0,0,0,0,1,0,0,35.43,35.43,0,0,1,10,8.64C367,548,387.2,570.88,404,589.81h0l6.21,7a9.42,9.42,0,0,0,14.43-.38l41.25-51.68a17.2,17.2,0,0,0-2-23.49L426.65,488l-1.53-1.26c-.72-.54-1.44-1.06-2.17-1.55C399.71,470.49,376.83,472,360,483.37l-7.15,7.34a62.73,62.73,0,0,0-9.62,16.61C340.09,515.34,339.52,522.25,340.44,528.3Z"/><path class="cls-3" d="M352.86,490.71l7.15-7.34.41-.41a.57.57,0,0,0-.16.11c-.22.19-.46.41-.68.59a55.39,55.39,0,0,0-6.53,6.81C353,490.55,352.91,490.63,352.86,490.71Z"/><path class="cls-5" d="M403.05,590.24c.33-.14.62-.27.92-.43"/><path class="cls-3" d="M355.2,487a.76.76,0,0,0-.16.11,56.73,56.73,0,0,0-7.21,7.4c-.05.08-.13.16-.19.24Z"/><path class="cls-5" d="M397.84,594.29a9.65,9.65,0,0,0,.92-.43"/><path class="cls-6" d="M421.52,609.6c-4.4-4.94-10.69-12-17.52-19.79h0c-16.77-18.93-37-41.83-41.18-47.07-8.69-10.8-19.33-12.58-22-12.42"/><path class="cls-6" d="M404,589.83h0c-.3.16-.6.29-.92.43h0a20.33,20.33,0,0,1-15.07-.08A22.27,22.27,0,0,1,381.2,586c-1.27-1.13-2.51-2.24-3.68-3.21v0l-.4-.32c-.38-.32-.73-.65-1.08-.92s-1-.75-1.41-1.13-.91-.71-1.35-1c-.24-.16-.48-.35-.7-.52s-.48-.29-.7-.43l-.46-.29a7.55,7.55,0,0,0-1-.54c-.22-.11-.43-.22-.62-.3h0l-.62-.22a3.9,3.9,0,0,0-.57-.13,2,2,0,0,0-1.21,0c-1.35.51-2.3.84-3,.49s-1.22-1.14-1.78-2.92-1.14-4.56-1.92-8.67a12,12,0,0,0-.81-2.56c-2.11-4.92-7.21-10.26-11.72-16.88-.51-.75-1-1.54-1.51-2.35l0,0c-.73-1.19-1.46-2.46-2.13-3.76l0,0c-.65-1.3-1.27-2.65-1.84-4-.19-.49-.35-1-.54-1.46a41.08,41.08,0,0,1-1.24-4.46v0c-.08-.36-.16-.68-.21-1.06v-.08a2.8,2.8,0,0,1-.11-.59c0-.08,0-.16,0-.27s-.08-.46-.11-.7-.11-.79-.13-1.19c0-.22,0-.43-.06-.68v-.08c0-.35,0-.73-.08-1.11v-.29c0-.38,0-.73,0-1.11v-.3c0-.51,0-1.05.05-1.59,0-.22,0-.46,0-.7,0-.06,0-.08,0-.14a3.55,3.55,0,0,1,.06-.56,11.85,11.85,0,0,1,.16-1.46c0-.24,0-.49.08-.76a6.68,6.68,0,0,1,.14-.73c0-.24.08-.51.1-.78s.11-.49.17-.76a31.49,31.49,0,0,1,.75-3.13c.06-.21.11-.46.19-.67s.19-.62.3-.92c.32-1.08.73-2.19,1.16-3.32a62.7,62.7,0,0,1,9.61-16.61c.06-.08.14-.16.19-.24l.05-.06c.73-.89,1.49-1.78,2.27-2.64s1.65-1.7,2.49-2.51c.51-.52,1.05-1,1.59-1.46.27-.27.54-.49.81-.73a.76.76,0,0,1,.16-.11c18.42-15.63,46.07-18.44,73.55,2.19.49.38,1,.78,1.44,1.19l5.07,4.53,7.48,6.7,24.65,22,.06.06a.29.29,0,0,1,.11.11,3.44,3.44,0,0,1,.54.54c.1.1.24.24.35.37a1.42,1.42,0,0,1,.21.22,17.14,17.14,0,0,1,.76,22.17l-4,5L437.36,589.8l-15.82,19.82"/><path class="cls-6" d="M365,545.88a9.72,9.72,0,0,0-7.43,2.82"/><ellipse cx="367.5" cy="553.03" rx="2.53" ry="4.04" transform="translate(-271.52 372.61) rotate(-40.63)"/><path class="cls-6" d="M360.42,483l-7.56,7.75-7.56,7.75c-10.83,11.1-14.21,26-14.21,41.5V598.5a25.47,25.47,0,0,0,15.8,23.63c12.45,5.08,28.92,10.77,56.16,11.74V590.24"/><path class="cls-6" d="M377.52,582.75s6.07,2,7.87-6.06"/><path class="cls-4" d="M456.38,589.81s-6,1.41-19,0"/><path class="cls-4" d="M536.67,611.1s3.58-25.83,13.48-41.14"/><path class="cls-1" d="M223.7,678.84c3.74-3,8.09-5.83,11.09-9.18,8.43-9.43,5.19-21.47,10.59-31.81,6.58-12.62,27.28-21.43,47.62-20.27a91.83,91.83,0,0,0-3.94,18.31c-.6,5.52.84,11.68-.74,17-2.6,8.62-16.41,13.84-18.09,22.68-1.48,7.82,7.66,15.13,6.15,23.08-1.61,8.54-14.72,13.25-19.55,20.8-3.93,6.14-2.08,13.16-4.13,19.69-2.47,7.88-11,14.84-22.28,18.12l-1.1.32c-3.41-2.65-7.3-7.31-10.5-12.34"/><path class="cls-1" d="M280.58,627.49c-30.33,30.93-44.59,96.16-50.14,129.8h0c-.46,2.84-.87,5.44-1.22,7.78"/><path class="cls-1" d="M283.37,784l-13.95,78a9.48,9.48,0,0,1-9.32,7.81H187.18a9.46,9.46,0,0,1-9.34-7.93L165,784Z"/><path class="cls-1" d="M296.63,775.32h0a9.48,9.48,0,0,1-9.44,8.71H161.39a9.46,9.46,0,0,1-9.42-8.57h0a9.47,9.47,0,0,1,9.42-10.38h125.8A9.48,9.48,0,0,1,296.63,775.32Z"/><path class="cls-1" d="M210.61,756.22c5.4-5.08,12-16.4,14.94-25.64,2.41-7.62-1.83-15.46-2.81-23.28-1.52-12.24,4.9-25.4-1.86-36.49-3.77-6.18-11.11-10.58-15.51-16.51-8.1-10.91-5-24.87-10.17-36.83C188.86,602.83,169,592.63,149.44,594a125.55,125.55,0,0,1,3.79,21.2c.58,6.4-.82,13.53.72,19.73,2.48,10,15.74,16,17.36,26.29,1.44,9-7.34,17.52-5.9,26.73,1.55,9.89,14.13,15.35,18.78,24.1,3.78,7.11,2,15.26,4,22.81C190.61,744.28,199.31,752.56,210.61,756.22Z"/><path class="cls-1" d="M161.37,605.44c29.12,35.83,42.82,111.38,48.17,150.38.45,3.38.87,6.48,1.19,9.25"/><path class="cls-1" d="M205.37,654.3s2-31.14,18.8-40.6,16.44,43.61,16.44,43.61"/><path class="cls-1" d="M223.7,678.84s-3.44-17.81,2.58-35.33"/><circle class="cls-1" cx="633.53" cy="783.31" r="49.41"/><path class="cls-1" d="M170.72,819a49.4,49.4,0,1,1,11.74-53.88"/></svg>