<svg id="Layer_2" data-name="Layer 2" xmlns="http://www.w3.org/2000/svg" xmlns:xlink="http://www.w3.org/1999/xlink" viewBox="0 0 1000 1000"><defs><style>.cls-1,.cls-11,.cls-12,.cls-14,.cls-3,.cls-4,.cls-5,.cls-6,.cls-7,.cls-8,.cls-9{fill:none;}.cls-2{clip-path:url(#clip-path);}.cls-11,.cls-12,.cls-3,.cls-4,.cls-5,.cls-6,.cls-7,.cls-8,.cls-9{stroke:#ccdde2;}.cls-11,.cls-12,.cls-14,.cls-3,.cls-4,.cls-5,.cls-6,.cls-7,.cls-8,.cls-9{stroke-miterlimit:10;}.cls-3,.cls-4,.cls-5,.cls-6,.cls-7,.cls-8,.cls-9{stroke-width:3.69px;}.cls-4{stroke-dasharray:25.64 27.97 27.97 25.64;}.cls-5{stroke-dasharray:27.97 27.97 25.64 27.97 27.97 25.64;}.cls-6{stroke-dasharray:27.14 29.61 29.61 27.14;}.cls-7{stroke-dasharray:29.61 29.61 27.14 29.61 29.61 27.14;}.cls-8{stroke-dasharray:28.96 31.6 31.6 28.96;}.cls-9{stroke-dasharray:27.41 29.9 29.9 27.41;}.cls-10{fill:#3fbdf1;}.cls-11,.cls-12,.cls-14{stroke-width:4.82px;}.cls-12{opacity:0.9;}.cls-13{fill:#fff;}.cls-14{stroke:#000;}.cls-15{fill:#2e2e2e;}</style><clipPath id="clip-path"><path class="cls-1" d="M-281.84,949.46s88.32,11.09,102.81-67.24c6.61-35.74-.46-73.16-25.53-100.39a114.33,114.33,0,0,0-37.6-26.72c-13.68-6.09-37.26-5.91-47.28-17.24-20.75-23.47,3-53.43,17.86-71.77A329.7,329.7,0,0,0-224,586.37c34.37-81.75,27.46-166.24,13.86-251.69C-229.94,210.33-309,116.37-426.9,73.21c-1.29-.47-2.73-.93-4-.4-2.12.89-2.29,3.8-2,6.09,4.15,35.73,26,72.55,41,104.75,6,13,12.87,25.79,18.23,39.06.46,1.16,6.6,14.65,2.87,9.16-16.12-23.74-18.37-55.25-9.8-82.25.18-.58.39-1.15.58-1.73,0,0-234.53-97.5-298.84-7.38a251.63,251.63,0,0,0-43,105.22c-5.89,36-9.35,74.44,5.49,108.54,9.38,21.57,22.37,41.53,30.35,63.66,15.87,44,10.77,96.28-16.86,134.45-25.94,35.83-66.83,56.64-96.27,89.09C-834.81,680.73-854.55,734-853.25,787c1,39.13,13.78,74.16,39.54,103.81,18.73,21.55,40.75,45.57,69.42,53.1,17.49,4.6,36.27,3.79,54.18,5"/></clipPath></defs><g class="cls-2"><line class="cls-3" x1="62.72" y1="227.22" x2="57.74" y2="241.09"/><line class="cls-4" x1="48.28" y1="267.41" x2="16.36" y2="356.25"/><line class="cls-5" x1="12.02" y1="368.31" x2="-204.33" y2="970.39"/><line class="cls-3" x1="53.18" y1="140.9" x2="48.1" y2="154.75"/><line class="cls-6" x1="37.92" y1="182.55" x2="3.53" y2="276.38"/><line class="cls-7" x1="-1.14" y1="289.12" x2="-234.2" y2="925.06"/><line class="cls-3" x1="43.63" y1="54.59" x2="38.54" y2="68.43"/><line class="cls-8" x1="27.64" y1="98.08" x2="-9.17" y2="198.16"/><line class="cls-9" x1="18.85" y1="10.24" x2="-15.61" y2="105.11"/></g><path class="cls-10" d="M455,733.25l0,0v-.1S455,733.22,455,733.25Z"/><path class="cls-10" d="M484.14,563.32c-.26.58-.48,1.16-.73,1.77-19,46.17-32.21,101.48-35.29,167.64C395.44,603.69,308,541.22,230.17,511.22c1.39-43.12,7.39-118.11,31.89-164.18,0,0,41.45,9.69,93.62,50.57C396.84,429.85,444.72,481.57,484.14,563.32Z"/><path class="cls-10" d="M491.91,562.62l-1.77-.4c.25-.62.47-1.21.72-1.8C491.21,561.14,491.56,561.9,491.91,562.62Z"/><path class="cls-10" d="M455,733.25l0,0v-.1S455,733.22,455,733.25Z"/><path class="cls-10" d="M491.91,562.62l-1.77-.4c.25-.62.47-1.21.72-1.8C491.21,561.14,491.56,561.9,491.91,562.62Z"/><path class="cls-10" d="M457.84,858.83c-.5,0-1,0-1.51,0-196.57,0-359.4-149-388.58-343.57-2-16.61-2.26-26.52-2.26-26.52s70.91-7.19,153.17,25.17c72.93,28.71,154.78,88.48,204.11,212V726l0,0c.3.73.6,1.47.86,2.24,14.75,37.36,26.48,80.53,34.15,130.35C457.81,858.64,457.84,858.74,457.84,858.83Z"/><path class="cls-10" d="M455,733.25l0,0v-.1S455,733.22,455,733.25Z"/><path class="cls-10" d="M915.41,494.69c-18.79,220.44-197.59,393.5-415.64,394.38.13-10,3.26-123.16,71.55-225.74a353,353,0,0,1,119.73-112.2c1.37-.78,2.7-1.53,4.09-2.29,1.68-1,3.39-1.86,5.1-2.78.44-.26.92-.49,1.4-.75,1.67-.88,3.35-1.77,5.06-2.62.89-.46,1.78-.91,2.69-1.34,1.84-1,3.71-1.87,5.58-2.75s3.52-1.67,5.29-2.49c.22-.09.41-.19.63-.29,1.33-.62,2.66-1.21,4-1.8,1.67-.78,3.35-1.51,5.06-2.22,5-2.16,10.11-4.23,15.34-6.19l1.8-.69c2.22-.85,4.43-1.66,6.68-2.45C799.1,506.4,852.5,496.26,915.41,494.69Z"/><path class="cls-10" d="M618.67,392.44c-44.53,33.73-94.71,86.9-127.81,168-39.34-83.37-87.13-136.11-128.22-169,24.27-45.25,79.25-137.16,129.27-180.16C491.91,211.26,567.58,286.06,618.67,392.44Z"/><path class="cls-10" d="M749.38,513.88c-2.21.77-4.38,1.57-6.56,2.4l-1.77.68c-5.13,1.92-10.16,3.95-15,6.06-1.68.71-3.32,1.42-5,2.19-1.33.58-2.64,1.15-3.94,1.76l-.63.29c-1.74.8-3.48,1.61-5.18,2.44s-3.67,1.77-5.47,2.7c-.9.41-1.77.86-2.64,1.31-1.68.84-3.33,1.7-5,2.57-.47.26-.94.48-1.37.74-1.68.9-3.36,1.8-5,2.73-1.37.73-2.68,1.47-4,2.24A346.11,346.11,0,0,0,570.38,652.05c-67,100.62-70.06,211.6-70.18,221.43l-.16-.29c-8-52.09-20.29-97.22-35.7-136.28l1.21-4-2.11,1.64s0,0,0-.07c3-66.18,16-121.51,34.55-167.7l1.74.39c-.34-.71-.68-1.45-1-2.15C531.14,485.5,580.36,433.35,624,400.26c51.48-39,95.39-51.58,95.39-51.58C742.91,377.63,748.26,466.18,749.38,513.88Z"/><path class="cls-11" d="M452.86,744.25l0,0v-.11S452.86,744.22,452.86,744.25Z"/><path class="cls-11" d="M490.85,561.43c-.27.62-.5,1.24-.77,1.9-20,49.81-34,109.48-37.26,180.85C397.2,605,304.92,537.58,222.7,505.22c1.47-46.52,7.81-127.41,33.67-177.12,0,0,43.76,10.45,98.85,54.55C398.67,417.44,449.24,473.23,490.85,561.43Z"/><path class="cls-11" d="M492,563.75l-1.88-.42c.27-.66.5-1.28.77-1.9C491.22,562.19,491.59,563,492,563.75Z"/><path class="cls-11" d="M452.86,744.25l0,0v-.11S452.86,744.22,452.86,744.25Z"/><path class="cls-11" d="M492,563.75l-1.88-.42c.27-.66.5-1.28.77-1.9C491.22,562.19,491.59,563,492,563.75Z"/><path class="cls-12" d="M151.85,729.65c-3.63-4.43-7.2-9-10.63-13.57A470.7,470.7,0,0,1,52.55,506.74C49.6,488.12,50,476.84,50,476.84s79.92-8.1,172.68,28.38c82.21,32.36,174.49,99.76,230.11,239v.1l0,0c.35.83.7,1.66,1,2.52,16.65,42.13,29.87,90.79,38.53,147,0,.1,0,.21,0,.31-.59,0-1.14,0-1.73,0-114.74-.18-219.34-45.87-298.15-120.59-8.24-7.79-16.24-15.93-23.89-24.34"/><path class="cls-11" d="M452.86,744.25l0,0v-.11S452.86,744.22,452.86,744.25Z"/><path class="cls-12" d="M932.16,476.87c-19.87,233.18-209,416.25-439.67,417.19.14-10.6,3.45-130.29,75.69-238.8A373.31,373.31,0,0,1,694.84,536.57c1.44-.83,2.85-1.62,4.32-2.42,1.78-1,3.59-2,5.39-2.94.47-.28,1-.52,1.48-.8,1.78-.93,3.55-1.87,5.36-2.77.94-.48,1.88-1,2.85-1.41,1.94-1,3.92-2,5.9-2.91s3.72-1.77,5.59-2.63l.67-.31c1.41-.66,2.82-1.28,4.26-1.91,1.77-.83,3.55-1.59,5.36-2.35,5.26-2.29,10.69-4.47,16.22-6.54l1.91-.73q3.51-1.35,7.06-2.6C809.13,489.26,865.62,478.53,932.16,476.87Z"/><path class="cls-11" d="M626.05,383.72c-47.11,35.69-100.18,91.94-135.2,177.71-41.61-88.2-92.18-144-135.63-178.78,25.66-47.87,83.83-145.1,136.74-190.58C492,192.07,572,271.2,626.05,383.72Z"/><path class="cls-13" d="M182.43,638.47v0l0,0v0s0,0,0,0a.57.57,0,0,0,0-.21c0-.07,0-.13,0-.27v0a1.2,1.2,0,0,1,0-.34,4.54,4.54,0,0,0,.13.72A.2.2,0,0,1,182.43,638.47Z"/><path class="cls-13" d="M182.81,704.93a93,93,0,0,1-6.06,14.85c-.69,1.35-1.38,2.66-2.14,4v0a66.7,66.7,0,0,1-9.49,13.5c-.66-.21-1.31-.48-1.9-.73-.14,0-.24-.1-.35-.13-12-5.23-21-15-23.67-26-2.39-9.69-.25-20.18-4.85-29.29-5.64-11.21-20.94-18.24-22.84-30.9-1.73-11.84,8.93-22.71,7.2-34.31-2-13.11-18.11-20.9-21.08-33.71-1.91-8-.21-17.13-.9-25.34a166.87,166.87,0,0,0-4.64-27.17c1.11-.07,2.21-.1,3.32-.13,22.67-.39,45,12.35,52.34,30.25,5.91,14.47,2.9,31.18,10.76,44.75a21.31,21.31,0,0,0,1.59,2.53,46,46,0,0,0,3.33,4.08l2.49,2.6c.41.41.86.79,1.28,1.24s.86.84,1.28,1.29c3.91,3.73,7.89,7.51,10.49,12a10.68,10.68,0,0,1,.62,1.21,8.88,8.88,0,0,1,.62,1.28,13.1,13.1,0,0,1,.59,1.39c.21.52.38,1.07.55,1.59.25.83.49,1.63.66,2.46,0,.21,0,.38.07.55s0,.14,0,.21a.51.51,0,0,1,0,.21c0,.14,0,.24.07.34v.07a1.36,1.36,0,0,0,.07.38v0c0,.14,0,.2,0,.27a.57.57,0,0,1,0,.21v.07l-2.67,38.63C181.25,686.51,185.51,695.83,182.81,704.93Z"/><path class="cls-13" d="M202.92,611.16v0c1.73-8.38,1.87-17.17,5.81-25.17,7.34-14.74,28.8-25.44,51.27-26.13h.41c2,0,4.12,0,6.2.11a126.54,126.54,0,0,0-4.75,23.5c-.76,7.09,1,15-.93,21.84-3.15,11.07-19.94,17.79-22,29.11-1.8,10,9.31,19.42,7.48,29.63-2,10.93-17.9,17-23.78,26.68-4.74,7.86-2.53,16.89-5,25.24-2.87,9.51-12.28,18-24.78,22.46-.79.28-1.52.55-2.32.79h0c-.42.11-.9.28-1.32.39-.14-.11-.27-.25-.45-.39l0,0c-4-3.43-8.52-9.21-12.26-15.4v0l.28-3.94a93,93,0,0,0,6.06-14.85c2.7-9.1-1.56-18.42-3.12-27.76l2.67-38.63h0v0h0v0l.83-.69a8.71,8.71,0,0,0,.86-.73c4.12-3.32,8.55-6.5,11.74-10.28,3.94-4.64,5.78-9.72,7-15"/><path class="cls-13" d="M202.82,611.72c0-.18.06-.35.1-.56v0"/><path class="cls-13" d="M202.92,611.13v0c0,.21-.07.38-.1.56-1.18,5.33-3,10.41-7,15-3.19,3.78-7.62,7-11.74,10.28a7.53,7.53,0,0,1-.86.73l-.83.73v0a.2.2,0,0,0,0-.14c0-.14-.07-.24-.1-.34v0a1.2,1.2,0,0,1,0-.34,0,0,0,0,0,0,0v-.07c0-.1,0-.2-.07-.34a.51.51,0,0,0,0-.21.26.26,0,0,0,0-.21,4.85,4.85,0,0,0-.11-.55c-.17-.83-.41-1.63-.66-2.46-.17-.52-.34-1.07-.55-1.59a13.1,13.1,0,0,0-.59-1.39,5.56,5.56,0,0,0-.62-1.28,10.68,10.68,0,0,0-.62-1.21c-2.6-4.46-6.58-8.24-10.49-12-.42-.45-.87-.9-1.28-1.29s-.87-.83-1.28-1.24l-2.49-2.6a46,46,0,0,1-3.33-4.08s2.43-40,22.88-52.09C202.3,543.49,202.92,604.38,202.92,611.13Z"/><path class="cls-13" d="M202.82,611.72c0-.18.06-.35.1-.56v0"/><path class="cls-13" d="M182.39,638.33v.18s0,0,0,0a.57.57,0,0,0,0-.21c0-.07,0-.13,0-.27v0a1.2,1.2,0,0,1,0-.34A4.54,4.54,0,0,0,182.39,638.33Z"/><path class="cls-13" d="M251.63,572.67C214.76,612.35,197.42,696,190.68,739.19h0c-.55,3.64-1.05,7-1.48,10"/><path class="cls-13" d="M255,773.49l-17,100.08a11.71,11.71,0,0,1-11.34,10H138.1a11.71,11.71,0,0,1-11.36-10.18l-15.65-99.92Z"/><path class="cls-13" d="M271.15,762.32h0a11.79,11.79,0,0,1-11.48,11.17H106.75a11.78,11.78,0,0,1-11.47-11h0c-.65-7.14,4.67-13.31,11.47-13.31H259.67C266.39,749.19,271.69,755.25,271.15,762.32Z"/><path class="cls-13" d="M182.5,638.54a2.17,2.17,0,0,0-.11-.66Z"/><path class="cls-13" d="M106.72,544.39c35.39,46,52,142.88,58.55,192.91.56,4.34,1.06,8.31,1.45,11.87"/><path class="cls-13" d="M185.61,593.23c-4.43,13.64-4.64,27.42-4.12,36.14a77.81,77.81,0,0,0,.9,8.41"/><path class="cls-11" d="M182.43,638.47v0l0,0v0s0,0,0,0a.57.57,0,0,0,0-.21c0-.07,0-.13,0-.27v0a1.2,1.2,0,0,1,0-.34,4.54,4.54,0,0,0,.13.72A.2.2,0,0,1,182.43,638.47Z"/><path class="cls-11" d="M182.81,704.93a93,93,0,0,1-6.06,14.85c-.69,1.35-1.38,2.66-2.14,4v0a66.7,66.7,0,0,1-9.49,13.5c-.66-.21-1.31-.48-1.9-.73-.14,0-.24-.1-.35-.13-12-5.23-21-15-23.67-26-2.39-9.69-.25-20.18-4.85-29.29-5.64-11.21-20.94-18.24-22.84-30.9-1.73-11.84,8.93-22.71,7.2-34.31-2-13.11-18.11-20.9-21.08-33.71-1.91-8-.21-17.13-.9-25.34a166.87,166.87,0,0,0-4.64-27.17c1.11-.07,2.21-.1,3.32-.13,22.67-.39,45,12.35,52.34,30.25,5.91,14.47,2.9,31.18,10.76,44.75a21.31,21.31,0,0,0,1.59,2.53,46,46,0,0,0,3.33,4.08l2.49,2.6c.41.41.86.79,1.28,1.24s.86.84,1.28,1.29c3.91,3.73,7.89,7.51,10.49,12a10.68,10.68,0,0,1,.62,1.21,8.88,8.88,0,0,1,.62,1.28,13.1,13.1,0,0,1,.59,1.39c.21.52.38,1.07.55,1.59.25.83.49,1.63.66,2.46,0,.21,0,.38.07.55s0,.14,0,.21a.51.51,0,0,1,0,.21c0,.14,0,.24.07.34v.07a1.36,1.36,0,0,0,.07.38v0c0,.14,0,.2,0,.27a.57.57,0,0,1,0,.21v.07l-2.67,38.63C181.25,686.51,185.51,695.83,182.81,704.93Z"/><path class="cls-11" d="M202.92,611.16v0c1.73-8.38,1.87-17.17,5.81-25.17,7.34-14.74,28.8-25.44,51.27-26.13h.41c2,0,4.12,0,6.2.11a126.54,126.54,0,0,0-4.75,23.5c-.76,7.09,1,15-.93,21.84-3.15,11.07-19.94,17.79-22,29.11-1.8,10,9.31,19.42,7.48,29.63-2,10.93-17.9,17-23.78,26.68-4.74,7.86-2.53,16.89-5,25.24-2.87,9.51-12.28,18-24.78,22.46-.79.28-1.52.55-2.32.79h0c-.42.11-.9.28-1.32.39-.14-.11-.27-.25-.45-.39l0,0c-4-3.43-8.52-9.21-12.26-15.4v0l.28-3.94a93,93,0,0,0,6.06-14.85c2.7-9.1-1.56-18.42-3.12-27.76l2.67-38.63h0v0h0v0l.83-.69a8.71,8.71,0,0,0,.86-.73c4.12-3.32,8.55-6.5,11.74-10.28,3.94-4.64,5.78-9.72,7-15"/><path class="cls-11" d="M202.82,611.72c0-.18.06-.35.1-.56v0"/><path class="cls-11" d="M202.92,611.13v0c0,.21-.07.38-.1.56-1.18,5.33-3,10.41-7,15-3.19,3.78-7.62,7-11.74,10.28a7.53,7.53,0,0,1-.86.73l-.83.73v0a.2.2,0,0,0,0-.14c0-.14-.07-.24-.1-.34v0a1.2,1.2,0,0,1,0-.34,0,0,0,0,0,0,0v-.07c0-.1,0-.2-.07-.34a.51.51,0,0,0,0-.21.26.26,0,0,0,0-.21,4.85,4.85,0,0,0-.11-.55c-.17-.83-.41-1.63-.66-2.46-.17-.52-.34-1.07-.55-1.59a13.1,13.1,0,0,0-.59-1.39,5.56,5.56,0,0,0-.62-1.28,10.68,10.68,0,0,0-.62-1.21c-2.6-4.46-6.58-8.24-10.49-12-.42-.45-.87-.9-1.28-1.29s-.87-.83-1.28-1.24l-2.49-2.6a46,46,0,0,1-3.33-4.08s2.43-40,22.88-52.09C202.3,543.49,202.92,604.38,202.92,611.13Z"/><path class="cls-11" d="M202.82,611.72c0-.18.06-.35.1-.56v0"/><path class="cls-11" d="M182.39,638.33v.18s0,0,0,0a.57.57,0,0,0,0-.21c0-.07,0-.13,0-.27v0a1.2,1.2,0,0,1,0-.34A4.54,4.54,0,0,0,182.39,638.33Z"/><path class="cls-11" d="M251.63,572.67C214.76,612.35,197.42,696,190.68,739.19h0c-.55,3.64-1.05,7-1.48,10"/><path class="cls-11" d="M255,773.49l-17,100.08a11.71,11.71,0,0,1-11.34,10H138.1a11.71,11.71,0,0,1-11.36-10.18l-15.65-99.92Z"/><path class="cls-11" d="M271.15,762.32h0a11.79,11.79,0,0,1-11.48,11.17H106.75a11.78,11.78,0,0,1-11.47-11h0c-.65-7.14,4.67-13.31,11.47-13.31H259.67C266.39,749.19,271.69,755.25,271.15,762.32Z"/><path class="cls-11" d="M182.5,638.54a2.17,2.17,0,0,0-.11-.66Z"/><path class="cls-11" d="M106.72,544.39c35.39,46,52,142.88,58.55,192.91.56,4.34,1.06,8.31,1.45,11.87"/><path class="cls-11" d="M185.61,593.23c-4.43,13.64-4.64,27.42-4.12,36.14a77.81,77.81,0,0,0,.9,8.41"/><path class="cls-11" d="M761.21,506.25q-3.56,1.25-7.06,2.6l-1.91.73c-5.53,2.07-11,4.25-16.22,6.54-1.81.76-3.59,1.52-5.36,2.35-1.44.63-2.85,1.25-4.26,1.91l-.67.31c-1.87.86-3.75,1.73-5.59,2.63s-4,1.9-5.9,2.91c-1,.45-1.91.93-2.85,1.41-1.81.9-3.58,1.84-5.36,2.77-.5.28-1,.52-1.48.8-1.8,1-3.61,1.94-5.39,2.94-1.47.8-2.88,1.59-4.32,2.42A373.31,373.31,0,0,0,568.18,655.26c-72.24,108.51-75.55,228.2-75.69,238.8l-.16-.32c-8.65-56.17-21.88-104.84-38.5-147l1.3-4.29-2.27,1.76s0,0,0-.07c3.25-71.37,17.22-131,37.26-180.85l1.88.42c-.37-.77-.74-1.56-1.11-2.32,35-85.77,88.09-142,135.2-177.71,55.52-42,102.87-55.62,102.87-55.62C754.24,359.32,760,454.82,761.21,506.25Z"/><path class="cls-13" d="M764.58,875.46c-7.37-1.48-14.61-3.24-21.67-5.31-29-8.47-62.73-22.95-74.26-53.38a51,51,0,0,1,6.59-47.57,43.17,43.17,0,0,1,21-15.55c18.35-5.93,38.65,3.31,52.26,17s22.37,31.27,33,47.34c-9.63-21.59-19.42-43.79-20.75-67.4-1-18.4,4-38.34,16.66-52.17,11.67-12.72,39-22.69,55.06-13.34,10.61,6.17,14.83,19.29,16.66,31.42,5,33.19-1.42,66.92-7.81,99.87,4.29-17.62,8.9-35.4,17.63-51.29s22.14-29.94,39.29-35.82c12-4.12,26.28-3.67,36.35,4.08,9.39,7.24,13.58,19.46,14.87,31.24,2.16,19.75-2.49,39.79-10.49,58C909.12,890.42,826.37,887.85,764.58,875.46Z"/><path class="cls-13" d="M831.91,841.87s46,12.78,62.24-51.16"/><path class="cls-13" d="M811.44,732.73c-12.79,29,0,116,0,116"/><path class="cls-13" d="M768.81,839.9c-1.92-.33-20.37-2.91-36.1-10.14-12.18-5.6-22.74-14-22.74-26.26"/><path class="cls-13" d="M736.41,803.5s-18,21-3.7,26.26"/><path class="cls-13" d="M724.47,848.84c2.56-3.56,15.87,3.58,24.56-13.21"/><path class="cls-13" d="M805.76,771.1c-4.55-3.41-16.49,0-18.19-27.29"/><path class="cls-13" d="M807.74,796.68s19.9-7.18,19.9-22.77"/><path class="cls-13" d="M850.52,842.24s10.38-26.8,14.64-38.74"/><path class="cls-13" d="M882.75,816.63s11.4,9,25-5.45"/><path class="cls-13" d="M882.75,803.5s-7.36-3.19-4-21.63"/><path class="cls-11" d="M764.58,875.46c-7.45-1-14.61-3.24-21.67-5.31-29-8.47-62.73-22.95-74.26-53.38a51,51,0,0,1,6.59-47.57,43.17,43.17,0,0,1,21-15.55c18.35-5.93,38.65,3.31,52.26,17s22.37,31.27,33,47.34c-9.63-21.59-19.42-43.79-20.75-67.4-1-18.4,4-38.34,16.66-52.17,11.67-12.72,39-22.69,55.06-13.34,10.61,6.17,14.83,19.29,16.66,31.42,5,33.19-1.42,66.92-7.81,99.87,4.29-17.62,8.9-35.4,17.63-51.29s22.14-29.94,39.29-35.82c12-4.12,26.28-3.67,36.35,4.08,9.39,7.24,13.58,19.46,14.87,31.24,2.16,19.75-2.2,39.92-10.49,58C908.64,888.63,825.24,883.64,764.58,875.46Z"/><path class="cls-11" d="M831.91,841.87s46,12.78,62.24-51.16"/><path class="cls-11" d="M811.44,732.73c-12.79,29,0,116,0,116"/><path class="cls-11" d="M768.81,839.9c-1.92-.33-20.37-2.91-36.1-10.14-12.18-5.6-22.74-14-22.74-26.26"/><path class="cls-11" d="M736.41,803.5s-18,21-3.7,26.26"/><path class="cls-11" d="M724.47,848.84c2.56-3.56,15.87,3.58,24.56-13.21"/><path class="cls-11" d="M805.76,771.1c-4.55-3.41-16.49,0-18.19-27.29"/><path class="cls-11" d="M807.74,796.68s19.9-7.18,19.9-22.77"/><path class="cls-11" d="M850.52,842.24s10.38-26.8,14.64-38.74"/><path class="cls-11" d="M882.75,816.63s11.4,9,25-5.45"/><path class="cls-11" d="M882.75,803.5s-7.36-3.19-4-21.63"/><path class="cls-13" d="M791.24,751.92a56.18,56.18,0,0,0,1.52-26.06c-.83-5-3.18-18.62-10.45-16.51-2.11.59-3.36,2.39-4.15,4.43.93-4.5-5.58-7.34-8.76-7.75-8.06-1.14-13.95,4.53-17.79,11.45-8.41,15.2-30.77,22.54-46.35,22.57-21.91,0-35-17-38.76-39-10-58.18-12.67-198.33-117.48-236.75A147.85,147.85,0,0,0,531.4,459l0,.17c-.07,0-.14,0-.21-.24a2.44,2.44,0,0,1-.1-.41,85.72,85.72,0,0,0,9.83-2.05c4.19-1.07,8.51-2.32,11.56-5,3.67-3.18,4.91-7.85,5.22-12.32,0-.69.07-1.42.07-2.11a13.81,13.81,0,0,0,0-1.69c0-.8,0-1.6,0-2.43,0-.62,0-1.28,0-1.9h0l5.1-16.28c1.87-3.64,3.73-7.29,4.55-11.17a19.7,19.7,0,0,0,.45-4.76v0c0-.34,0-.69,0-1.07-.38-6.75-3.67-13.43-8.27-19a135.26,135.26,0,0,0-4.33-21.84c-6.44-23.4-19.31-48.84-44.44-55.9-18.56-5.19-40.19-4.88-58.43,2.08a.13.13,0,0,1-.1,0l-1.72.71,1.72-.71a17.7,17.7,0,0,0-3.42,1.42h0c-5.95,3.22-8,10.59-7.68,18.69a8.76,8.76,0,0,0,.1,1.35c0,.59.07,1.21.17,1.8.9,7.93,3.88,16.09,7.62,21.36-.17.41-.35.79-.49,1.21a45.51,45.51,0,0,1-6.09,10.14c-5.5,7-12.94,12.11-18.31,19.11s-8.51,16.12-7.09,24.88c1.38,8.48,6.71,15.89,7.92,24.33,1.14,7.72-1,16.55,3.71,22.75,2.9,3.77,7.71,5.5,12.32,6.81,2,.56,4,1,6,1.46-.25.72-.32.76-.46.79a144,144,0,0,0-16.92,5.09l-.83.31C324.9,503.47,322.17,643,312.23,701c-3.73,22-16.85,39-38.76,39-15.58,0-37.94-7.37-46.35-22.57-3.88-6.92-9.72-12.59-17.79-11.45-3.15.45-9.31,3.08-8.72,7.37a2.75,2.75,0,0,0,0,.48V714s0,.11,0,.14v.11c-.76-2.22-2-4.19-4.26-4.85-7.27-2.11-9.62,11.49-10.45,16.51a56.18,56.18,0,0,0,1.52,26.06c3.36,11.18,10.38,21.64,20.8,26.17A118.38,118.38,0,0,0,235,785.6c-13.84,13.47-22.81,30.95-22.39,53.31.31,14,8.76,23.78,21.94,30.32,16.89,8.44,41.54,11.59,66.6,11.83h.14a40.15,40.15,0,0,0-8.31,2.53h0a38.08,38.08,0,0,0-8.61,5q-1.41,1.1-2.7,2.28a16.64,16.64,0,0,0-1.29,1.25c-.82.83-1.62,1.7-2.38,2.6a45.76,45.76,0,0,0-4,5.64c-.59,1-1.14,2-1.62,3s-.94,2.12-1.36,3.15a31.77,31.77,0,0,0-1.55,4.88c-.28,1.08-.52,2.15-.73,3.26-1.8,10.66.66,21.67,8.2,29.59a34.4,34.4,0,0,0,4.47,3.91c.83.59,1.7,1.15,2.59,1.7a36.32,36.32,0,0,0,5.92,2.8,47.42,47.42,0,0,0,6.93,2c16.58,3.35,29.76-7.41,44.72-12a83,83,0,0,1,26.3-3.36A127.11,127.11,0,0,1,385.16,941a883.46,883.46,0,0,0,190,10.32c42.92-2.36,86.7-7.75,127.44-22.12C733.26,918.38,767,899.37,782.1,870a72,72,0,0,0,8.07-33.47c0-24.47-10-42.71-25.58-56.17,2-.73,3.94-1.46,5.85-2.29C780.86,773.56,787.88,763.1,791.24,751.92Z"/><path class="cls-10" d="M367.84,939.33a82.86,82.86,0,0,0-26.32,3.35c-14.95,4.59-28.14,15.36-44.73,12-43.19-8.71-34.18-66.29,4.53-73.63h.06c3.71-.08,7.42-.11,11.1-.11h.24c17.83,0,35.2.47,49.46-4.45C360.8,877.71,326.08,908.53,367.84,939.33Z"/><path class="cls-14" d="M549,464.18s0,.08,0,.11a347.09,347.09,0,0,0,18.87,46.56l.09.17"/><path class="cls-15" d="M600.89,742.41c-48.18,7.68-94.91,19.45-144.06,13.19-26.62-3.43-52.72-10.25-79-15.58,16.37-26.34,22.71-60.26,20.15-89.78-1.66-19.39-10.56-38.15-10.11-57.46.31-13.08,2.73-26.1,6.09-38.7A239.8,239.8,0,0,1,410,511c0-.06.07-.1.1-.17A347.5,347.5,0,0,0,429,464.3,144.25,144.25,0,0,1,446.58,459l1,7.23c2.46,17,8.24,41.54,26,49.57a29.13,29.13,0,0,0,11.67,2.45c7.92.8,18.52-2.45,18.52-2.45,17.75-8,23.5-32.54,26-49.57l1-7.23a145.37,145.37,0,0,1,17.58,5.26,347.66,347.66,0,0,0,18.9,46.55.34.34,0,0,1,.07.17,239.76,239.76,0,0,1,16,43.06,164.2,164.2,0,0,1,6.1,38.7c.45,19.31-8.41,38.07-10.11,57.46C576.59,680.66,583.41,715.76,600.89,742.41Z"/><path class="cls-14" d="M764.56,780.34c15.58,13.46,25.58,31.7,25.61,56.21A72.1,72.1,0,0,1,782.09,870c-15.08,29.34-48.82,48.32-79.53,59.17-40.75,14.37-84.51,19.75-127.45,22.12A882.74,882.74,0,0,1,385.16,941a125.83,125.83,0,0,0-17.34-1.68,83.12,83.12,0,0,0-26.31,3.35c-14.95,4.59-28.14,15.36-44.73,12-43.19-8.71-34.18-66.29,4.53-73.63"/><path class="cls-10" d="M662.73,853.12c-12.8,29.29-44.48,19.26-79.29-1.81-21.59-13.08-40-14.95-50.88-14.51,15.33-1.37,28.74-6.1,32.5-23.43,3.05-14.1-4.89-27-18.62-31.16,33-1.45,66.89,1,93.76,21.79C640.2,804,675.56,823.81,662.73,853.12Z"/><path class="cls-10" d="M472.57,443a20.85,20.85,0,0,1-3.25,8.72c-2.77,3.81-7.31,5.95-11.94,6.61a61.72,61.72,0,0,1-8.49-1.8c-4.63-1.32-9.41-3.05-12.32-6.82-4.74-6.23-2.56-15.06-3.7-22.77-1.25-8.42-6.58-15.86-7.93-24.3-1.45-8.76,1.7-17.86,7.06-24.89,4.64-6,10.77-10.66,15.86-16.23,0,.72-.07,1.49-.11,2.25v0a20.69,20.69,0,0,0,3,29.91c1.94,8.27,6.89,26.23,19.25,36.89a16.06,16.06,0,0,1,2.38,4.82A18.1,18.1,0,0,1,472.57,443Z"/><path class="cls-10" d="M567.51,403.14c-1.62,7.71-7.44,14.46-9.07,22.18-.9,4.4-.48,8.93-.76,13.4a21.77,21.77,0,0,1-2.11,8.34,14.87,14.87,0,0,1-3.11,4c-3.05,2.67-7.38,3.95-11.56,5-6.41,1.63-13.09,3-19.73,2.39-7.58-.73-15.23-5.54-18-12.84-2.18-5.71-.45-10.18,2.46-14.3l0-.07a55.82,55.82,0,0,0,8.69-8.13c12-29.93,17.48-21.53,18.93-31.26,5.5-3.74,1.35-10.52,1.35-17.65,0-5.09-.3-7.78-3.31-11.38l6.25-1.46c-2.56-3.05-.86-2-4.81-3.17l-1.44.16c-2.15.34,2.06-.93-.52-.5-50.2,8.33-59.81-48.73-61.51-57.62-1.52,1.62-7.15.65-8.36,2.45-.52.77,5,10.12,4.54,10.91-.13-.59-.24-1.1-.31-1.52a41.07,41.07,0,0,0-4.08,5.12,62.76,62.76,0,0,0-9,19c-.07.2-.11.44-.18.65a96,96,0,0,1-2.73,10.42c-4.5-6.33-8-16.92-8-26.24,0-7.37,2.18-14,7.71-17a4.4,4.4,0,0,1,.49-.24,19.59,19.59,0,0,1,2.94-1.18s.07,0,.11,0c18.24-7,39.9-7.3,58.42-2.11,25.16,7.06,38,32.54,44.48,55.93a138.58,138.58,0,0,1,4.33,21.84C565.61,385.48,569.31,394.45,567.51,403.14Z"/><path class="cls-14" d="M347.27,797.7l51.35-4.09q58.81-4.67,117.64-9.35c9.81-.76,20-1.62,30.17-2.06,33-1.45,66.89,1,93.76,21.79,0,0,35.36,19.81,22.53,49.12s-44.48,19.26-79.29-1.81c-21.59-13.08-40-14.95-50.88-14.51h-.11c-1.18.06-2.31.14-3.29.25a38.68,38.68,0,0,0-7,1.18c-39.94,12.58-101.78,30.06-159.89,38.24a443.84,443.84,0,0,1-49.51,4.48h-.24c-3.77.14-7.48.17-11.16.11h-.13c-25.09-.22-49.73-3.38-66.63-11.81-13.18-6.57-21.62-16.32-21.92-30.33-.41-22.39,8.54-39.86,22.42-53.35"/><path class="cls-14" d="M764.42,729.87c6.69-3.09,14.54-13.11,13.63-17.15"/><path class="cls-14" d="M717.06,771.87c10.09,2.23,5.46-19.92,16.19-21.73,0,0,4.34-.67,5.21,3,.6,2.51-.21,5.58-.7,8-.45,2.23-.8,5-1.75,7a58.5,58.5,0,0,0,2.24-6.86,50.44,50.44,0,0,0,1.4-7.45c.61-4,1.05-8.31,2.55-12a9.34,9.34,0,0,1,4.64-5.26c4.74-2,7.76,3,8.17,7.34a8.07,8.07,0,0,1,.06,1.46c0,.66-.06,1.28-.11,1.9-.46,7.59-1.27,17.1-5.52,23.05,4.25-6,5.12-15.19,5.51-22.81.2-4.08.16-8.3,1.66-12a10.68,10.68,0,0,1,2.6-3.93,6.18,6.18,0,0,1,4.14-1.7,6.94,6.94,0,0,1,5.6,3.84,16.63,16.63,0,0,1,1.74,7.13c.65,10.86-1.89,21.68-9.92,28.91"/><path class="cls-14" d="M567.89,510.84A237.5,237.5,0,0,1,584,554.09c3.38,12.6,5.79,25.6,6.1,38.68.45,19.32-8.43,38.08-10.12,57.48-4.26,49.17,16.16,110.49,66.48,128.87,19.83,7.25,41.2,9.94,62.25,9.44,20-.47,43.22-2.49,61.73-10.48,10.42-4.52,17.44-15,20.82-26.16a56.77,56.77,0,0,0,1.53-26.07c-.86-5-3.19-18.61-10.48-16.5-2.42.68-3.69,2.94-4.44,5.35-1.5,5-.72,10.26-.89,15.4-.19,7.2-1.24,21.26-7.84,26.07"/><path class="cls-14" d="M447.33,459l1,7.23c2.48,17,8.24,41.53,26,49.56a28.78,28.78,0,0,0,11.65,2.47c7.94.8,18.52-2.47,18.52-2.47,17.75-8,23.51-32.53,26-49.56l1-7.23"/><path class="cls-14" d="M429.74,464.18s0,.08,0,.11a345.83,345.83,0,0,1-18.88,46.56l-.08.17"/><path class="cls-14" d="M200.87,714.7l-.16-.52a.6.6,0,0,1-.06-.22s0-.05,0-.08c-1.07-4.56,5.44-7.42,8.68-7.86,8-1.15,13.93,4.53,17.78,11.46,8.4,15.19,30.77,22.53,46.35,22.55,21.92,0,35.05-17,38.79-39,9.94-58.19,12.66-198.33,117.47-236.76A150.9,150.9,0,0,1,447.33,459l1.59-.36h0"/><path class="cls-14" d="M529.86,458.71c.52.08,1,.22,1.54.33A150.9,150.9,0,0,1,549,464.29c104.81,38.43,107.53,178.57,117.47,236.76,3.74,22,16.87,39,38.8,39,15.57,0,37.94-7.36,46.34-22.55,3.85-6.93,9.73-12.61,17.78-11.46,3.4.47,10.55,3.66,8.46,8.68"/><path class="cls-14" d="M214.31,729.87c-6.69-3.09-14.54-13.11-13.63-17.15"/><path class="cls-14" d="M261.67,771.87c-10.1,2.23-5.47-19.92-16.2-21.73,0,0-4.34-.67-5.21,3-.59,2.51.21,5.58.71,8,.45,2.23.8,5,1.74,7a58.46,58.46,0,0,1-2.23-6.86,49.18,49.18,0,0,1-1.4-7.45c-.61-4-1.06-8.31-2.56-12a9.29,9.29,0,0,0-4.63-5.26c-4.74-2-7.76,3-8.18,7.34a9.06,9.06,0,0,0-.05,1.46c0,.66.05,1.28.11,1.9.45,7.59,1.27,17.1,5.51,23.05-4.24-6-5.12-15.19-5.5-22.81-.21-4.08-.16-8.3-1.67-12a10.54,10.54,0,0,0-2.59-3.93,6.23,6.23,0,0,0-4.15-1.7,6.93,6.93,0,0,0-5.59,3.84,16.48,16.48,0,0,0-1.74,7.13c-.65,10.86,1.88,21.68,9.91,28.91"/><path class="cls-14" d="M410.84,510.84a236.76,236.76,0,0,0-16.1,43.25c-3.39,12.6-5.79,25.6-6.1,38.68-.45,19.32,8.43,38.08,10.11,57.48,4.27,49.17-16.16,110.49-66.48,128.87-19.83,7.25-41.2,9.94-62.24,9.44-20-.47-43.22-2.49-61.73-10.48-10.43-4.52-17.44-15-20.83-26.16A56.9,56.9,0,0,1,186,725.85c.86-5,3.19-18.61,10.48-16.5,2.41.68,3.69,2.94,4.44,5.35,1.49,5,.72,10.26.88,15.4.2,7.2,1.25,21.26,7.85,26.07"/><path class="cls-14" d="M465.47,312.13a46.1,46.1,0,0,0-4.4,5.5,61.69,61.69,0,0,0-9.2,19.67,92.54,92.54,0,0,1-2.75,10.41c-.16.41-.33.8-.49,1.21a45.57,45.57,0,0,1-6.07,10.16c-5.5,6.93-12.94,12.09-18.33,19.1s-8.52,16.12-7.09,24.89c1.38,8.46,6.71,15.88,7.94,24.31,1.13,7.72-1,16.54,3.71,22.75,2.89,3.79,7.69,5.52,12.31,6.81,4.92,1.38,10,2.45,15.06,2s10.16-2.66,13.15-6.79a20.24,20.24,0,0,0,3.25-8.7,18.16,18.16,0,0,0-.2-7.59c-1-3.6-3.62-6.51-6-9.45A84.76,84.76,0,0,1,451,394.33"/><path class="cls-14" d="M531.65,367.76v0c0-2.56-.11-5.09-.33-7.64"/><path class="cls-14" d="M449.67,346.47a111.81,111.81,0,0,0-1.92,17.75"/><path class="cls-14" d="M539.13,358.8c-1.07.19-6.76,1.13-7.81,1.3-56.51,9-59-31.68-65.85-47.94,0,0-3.77-14.5-16.56-7.63s-7.65,33,.76,44"/><line class="cls-14" x1="455.39" y1="327.63" x2="455.39" y2="327.6"/><line class="cls-14" x1="547.42" y1="366.18" x2="559.64" y2="378.73"/><path class="cls-14" d="M508,428.78v0"/><path class="cls-14" d="M466.4,426.39c.14.17.25.33.41.52a4.12,4.12,0,0,0,.47.58,10.34,10.34,0,0,0,.91,1.1.6.6,0,0,0,.11.14,28,28,0,0,0,19.34,9.45c9,.71,14.67-2.86,18-6.43"/><circle class="cls-14" cx="515.77" cy="381.04" r="20.73"/><circle class="cls-14" cx="463.41" cy="377.77" r="20.73"/><path class="cls-14" d="M458.91,372.7s8.45-3.16,15,.1"/><path class="cls-14" d="M505.53,375.57s8.45-3.16,15,.1"/><circle class="cls-14" cx="490.51" cy="407.33" r="5.49"/><path class="cls-14" d="M448.91,304.53c18.93-8.37,42.21-9.09,62-3.55,25.15,7,38,32.51,44.45,55.91a136.35,136.35,0,0,1,4.33,21.84c6,7.19,9.67,16.18,7.85,24.86-1.62,7.72-7.41,14.48-9.06,22.2-.91,4.39-.47,8.93-.77,13.38s-1.57,9.12-5.22,12.3c-3.05,2.7-7.36,4-11.57,5-6.4,1.65-13.08,3-19.7,2.39-7.61-.71-15.24-5.52-18-12.83-3.65-9.64,3.82-15.77,9.23-22.55a91.44,91.44,0,0,0,9.07-13.63,87.78,87.78,0,0,0,4.92-11"/><path class="cls-14" d="M378.61,740c26.26,5.32,52.36,12.15,79,15.55,49.17,6.3,95.87-5.48,144.07-13.17"/><line class="cls-14" x1="113.06" y1="883.59" x2="292.99" y2="883.59"/><line class="cls-14" x1="777.27" y1="880.12" x2="932.16" y2="880.12"/><path class="cls-11" d="M885.88,643.6a151.72,151.72,0,0,1,24.44,26.79,109.3,109.3,0,0,1,21,60.78"/><path class="cls-11" d="M565.3,281.21c18.52-11.15,37.8-21,58.32-28,51.16-17.51,108.2-13.6,148.73,24.75,35.14,33.23,51.75,82.55,55.14,129.83,0,.69.11,1.42.14,2.15,1.56,24.37.28,51.26.1,78.19"/><path class="cls-11" d="M162,486.6c4.64-29.59-1.07-57.42-4.12-87.88-7.92-79.4,17.31-174.31,108.72-186.18,49.67-6.48,90,12.08,123.57,47.66,7.55,8,15.09,17.37,23.09,26.44"/><path class="cls-11" d="M126.34,748.69S57.12,718.19,64,660.91C66,644.75,73.59,630.28,83.21,617"/></svg>