<svg id="Layer_2" data-name="Layer 2" xmlns="http://www.w3.org/2000/svg" viewBox="0 0 1000 1000"><defs><style>.cls-1{fill:#d7e8f0;}.cls-2,.cls-3,.cls-6{fill:none;stroke-miterlimit:10;}.cls-2,.cls-3{stroke:#ccdde2;}.cls-2{stroke-width:3.06px;}.cls-3,.cls-6{stroke-width:4.59px;}.cls-4{fill:#3fbdf1;}.cls-5{fill:#2e2e2e;}.cls-6{stroke:#000;}</style></defs><circle class="cls-1" cx="307.8" cy="676.1" r="6.64"/><path class="cls-2" d="M305,656.2c6.12,8.8,2.81,19.9,2.81,19.9s9.44-4.59,17.86,1.92"/><path class="cls-2" d="M307.8,697.93s9-17.73,0-21.83c-1.66-.76-15.06-6.88-23.87,1.92"/><circle class="cls-1" cx="697.35" cy="677.33" r="6.64"/><path class="cls-2" d="M680.81,665.91c10.63,1.46,16.54,11.42,16.54,11.42s3-10.05,13.52-11.84"/><path class="cls-2" d="M682.58,696.18c-.3-7.62,4.69-12.71,9-15.65a31.1,31.1,0,0,1,5.79-3.19,6.6,6.6,0,0,1,6.55.83,14.32,14.32,0,0,1,3,2.7"/><path class="cls-3" d="M506.15,698.93V512a36.86,36.86,0,0,1,36.76-36.75H640.8c93.52,0,170,76.51,170,170v71.22"/><path class="cls-3" d="M507.34,799.92a35.24,35.24,0,0,1-1-5.33"/><circle class="cls-1" cx="583.88" cy="573.25" r="6.64"/><path class="cls-2" d="M581.07,553.35c6.13,8.8,2.81,19.9,2.81,19.9s9.44-4.59,17.87,1.92"/><path class="cls-2" d="M583.88,595.08s9-17.73,0-21.83c-1.66-.76-15.06-6.88-23.87,1.92"/><circle class="cls-1" cx="697.35" cy="574.48" r="6.64"/><path class="cls-2" d="M680.81,563.06c10.63,1.46,16.54,11.42,16.54,11.42s3-10.05,13.52-11.84"/><path class="cls-2" d="M713.41,589.28s-6.95-18.64-16.06-14.8c-1.68.71-15.27,6.42-14.76,18.86"/><circle class="cls-1" cx="415.8" cy="676.1" r="6.64"/><path class="cls-2" d="M418.62,656.2c-6.13,8.8-2.82,19.9-2.82,19.9s-9.44-4.59-17.86,1.92"/><path class="cls-2" d="M415.8,697.93s-9-17.73,0-21.83c1.67-.76,15.07-6.88,23.88,1.92"/><path class="cls-3" d="M486.94,788v2.69a35.87,35.87,0,0,1-1.19,9.25"/><path class="cls-3" d="M188.62,636.26v0c.06-1.29.12-2.58.21-3.83,0-.06,0-.09,0-.13,6-88.15,80.38-157,170-157h91.31A36.86,36.86,0,0,1,486.94,512V702.42"/><circle class="cls-1" cx="415.8" cy="573.25" r="6.64"/><path class="cls-2" d="M418.62,553.35c-6.13,8.8-2.82,19.9-2.82,19.9s-9.44-4.59-17.86,1.92"/><path class="cls-2" d="M415.8,595.08s-9-17.73,0-21.83c1.67-.76,15.07-6.88,23.88,1.92"/><circle class="cls-1" cx="302.33" cy="574.48" r="6.64"/><path class="cls-2" d="M318.87,563.06c-10.62,1.46-16.54,11.42-16.54,11.42s-3-10.05-13.52-11.84"/><path class="cls-2" d="M286.28,589.28s7-18.64,16.05-14.8c1.69.71,15.27,6.42,14.76,18.86"/><path class="cls-3" d="M650.91,745a292.87,292.87,0,0,0-81.48-21.35S406.12,707.64,425.74,745c16.61,31.65,80.4,49.53,80.4,49.53,6.53.95,13.54,1.75,21.08,2.33C622.79,804.31,650.91,745,650.91,745c-.34-.4-.7-.77-1-1.13-1.33-1.43-2.67-2.84-4-4.21-28.6-28.67-68.23-43.38-108.73-42.88-29.24.35-70.57,5.17-96,26.87"/><path class="cls-3" d="M420.87,749.82l.09-.09"/><path class="cls-3" d="M156.27,806.64c4.78,9.86,10.6,19,15.68,24.14a16.71,16.71,0,0,0,1.66-.64h0c16.81-6.44,29.62-20,33.32-35.38,3.07-12.78.28-26.5,6.19-38.51,7.2-14.76,26.83-24,29.22-40.65,2.27-15.53-11.42-29.83-9.19-45.12l.28-1.56v0"/><path class="cls-3" d="M163.56,676.82c5.6-5.91,12.1-11.39,16.6-18,12.59-18.41,7.75-42,15.84-62.15,9.83-24.69,40.83-41.87,71.25-39.64a230.53,230.53,0,0,0-5.88,35.78c-.89,10.81,1.25,22.85-1.11,33.3A34,34,0,0,1,254.57,638c-18.26,11.19-21.39,32.44-21.39,32.44"/><path class="cls-3" d="M171.8,845.36c.52-4.56,1.13-9.65,1.81-15.19h0v0c5.75-45.52,17.73-120.6,39.63-182.54l8.86-23c7.75-18.38,16.57-34.89,26.52-48.16"/><path class="cls-3" d="M217.52,863.79l-12.85,75.83a8.87,8.87,0,0,1-8.59,7.59H128.93a8.87,8.87,0,0,1-8.61-7.71l-11.85-75.71Z"/><path class="cls-3" d="M229.73,855.33h0a8.93,8.93,0,0,1-8.69,8.46H105.17a8.91,8.91,0,0,1-8.68-8.32h0c-.5-5.41,3.53-10.09,8.68-10.09H221A9,9,0,0,1,229.73,855.33Z"/><path class="cls-3" d="M163.28,700.46c0-6.86-.06-16.48-.12-26.53l.18,1.11c0,.3.06.55.1.76s.09.68.12,1C164.45,684.47,164,692.43,163.28,700.46Z"/><path class="cls-3" d="M127.29,718c7.2,41.26,12,80.38,15.07,109.24v.06l1.62.73c4-4.87,8.31-12.62,12.29-21.41a172.14,172.14,0,0,0,10-28.7c3.61-14.89-2.73-30.24-4.2-45.49a124.06,124.06,0,0,1,.37-22.45"/><path class="cls-3" d="M144.14,845.38c-.49-5.39-1.1-11.46-1.78-18"/><path class="cls-3" d="M70.28,533.36c27.05,43.53,45.22,117,57,184.68"/><path class="cls-3" d="M136.12,628.87s3-60.86,28.14-79.36,24.59,85.24,24.59,85.24"/><path class="cls-3" d="M163.55,676.82s-5.14-34.81,3.87-69"/><path class="cls-3" d="M179.56,556.9c29.53-63.57,96.85-105.62,176-105.62H644c104.73,0,189.61,84.88,189.61,189.61"/><line class="cls-3" x1="833.63" y1="640.88" x2="833.63" y2="714.41"/><path class="cls-3" d="M162.49,711c.24-3.19.55-6.37.79-9.56,0-6.86-.06-16.48-.12-26.53a47.83,47.83,0,0,0-3.83-12.8c-5.64-12.07-16.63-20.68-23.22-32.26-12.13-21.32-7.47-48.61-15.22-72-9.47-28.58-39.21-48.52-68.46-45.89a315.51,315.51,0,0,1,5.66,41.45c.86,12.49-1.22,26.43,1.08,38.56,3.7,19.51,23.55,31.34,26,51.37,2.15,17.68-11,34.25-8.85,52.23,1.9,15.8,14.86,25.85,23.31,38.35a48.13,48.13,0,0,1,4.81,8.76c5.64,13.91,3,29.84,5.91,44.57,3.55,17.86,15.87,33.6,32,41.08v-.06c-3-28.86-7.87-68-15.07-109.24"/><path class="cls-3" d="M231.76,734.37c1.9,1.93,5.77,5.8,7.49,8,10.81,14.12,16.05,31.73,28,45.15a37,37,0,0,0,27.47,12.37H646c14.67,0,29.38-.09,44.08,0,3.09,0,6.19,0,9.25,0,15.47.09,26.22-1.56,34.92-15.56,2.63-4.19,5-8.54,7.47-12.83l0,0c5.12-9.22,10.17-18.38,16.7-26.41,0,0,0,0,0-.06a68.75,68.75,0,0,1,16.36-14.86,100.17,100.17,0,0,1,36-13.72,125.25,125.25,0,0,1,22.79-2.05A116.42,116.42,0,0,1,850.91,946a114.78,114.78,0,0,1-17.28,1.26H184.77"/><path class="cls-3" d="M119.2,936.37h0C78.43,917.65,49.52,876.76,50,829.58a113,113,0,0,1,4.62-30.84c7.51-25.15,23.89-46.72,45-61.82"/><path class="cls-3" d="M623.89,799.93a121.52,121.52,0,0,1-13.78-3.46S719,748.23,758.67,633.39c0,0,19.33,63.31-.18,111.65,0,0,0,0,0,.06"/><path class="cls-3" d="M741.76,771.51l0,0a67.75,67.75,0,0,1-4.93,4.78,106.79,106.79,0,0,1-46.71,23.58"/><path class="cls-3" d="M640.71,734.81c6.8-10.45,14.21-19.6,21.63-24.81,26.31-18.35,85.37-50.94,96.33-76.61"/><path class="cls-3" d="M610.11,796.47s2.79-7.32,7.47-17.8v0"/><path class="cls-3" d="M108.45,536c29.78-18.81,64.21-24.2,100.26-22.73"/><path class="cls-3" d="M86.27,748s-47.2-82-25.79-151.11"/><path class="cls-3" d="M833.51,713.92c35.45-44.82,48.86-105.2,42-161.37-8.22-67.11-46.88-137.4-119.65-147.1s-139.51,33.61-209.24,45.83"/><path class="cls-4" d="M657.2,903.49a43.7,43.7,0,0,1-43.53,43.74c-72.29.34-222.23.92-313.42.71,1-10.94-.31-23.77-1.38-31.46a46.32,46.32,0,0,0,7.41-1.93c1.56-.55,3.1-1.07,4.63-1.63l.55-.09-.06-.06c93.88-33.45,124.85-71.86,133.31-85.49.27.21.58.43.89.64a10.09,10.09,0,0,0,7.1,1.62l87.06-12.34a107.47,107.47,0,0,1,99.55,40.34C649.15,870.13,656.28,887.5,657.2,903.49Z"/><path class="cls-4" d="M298.69,915.1l12.22-2.18c-1.53.56-3.07,1.08-4.63,1.63a46.32,46.32,0,0,1-7.41,1.93Q298.78,915.75,298.69,915.1Z"/><path class="cls-5" d="M444.71,827.28c-8.46,13.63-39.43,52-133.31,85.49a93.41,93.41,0,0,1-20.74-58.87,94.56,94.56,0,0,1,6.46-34.28L373.31,625S350,528.92,405.84,399.78a13.83,13.83,0,0,0-.22-7.35c10.05-7.11,27.29-4.72,35.47-3V819.5A10.12,10.12,0,0,0,444.71,827.28Z"/><path class="cls-4" d="M801.49,870.13S752.07,930.78,711,937.21a12.46,12.46,0,0,1-1.2-1.4c-1.65-2.21-2.45-4.88-3.58-7.36a16.93,16.93,0,0,0-1.72-2.94l9.13-9.92a13.06,13.06,0,0,1,17.16-1.84L734,916c8.73,6.19,19.85-4.23,12.44-12.93a36.1,36.1,0,0,0-7-6.28c10.87-3.22,36-11,31.76-26.68-4.53-16.6,11.4-21.56,12.31-21a48.9,48.9,0,0,1,10,8.54A54.91,54.91,0,0,1,801.49,870.13Z"/><path class="cls-4" d="M809.79,944.57s-33.73,1.74-61.54,1.34h-.1l-.73,0c-1.81-.09-3.86-.15-6.07-.27,45.43-10.39,69.29-43.44,70.24-44.72C816.07,921.81,816.22,942,809.79,944.57Z"/><line class="cls-6" x1="384.73" y1="947.97" x2="396.46" y2="947.97"/><path class="cls-6" d="M689.36,885.48v-26A20.47,20.47,0,0,1,709.83,839h18v-5.82a1.92,1.92,0,0,1,2.72-1.72L748.33,840s27.17-2.45,45.18,17.67,27.91,82.28,16.27,86.88c0,0-33.79,1.74-61.63,1.34"/><path class="cls-6" d="M639.3,857.54c.57.72,50.05,8.63,50.05,8.63"/><path class="cls-6" d="M748,848.51s2.12,6.56,0,11.22"/><path class="cls-6" d="M801.47,870.13s-50,61.41-91.27,67.22"/><path class="cls-6" d="M741.35,945.61c45.42-10.39,69.29-43.44,70.24-44.72v0"/><line class="cls-6" x1="752.59" y1="891.91" x2="752.56" y2="891.91"/><path class="cls-6" d="M649.22,928.28c12.68-7.59,48.41-18.69,57,.16,1.13,2.49,1.93,5.18,3.57,7.37,7.18,9.6,26.86,9.53,37.62,10.08,7.91.4,15.87.45,23.79.09"/><path class="cls-6" d="M445.68,827.79s-12.28,19.35-26.57,26.33"/><path class="cls-6" d="M783.5,849.14c-.91-.59-16.84,4.38-12.31,21,4.27,15.68-20.88,23.46-31.75,26.69a35.13,35.13,0,0,1,7,6.28c7.41,8.7-3.71,19.11-12.41,12.92l-3.25-2.27a13,13,0,0,0-17.15,1.84l-10.24,11.15"/><line class="cls-6" x1="583.56" y1="864.37" x2="311.46" y2="912.83"/><path class="cls-6" d="M300.25,947.94c-42-.1-71.56-.37-75.29-.89,0-5.33,5.72-11,12.77-15.66s15.38-8.11,20.61-9.09l40.35-7.2,12.77-2.27a93.39,93.39,0,0,1-20.8-58.93,94.56,94.56,0,0,1,6.46-34.28L373.31,625S350,528.92,405.84,399.78a13.83,13.83,0,0,0-.22-7.35h0a13.69,13.69,0,0,0-13.14-9.71h-.7a18.47,18.47,0,0,1-14.25-30.18l43-81.9A11.6,11.6,0,0,1,441.09,278V819.5a10.17,10.17,0,0,0,11.61,10l87.06-12.34a107.47,107.47,0,0,1,99.55,40.34c9.84,12.59,17,30,17.89,46a43.7,43.7,0,0,1-43.53,43.74c-72.29.34-222.23.92-313.42.71"/></svg>