<svg id="Layer_2" data-name="Layer 2" xmlns="http://www.w3.org/2000/svg" xmlns:xlink="http://www.w3.org/1999/xlink" viewBox="0 0 1000 1000"><defs><style>.cls-1,.cls-10,.cls-5,.cls-6{fill:none;}.cls-2{opacity:0.38;}.cls-3{clip-path:url(#clip-path);}.cls-4{fill:#d7e8f0;}.cls-5{stroke:#ccdde2;}.cls-5,.cls-6{stroke-miterlimit:10;}.cls-10,.cls-5,.cls-6{stroke-width:4.47px;}.cls-10,.cls-6{stroke:#000;}.cls-7{fill:#fff;}.cls-8{fill:#3fbdf1;}.cls-9{fill:#2e2e2e;}.cls-10{stroke-linecap:round;stroke-linejoin:round;}</style><clipPath id="clip-path"><path class="cls-1" d="M306,574.51v0c31.11-33.36,11.56-92.53,56.18-121.39,101-65.33,273.1-85.86,273.1-85.86l-1.82-.45c.6.12,1.19.27,1.82.45,49.18,12.8,96.45,43.4,137.29,100.38,20.87,29.12,37.3,62,43.94,97.47,8.25,44.06-.74,88.23-20.69,127.53,0,0-19.29,33.88-37,49.77-8.63,8.19-17.68,15.9-26,24.32,0,0-17.35,16.32-35.69,53.71-7.56,13.9-15.87,27.24-28.61,37.24-21.7,17.09-52.42,19.68-78.8,11.49-32-9.94-66.32-34.74-77.61-67.37-12.44-36-28.4-72-71.06-76.5C404,721.43,368.2,741,331.4,727.35,271.12,705,305.47,628.43,306,574.48"/></clipPath></defs><g class="cls-2"><g class="cls-3"><path class="cls-1" d="M660.71,557.92l-.09,2.25h14.91l-.09-2.3a29.34,29.34,0,0,1,.09-3.51H660.61A28.17,28.17,0,0,1,660.71,557.92Z"/><path class="cls-1" d="M566.94,557.92l-.09,2.25h14.91l-.1-2.3a31.58,31.58,0,0,1,.09-3.51H566.84A32.49,32.49,0,0,1,566.94,557.92Z"/><path class="cls-1" d="M473.16,557.92l-.09,2.25H488l-.09-2.3a29.34,29.34,0,0,1,.09-3.51H473.07A30.18,30.18,0,0,1,473.16,557.92Z"/><path class="cls-1" d="M379.39,557.92l-.09,2.25h14.91l-.09-2.3a29.34,29.34,0,0,1,.09-3.51H379.29A28.17,28.17,0,0,1,379.39,557.92Z"/><path class="cls-1" d="M754.48,557.92l-.09,2.25H769.3l-.09-2.3a29.34,29.34,0,0,1,.09-3.51H754.38A28.17,28.17,0,0,1,754.48,557.92Z"/><polygon class="cls-4" points="379.3 560.17 379 567.65 379.15 567.65 379.15 579.48 394.93 579.48 394.93 577.62 394.21 560.17 379.3 560.17"/><path class="cls-4" d="M372,537.8a26.56,26.56,0,0,1,7.31,16.56h14.92A26.38,26.38,0,0,1,400.44,539a26.91,26.91,0,0,1,20.4-9.29h4.56l.88-21.56a26.56,26.56,0,0,0-26.71-28.23H374a26.54,26.54,0,0,0-26.72,28.17l.88,21.62h4.58A26.88,26.88,0,0,1,372,537.8Z"/><polygon class="cls-4" points="473.07 560.17 472.77 567.65 472.92 567.65 472.92 579.48 488.7 579.48 488.7 577.62 487.99 560.17 473.07 560.17"/><path class="cls-4" d="M465.76,537.8a26.67,26.67,0,0,1,7.31,16.56H488A26.38,26.38,0,0,1,494.21,539a26.93,26.93,0,0,1,20.4-9.29h4.57l.87-21.56a26.56,26.56,0,0,0-26.7-28.23H467.72A26.54,26.54,0,0,0,441,508.08l.89,21.62h4.57A26.91,26.91,0,0,1,465.76,537.8Z"/><polygon class="cls-4" points="566.85 560.17 566.54 567.65 566.69 567.65 566.69 579.48 582.47 579.48 582.47 577.62 581.76 560.17 566.85 560.17"/><path class="cls-4" d="M559.53,537.8a26.56,26.56,0,0,1,7.31,16.56h14.91A26.51,26.51,0,0,1,588,539a26.93,26.93,0,0,1,20.4-9.29H613l.87-21.56a26.56,26.56,0,0,0-26.7-28.23H561.5a26.54,26.54,0,0,0-26.72,28.17l.88,21.62h4.57A26.91,26.91,0,0,1,559.53,537.8Z"/><polygon class="cls-4" points="660.62 560.17 660.32 567.65 660.47 567.65 660.47 579.48 676.24 579.48 676.24 577.62 675.53 560.17 660.62 560.17"/><path class="cls-4" d="M653.3,537.8a26.56,26.56,0,0,1,7.31,16.56h14.92A26.38,26.38,0,0,1,681.76,539a26.91,26.91,0,0,1,20.4-9.29h4.56l.88-21.56a26.56,26.56,0,0,0-26.71-28.23H655.27a26.54,26.54,0,0,0-26.72,28.17l.88,21.62H634A26.88,26.88,0,0,1,653.3,537.8Z"/><polygon class="cls-4" points="754.39 560.17 754.09 567.65 754.24 567.65 754.24 579.48 770.02 579.48 770.02 577.61 769.3 560.17 754.39 560.17"/><path class="cls-4" d="M747.07,537.8a26.56,26.56,0,0,1,7.31,16.56H769.3A26.38,26.38,0,0,1,775.53,539a26.91,26.91,0,0,1,20.4-9.29h4.57l.87-21.56a26.56,26.56,0,0,0-26.7-28.23H749a26.54,26.54,0,0,0-26.72,28.17l.89,21.62h4.57A26.88,26.88,0,0,1,747.07,537.8Z"/><path class="cls-4" d="M848.16,560.17l-.3,7.48H848v11.83h15.78V567.65H886a7.61,7.61,0,0,0,7.61-7.31l.15-3.85a10.64,10.64,0,0,1-7.76,3.68Z"/><path class="cls-4" d="M840.85,537.8a26.56,26.56,0,0,1,7.31,16.56H886a7.62,7.62,0,0,0,7.61-7.3l1.57-38.92a26.56,26.56,0,0,0-26.7-28.23H842.82a26.52,26.52,0,0,0-26.72,28.17L817,529.7h4.57A26.91,26.91,0,0,1,840.85,537.8Z"/><path class="cls-1" d="M660.71,657.49l-.09,2.25h14.91l-.09-2.31a29.17,29.17,0,0,1,.09-3.5H660.61A28.12,28.12,0,0,1,660.71,657.49Z"/><path class="cls-1" d="M566.94,657.49l-.09,2.25h14.91l-.1-2.31a31.4,31.4,0,0,1,.09-3.5H566.84A32.42,32.42,0,0,1,566.94,657.49Z"/><path class="cls-1" d="M473.16,657.49l-.09,2.25H488l-.09-2.31a29.17,29.17,0,0,1,.09-3.5H473.07A30.12,30.12,0,0,1,473.16,657.49Z"/><path class="cls-1" d="M379.39,657.49l-.09,2.25h14.91l-.09-2.31a29.17,29.17,0,0,1,.09-3.5H379.29A28.12,28.12,0,0,1,379.39,657.49Z"/><path class="cls-1" d="M754.48,657.49l-.09,2.25H769.3l-.09-2.31a29.17,29.17,0,0,1,.09-3.5H754.38A28.12,28.12,0,0,1,754.48,657.49Z"/><polygon class="cls-4" points="379.3 659.74 379 667.21 379.15 667.21 379.15 679.05 394.93 679.05 394.93 677.18 394.21 659.74 379.3 659.74"/><path class="cls-4" d="M372,637.36a26.61,26.61,0,0,1,7.31,16.57h14.92a26.41,26.41,0,0,1,6.23-15.38,27,27,0,0,1,20.4-9.29h4.56l.88-21.56a26.56,26.56,0,0,0-26.71-28.22H374a26.54,26.54,0,0,0-26.72,28.17l.88,21.61h4.58A26.93,26.93,0,0,1,372,637.36Z"/><polygon class="cls-4" points="473.07 659.74 472.77 667.21 472.92 667.21 472.92 679.05 488.7 679.05 488.7 677.18 487.99 659.74 473.07 659.74"/><path class="cls-4" d="M465.76,637.36a26.72,26.72,0,0,1,7.31,16.57H488a26.41,26.41,0,0,1,6.23-15.38,27,27,0,0,1,20.4-9.29h4.57l.87-21.56a26.56,26.56,0,0,0-26.7-28.22H467.72A26.54,26.54,0,0,0,441,607.65l.89,21.61h4.57A27,27,0,0,1,465.76,637.36Z"/><polygon class="cls-4" points="566.85 659.74 566.54 667.21 566.69 667.21 566.69 679.05 582.47 679.05 582.47 677.18 581.76 659.74 566.85 659.74"/><path class="cls-4" d="M559.53,637.36a26.61,26.61,0,0,1,7.31,16.57h14.91A26.54,26.54,0,0,1,588,638.55a27,27,0,0,1,20.4-9.29H613l.87-21.56a26.56,26.56,0,0,0-26.7-28.22H561.5a26.54,26.54,0,0,0-26.72,28.17l.88,21.61h4.57A27,27,0,0,1,559.53,637.36Z"/><polygon class="cls-4" points="660.62 659.74 660.32 667.21 660.47 667.21 660.47 679.05 676.24 679.05 676.24 677.18 675.53 659.74 660.62 659.74"/><path class="cls-4" d="M653.3,637.36a26.61,26.61,0,0,1,7.31,16.57h14.92a26.41,26.41,0,0,1,6.23-15.38,27,27,0,0,1,20.4-9.29h4.56l.88-21.56a26.56,26.56,0,0,0-26.71-28.22H655.27a26.54,26.54,0,0,0-26.72,28.17l.88,21.61H634A26.93,26.93,0,0,1,653.3,637.36Z"/><polygon class="cls-4" points="754.39 659.74 754.09 667.21 754.24 667.21 754.24 679.05 770.02 679.05 770.02 677.18 769.3 659.74 754.39 659.74"/><path class="cls-4" d="M747.07,637.36a26.61,26.61,0,0,1,7.31,16.57H769.3a26.41,26.41,0,0,1,6.23-15.38,27,27,0,0,1,20.4-9.29h4.57l.87-21.56a26.56,26.56,0,0,0-26.7-28.22H749a26.54,26.54,0,0,0-26.72,28.17l.89,21.61h4.57A26.93,26.93,0,0,1,747.07,637.36Z"/><path class="cls-4" d="M848.16,659.74l-.3,7.47H848v11.84h15.78V667.21H886a7.61,7.61,0,0,0,7.61-7.3l.15-3.86a10.62,10.62,0,0,1-7.76,3.69Z"/><path class="cls-4" d="M840.85,637.36a26.61,26.61,0,0,1,7.31,16.57H886a7.63,7.63,0,0,0,7.61-7.31l1.57-38.92a26.56,26.56,0,0,0-26.7-28.22H842.82a26.52,26.52,0,0,0-26.72,28.17l.88,21.61h4.57A27,27,0,0,1,840.85,637.36Z"/><path class="cls-1" d="M660.71,757.05l-.09,2.26h14.91l-.09-2.31a29.39,29.39,0,0,1,.09-3.51H660.61A28.22,28.22,0,0,1,660.71,757.05Z"/><path class="cls-1" d="M566.94,757.05l-.09,2.26h14.91l-.1-2.31a31.65,31.65,0,0,1,.09-3.51H566.84A32.56,32.56,0,0,1,566.94,757.05Z"/><path class="cls-1" d="M473.16,757.05l-.09,2.26H488l-.09-2.31a29.39,29.39,0,0,1,.09-3.51H473.07A30.23,30.23,0,0,1,473.16,757.05Z"/><path class="cls-1" d="M379.39,757.05l-.09,2.26h14.91l-.09-2.31a29.39,29.39,0,0,1,.09-3.51H379.29A28.22,28.22,0,0,1,379.39,757.05Z"/><path class="cls-1" d="M754.48,757.05l-.09,2.26H769.3l-.09-2.31a29.39,29.39,0,0,1,.09-3.51H754.38A28.22,28.22,0,0,1,754.48,757.05Z"/><polygon class="cls-4" points="379.3 759.31 379 766.78 379.15 766.78 379.15 778.61 394.93 778.61 394.93 776.75 394.21 759.31 379.3 759.31"/><path class="cls-4" d="M372,736.93a26.58,26.58,0,0,1,7.31,16.56h14.92a26.38,26.38,0,0,1,6.23-15.37,27,27,0,0,1,20.4-9.29h4.56l.88-21.56a26.56,26.56,0,0,0-26.71-28.22H374a26.54,26.54,0,0,0-26.72,28.17l.88,21.61h4.58A26.93,26.93,0,0,1,372,736.93Z"/><polygon class="cls-4" points="473.07 759.31 472.77 766.78 472.92 766.78 472.92 778.61 488.7 778.61 488.7 776.75 487.99 759.31 473.07 759.31"/><path class="cls-4" d="M465.76,736.93a26.69,26.69,0,0,1,7.31,16.56H488a26.38,26.38,0,0,1,6.23-15.37,27,27,0,0,1,20.4-9.29h4.57l.87-21.56a26.56,26.56,0,0,0-26.7-28.22H467.72A26.54,26.54,0,0,0,441,707.22l.89,21.61h4.57A27,27,0,0,1,465.76,736.93Z"/><polygon class="cls-4" points="566.85 759.31 566.54 766.78 566.69 766.78 566.69 778.61 582.47 778.61 582.47 776.75 581.76 759.31 566.85 759.31"/><path class="cls-4" d="M559.53,736.93a26.58,26.58,0,0,1,7.31,16.56h14.91A26.51,26.51,0,0,1,588,738.12a27,27,0,0,1,20.4-9.29H613l.87-21.56a26.56,26.56,0,0,0-26.7-28.22H561.5a26.54,26.54,0,0,0-26.72,28.17l.88,21.61h4.57A27,27,0,0,1,559.53,736.93Z"/><polygon class="cls-4" points="660.62 759.31 660.32 766.78 660.47 766.78 660.47 778.61 676.24 778.61 676.24 776.75 675.53 759.31 660.62 759.31"/><path class="cls-4" d="M653.3,736.93a26.58,26.58,0,0,1,7.31,16.56h14.92a26.38,26.38,0,0,1,6.23-15.37,27,27,0,0,1,20.4-9.29h4.56l.88-21.56a26.56,26.56,0,0,0-26.71-28.22H655.27a26.54,26.54,0,0,0-26.72,28.17l.88,21.61H634A26.93,26.93,0,0,1,653.3,736.93Z"/><polygon class="cls-4" points="754.39 759.31 754.09 766.78 754.24 766.78 754.24 778.61 770.02 778.61 770.02 776.74 769.3 759.31 754.39 759.31"/><path class="cls-4" d="M747.07,736.93a26.58,26.58,0,0,1,7.31,16.56H769.3a26.38,26.38,0,0,1,6.23-15.37,27,27,0,0,1,20.4-9.29h4.57l.87-21.56a26.56,26.56,0,0,0-26.7-28.22H749a26.54,26.54,0,0,0-26.72,28.17l.89,21.61h4.57A26.93,26.93,0,0,1,747.07,736.93Z"/><path class="cls-4" d="M848.16,759.31l-.3,7.47H848v11.83h15.78V766.78H886a7.61,7.61,0,0,0,7.61-7.31l.15-3.85a10.62,10.62,0,0,1-7.76,3.69Z"/><path class="cls-4" d="M840.85,736.93a26.58,26.58,0,0,1,7.31,16.56H886a7.62,7.62,0,0,0,7.61-7.3l1.57-38.92a26.56,26.56,0,0,0-26.7-28.22H842.82a26.52,26.52,0,0,0-26.72,28.17l.88,21.61h4.57A27,27,0,0,1,840.85,736.93Z"/><path class="cls-1" d="M660.71,856.62l-.09,2.25h14.91l-.09-2.3a29.34,29.34,0,0,1,.09-3.51H660.61A28.17,28.17,0,0,1,660.71,856.62Z"/><path class="cls-1" d="M566.94,856.62l-.09,2.25h14.91l-.1-2.3a31.58,31.58,0,0,1,.09-3.51H566.84A32.49,32.49,0,0,1,566.94,856.62Z"/><path class="cls-1" d="M473.16,856.62l-.09,2.25H488l-.09-2.3a29.34,29.34,0,0,1,.09-3.51H473.07A30.18,30.18,0,0,1,473.16,856.62Z"/><path class="cls-1" d="M379.39,856.62l-.09,2.25h14.91l-.09-2.3a29.34,29.34,0,0,1,.09-3.51H379.29A28.17,28.17,0,0,1,379.39,856.62Z"/><path class="cls-1" d="M754.48,856.62l-.09,2.25H769.3l-.09-2.3a29.34,29.34,0,0,1,.09-3.51H754.38A28.17,28.17,0,0,1,754.48,856.62Z"/><polygon class="cls-4" points="379.3 858.87 379 866.35 379.15 866.35 379.15 878.18 394.93 878.18 394.93 876.32 394.21 858.87 379.3 858.87"/><path class="cls-4" d="M372,836.5a26.56,26.56,0,0,1,7.31,16.56h14.92a26.38,26.38,0,0,1,6.23-15.37,26.91,26.91,0,0,1,20.4-9.29h4.56l.88-21.56a26.56,26.56,0,0,0-26.71-28.23H374a26.54,26.54,0,0,0-26.72,28.17l.88,21.62h4.58A26.88,26.88,0,0,1,372,836.5Z"/><polygon class="cls-4" points="473.07 858.87 472.77 866.35 472.92 866.35 472.92 878.18 488.7 878.18 488.7 876.32 487.99 858.87 473.07 858.87"/><path class="cls-4" d="M465.76,836.5a26.67,26.67,0,0,1,7.31,16.56H488a26.38,26.38,0,0,1,6.23-15.37,26.93,26.93,0,0,1,20.4-9.29h4.57l.87-21.56a26.56,26.56,0,0,0-26.7-28.23H467.72A26.54,26.54,0,0,0,441,806.78l.89,21.62h4.57A26.91,26.91,0,0,1,465.76,836.5Z"/><polygon class="cls-4" points="566.85 858.87 566.54 866.35 566.69 866.35 566.69 878.18 582.47 878.18 582.47 876.32 581.76 858.87 566.85 858.87"/><path class="cls-4" d="M559.53,836.5a26.56,26.56,0,0,1,7.31,16.56h14.91A26.51,26.51,0,0,1,588,837.69a26.93,26.93,0,0,1,20.4-9.29H613l.87-21.56a26.56,26.56,0,0,0-26.7-28.23H561.5a26.54,26.54,0,0,0-26.72,28.17l.88,21.62h4.57A26.91,26.91,0,0,1,559.53,836.5Z"/><polygon class="cls-4" points="660.62 858.87 660.32 866.35 660.47 866.35 660.47 878.18 676.24 878.18 676.24 876.32 675.53 858.87 660.62 858.87"/><path class="cls-4" d="M653.3,836.5a26.56,26.56,0,0,1,7.31,16.56h14.92a26.38,26.38,0,0,1,6.23-15.37,26.91,26.91,0,0,1,20.4-9.29h4.56l.88-21.56a26.56,26.56,0,0,0-26.71-28.23H655.27a26.54,26.54,0,0,0-26.72,28.17l.88,21.62H634A26.88,26.88,0,0,1,653.3,836.5Z"/><polygon class="cls-4" points="754.39 858.87 754.09 866.35 754.24 866.35 754.24 878.18 770.02 878.18 770.02 876.31 769.3 858.87 754.39 858.87"/><path class="cls-4" d="M747.07,836.5a26.56,26.56,0,0,1,7.31,16.56H769.3a26.38,26.38,0,0,1,6.23-15.37,26.91,26.91,0,0,1,20.4-9.29h4.57l.87-21.56a26.56,26.56,0,0,0-26.7-28.23H749a26.54,26.54,0,0,0-26.72,28.17l.89,21.62h4.57A26.88,26.88,0,0,1,747.07,836.5Z"/><path class="cls-4" d="M848.16,858.87l-.3,7.48H848v11.83h15.78V866.35H886a7.62,7.62,0,0,0,7.61-7.31l.15-3.85a10.64,10.64,0,0,1-7.76,3.68Z"/><path class="cls-4" d="M840.85,836.5a26.56,26.56,0,0,1,7.31,16.56H886a7.62,7.62,0,0,0,7.61-7.3l1.57-38.92a26.56,26.56,0,0,0-26.7-28.23H842.82a26.52,26.52,0,0,0-26.72,28.17L817,828.4h4.57A26.91,26.91,0,0,1,840.85,836.5Z"/></g></g><path class="cls-4" d="M361.31,265.58H293.05a21.35,21.35,0,0,0-21.36,21.35v68.25a21.37,21.37,0,0,0,21.36,21.37h68.26a21.37,21.37,0,0,0,21.35-21.37V286.93A21.35,21.35,0,0,0,361.31,265.58ZM340,342a16.66,16.66,0,0,1-12,4.64,16.47,16.47,0,0,1-11.28-3.92,14.79,14.79,0,0,1-3.6-4.61,4.42,4.42,0,0,1,3.55-6.26,4.77,4.77,0,0,1,5,2.63,7,7,0,0,0,1.57,2.3,6.57,6.57,0,0,0,4.72,1.89,6.49,6.49,0,0,0,5-2.25,8.85,8.85,0,0,0,2-6.11A8.16,8.16,0,0,0,333,324.6a6.23,6.23,0,0,0-4.75-2.13h-.05a3.62,3.62,0,0,1-3.72-4.07v-.16a3.5,3.5,0,0,1,2.79-3,7.13,7.13,0,0,0,3.57-1.55,6,6,0,0,0,2-4.77,5.17,5.17,0,0,0-5.5-5.55,5.76,5.76,0,0,0-4.21,1.71,6.42,6.42,0,0,0-1.38,2.06,4.14,4.14,0,0,1-4.51,2.3l-.12,0a4.4,4.4,0,0,1-3.33-6.1,12.4,12.4,0,0,1,1.14-2,12.72,12.72,0,0,1,5.2-4.28,17.59,17.59,0,0,1,7.48-1.55q7.1,0,11.37,4.52a11.83,11.83,0,0,1,3.52,8.35q0,6.61-7.22,10.54a11.7,11.7,0,0,1,6.9,4.16,11.93,11.93,0,0,1,2.58,7.76A15.07,15.07,0,0,1,340,342Z"/><path class="cls-4" d="M479,265.58H410.77a21.37,21.37,0,0,0-21.37,21.35v68.25a21.39,21.39,0,0,0,21.37,21.37H479a21.37,21.37,0,0,0,21.35-21.37V286.93A21.35,21.35,0,0,0,479,265.58Zm-22.58,72a4.54,4.54,0,1,1,0,9.08H435.66A6.48,6.48,0,0,1,430,337a.21.21,0,0,0,.06-.1q2.79-4.61,11-12.23,6.62-6.17,8.12-8.36a10.68,10.68,0,0,0,2-6,6.77,6.77,0,0,0-1.76-5,6.65,6.65,0,0,0-11.16,2.54,4.59,4.59,0,0,1-4.77,3.27l-.57-.07a4.55,4.55,0,0,1-3.82-6.1,12.83,12.83,0,0,1,4.22-6,18.33,18.33,0,0,1,11.49-3.52q7.56,0,11.87,4.07A13.32,13.32,0,0,1,461,309.63a17.75,17.75,0,0,1-1.23,6.57,27.19,27.19,0,0,1-3.92,6.53,65.35,65.35,0,0,1-6.42,6.51c-3.08,2.84-5,4.71-5.87,5.65a15.7,15.7,0,0,0-2,2.71Z"/><path class="cls-5" d="M758.68,742.38c-8.63,8.19-17.68,15.9-26,24.32"/><path class="cls-5" d="M633.29,366.78c.6.12,1.19.27,1.82.45,49.18,12.8,96.45,43.4,137.29,100.38,20.87,29.12,37.3,62,43.94,97.47,8.25,44.06-.74,88.23-20.69,127.53"/><path class="cls-5" d="M697,820.41c-7.56,13.9-15.87,27.24-28.61,37.24-21.7,17.09-52.42,19.68-78.8,11.49-32-9.94-66.32-34.74-77.61-67.37-12.44-36-28.4-72-71.06-76.5-37.09-3.84-72.9,15.71-109.7,2.08-71.77-26.58-9.37-130.12-29.59-180.76-8.3-20.81-24.68-32.84-44.44-41-36.8-15.3-85.23-17.36-114.82-38.31C91,430.88,77.05,359,67.53,301.8a629.62,629.62,0,0,1-.12-203.09"/><path class="cls-6" d="M263,95.27l-2.48,5.24c-1.23,2.62-2.43,5.29-3.55,8a232.06,232.06,0,0,0-13.05,40.91,227.21,227.21,0,0,0-4.62,30.42c-.15,1.77-.27,3.55-.36,5.32a224.29,224.29,0,0,0,.17,30.78c0,.38,0,.78.07,1.17H161.5a188.38,188.38,0,0,0,1.62-19.64c0-1.66.07-3.36.07-5,0-4.55-.16-9.11-.52-13.63A170.86,170.86,0,0,0,160,158.36c-.85-4.53-1.88-9.05-3.12-13.51a180.79,180.79,0,0,0-17.32-42.15l-1-1.85-3.16-5.58Z"/><path class="cls-6" d="M263,95.27l-2.48,5.24c-1.23,2.62-2.43,5.29-3.55,8a232.06,232.06,0,0,0-13.05,40.91,65.73,65.73,0,0,1-22,3.74,72,72,0,0,1-7.24-.38,66.48,66.48,0,0,1-58.61-57.47Z"/><path class="cls-6" d="M263,95.27l-2.48,5.24c-1.23,2.62-2.43,5.29-3.55,8a232.06,232.06,0,0,0-13.05,40.91,227.21,227.21,0,0,0-4.62,30.42c-1.41.07-2.82.1-4.24.1a104.51,104.51,0,0,1-69.22-26.09,107.53,107.53,0,0,1-9-9,180.79,180.79,0,0,0-17.32-42.15l-1-1.85-3.16-5.58Z"/><path class="cls-6" d="M139.16,95.27H263l-2.48,5.24c-1.23,2.62-2.43,5.29-3.55,8a232.06,232.06,0,0,0-13.05,40.91,227.21,227.21,0,0,0-4.62,30.42"/><path class="cls-6" d="M239,185.12a224.29,224.29,0,0,0,.17,30.78,103,103,0,0,1-26-4.17,104.66,104.66,0,0,1-50.49-32.95A170.86,170.86,0,0,0,160,158.36c-.85-4.53-1.88-9.05-3.12-13.51a180.79,180.79,0,0,0-17.32-42.15l-1-1.85"/><path class="cls-6" d="M201.34,95.27a104.81,104.81,0,0,1-20.61,43.48,102.7,102.7,0,0,1-14.87,15.06c-1.9,1.62-3.86,3.12-5.91,4.55-.85-4.53-1.88-9.05-3.12-13.51a180.79,180.79,0,0,0-17.32-42.15l-1-1.85-3.16-5.58Z"/><path class="cls-6" d="M214.73,152.74A104,104,0,0,1,199,173.51,105.34,105.34,0,0,1,178,190c-.85.53-1.71,1-2.59,1.48a97.69,97.69,0,0,1-12.3,5.93c0-1.66.07-3.36.07-5,0-4.55-.16-9.11-.52-13.63A170.86,170.86,0,0,0,160,158.36c-.85-4.53-1.88-9.05-3.12-13.51a180.79,180.79,0,0,0-17.32-42.15l-1-1.85-3.16-5.58h93.44A105.23,105.23,0,0,1,214.73,152.74Z"/><rect x="67.39" y="91.24" width="204.3" height="14.96" rx="7.48"/><path class="cls-7" d="M555.94,276.61c-2.11-2.29-4.43-3.84-7-4.14-34.68,2.27-66.86,20.55-97.85,36.59-25.75,13.34-51.05,27.57-75.64,43-18.34,11.49-36.32,23.63-53.59,36.73-11.78,8.9-23.3,18.28-34.2,28.28-2.14,2-23.67,20.34-19.41,24.8s11-1.58,14.74-3.81,9.49-6.61,13.33-8.66a109.84,109.84,0,0,0-11.93,27.33c-.93,3.48-2.21,7.29-2,10.92a5.07,5.07,0,0,0,5.27,4.74,5.38,5.38,0,0,0,4.91-3.73l15.75-38.16c-2.11,5.89-6.58,20-8,29.59-.65,4.26,1.07,7.74,5.09,6.79a6.58,6.58,0,0,0,4.41-4.08L324,426.08a114.28,114.28,0,0,0-4.71,30,3.7,3.7,0,0,0,3.7,3.78c4.34,0,5-7.2,6.13-10.21a70,70,0,0,1,14.47-23c4.4-4.67,10.36-7.86,15.92-11a225.39,225.39,0,0,1,34.12-15c26.28-9.47,53.4-16.37,80.29-23.81.35-.09.68-.21,1-.3.8-.21,1.58-.45,2.38-.66,15.81-4.43,31.59-9,47.09-14.41,1-.35,2-.68,2.92-1a.16.16,0,0,1,.12-.06c9.14-4.1,18-9.08,25.19-15.06,0,0,0,0,.06-.06C577.61,321.45,562.58,288.37,555.94,276.61ZM308.62,429.78a12.33,12.33,0,0,1,.8-2Z"/><path class="cls-7" d="M308.35,430.46s0-.09.06-.12l.21-.56"/><line class="cls-7" x1="309.45" y1="427.69" x2="309.42" y2="427.75"/><path class="cls-7" d="M308.35,430.46s0-.09.06-.12l.21-.56"/><path class="cls-7" d="M670.88,594.75s2,60,49,70.33S763.5,686.93,798,692.61s-23.41,53-23.41,53l-58.19-12.18,14.39,30.07-24,64.92S606.35,727.5,571.05,665s46.56-83.82,49-83.82S670.88,594.75,670.88,594.75Z"/><path class="cls-8" d="M590.77,659.66c1.37,1.64,2.8,3.25,4.26,4.88,3.58,3.53-4.37,12.36-12.92,16.35-26.35-37.07-51.29-77.14-70.64-117.74-1.34-2.83-2.68-5.69-4-8.55-.3-.62-.6-1.28-.86-1.93-1.73-4-3.73-8.66-5.36-12.65,14.29-11.17,37.63-34.89,51.38-53.56,9.55-13,21.76-15.36,31.52-14.61.12,0,.24,0,.33,0a51.62,51.62,0,0,1,12.36,2.62c.12,0,.23.09.35.11.39.12.75.24,1.13.39s.72.24,1.08.39a62.45,62.45,0,0,1,9.85,4.49c49.21,39,55.76,87.11,63.53,124.35C651.15,628.13,615.45,672.07,590.77,659.66Z"/><path class="cls-9" d="M611.05,459.05c-2.53,7.88-4.2,12.59-4.2,12.59s-2,5.62-6.37,4.11S570,462.92,552.67,486.46c-13.75,18.67-37.09,42.39-51.38,53.56a44.21,44.21,0,0,1-9.08,5.92c-10.39,4.17-22.27,12.71-22,2.06S465.27,379.26,474,376.82s106.3-19.29,94.84-71.65c0,0-7.5-31.35-19.88-32.69s6.58-.24,6.58-.24,60.37-1.34,76.15,41.77C644.21,348.36,621,428.12,611.05,459.05Z"/><path class="cls-8" d="M782.55,200c-3.55-1.16-6.4-18.66-13.07-14-4.26,3,1.4,20,1.78,22.95a46.8,46.8,0,0,1-1.84,20.31,4.39,4.39,0,0,1-.66.29A31.29,31.29,0,0,1,765,231c-.59.21-1.22.39-1.84.57s-1,.27-1.46.39l-1.64.35c-.77.15-1.52.3-2.29.42a46,46,0,0,1-7.09.54c-.86,0-1.72,0-2.56-.06-.53,0-1-.09-1.57-.12-.33,0-.69-.06-1-.12a40.29,40.29,0,0,1-5-.84c-.56-.11-1.1-.23-1.63-.38a13.11,13.11,0,0,1-1.58-.45c-.9-.27-1.79-.56-2.65-.86-.3-.12-.63-.24-1-.39-.81-.3-1.61-.65-2.39-1a.35.35,0,0,1-.2-.09,43.85,43.85,0,0,1-5.39-3,.71.71,0,0,1-.27-.18,46.42,46.42,0,0,1,31.64-80.4,45.89,45.89,0,0,1,25.19,7.44c.56.53,1.13,1.07,1.67,1.64s1.1,1.16,1.63,1.75c-9.49.42-.06,19.08,1.4,25.13C788.14,185.79,792,203,782.55,200Z"/><path class="cls-10" d="M714.2,732.89c9.49,18.49,18.51,34.39,26.82,47.87v0c28.25,46,47.84,64.36,47.84,64.36L765.7,942.47a9.68,9.68,0,0,1-5.39,6.58,9.38,9.38,0,0,1-4.11,1,9.82,9.82,0,0,1-9.79-9.79V870.64s-19.23-18-47.51-48.17c-32.07-34.21-75.77-84-116.19-140.75-.21-.27-.39-.57-.6-.83-26.35-37.07-51.29-77.14-70.64-117.74-1.34-2.83-2.68-5.69-4-8.55-.3-.62-.6-1.28-.86-1.93-1.88-4.08-3.64-8.16-5.36-12.27"/><path class="cls-10" d="M524.45,550.41s23.43,59.06,66.32,109.25c.39.45.75.89,1.13,1.34,1,1.19,2.06,2.35,3.13,3.54,22.54,25.28,50.13,47.69,82.25,58.11,12.24,4,24.59,7.33,36.92,10.24,25.3,6.08,50.54,10.51,74.66,15.66,55.64,11.82,105.23,27.27,135.42,74.37a9,9,0,0,0,16-7.89l-30.06-82.67s-58.92-20-116.28-40.37c-34.15-12.09-67.76-24.26-88.12-32.42-21.55-8.63-27.53-29.32-32.95-55.34-1.64-7.83-3.22-16.16-5.15-24.77-7.27-32.3-19.53-68.76-58.38-99.58v0"/><path class="cls-10" d="M296.36,429.37c-3.86,2.05-9.58,6.43-13.34,8.65s-10.52,8.21-14.74,3.81S285.55,419,287.7,417c10.88-10,22.39-19.36,34.18-28.28,17.29-13.08,35.25-25.23,53.61-36.73,24.58-15.4,49.89-29.62,75.63-43,39.65-20.54,81.24-44.68,127.52-34.35,16.27,3.63,32.22,11.74,43.42,24.31,17.8,19.94,17.43,48,12.19,72.65-7.37,34.69-19.12,71.63-29.07,105.64"/><path class="cls-10" d="M607.68,285.43c32.3,6,67.79,14.29,100.15,4.11,23.84-7.53,53.34-32.9,61.59-60.22v0A46.8,46.8,0,0,0,771.26,209c-.38-2.94-6-19.91-1.78-22.95,6.67-4.67,9.52,12.83,13.07,14,9.46,3,5.59-14.23,4.49-18.66-1.46-6.05-10.89-24.71-1.4-25.13,0,0,.12,0,.18,0,5.57-.12,11.76,18.85,12.18,20.87,4.49,20.54,3.12,42.06-.15,62.78-8.75,55.23-48.91,111.91-107.59,119.23-18,2.23-36.29,2.74-54.42,3.87"/><path class="cls-10" d="M607.67,285.42S601.46,264.15,623.3,246s17.59-51,2.42-60.65-37.45-16.22-54.73-2.58-23.2,25-23.2,25l5.46,5s-21.16,28.23-3.36,35.48,31.56-1.36,31.56-1.36"/><path class="cls-10" d="M573.08,186.83s7.46-.91,5.19,10"/><path class="cls-10" d="M590.58,175.08s11.79,5.34,9.52,11.73-6.05,4.57-4.62,16.39a23.66,23.66,0,0,1-1.39,11.93c-.8,1.92-3.28,3.46-2.51,5.79.82,2.5,4.7,3.25,6.87,2.81,2.71-.54,4.11-2.44,6.34-3.74a13.77,13.77,0,0,1,7.29-1.4c4.51.18,9.36,2.49,8.55,7.76-.69,4.51-5.43,6.61-8.7,9-5.6,4.19-9.46,19.21-.63,22.4"/><path class="cls-10" d="M296.36,429.37h0a110.54,110.54,0,0,0-11.94,27.32c-.92,3.49-2.2,7.28-2,10.92a5,5,0,0,0,5.26,4.72,5.39,5.39,0,0,0,4.93-3.71l15.74-38.17s0-.09,0-.12l.2-.55a18,18,0,0,1,.84-2.09l-.84,2.09-.2.55s0,.09,0,.12c-2.11,5.92-6.57,20-8,29.61-.64,4.24,1.07,7.74,5.1,6.77a6.48,6.48,0,0,0,4.39-4.07L324,426.09a114.26,114.26,0,0,0-4.69,30,3.69,3.69,0,0,0,3.69,3.76c4.35,0,5-7.18,6.14-10.19a70.14,70.14,0,0,1,14.46-23c4.42-4.7,10.35-7.86,15.92-11a223,223,0,0,1,34.12-15c27.38-9.88,55.71-17,83.71-24.76,15.81-4.42,31.6-9,47.11-14.39,73.07-25.48,35.17-80.06,35.17-80.06"/><path class="cls-10" d="M572.26,472.32a43.75,43.75,0,0,1,11.93-.47c.12,0,.24,0,.33,0a59.69,59.69,0,0,1,12.36,2.62l.35.11c.39.12.75.24,1.13.39s.72.24,1.08.39a62.45,62.45,0,0,1,9.85,4.49"/><ellipse cx="569.44" cy="196.83" rx="4.21" ry="2.73" transform="translate(131.76 610.89) rotate(-62.48)"/><line class="cls-10" x1="563.04" y1="251.11" x2="553.25" y2="272.24"/><path class="cls-10" d="M551.88,226.63s12.06,3,15.24-3.64"/><path class="cls-10" d="M782.55,200c-3.55-1.16-6.4-18.66-13.07-14-4.26,3,1.4,20,1.78,22.95a46.8,46.8,0,0,1-1.84,20.31v0l-.66.26A31.29,31.29,0,0,1,765,231c-.59.21-1.22.39-1.84.57s-1,.27-1.46.39l-1.64.35c-.77.15-1.52.3-2.29.42a46,46,0,0,1-7.09.54c-.86,0-1.72,0-2.56-.06-.53,0-1-.09-1.57-.12-.33,0-.69-.06-1-.12a40.29,40.29,0,0,1-5-.84c-.56-.11-1.1-.23-1.63-.38a13.11,13.11,0,0,1-1.58-.45c-.9-.27-1.79-.56-2.65-.86-.3-.12-.63-.24-1-.39-.81-.3-1.61-.65-2.39-1a.35.35,0,0,1-.2-.09,43.85,43.85,0,0,1-5.39-3,.71.71,0,0,1-.27-.18,46.4,46.4,0,1,1,56.61-73.09l.22.13c.56.53,1.13,1.07,1.67,1.64s1.1,1.16,1.63,1.75c-9.49.42-.06,19.08,1.4,25.13C788.14,185.79,792,203,782.55,200Z"/><line class="cls-10" x1="470.17" y1="378.81" x2="470.41" y2="556.41"/><path class="cls-10" d="M511.47,563.15s-26.05,2.62-34.65-.63a15.24,15.24,0,0,1-5-2.62,4,4,0,0,1-1.4-3.48,3.8,3.8,0,0,1,1.07-2c2.56-2.89,6.84-3.28,10.33-4.29a65.91,65.91,0,0,0,19.47-9.71"/><path d="M511.47,563.15s-26.05,2.62-34.65-.63a15.24,15.24,0,0,1-5-2.62,4,4,0,0,1-1.4-3.48,3.8,3.8,0,0,1,1.07-2c2.56-2.89,6.84-3.28,10.33-4.29a65.91,65.91,0,0,0,19.47-9.71"/></svg>