<svg id="Layer_2" data-name="Layer 2" xmlns="http://www.w3.org/2000/svg" viewBox="0 0 1000 1000"><defs><style>.cls-1,.cls-3,.cls-5{fill:none;stroke-width:4.72px;}.cls-1{stroke:#ccdde2;}.cls-1,.cls-3{stroke-miterlimit:10;}.cls-2{fill:#353642;}.cls-3,.cls-5{stroke:#000;}.cls-4{fill:#3fbdf1;}.cls-5{stroke-linejoin:round;}.cls-6{fill:#fff;}.cls-7{fill:#d7e8f0;}</style></defs><path class="cls-1" d="M756.26,471.77c.75-24.07,17.18-62.34-4.2-105"/><path class="cls-1" d="M690.77,291.59c-75.68-49-216.82-72.06-295.12-11.6"/><path class="cls-1" d="M771.48,536.48a132.5,132.5,0,0,0,6.76,13.62c17.27,30.31,41.42,56.25,67.48,79.46,41.73,37.17,70,81.82,45.57,137.73C866.57,823.92,820,861.84,773.43,899.92"/><path class="cls-1" d="M476,874.88s12.43-73.28,56.92-64.12,56.27,58.88,56.27,58.88"/><path class="cls-1" d="M525.08,810s-34.15,32-32.14,70.38"/><path class="cls-1" d="M521.13,832.35s-13.86,21.41-12.16,48"/><path class="cls-1" d="M532.59,824.5s18,25.51,17.33,50.38"/><path class="cls-1" d="M548,824.5s14.65,11.12,24.66,43.83"/><path class="cls-1" d="M529.64,842.42a130.11,130.11,0,0,0,3,46.2"/><path class="cls-1" d="M519.29,942.72c3.31-5.09,3.12-14.68,7.46-22.36,3.36-5.94,8.93-10.53,16.07-8.58,7.45,2,10.56,8.05,11.91,15.16.85,4.49,3.75,12.16,8.62,15.78"/><path class="cls-1" d="M583,871q3,9.59,4.62,17.64c1.61,19.85,2.2,38.21,2,54.12"/><path class="cls-1" d="M487,942.72c-3.05-19.84-4.21-40.85-4.09-49.53a156.59,156.59,0,0,1,1.26-18.33"/><path class="cls-1" d="M482.9,893.18s74,17.85,104.68-4.56"/><path class="cls-1" d="M460.47,313.38s29.18-36.33,69.82,0c0,0,10.42-38.26,59.4-32.75"/><path class="cls-1" d="M378.26,405.63s21.88-27.25,52.36,0c0,0,7.82-28.7,44.56-24.57"/><path class="cls-1" d="M439.48,327.58a52.83,52.83,0,0,0-10.87-.91,73.11,73.11,0,0,0-73.16,73"/><path class="cls-1" d="M401.16,468.25c-20.73-23.81-61.1-34.43-94.84-38.68-7.17-.88-14-1.51-20.35-1.89a224.83,224.83,0,0,0-43.39,1.17s0,0,0,0c-1.26.16-2.52.34-3.77.53-.41.07-1,.19-1.73.38"/><path class="cls-1" d="M198.24,440.73a57.18,57.18,0,0,1-17-35.34c-.15-1.86-.28-3.8-.28-5.69a57.46,57.46,0,0,1,50.66-57,114.15,114.15,0,0,1,8.49-19.84,112.1,112.1,0,0,1,199.33,4.72,72.77,72.77,0,0,1,62.2,72.1v.72a11.34,11.34,0,0,1-.07,1.54,1.24,1.24,0,0,1,0,.47v.32"/><path class="cls-1" d="M439.48,327.58a52.83,52.83,0,0,0-10.87-.91,73.11,73.11,0,0,0-73.16,73"/><line class="cls-1" x1="265.72" y1="643.71" x2="251.77" y2="705.77"/><path class="cls-1" d="M316.48,689.15a49.61,49.61,0,0,1-10.76-6.1c-8.58-6.38-15.19-15-21.1-23.9-5-7.55-10.44-16.54-18.9-15.44a14.59,14.59,0,0,0-5.25,1.82c-7.58,4.22-11.92,12.39-18.68,17.55-28.8,21.79-62-8.93-77.38-32.7-15-23.21-51-17.83-74.09-15C78.09,616.92,67,617.14,57.9,607.3c-8-8.68-10.28-21.73-5.18-32.2,26.09-53.68,79.71-109,145.52-134.37a215.37,215.37,0,0,1,38.81-11c1.82-.35,3.64-.63,5.5-.91,0,0,0,0,0,0a191.34,191.34,0,0,1,63.74.72h0"/><path class="cls-1" d="M733,942.71c-18.23-5.25-101.72-19.89-143.7-25.68"/><path class="cls-1" d="M483.16,903.73c-20.43-2.36-33.7-3.81-33.7-3.81C364.81,887.13,376,832.35,376,832.35s-21.22,7.86-27.89,29.84c-8.58,28.36-47.76,45.12-75.5,34.68-15.53-5.81-29.87-16.63-38.11-35.87-3.8-8.94-5.53-19.44-5.69-31-.19-12,1.35-25.06,3.93-38.33"/><path class="cls-1" d="M180.66,942.72c-11.94-33.24-19.24-69.49-13.45-104.81,4-24.52,16-44,28.49-63.67"/><line class="cls-1" x1="233.01" y1="787.26" x2="203.48" y2="943.29"/><path class="cls-2" d="M433.44,515.48l-2.93,2.93-2.42,2.36c.73-.82,1.42-1.64,2.14-2.43s1.2-1.35,1.79-2A4,4,0,0,1,433.44,515.48Z"/><path class="cls-3" d="M872.52,432.09c-.31-.35-.58-.66-.88-1-7.21-7.93-4.22-17.63,2.59-25.07,5.25-5.77,14-11.68,22.14-11.65,8,0,16.74,6.91,21.51,12.81,8.16,10.09,11.44,23,3.18,34a210.6,210.6,0,0,1-31.75,33.6C831.9,524.2,764,550.1,688.37,539.93c-7.42-1-17.48-4.57-24.57-7"/><path class="cls-3" d="M889.31,410.65c-7.4,2.81-16.18,9.82-16.93,18.38-.59,6.73,6.29,11.65,11.62,6.47"/><line class="cls-3" x1="823.33" y1="942.71" x2="173.21" y2="942.71"/><path class="cls-2" d="M663.8,533c-16.47,30.5-47.92,49.27-77.63,66.5-7.58,4.37-36.64,20.85-47.3,26.92-5.85-2-11.35-3.77-16.41-5.41-.16,0-.28-.09-.44-.13-21.48-6.79-35.44-10.28-37.45-10.78l22.26,6.7c-52.92-14.25-56.88-14.56-110.4-26.51-4.88-1.1-9.22-2.27-13-3.46,1-1.95,2-3.9,3.08-5.79a3.12,3.12,0,0,0,.16-.31c.16-.28.34-.6.47-.88.32-.57.63-1.13.91-1.67l.66-1.13.29-.47.12-.22q2.31-4.16,4.72-8.11c5.12-8.62,10.44-16.67,15.85-24.19,6-8.33,12.13-16,18.33-23.17l.09-.09,2.42-2.36,2.93-2.93,23.65,5.29s26.5-25.7,42.23-22.36c7.61-3.71,17.71-4.38,25.91-6.14,10.33-2.22,22.91-2.73,29.77-12,7.58-10.23,9.92-25.07,7.75-37.37-2.48-14-11.63-29.83-25.58-34.64-12.25-4.22-25.54-5-38.38-5.69,30.79-1.17,65.18-13.45,94.14-5.81a.94.94,0,0,1,.28.06l4.75,1.32a12.18,12.18,0,0,0,4.53.38c1,9.09,7.2,38.61,28.71,51.73,14.33,8.71,26.32,5.31,33.42-.51,2.93,4.53,4.47,8.9,6,14.34C677,486.74,675.06,512.15,663.8,533Z"/><path class="cls-4" d="M710.45,909.43l90.35.84c4.48,0,27.57,14.08,21.53,23.24-5.07,7.68,0,9.2,0,9.2H733Z"/><path class="cls-4" d="M138.44,666.43l-47,61.06s-19.06,5-26.33-.63l-7.26-5.64,54.79-70.6Z"/><path class="cls-3" d="M459.24,714,448,727.59c-151.27,172.34-346.87-17-346.87-17L110,698.52"/><path class="cls-3" d="M485.64,611.19s53.47,11.65,118.22,39.88c0,0,1.66.64,4.61,2"/><path class="cls-3" d="M706.21,742.7c0,.08.08.12.12.19,5.83,11.56,11.71,23.94,17.34,36.47.08.16.12.32.2.48,2.6,5.75,5.16,11.55,7.65,17.3,21.88,50.59,46.68,115.35,46.68,115.35"/><path class="cls-3" d="M706.37,742.93a.69.69,0,0,1-.16-.23c-33.71-57.05-82.64-82.76-97.74-89.65-3-1.34-4.61-2-4.61-2"/><path class="cls-3" d="M389.11,576.32s-59.61,93,75.7,139.69C608.63,765.56,609.7,749.4,664.38,836.49c34,54.17,47.31,75,52.43,82.83l3.24,4.89L733,942.71h89.37v-9.2a21,21,0,0,0-21-21h-36"/><path class="cls-3" d="M135.19,664.26,114,648.4,58.8,721.93l8.91,6.69a16.18,16.18,0,0,0,22.78-3.41l10.68-14.63"/><path class="cls-5" d="M663.37,447.89c30.92,24.42,72.74,27.74,110.4,21.86,32.51-5.07,72.87-16.95,82-53.14L862.39,387a11,11,0,0,1,21.13,4.33,11.28,11.28,0,0,1-.67,3.75l-1.42,3.9"/><path class="cls-5" d="M539.7,625.9c8.2-4.69,38.34-21.7,46.46-26.43,29.73-17.23,61.19-36,77.67-66.51,11.23-20.8,13.22-46.22,6.8-68.85-1.75-6.17-3.5-11-7.26-16.22"/><path class="cls-3" d="M602.37,399.12c0,.12-.06.22-.06.22-.44,1.41,3.62,36.82,27.23,51.22,15.22,9.28,27.58,4,33.8-2.64,0,0,.07,0,.07,0a29.23,29.23,0,0,0,1.88-2.3l0-.09"/><line class="cls-3" x1="663.37" y1="447.89" x2="689.2" y2="417"/><path class="cls-2" d="M522.46,621c-.16,0-.28-.09-.44-.13l-15.19-4.08c-52.92-14.25-56.88-14.56-110.4-26.51-4.88-1.1-9.22-2.27-13-3.46-39.9-12.67-25.31-30.75-19.9-30.75,38.52,0,45.5-12.49,45.5-12.49l.66.47Z"/><path class="cls-3" d="M135.18,664.28s167.42,116.13,231-40.16q8.12-20,17.2-37.23"/><path class="cls-3" d="M453.32,495.19a328,328,0,0,0-34.42,36.49c-7.23,8.75-14.38,16.23-25.43,20a75.12,75.12,0,0,1-16.18,3.38c-5.66.61-14.07-.34-18.34,4.2a9.51,9.51,0,0,0-2.48,7.63,13.47,13.47,0,0,0,3.17,6.64c8.49,10.44,24.34,14,36.79,16.73,58.37,13,57.78,12.25,126,30.74"/><path class="cls-2" d="M430.51,518.41l-2.42,2.36c.73-.82,1.42-1.64,2.14-2.43Z"/><path d="M354.76,562.56s-5.87,22,22.59,36.29l7.06-14S349,574,354.76,562.56Z"/><path class="cls-3" d="M129.4,775.25s54.87,61.32,172.74,61.32"/><line class="cls-3" x1="636.6" y1="827.59" x2="663.8" y2="869.58"/><path class="cls-3" d="M930.21,459.12c10.15-10.14,18.61-22.88,19.79-39.4"/><path class="cls-6" d="M779.69,774.32c-72,27.36-169.87-8.84-169.87-8.84C295.44,663.85,207.52,571.22,183.28,523.64c-.16-.28-.32-.57-.45-.82a20.18,20.18,0,0,1,9.91-27.54c48.42-21.39,174.9-37.67,483.72,85.06,0,0,86.6,30.31,128.73,89.24a.69.69,0,0,1,.1.12,143,143,0,0,1,7.7,12A64.73,64.73,0,0,1,779.69,774.32Z"/><path class="cls-4" d="M779.69,774.32c-72,27.36-169.87-8.84-169.87-8.84C295.44,663.85,207.52,571.22,183.28,523.64a20.07,20.07,0,0,1,11.82-17.26c48.2-21.86,174.52-39.34,484.5,80.43,0,0,81.66,27.71,125.59,82.77a.69.69,0,0,1,.1.12,143,143,0,0,1,7.7,12A64.73,64.73,0,0,1,779.69,774.32Z"/><path class="cls-7" d="M651.57,708.08c-38.72,14.72-91.41-4.76-91.41-4.76-53-17.14-106.18-36.85-154.69-64.64-24.36-13.95-60.89-34.52-73-61.43-1.45-3.22-1.65-7.25.42-10.12,1.59-2.19,4.21-3.37,6.74-4.35,37-14.37,78.68-7,116.32.69,48.89,10,94.72,27.74,141.8,43.71,0,0,43.94,14.91,67.63,44.61a74.21,74.21,0,0,1,4.15,6.48C679.86,676.52,671.11,700.65,651.57,708.08Z"/><path class="cls-3" d="M466.51,738.71c1.55,0,3,0,4.49-.07a.08.08,0,0,0,.06,0"/><path class="cls-6" d="M504.3,706c-8.68-2.29-13.83-17.51-15.68-21.48a5.37,5.37,0,0,0-.78-1.18l-5.61-8.63-1.87,10.11c.52,5.32,7.93,19,11.84,33.09s-4.25,14.36-8.84,14.52-6.34-9-7.39,0-11,5.84-16.88,2.79-5.86-10.56-6.18-4.78-6.23,8.19-10.47,7c-3.22-.88-7.94-7.14-10-10.09-1.73,3.17-6.05,8.78-12.86,2.84-9-7.89-10.54-38-9.39-68S377,565.76,386.83,510.34c0-.08,0-.21.07-.3v0c.91-4.14,2-8.24,3.33-12.31A125.18,125.18,0,0,1,400,475.39a137.24,137.24,0,0,1,9.59-14.9L487.48,504c-.77.45-5.56,1-6.34,1.49C454.3,521.84,460.4,554.13,468.4,580c8.09,26.33,18.54,53.15,32.74,76.86a165.78,165.78,0,0,1,10.92,21.66l-1.27.25a68,68,0,0,0,1.83,7.93C515.78,696.73,513,708.26,504.3,706Z"/><line class="cls-3" x1="472.17" y1="723.29" x2="472.14" y2="723.28"/><line class="cls-3" x1="429.41" y1="722.02" x2="429.38" y2="722.01"/><path class="cls-3" d="M457.45,671.64c-2.1,15.85,5.11,36.09,14.68,51.59,2.78,4.5,10,11.23,15.8,9,12.54-4.79-.18-23.51-3.14-30.34-3.6-8.29-5.74-17.34-4.69-26.41a2.53,2.53,0,0,1,.6-1.56,1.65,1.65,0,0,1,2,0,4.66,4.66,0,0,1,1.32,1.65c3.78,6.67,6.83,13.64,9.94,20.64,2.21,5,9.63,12.63,15.62,9.17,13-7.53-6-41-11-49.34-14.16-23.7-24.64-50.53-32.73-76.86-8-25.9-10.09-58.31,16.75-74.63,14-8.52,30.74-8.75,46.46-11.35,25.32-4.19,35.87-21.43,35.87-21.43"/><path class="cls-3" d="M439.92,682.76s.85,35.67,21.49,53.39a10.88,10.88,0,0,0,9,2.64c3.51-.69,7-3.21,4.94-11.06"/><path class="cls-3" d="M421.93,685.2c.54,13.31,2.31,27.62,8.8,39.47,3,5.4,7.08,11.14,13.08,13.36,7.19,2.67,10.17-4.48,8.79-10.46a15.82,15.82,0,0,0-1.31-3.72"/><path class="cls-3" d="M607,396.09l-4.61,3c-39.4-5.5-155.49-13.3-205,75.43a125.42,125.42,0,0,0-13.11,35,.12.12,0,0,0,0,.1.09.09,0,0,0,0,.06c-9.72,55.4,24.56,121.78,23.39,151.66s.35,60.09,9.41,68,13.71-4.68,13.71-4.68-4.69,12.61-13.71,4.68-10.57-38.05-9.41-68-33.11-96.26-23.39-151.66a.09.09,0,0,1,0-.06,2.12,2.12,0,0,1,.06-.44"/><path class="cls-4" d="M767.94,354a17.06,17.06,0,0,1-2.61,5.53c-5.28,3-12.88,8.48-18.57,6.56-8.49-2.86-8.49-2.86-12.72-4.23-2.11-.16-3.49,1.54-6.67,7.33a22.19,22.19,0,0,1-1.88,2.89c-4.75,2.48-10.53,7.42-15.22,6.13-5.85-1.57-9.4-5.88-12.29-1.41-2.9,1.16-5.1,3.77-6.77,7.83a22,22,0,0,1-3.83,6,26.71,26.71,0,0,1-4.37,2.49c-3.46,1.47-7.8-3.49-12.71-8.53s-10.44-2.42-12,1.8c-5.27,1.08-7.81,10.12-9.92,14.36s-4.67,8.66-8.43,11.73a16.15,16.15,0,0,1-18.31,1.12c-6.61-3.89-9.7-12.07-9.78-19.45-.07-7.2,4-14,3.13-21.08-.55-4.35-2.52-8.42-4.76-12.13-1.56-2.59-3.3-5-4.38-7.81a2.9,2.9,0,0,1-.25-1.47c.22-1.28,2.75-1.56,3.74-1.81,11.48-2.93,21.54,6.25,28.84,7s61.09-7.36,61.09-7.36,43.08-8.74,51.45-11S771.18,342,767.94,354Z"/><path class="cls-3" d="M474,511.31c56.79,15.44,123.71,37.71,202.51,69,0,0,98.51,34.49,136.53,101.41a64.73,64.73,0,0,1-33.3,92.57c-72,27.36-169.87-8.84-169.87-8.84-42.92-13.86-81.6-27.57-116.47-41"/><path class="cls-3" d="M407.48,688.6C252.8,618.16,200.41,557.92,182.83,522.82a20.18,20.18,0,0,1,9.91-27.54c29.31-12.93,87.16-24,196.75-3.56"/><path class="cls-2" d="M670.59,353.63,641,355.48c-.28-10.94,2.08-27.76,15.38-45.31a47.23,47.23,0,0,1,34.43-18.58,44.3,44.3,0,0,1,28.84,13.08A83.92,83.92,0,0,1,738,332.22c1.7-.82,3.49-1.61,5.29-2.33a156,156,0,0,1,16.19-5.28c6.2-1.8,13.36-4,19.94-3.12a3.38,3.38,0,0,1,.63.07C792.21,323.54,763.35,342.21,670.59,353.63Z"/><path class="cls-5" d="M755.3,337.17c3.66,1.65,8.25,2.7,10.83,6,5.36,6.91.77,17-5.8,21.23-9.39,6.06-20.57-1.29-30-3.41a57.8,57.8,0,0,0,14.5,28s-6.16,3-11.23,5.29c-2.8,1.29-5.09,5.63-6.6,9.21a30,30,0,0,1-9.87,12.83c-23.12,16.6-43.27-13.11-43.27-13.11"/><path class="cls-5" d="M670.71,353.6a.18.18,0,0,1-.12,0c-9.22,1.32-18.43,2.39-27.71,3.21a18.12,18.12,0,0,1-6-.13,10.83,10.83,0,0,1-2.23-.82c-1-.44-2-1-3-1.47a42.59,42.59,0,0,0-22.36-4.53,11.22,11.22,0,0,0-6.54,2.36c-3,2.57-2.29,5.53-1,8,2.77,5.54,8.15,9.94,8.93,16.07.63,4.72-1.63,9.25-2.76,13.87A29.79,29.79,0,0,0,609.17,408c2.83,7.1,9.56,13.42,17.2,12.86,4.88-.38,9.15-3.43,12.65-6.89a50.15,50.15,0,0,0,10.43-15.25c1.17-2.67,2.11-5.5,3.84-7.86s4.47-4.21,7.36-4c5.82.44,8.33,8.17,13.83,10,4.6,1.54,9.5-1.64,12.46-5.51s4.78-8.52,8.2-11.95c5.29-5.37,9.12-3.17,15.13-1.16,8.74,2.92,19.84-9,20.09-17.23"/><path class="cls-5" d="M634.68,355.89c-.35-10.94,1.91-27.95,15.37-45.72,16.89-22.26,49.89-25.34,69.55-5.51A84,84,0,0,1,738,332.22c6.73-3.26,14.3-5.56,21.48-7.62,6.39-1.84,13.84-4.11,20.56-3,12.18,2-16.67,20.65-109.44,32.05"/></svg>