<svg id="Layer_2" data-name="Layer 2" xmlns="http://www.w3.org/2000/svg" xmlns:xlink="http://www.w3.org/1999/xlink" viewBox="0 0 1000 1000"><defs><style>.cls-1,.cls-2,.cls-8{fill:none;}.cls-2{stroke:#ccdde2;stroke-width:3.04px;}.cls-2,.cls-8{stroke-miterlimit:10;}.cls-3{clip-path:url(#clip-path);}.cls-4{fill:#d7e8f0;}.cls-5{fill:#fff;}.cls-6{fill:#2e2e2e;}.cls-7{fill:#3fbdf1;}.cls-8{stroke:#000;stroke-width:4.57px;}</style><clipPath id="clip-path"><path class="cls-1" d="M338.12,945.72c2.72-69.23-71.18-96.65-118.13-130.35-69.33-49.78-84.52-142-71.86-222.19,10.79-68.38,48.81-131.07,112.92-161C460.64,338.94,607,523.5,703.51,445.68c54.83-44.21,112.44-13.76,134.35,47.23,30.17,84,13.57,179-19.13,259.66-28.32,69.87-76,160-162.58,161.48Z"/></clipPath></defs><path class="cls-2" d="M656.8,914.06c86.63-1.49,134.26-91.62,162.57-161.48,32.69-80.7,49.31-175.67,19.12-259.68-21.89-61-79.51-91.44-134.33-47.21-88,70.95-217.46-76.25-390.9-32.05a291.37,291.37,0,0,0-51.57,18.53q-7.35,3.43-14.24,7.46"/><path class="cls-2" d="M243.28,442.1a186.6,186.6,0,0,0-42.62,36.1c-27.73,31.69-45.14,72.2-51.9,115-12.63,80.18,2.56,172.41,71.87,222.21,47,33.69,120.84,61.12,118.13,130.34"/><g class="cls-3"><path class="cls-1" d="M581,670.28l-.12,3h20.1l-.13-3.11a41.45,41.45,0,0,1,.12-4.73h-20.1A38.43,38.43,0,0,1,581,670.28Z"/><path class="cls-1" d="M454.58,670.28l-.12,3h20.1l-.13-3.11a41.45,41.45,0,0,1,.12-4.73h-20.1A38.43,38.43,0,0,1,454.58,670.28Z"/><path class="cls-1" d="M328.2,670.28l-.12,3h20.1l-.13-3.11a39.27,39.27,0,0,1,.12-4.73h-20.1A40.44,40.44,0,0,1,328.2,670.28Z"/><path class="cls-1" d="M201.82,670.28l-.13,3h20.1l-.12-3.11a39.27,39.27,0,0,1,.12-4.73h-20.1A42.68,42.68,0,0,1,201.82,670.28Z"/><path class="cls-1" d="M707.35,670.28l-.13,3h20.1l-.13-3.11a39.27,39.27,0,0,1,.13-4.73H707.21A40.45,40.45,0,0,1,707.35,670.28Z"/><polygon class="cls-4" points="201.69 673.32 201.29 683.39 201.49 683.39 201.49 699.34 222.75 699.34 222.75 696.82 221.79 673.32 201.69 673.32"/><path class="cls-4" d="M191.83,643.16a35.84,35.84,0,0,1,9.86,22.32h20.1a35.61,35.61,0,0,1,8.39-20.72,36.34,36.34,0,0,1,27.5-12.52h6.15L265,603.18a35.79,35.79,0,0,0-36-38H194.49a35.77,35.77,0,0,0-36,38l1.2,29.13h6.16A36.28,36.28,0,0,1,191.83,643.16Z"/><polygon class="cls-4" points="328.08 673.32 327.67 683.39 327.87 683.39 327.87 699.34 349.14 699.34 349.14 696.82 348.18 673.32 328.08 673.32"/><path class="cls-4" d="M318.22,643.16a35.89,35.89,0,0,1,9.85,22.32h20.1a35.68,35.68,0,0,1,8.39-20.72,36.34,36.34,0,0,1,27.5-12.52h6.15l1.18-29.06a35.77,35.77,0,0,0-36-38H320.87a35.76,35.76,0,0,0-36,38l1.19,29.13h6.16A36.3,36.3,0,0,1,318.22,643.16Z"/><polygon class="cls-4" points="454.46 673.32 454.05 683.39 454.25 683.39 454.25 699.34 475.52 699.34 475.52 696.82 474.56 673.32 454.46 673.32"/><path class="cls-4" d="M444.6,643.16a35.83,35.83,0,0,1,9.85,22.32h20.1a35.62,35.62,0,0,1,8.4-20.72,36.3,36.3,0,0,1,27.49-12.52h6.16l1.17-29.06a35.77,35.77,0,0,0-36-38H447.25a35.76,35.76,0,0,0-36,38l1.19,29.13h6.16A36.3,36.3,0,0,1,444.6,643.16Z"/><polygon class="cls-4" points="580.84 673.32 580.43 683.39 580.64 683.39 580.64 699.34 601.9 699.34 601.9 696.82 600.94 673.32 580.84 673.32"/><path class="cls-4" d="M571,643.16a35.78,35.78,0,0,1,9.85,22.32h20.1a35.69,35.69,0,0,1,8.4-20.72,36.3,36.3,0,0,1,27.49-12.52H643l1.17-29.06a35.77,35.77,0,0,0-36-38H573.63a35.77,35.77,0,0,0-36,38l1.19,29.13H545A36.3,36.3,0,0,1,571,643.16Z"/><polygon class="cls-4" points="707.22 673.32 706.82 683.39 707.02 683.39 707.02 699.34 728.28 699.34 728.28 696.82 727.32 673.32 707.22 673.32"/><path class="cls-4" d="M697.36,643.16a35.78,35.78,0,0,1,9.85,22.32h20.11a35.61,35.61,0,0,1,8.39-20.72,36.34,36.34,0,0,1,27.5-12.52h6.15l1.18-29.06a35.79,35.79,0,0,0-36-38H700a35.77,35.77,0,0,0-36,38l1.19,29.13h6.17A36.28,36.28,0,0,1,697.36,643.16Z"/><path class="cls-4" d="M833.6,673.32l-.4,10.07h.2v16h21.26v-16h29.88a10.25,10.25,0,0,0,10.25-9.85l.21-5.19a14.33,14.33,0,0,1-10.46,5Z"/><path class="cls-4" d="M823.74,643.16a35.84,35.84,0,0,1,9.86,22.32h50.94a10.25,10.25,0,0,0,10.25-9.84l2.13-52.46a35.79,35.79,0,0,0-36-38H826.4a35.76,35.76,0,0,0-36,38l1.19,29.13h6.16A36.28,36.28,0,0,1,823.74,643.16Z"/><path class="cls-1" d="M581,804.47l-.12,3h20.1l-.13-3.11a41.45,41.45,0,0,1,.12-4.73h-20.1A38.43,38.43,0,0,1,581,804.47Z"/><path class="cls-1" d="M454.58,804.47l-.12,3h20.1l-.13-3.11a41.45,41.45,0,0,1,.12-4.73h-20.1A38.43,38.43,0,0,1,454.58,804.47Z"/><path class="cls-1" d="M328.2,804.47l-.12,3h20.1l-.13-3.11a39.27,39.27,0,0,1,.12-4.73h-20.1A40.44,40.44,0,0,1,328.2,804.47Z"/><path class="cls-1" d="M201.82,804.47l-.13,3h20.1l-.12-3.11a39.27,39.27,0,0,1,.12-4.73h-20.1A42.68,42.68,0,0,1,201.82,804.47Z"/><path class="cls-1" d="M707.35,804.47l-.13,3h20.1l-.13-3.11a39.27,39.27,0,0,1,.13-4.73H707.21A40.45,40.45,0,0,1,707.35,804.47Z"/><polygon class="cls-4" points="201.69 807.51 201.29 817.58 201.49 817.58 201.49 833.53 222.75 833.53 222.75 831.01 221.79 807.51 201.69 807.51"/><path class="cls-4" d="M191.83,777.35a35.84,35.84,0,0,1,9.86,22.32h20.1A35.61,35.61,0,0,1,230.18,779a36.34,36.34,0,0,1,27.5-12.52h6.15L265,737.37a35.79,35.79,0,0,0-36-38H194.49a35.77,35.77,0,0,0-36,38l1.2,29.13h6.16A36.28,36.28,0,0,1,191.83,777.35Z"/><polygon class="cls-4" points="328.08 807.51 327.67 817.58 327.87 817.58 327.87 833.53 349.14 833.53 349.14 831.01 348.18 807.51 328.08 807.51"/><path class="cls-4" d="M318.22,777.35a35.89,35.89,0,0,1,9.85,22.32h20.1A35.68,35.68,0,0,1,356.56,779a36.34,36.34,0,0,1,27.5-12.52h6.15l1.18-29.06a35.77,35.77,0,0,0-36-38H320.87a35.76,35.76,0,0,0-36,38l1.19,29.13h6.16A36.3,36.3,0,0,1,318.22,777.35Z"/><polygon class="cls-4" points="454.46 807.51 454.05 817.58 454.25 817.58 454.25 833.53 475.52 833.53 475.52 831.01 474.56 807.51 454.46 807.51"/><path class="cls-4" d="M444.6,777.35a35.83,35.83,0,0,1,9.85,22.32h20.1A35.62,35.62,0,0,1,483,779a36.3,36.3,0,0,1,27.49-12.52h6.16l1.17-29.06a35.77,35.77,0,0,0-36-38H447.25a35.76,35.76,0,0,0-36,38l1.19,29.13h6.16A36.3,36.3,0,0,1,444.6,777.35Z"/><polygon class="cls-4" points="580.84 807.51 580.43 817.58 580.64 817.58 580.64 833.53 601.9 833.53 601.9 831.01 600.94 807.51 580.84 807.51"/><path class="cls-4" d="M571,777.35a35.78,35.78,0,0,1,9.85,22.32h20.1a35.69,35.69,0,0,1,8.4-20.72,36.3,36.3,0,0,1,27.49-12.52H643l1.17-29.06a35.77,35.77,0,0,0-36-38H573.63a35.77,35.77,0,0,0-36,38l1.19,29.13H545A36.3,36.3,0,0,1,571,777.35Z"/><polygon class="cls-4" points="707.22 807.51 706.82 817.58 707.02 817.58 707.02 833.53 728.28 833.53 728.28 831.01 727.32 807.51 707.22 807.51"/><path class="cls-4" d="M697.36,777.35a35.78,35.78,0,0,1,9.85,22.32h20.11A35.61,35.61,0,0,1,735.71,779a36.34,36.34,0,0,1,27.5-12.52h6.15l1.18-29.06a35.79,35.79,0,0,0-36-38H700a35.77,35.77,0,0,0-36,38l1.19,29.13h6.17A36.28,36.28,0,0,1,697.36,777.35Z"/><path class="cls-4" d="M833.6,807.51l-.4,10.07h.2v15.95h21.26V817.58h29.88a10.25,10.25,0,0,0,10.25-9.85l.21-5.19a14.33,14.33,0,0,1-10.46,5Z"/><path class="cls-4" d="M823.74,777.35a35.84,35.84,0,0,1,9.86,22.32h50.94a10.25,10.25,0,0,0,10.25-9.84l2.13-52.46a35.79,35.79,0,0,0-36-38H826.4a35.76,35.76,0,0,0-36,38l1.19,29.13h6.16A36.28,36.28,0,0,1,823.74,777.35Z"/></g><path class="cls-5" d="M724.52,931.22a10.56,10.56,0,0,0-5.66-3.68L656.79,912l34.46-233.86a137.65,137.65,0,0,0-43.32-107.94l-30.74-22.5c-32.69-21.55-50.62-35.37-60.33-44.16l-.06-.07-1.89-1.37a23.6,23.6,0,0,1-6.45-7.21c-3.81-4.81-2.89-6.21-2.65-6.48-.09,0-.21,0-.43.06-4.44.94-38.2,8-39.72,8.25-67,13.33-93.54-21-102.73-31.57s-17.69-35-17.69-35c-.67,3.47-1.28,6.91-1.76,10.25-.46,3-.86,5.85-1.16,8.71-.67,9.1-1,18.35-1,27.61v.15a269,269,0,0,0,4.36,48.79c.06.28.09.58.18.89,5.17,23.19,12.69,38.75,15.92,44.68.4.76.82,1.52,1.28,2.29.12.21.24.42.36.6a.51.51,0,0,0,.16.22,3.16,3.16,0,0,1,.21.33c1.28,1.89,4.84,7.22,9.5,14,0,0,0,.06,0,.06.58.86,1.15,1.71,1.76,2.59.34.49.73,1,1.07,1.55,13.69,19.88,33.51,47.76,34.67,44.36,2.34,2.7,4.69,5.26,7,7.67C388.5,654.13,311,672.64,311,672.64V773.85a13.32,13.32,0,0,0,13.27,13.27,13.28,13.28,0,0,0,13-10.84L347.47,722H516.62a46.9,46.9,0,0,0,46.9-46.91v-9.13c.49.12,1,.21,1.5.33.7.16,1.43.34,2.13.52a9.64,9.64,0,0,1,1,.25c.73.15,1.46.33,2.22.48l1.77.43a33.59,33.59,0,0,1,25.08,40.61C588,747.24,582.12,818.38,607.11,948H715.88a10.7,10.7,0,0,0,10.37-7.33A10.28,10.28,0,0,0,724.52,931.22ZM508.92,651.85c1.92.64,3.86,1.27,5.87,1.88C512.42,653,510.44,652.39,508.92,651.85Z"/><path class="cls-6" d="M606.12,163.52a104.83,104.83,0,0,1-6.32,24.56,21.13,21.13,0,0,1-9.95,11.11,20.73,20.73,0,0,1-8.28,2.27A18.65,18.65,0,0,0,577,186.94a92,92,0,0,0,1.62-14.46c.15-3.2.11-6.21,0-8.92a33.86,33.86,0,0,0-.48-4.59,16.34,16.34,0,0,0-3.94-3.86c-5.41-4-16.92-8.91-39.66-6.51a26.55,26.55,0,0,0-10.53,3.4.49.49,0,0,0-.2.13c-2.22,1.6-5.05,3.61-7.82,4.5s-5.72.62-7.75-2.64c-.05-.07-.07-.13-.12-.2-1.07-1.79-2-4-4.15-4.74-4.54-1.44-7.38,2.93-8.43,6.73-.95,3.53-.28,6.83.89,10a25.05,25.05,0,0,0,4.18,7.2,12.89,12.89,0,0,1,1.22,1.81,2.63,2.63,0,0,0-.59.08,13.22,13.22,0,0,0-1.34.35c-5.93,1.85-10.72,7.71-11.72,15.13,0,.23-9.45-1.06-10.66-1.32-4.55-1-8.92-2.88-11.73-6.74-8-11-6.16-25.6-1-36.57a150.51,150.51,0,0,1,17.93-29.5c15.51-19.54,37.49-32.68,63.06-31a84.79,84.79,0,0,1,18.08,3.3,70.2,70.2,0,0,1,8.2,2.9C596.64,106,609.94,133.6,606.12,163.52Z"/><path class="cls-7" d="M508.42,151.87s7.53-20.43,35.9-19.79,32.79,22.44,32.79,22.44l-1.14,2s-35-19.28-57.92-.7C518.05,155.81,510.31,158.23,508.42,151.87Z"/><path class="cls-7" d="M577,186.94a18.87,18.87,0,0,1,4.53,15.12c-1.21,9.82-9,16.93-17.44,15.9a12.88,12.88,0,0,1-2.8-.68C572,211,577,186.94,577,186.94Z"/><path class="cls-8" d="M516.58,219.78a37.65,37.65,0,0,0,30.52,4.93c29.06-8.15,32.17-42.3,31.57-61.15a38.27,38.27,0,0,0-.45-4.56,0,0,0,0,0,0,0c-1.88-11-9.1-20.59-19.71-24.38-20.53-7.36-41.31,2.25-51.31,17.39"/><path class="cls-8" d="M578.45,159.37s-.08-.14-.23-.37a0,0,0,0,0,0,0c-1.62-2.35-11.26-13.77-43.6-10.37a26.55,26.55,0,0,0-10.53,3.4.49.49,0,0,0-.2.13"/><path class="cls-8" d="M488.31,200.35l-15.56-1.91c-11.22-1.38-18.87-12.75-21.55-22.88-3.79-14.24,1.4-27.71,7.91-40.29a135.35,135.35,0,0,1,20-29.39c18-19.61,42.69-28.93,69.08-23.42,2.34.49,4.66,1.08,7,1.74,35.09,10.19,55.56,43.09,50.94,79.32a104.83,104.83,0,0,1-6.32,24.56,20.91,20.91,0,0,1-18.23,13.38"/><path class="cls-8" d="M501.88,174.83a12.89,12.89,0,0,0-1.22-1.81,25.05,25.05,0,0,1-4.18-7.2c-1.17-3.21-1.84-6.51-.89-10,1.05-3.8,3.89-8.17,8.43-6.73,2.16.7,3.08,3,4.15,4.74,4.06,6.85,11.48,1.38,16-1.9"/><path class="cls-8" d="M577,186.94a18.87,18.87,0,0,1,4.53,15.12c-1.21,9.82-9,16.93-17.44,15.9a12.88,12.88,0,0,1-2.8-.68"/><path class="cls-8" d="M542.87,195c3.14,2.71,11.16,5.61,10.32-1.4-1-8.31-1.57-25.87,15-25.17,0,0,7.19,1.19,10.45,4.08"/><path class="cls-8" d="M534.58,206.48s-8.61-3.8-4.27-12.48"/><ellipse cx="537.4" cy="176.96" rx="5.08" ry="3.04" transform="translate(239.04 657.68) rotate(-76.4)"/><ellipse cx="564.08" cy="181.89" rx="5.08" ry="3.04" transform="translate(254.65 687.39) rotate(-76.4)"/><path class="cls-8" d="M546.24,167.56s-4.11-8.42-16.47-2.42"/><line class="cls-8" x1="548.29" y1="224.35" x2="546.24" y2="256.7"/><path class="cls-7" d="M518.68,194.37a19.22,19.22,0,0,1-6.25,12.2,13.21,13.21,0,0,1-5.64.54c-8.43-1-14.29-9.82-13.09-19.64A19.34,19.34,0,0,1,500,175.26a13.25,13.25,0,0,1,5.65-.53C514,175.76,519.88,184.55,518.68,194.37Z"/><ellipse class="cls-8" cx="503.44" cy="192.49" rx="17.9" ry="15.36" transform="translate(251.15 668.79) rotate(-83.02)"/><path class="cls-8" d="M608.58,359.05c.91-27.15-8.59-52-8.59-52"/><path class="cls-7" d="M403.3,576s45.72,68.52,47.51,63.28,16.41-3.41,16.41-3.41,28.52,13.28,41.7,18S572.17,670,572.17,670c-19.87-70.23,45-120.24,45-120.24-76.88-50.65-72-58.63-71.38-59.3-.09,0-.21,0-.42.07-4.45.94-38.2,8-39.73,8.24-67,13.34-93.54-21-102.73-31.56s-17.68-35-17.68-35c-.67,3.47-1.28,6.91-1.77,10.26C370.91,524,403.3,576,403.3,576Z"/><path class="cls-8" d="M381.31,478.74v.15c-.91,24,1.71,48.12,9.78,70.86,16.16,45.63,54.18,85.66,129.33,107.76,3.78,1.28,27.28,6.79,51.75,12.48a33.59,33.59,0,0,1,25.08,40.6C588,749.28,582.12,820.42,607.11,950H715.87a10.71,10.71,0,0,0,10.38-7.34,10.26,10.26,0,0,0-1.73-9.4,10.5,10.5,0,0,0-5.66-3.68l-62.07-15.53,34.46-233.87a137.64,137.64,0,0,0-43.32-107.93l-93-68.1A23.71,23.71,0,0,1,549,472.31c6.52-10.16,15-23.4,23.87-37"/><path class="cls-8" d="M757.09,212.18v0"/><path class="cls-6" d="M383.48,442.42c.49-3.35,1.1-6.79,1.77-10.26,0,0,8.49,24.48,17.68,35s35.71,44.9,102.73,31.56c1.53-.24,35.28-7.3,39.73-8.24a49.94,49.94,0,0,0-.12-5.85,13.21,13.21,0,0,1,2-9.13L556.93,460l17.65-26.78-42.19-7.64c-11-36.68,25.11-88.43,44.72-74.7s26.27,7.64,43.89,9a69.39,69.39,0,0,0,31.72-5.33C641.82,327,660,299.69,660,299.69c-26.45,4.54-44.07-21.79-60-38s-48.86-19.36-48.86-19.36,47.79,60.09-2.86,64.75-58.93-56.41-82.86-47.73-27.82,6.91-44.23,35.4-20.94,57.1-29.61,92.51C385.25,413.11,382.87,430.55,383.48,442.42Z"/><path class="cls-8" d="M747.6,194a35.51,35.51,0,0,0-13.33-8.34c-8.47-3-15.29-.85-20.25,4.05"/><path class="cls-8" d="M747.11,280.73v0c-3.56,9.74-8,20.3-13.36,31.84"/><path class="cls-8" d="M705.77,205.12C702.7,216.5,704,229.56,710,235.86a2.75,2.75,0,0,0,.37.39c7.28,7,14.92,5.12,20.88-.27"/><path class="cls-8" d="M710,235.86c-5.2,16.5-22.31,61.4-55.27,64.77-24.51,2.53-44.87-34.7-63.9-46-13.3-7.88-28.76-11.87-44.68-12.66"/><path class="cls-8" d="M770.63,356.86a2,2,0,0,0-.27.06,9.58,9.58,0,0,0-1.46.39c-7.31,1.86-14.09,3.81-15.86,5-17.62,10-40.64,27.25-61.88,44.29-61.13,49-188,28.37-244.52-25.9-53.64-51.56-21.49-92.6-21.49-92.6"/><path class="cls-8" d="M457.78,646.91C388.5,656.17,311,674.67,311,674.67V775.89a13.26,13.26,0,0,0,26.3,2.43L347.47,724H516.62a46.91,46.91,0,0,0,46.9-46.91v-9.65"/><path class="cls-8" d="M406.66,581.36s46.17,67.88,68.24,80.29"/><path class="cls-7" d="M688.91,148.41c0,.12.06.21.09.33,7.24,18.72,19.51,36.29,39.27,40.76,19.57,4.44,35.28-8,43.62-25.08s7.91-36.5,2.55-54.49c-8.06-27.18-31.53-43.28-58-37.14C680,81.32,679,119.73,688.91,148.41Z"/><path class="cls-7" d="M724.71,50c38.17,1.18,78.77,35.34,69.7,98.13C788.32,190.26,757,223.38,764.82,268l8.95,37.84-21.3.46-7-38.3c-7-29.67-20.33-41.46-42.15-66.54-23.59-27.15-39.42-53.39-39.45-87.18C663.8,80.92,689.79,49,724.71,50ZM685,150.42c7.92,20.48,21.31,39.66,42.92,44.56,21.4,4.84,38.6-8.74,47.7-27.43s8.64-39.87,2.8-59.57C769.6,78.27,743.91,60.65,715,67.41c-39.85,9.28-41,51.29-30.11,82.64A1.6,1.6,0,0,1,685,150.42Z"/><path class="cls-7" d="M724.71,50c38.17,1.18,78.77,35.34,69.7,98.13C788.32,190.26,757,223.38,764.82,268l8.95,37.84-21.3.46-7-38.3c-7-29.67-20.33-41.46-42.15-66.54-23.59-27.15-39.42-53.39-39.45-87.18C663.8,80.92,689.79,49,724.71,50ZM685,150.42c7.92,20.48,21.31,39.66,42.92,44.56,21.4,4.84,38.6-8.74,47.7-27.43s8.64-39.87,2.8-59.57C769.6,78.27,743.91,60.65,715,67.41c-39.85,9.28-41,51.29-30.11,82.64A1.6,1.6,0,0,1,685,150.42Z"/><path class="cls-5" d="M760.92,206.11c-1.19-1.08-3.67.34-4.85.81a51.74,51.74,0,0,1-22.28,4.24,1.52,1.52,0,0,0-1.16,2.6c4.42,4.24,12.21,12.31,15.79,19.59a1.52,1.52,0,0,0,2.84-.38,62,62,0,0,1,4-12.91c1.8-3.91,4.57-7.35,5.88-11.49a2.41,2.41,0,0,0-.15-2.38Z"/><path class="cls-8" d="M784.73,368.61a19.7,19.7,0,0,1-9.71,5.72s-12.94,3.53-13.94-5.6c-.86-7.67,5-10.5,7.82-11.42a9.58,9.58,0,0,1,1.46-.39,2,2,0,0,1,.27-.06c1.65-.28,10-1.46,13.06,4.59"/><path class="cls-8" d="M784.73,368.61c10.78-11.67,8.56-34.65,3.1-48.25-2.66-6.64-7.74-12.37-14.73-14.49a34.36,34.36,0,0,0-14.91-.82,54,54,0,0,0-6.4,1.28c-20.33,5.05-49.13,21.15-74.21,37.07-32,20.27-84.89,23-114.06-1.19-27.36-22.67-34-36-56.34-47.45"/><line class="cls-8" x1="759.77" y1="359.81" x2="761.08" y2="368.73"/><path class="cls-8" d="M773.1,305.87l-9-37.84c-7.82-44.65,23.5-77.77,29.59-119.87C802.81,85.37,762.2,51.21,724,50c-34.91-1.07-60.91,30.89-60.88,64.28,0,33.79,15.86,60,39.45,87.18,21.83,25.09,35.13,36.87,42.16,66.54l7,38.3"/><path class="cls-4" d="M804.25,468.08a26.52,26.52,0,0,0,33.3,25.6,26.45,26.45,0,0,0-15.38-48,25.78,25.78,0,0,0-6.91.91A26.45,26.45,0,0,0,804.25,468.08Z"/><circle class="cls-8" cx="830.72" cy="468.09" r="26.48"/><path class="cls-8" d="M495.14,207.87c-5,19-.91,28.8-15.39,43.42-8.08,8.17-20.38,8.85-30.36,13.81-21.17,10.51-31.83,34.49-39.36,55.64,0,0-49,131.73-18.94,229"/><line class="cls-8" x1="678.34" y1="950" x2="311" y2="950"/><path class="cls-7" d="M280.76,385.32c-17-13-28.17-27.08-24.88-31.35s19.71,2.84,36.73,15.88,28.13,27,24.87,31.32a.59.59,0,0,1-.24.21C313.49,405.15,297.38,398.08,280.76,385.32Z"/><path class="cls-7" d="M326.62,439.19c-10.84,7.7-26.25,8.42-38.83,3.91a47.49,47.49,0,0,0,29.51-41.6l0-.07c9.15-5,18.8,0,22.27,9.35C343.93,422.59,335.88,432.66,326.62,439.19Z"/><path class="cls-7" d="M255.73,354A47.16,47.16,0,0,0,223,393.45c-7.66-10.95-10.82-25.9-6.15-38.38,3.94-10.66,11.54-21.1,24.07-19.89C250.69,336,258.05,344,255.73,354Z"/><path class="cls-7" d="M247.08,440.61,214.61,483a7.2,7.2,0,1,1-11.42-8.76l32.46-42.37Z"/><path class="cls-7" d="M230.45,509.28c-4.17,5.45-20.25.16-35.9-11.84s-25-26.14-20.77-31.58c3.66-4.78,16.39-1.33,30,7.6l-.58.77A7.2,7.2,0,1,0,214.61,483l.59-.77C227.43,493.05,234.11,504.5,230.45,509.28Z"/><path class="cls-4" d="M299.27,528.75a18.49,18.49,0,0,1-12.41,1.2,15.51,15.51,0,0,1-8.19-6.38c-9.38-.09-14.9-6.39-17.19-14.16-.75-.17-1.73-.43-2.36-.65-6.1-2.45-9.78-9.49-12.07-15.33-.87-3.42-1.07-7.25.91-10.25a10.12,10.12,0,0,1,5.37-4.08c2.21-.67,4.55-.42,6.79-.67A19.12,19.12,0,0,0,272.78,472c8.64-10.26,27.44-8.08,30.88,14.3s.76,39.34,12.09,45.86a2.69,2.69,0,0,1-.31.16C310.72,533.46,304.71,533.39,299.27,528.75Z"/><path class="cls-4" d="M146.86,394.61a18.48,18.48,0,0,0-1.34,12.4,15.56,15.56,0,0,0,6.29,8.26c0,9.38,6.23,15,14,17.34.16.75.41,1.73.61,2.37,2.4,6.12,9.39,9.87,15.2,12.23,3.42.91,7.24,1.15,10.26-.8a10.06,10.06,0,0,0,4.14-5.33c.7-2.2.47-4.54.75-6.78a19.13,19.13,0,0,1,6.56-12.59c10.36-8.52,8.38-27.34-14-31s-39.32-1.19-45.72-12.59a1.9,1.9,0,0,0-.17.31C142.27,383.11,142.28,389.12,146.86,394.61Z"/><path class="cls-4" d="M317.3,401.5l0-.07c-3.94,3.66-19.93-3.45-36.52-16.13-15.87-12.18-26.64-25.29-25.29-30.42a2.68,2.68,0,0,1,.42-.92c-.07,0-.13,0-.14.08A47.16,47.16,0,0,0,223,393.45c0,.12,0,.3,0,.42a47.4,47.4,0,0,0,53.23,52.34,49,49,0,0,0,11.1-2.88c.2-.07.35-.16.55-.23a47.49,47.49,0,0,0,29.51-41.6Zm-44.16-2.05-14.38,18.22,5,3.8a3,3,0,0,1,.5,4.15,2.89,2.89,0,0,1-3.13,1,3.44,3.44,0,0,1-1-.44l-7.35-5.64c-.16-.1-.3-.26-.46-.36l-6.47-5a2.9,2.9,0,0,1-.57-4.11,2.94,2.94,0,0,1,4.16-.56l4.66,3.6,8.12-10.3-.73.23a2.92,2.92,0,1,1-2-5.5l10.32-3.64a2.85,2.85,0,0,1,3.38,1.07A3,3,0,0,1,273.14,399.45Z"/><path class="cls-7" d="M441,823c-13.75,6.14-26.14,8.31-27.68,4.84s8.36-11.21,22.11-17.35,26.12-8.29,27.66-4.85a.49.49,0,0,1,.06.22C464.22,809.41,454.46,817,441,823Z"/><path class="cls-7" d="M489.64,812.71c1.11,9.27-3.61,19-10.6,25.28a33.38,33.38,0,0,0-15.79-32.15h-.06c0-7.32,6.33-11.59,13.24-10.62C485.19,796.46,488.71,804.81,489.64,812.71Z"/><path class="cls-7" d="M413.33,827.93a33.13,33.13,0,0,0,13.34,33.44c-9.33,1.06-19.62-2-25.76-9.06-5.25-6-9.15-14.2-4.2-21.53C400.53,825,407.9,823.13,413.33,827.93Z"/><path class="cls-7" d="M463.86,862.28l15.27,34.24a5.05,5.05,0,0,1-9.23,4.12L454.63,866.4Z"/><path class="cls-7" d="M500.67,895.55c2,4.4-6.69,12.55-19.34,18.2s-24.49,6.63-26.45,2.23c-1.73-3.86,4.67-10.57,14.74-16l.28.63a5.05,5.05,0,0,0,9.23-4.12l-.27-.63C489.64,892,499,891.69,500.67,895.55Z"/><path class="cls-4" d="M535.74,859.6a13,13,0,0,1-3.41,8.07,10.94,10.94,0,0,1-6.68,2.91c-3.2,5.76-8.94,7-14.51,5.86-.35.41-.84.92-1.18,1.25-3.57,2.94-9.14,2.85-13.51,2.31-2.41-.61-4.83-1.77-6-4a7.06,7.06,0,0,1-.72-4.68,26,26,0,0,1,1.86-4.42,13.46,13.46,0,0,0,.28-10c-3.44-8.78,4.2-19.65,19.17-14.27s24.53,12.71,32.35,7.9a1.61,1.61,0,0,1,0,.25A12.35,12.35,0,0,1,535.74,859.6Z"/><path class="cls-4" d="M401.88,908.72a13,13,0,0,0,7.21,5,11,11,0,0,0,7.2-1.11c5.79,3.15,11.32,1.17,15.39-2.82.52.15,1.2.33,1.67.41,4.58.58,9.24-2.48,12.64-5.28,1.71-1.8,3.14-4.08,2.95-6.6A7.12,7.12,0,0,0,447,894a25.3,25.3,0,0,0-3.93-2.73,13.44,13.44,0,0,1-5.57-8.27c-1.79-9.25-14.07-14.34-23.83-1.78s-13.91,23.87-23.09,24a1.47,1.47,0,0,0,.13.2A12.32,12.32,0,0,0,401.88,908.72Z"/><path class="cls-4" d="M463.25,805.84h-.06c.94,3.65-8.8,11.14-22.19,17.13-12.84,5.71-24.53,8-27.25,5.42a2.09,2.09,0,0,1-.43-.57c0,.06,0,.09,0,.11a33.13,33.13,0,0,0,13.34,33.44l.24.16a33.27,33.27,0,0,0,50.14-15.31A34.3,34.3,0,0,0,479,838.4c0-.15,0-.26.05-.41a33.38,33.38,0,0,0-15.79-32.15ZM447.19,832.4l6.42,15,4-1.79a2.07,2.07,0,0,1,2.73,1.08,2,2,0,0,1-.42,2.27,2.51,2.51,0,0,1-.6.46l-5.95,2.65c-.11.06-.26.09-.37.16l-5.28,2.3a2,2,0,0,1-2.73-1,2.07,2.07,0,0,1,1.05-2.76l3.78-1.67-3.64-8.46-.1.53a2.05,2.05,0,1,1-4.06-.63l1.22-7.59a2,2,0,0,1,1.79-1.73A2.13,2.13,0,0,1,447.19,832.4Z"/></svg>