<svg id="Layer_2" data-name="Layer 2" xmlns="http://www.w3.org/2000/svg" viewBox="0 0 1000 1000"><defs><style>.cls-1{fill:#2e2e2e;}.cls-2,.cls-3,.cls-5,.cls-8{fill:none;}.cls-2{stroke:#ccdde2;}.cls-2,.cls-3,.cls-8{stroke-miterlimit:10;}.cls-2,.cls-8{stroke-width:3.51px;}.cls-3,.cls-8{stroke:#000;}.cls-3{stroke-width:4.56px;}.cls-4{fill:#3fbdf1;}.cls-6,.cls-7{fill:#fff;}.cls-7{opacity:0.53;}</style></defs><path class="cls-1" d="M461.6,431.05c6.41-7.9,1.29-1,1.29-.95-.39,9.38-10.23,19.25-12.91,30.95-7.94,34.78-36.55,48.17-48.17,72-11.35,23.31.61,47.2,1.12,48.21-15-6.24-31.16,5.59-39.65,10.25s-32,4.32-32,4.32-75.68-2.19-99.66-19-32-3.16-32-3.16c-2-26,12.17-73.06,12.17-73.06,21-76.05,54.32-89.53,54.32-89.53l-34.45-8.61c-11-47.61,6.39-68.36,21.84-77.32a9.75,9.75,0,0,1,5.48-1.3c23.05,1.48,81.25,7.18,116.52,28,2.32,17,14,28.06,20.18,32.32,6.48,4.53,24.25,3.26,26.69-6.33a18.59,18.59,0,0,1,.67-2.16C431.84,383.94,458,405.79,461.6,431.05Z"/><path class="cls-2" d="M138.65,943.68c-3.9-.78-7.74-1.71-11.48-2.81-15.35-4.48-33.21-12.15-39.32-28.26a27,27,0,0,1,3.49-25.19,22.83,22.83,0,0,1,11.11-8.23c9.71-3.14,20.46,1.75,27.67,9S142,904.74,147.6,913.25c-5.1-11.44-10.28-23.19-11-35.69-.55-9.74,2.11-20.31,8.82-27.63,6.18-6.73,20.64-12,29.16-7.06,5.61,3.27,7.85,10.21,8.82,16.64,2.64,17.57-.75,35.43-4.14,52.88,2.28-9.33,4.72-18.74,9.34-27.16s11.72-15.85,20.8-19c6.36-2.18,13.92-1.94,19.25,2.16,5,3.84,7.19,10.31,7.87,16.55,1.15,10.45-1.32,21.06-5.55,30.69C215.18,951.6,171.36,950.24,138.65,943.68Z"/><path class="cls-2" d="M174.29,925.9s24.36,6.76,33-27.09"/><path class="cls-2" d="M163.46,868.11c-6.77,15.35,0,61.4,0,61.4"/><path class="cls-2" d="M140.89,924.85c-1-.17-10.79-1.54-19.12-5.36-6.45-3-12-7.4-12-13.91"/><path class="cls-2" d="M123.73,905.58s-9.52,11.11-2,13.91"/><path class="cls-2" d="M117.41,929.59c1.35-1.88,8.4,1.89,13-7"/><path class="cls-2" d="M160.45,888.43c-2.41-1.81-8.73,0-9.63-14.45"/><path class="cls-2" d="M161.5,902S172,898.17,172,889.91"/><path class="cls-2" d="M184.15,926.09s5.49-14.19,7.75-20.51"/><path class="cls-2" d="M201.21,912.54s6,4.78,13.27-2.89"/><path class="cls-2" d="M201.21,905.58s-3.89-1.68-2.08-11.45"/><polyline class="cls-2" points="756.61 800.92 802.08 850.55 802.08 628.76"/><line class="cls-2" x1="802.08" y1="819.1" x2="843.18" y2="782.98"/><line class="cls-2" x1="802.08" y1="729.13" x2="774.05" y2="697.76"/><line class="cls-2" x1="802.08" y1="700.9" x2="822.63" y2="688.52"/><path class="cls-2" d="M802.08,641.63c0-3.77-14-30.34-14-30.34"/><path class="cls-2" d="M757.59,866.72l2.13.1,11.9.21a16.7,16.7,0,0,1,16.44,16.7v63.2"/><polyline class="cls-2" points="654.36 835.73 689.13 873.68 689.13 704.06"/><line class="cls-2" x1="698.93" y1="841.03" x2="689.14" y2="849.63"/><line class="cls-2" x1="689.13" y1="780.83" x2="667.7" y2="756.83"/><line class="cls-2" x1="689.13" y1="759.23" x2="704.85" y2="749.77"/><path class="cls-2" d="M689.13,713.9c0-2.87-10.72-23.19-10.72-23.19"/><path class="cls-2" d="M720.82,793.73c-4.1-6.44-6.21-13-1.52-17.14,2.88-2.53,9.65-2.83,14.77-4.36"/><path class="cls-2" d="M678.41,947.41V899.07a12.78,12.78,0,0,0-12.56-12.78l-9.11-.14S571,883.85,632,819.35s-3.7-34.59,3.39-56.2,29-18.76,33.77-38.29c3.09-12.77-.79-26.49.14-39.44.61-8.74,4.22-19.77,9.86-26.51,7.26-8.67,16.47-2.37,21.27,5.78,8.15,13.91,4.47,30.94,4.42,46.16,0,11.78,3.56,22,13.12,29.18,8.57,6.47,18.55,12.3,22.11,23.12a10.45,10.45,0,0,1,.44,1.85"/><path class="cls-2" d="M699.14,900.28A14.25,14.25,0,0,1,713.59,886l7,.12c13-.54,24.77,2.67,36.72-12l.3-.37c-10.33-.66-55.15-5-58.66-32.72-1-7.52,1.31-15.1,4.49-21.85,9.14-19.43,23.42-36.58,36.46-53.5,5.77-7.48,12.26-14.36,17.09-22.55,3.08-5.23,7.95-14.1,2.35-19.36-6.61-6.2-25.79-1.9-28.14-12.31a10.5,10.5,0,0,1,.58-5.46c9.27-28.27,37.94-24.55,44.17-50.07,4.05-16.68-1-34.62.16-51.57.82-11.43,5.53-25.83,12.93-34.66,9.46-11.34,21.52-3.1,27.78,7.58,10.65,18.18,5.85,40.43,5.78,60.36,0,15.41,4.68,28.71,17.17,38.12,11.19,8.46,24.26,16.09,28.9,30.24,5.05,15.41-20,11.38-27.12,17.58-12.86,11.25,13.46,37.15,20.79,44.57,18.36,18.62,53.82,52.32,28.88,83-15.62,19.2-31,15-48,15.69L834,866.7a18.63,18.63,0,0,0-18.87,18.62"/><path class="cls-1" d="M425.09,554.13a218.41,218.41,0,0,1-14.52-30.82c5.39-11.32,15.09-20.39,15.09-20.39,45.95-48.14,16.3-91.08,16.3-91.08L452.35,403c11.14,20.55,16.92,44.68,22.19,71.21,1.21,6.09,2.73,12.69,4.59,19.57C420.1,502.77,424.84,552.09,425.09,554.13Z"/><path class="cls-3" d="M410.08,522c.16.42.34.85.49,1.28a218.41,218.41,0,0,0,14.52,30.82v0c2.52,4.48,5.26,8.8,8.12,13,27,39.22,64.12,74,110.71,88,14.33,4.32,30.91,3.89,40.65-9.1,4.63-6.15,9.22-16.46,7.43-24.34-1.83-8.07-9.53-15.34-16.28-19.17-8.74-5-18.75-5.66-24.71,3.34-.25.4-.49.7-.76,1.1"/><line class="cls-3" x1="545.35" y1="617.78" x2="545.32" y2="617.83"/><path class="cls-3" d="M548.31,640.32c-5.87-3.15-13.07-11.78-7.69-18.74,5.51-7.13,13.31-3.05,18.69,2.74a20.69,20.69,0,0,1,5.29,9.09"/><path class="cls-3" d="M574.74,618.51c-4.41-6.67-13.18-13.7-21.58-12.42-6,.92-9.12,7.52-5.11,11.75"/><path class="cls-3" d="M425.09,369.91A108,108,0,0,1,452.35,403c11.14,20.55,16.92,44.68,22.19,71.21,1.21,6.09,2.73,12.69,4.59,19.57h0c11.44,41.87,36.12,93.51,82.16,92.9l30-.39a11.27,11.27,0,0,1,.67,21.94,10.6,10.6,0,0,1-3.78.21l-4.08-.49"/><path class="cls-3" d="M437.57,329.13c1.12,6.11,6.54,9.9,11.94,8.74"/><path class="cls-4" d="M492.18,272.79v0a20.48,20.48,0,0,1-17,16.8,10.72,10.72,0,0,0-2.55-4.52c-5.12-5.29-6.46,5.37-22.18-1.17-21.8-9.08-29.41-2.53-29.41-2.53-.66.57-.26,5.42-.29,6.28-.23,5.06-.46,10.08-.72,15.14-.15,3.08-.3,6.13-.42,9.19a15.11,15.11,0,0,0-1.06-1.43c-2.37-6.67-8.49-14.33-15.68-10.38a10.56,10.56,0,0,0-3.6,3.4c-4.48,6.77-.34,12.75,5.1,17a26.64,26.64,0,0,0,4.55,3.54c-.73,1.81-3.71,9-3.71,9-.31.72-13.28-12.12-14.28-13.54A34.6,34.6,0,0,1,388,308.4c-1.27-15.95,4-34.95,16.3-45,3.05-2.48,4.05-4.74,4.06-7.84a.83.83,0,0,1,1.45-.54c4.36,4.4,14.36,3.26,14.36,3.26,34.22-11.05,47,3.64,54.15,5.91a13.19,13.19,0,0,0,8.93-.44,5.33,5.33,0,0,0,3.92,3.92l-.07,1.63A5.39,5.39,0,0,0,492.18,272.79Z"/><line class="cls-5" x1="479.18" y1="296.8" x2="479.16" y2="296.8"/><path class="cls-4" d="M234.6,749.42c-.42-2.08-11.08-54.11,17.12-45.4,0,0-13.66-19.11-24.49-10.72s-9.7,20.24-7.82,34.25-.79,74.75,17.11,81.5,26.94-6.44,23.66-11.4S235.75,755.18,234.6,749.42Z"/><polygon class="cls-4" points="539.25 922.43 534.37 914.41 637.55 924.07 649.72 946.67 553.79 947.4 539.25 922.43"/><path class="cls-3" d="M475.14,289.63h0a20.48,20.48,0,0,0,17-16.8v0a27.25,27.25,0,0,0,.41-4.91h-.27a4,4,0,0,1-1.12-.17,5.33,5.33,0,0,1-3.92-3.92,4.81,4.81,0,0,1-.17-1.62l.36-7.93s-6,5.1-13.14,2.83-19.93-17-54.15-5.91c0,0-10,1.13-14.37-3.26a.83.83,0,0,0-1.45.54c0,3.09-1,5.35-4.06,7.83-12.31,10-17.56,29-16.3,45a37.59,37.59,0,0,0,6.92,18.39c1,1.42,14,14.26,14.28,13.54,0,0,3-7.2,3.71-9l.17-.4c-.12-.07-.27-.16-.4-.22a42.06,42.06,0,0,1-4.32-2.92c-5.44-4.27-9.58-10.25-5.1-17a10.56,10.56,0,0,1,3.6-3.4c7.19-3.95,13.31,3.71,15.68,10.38a18.07,18.07,0,0,1,.95,3.94c0-.84.07-1.65.11-2.49v0c.12-3.06.27-6.11.42-9.19.26-5.06.49-10.08.72-15.14,0-.86-.37-5.71.29-6.28,0,0,7.61-6.55,29.41,2.53,15.72,6.54,17.06-4.12,22.18,1.17a10.72,10.72,0,0,1,2.55,4.52,11.59,11.59,0,0,1,.32,1.66.85.85,0,0,1,0,.22c.15,1.22.26,2.45.37,3.65.89,11.59.43,23.78-3.41,34.85-4.65,13.42-18.43,27.28-34.06,22.21A49.6,49.6,0,0,1,425,344.83"/><line class="cls-3" x1="375.18" y1="342.11" x2="392.8" y2="321.69"/><circle cx="440.77" cy="316.62" r="3.19"/><circle cx="465.27" cy="315.46" r="3.19"/><path class="cls-3" d="M456.59,308.67s3,10.83,3.33,11.93c1.11,3.53-6.05,2.74-6.05,2.74"/><path class="cls-3" d="M451.76,295s-10.81-6.12-18.56,1.48"/><circle class="cls-3" cx="442.37" cy="311.16" r="11.38"/><circle class="cls-3" cx="471.17" cy="311.59" r="11.38"/><path class="cls-6" d="M471.17,304.3h.11a7.29,7.29,0,0,1-.11,14.57h-.11a7.29,7.29,0,0,1-7.18-7.39,7.32,7.32,0,0,1,7.29-7.18m0-2.28a9.57,9.57,0,0,0-.14,19.14h.14a9.57,9.57,0,0,0,.14-19.14Z"/><line class="cls-3" x1="453.75" y1="308.57" x2="459.78" y2="308.09"/><circle class="cls-7" cx="442.37" cy="311.16" r="9.63"/><circle class="cls-7" cx="471.17" cy="311.59" r="9.63"/><path class="cls-3" d="M323.14,774.4c-57.21-57.48-84.2-120.53-92.32-179.9q-1.33-9.68-2-19.2"/><path class="cls-3" d="M263.26,412.56c.27-.49.51-1,.79-1.43"/><path class="cls-3" d="M361.78,629.32s76.06,111.21,52.4,184.78c-12,37.26-53.82,54.9-89.82,39.54-29-12.37-65.76-42-92.74-111.65"/><path class="cls-3" d="M317,768.11l-73.65-72.29a14.09,14.09,0,0,0-24,10L223.69,787c.44,8.34,4.37,16.33,11.27,21.05s16.34,5.95,27.37-7.34"/><path class="cls-3" d="M375.18,342.11a469.33,469.33,0,0,0-119.44-25.23c-2.74-.24-5.51-.36-8.25-.42a136.5,136.5,0,0,0-46.77,7.36c-22.09,7.52-42,20.27-59.79,35.21-14.58,12.23-28.27,25-39.29,40.68a324.18,324.18,0,0,0-23.46,39.35c-.79,1.58-2.37,3.41-4.38,2.68A7,7,0,0,1,71.45,440c-2.74-2.86-4.41-3.77-7.82-5.84-10.4-6.24-14.57,5.24-10.71,13.39,3.14,6.66,8.86,12,15.4,15.43a50.72,50.72,0,0,0,33.59,4.32c20.39-4.6,28.24-23,41.3-37.06a139.22,139.22,0,0,1,26.08-22.31c19.14-12.48,39.86-11.32,62.35-5.39l40.71,10.81c65.73,12.78,74.25-36.43,74.25-36.43"/><path class="cls-3" d="M418.54,775.56l0,0c2.89,2.62,5.87,5.23,8.89,7.79C491.57,838,541.63,925.64,551.4,943.44a6.21,6.21,0,0,0,5.48,3.23h92.84l-7-15.31A14.46,14.46,0,0,0,630.82,923l-35.57-3.16-32.71-85.51c-24.44-64.6-72.06-144.76-122.82-191.59-24.4-22.52-44-35.82-53.86-48.84l-.09-.09A34.9,34.9,0,0,1,380,583"/><path class="cls-3" d="M408,524.14l.09-.09c1.43-1.64,2.92-3.34,4.51-5.11.7-.79,1.4-1.58,2.13-2.37a208.77,208.77,0,0,0,23.32-30.73"/><line class="cls-3" x1="595.25" y1="919.83" x2="580.54" y2="918.67"/><path class="cls-3" d="M375.18,342.1c0,11.85,6,40.77,26.91,44.19,17.44,2.86,21.78-10.43,22.75-14.94a26.83,26.83,0,0,1,.91-3.33l7.08-20.12"/><path class="cls-3" d="M241.19,581a3.88,3.88,0,0,1,.52.3"/><path class="cls-3" d="M403,586.89c.18-6.07-7-6.93-11.55-6.57-7.69.59-14.76,4.07-21.4,7.75-17.05,9.44-37.32,8.86-56.15,7.36a311.07,311.07,0,0,1-58.14-9.8c-8.79-2.42-17.59-5.24-25.66-9.54,0,0-25.32-17-32.69,1.58"/><path class="cls-3" d="M408.11,524c-4.67,5.67-8.93,12.29-10.3,19.61a68.12,68.12,0,0,0-.11,22.88A70.72,70.72,0,0,0,400,576.92c1,3.23,3.23,6.46,3,10a8.71,8.71,0,0,1-4.91,6.93c-2.5,1.27-5.49,2.36-8.34,2a6.77,6.77,0,0,1-3.59-1.66,3.51,3.51,0,0,1-.34-.33"/><path class="cls-3" d="M264.87,411.34c-18.69,13.88-56.24,55.14-67.5,166.33,0,0-2.8,16.19,33.45,16.83"/><path class="cls-4" d="M489.63,895.74a50.91,50.91,0,0,1-75,44.89A50.91,50.91,0,0,1,472,857.22,50.79,50.79,0,0,1,489.63,895.74Z"/><path class="cls-4" d="M489.63,895.74a50.91,50.91,0,0,1-75,44.89A50.91,50.91,0,0,1,472,857.22,50.79,50.79,0,0,1,489.63,895.74Z"/><circle class="cls-3" cx="438.7" cy="895.74" r="50.93"/><line class="cls-8" x1="50" y1="947.4" x2="950" y2="947.4"/><path d="M227.44,574.16s2.16,10.94,2.77,15.64-.9,4.79-4.52,4.49-34-4.45-27.17-19S227.44,574.16,227.44,574.16Z"/><path d="M383.13,582.63s-5.45,1.77,3.17,10.27,16.66-6,16.66-6-.39-6.8-10.77-5.91S383.13,582.63,383.13,582.63Z"/></svg>