<svg id="Layer_2" data-name="Layer 2" xmlns="http://www.w3.org/2000/svg" viewBox="0 0 1000 1000"><defs><style>.cls-1{fill:#ccdde2;}.cls-2,.cls-3,.cls-5,.cls-8,.cls-9{fill:none;}.cls-2,.cls-3{stroke:#ccdde2;}.cls-2,.cls-8{stroke-miterlimit:10;}.cls-2,.cls-3,.cls-8,.cls-9{stroke-width:4.03px;}.cls-3{stroke-linejoin:round;}.cls-4{fill:#d7e8f0;}.cls-6{fill:#2e2e2e;}.cls-7{fill:#3fbdf1;}.cls-8,.cls-9{stroke:#000;}.cls-9{stroke-linecap:square;stroke-linejoin:bevel;}.cls-10{fill:#fff;}</style></defs><ellipse class="cls-1" cx="593.94" cy="436.04" rx="8.68" ry="8.47"/><ellipse class="cls-1" cx="618.3" cy="455.14" rx="10.45" ry="10.2"/><polyline class="cls-2" points="804.18 795.42 850.48 845.97 850.48 620.09"/><line class="cls-2" x1="850.48" y1="813.94" x2="892.34" y2="777.15"/><line class="cls-2" x1="850.48" y1="722.31" x2="821.94" y2="690.36"/><line class="cls-2" x1="850.48" y1="693.56" x2="871.41" y2="680.95"/><path class="cls-2" d="M850.48,633.2c0-3.83-14.27-30.9-14.27-30.9"/><path class="cls-2" d="M805.18,862.44c1.38.07,2.17.09,2.17.09l12.12.22a17,17,0,0,1,16.74,17v64.38"/><polyline class="cls-2" points="700.05 830.87 735.46 869.53 735.46 696.78"/><line class="cls-2" x1="745.43" y1="836.27" x2="735.46" y2="845.03"/><line class="cls-2" x1="735.46" y1="774.96" x2="713.63" y2="750.52"/><line class="cls-2" x1="735.46" y1="752.97" x2="751.47" y2="743.33"/><path class="cls-2" d="M735.46,706.8c0-2.93-10.92-23.62-10.92-23.62"/><path class="cls-2" d="M767.73,788.1c-4.17-6.56-6.32-13.28-1.55-17.46,2.93-2.57,9.83-2.88,15.05-4.43"/><path class="cls-2" d="M741.28,649.89a26.24,26.24,0,0,1,5.65,6.8c8.3,14.16,4.55,31.5,4.51,47-.05,12,3.62,22.37,13.35,29.71,8.73,6.59,18.89,12.53,22.52,23.54a11.12,11.12,0,0,1,.45,1.89"/><path class="cls-2" d="M682,879.76a89.62,89.62,0,0,0,20.46,2.46l9.28.14a13,13,0,0,1,12.78,13v49.23"/><path class="cls-2" d="M681.6,748.15c11.14-20.34,28.62-10.3,33.49-30.19,3.15-13-.81-27,.14-40.17a47.37,47.37,0,0,1,1-6.75"/><path class="cls-2" d="M745.65,896.62a14.52,14.52,0,0,1,14.71-14.53l7.11.12c13.26-.55,25.24,2.72,37.4-12.23l.31-.39c-10.52-.66-56.17-5.12-59.75-33.32-1-7.66,1.35-15.38,4.58-22.25,9.3-19.79,23.85-37.26,37.13-54.49,5.87-7.62,12.49-14.62,17.4-23,3.15-5.33,8.1-14.36,2.39-19.72-6.73-6.31-26.26-1.93-28.65-12.53a10.81,10.81,0,0,1,.59-5.57c9.45-28.79,38.64-25,45-51,4.13-17-1.05-35.25.17-52.52.84-11.64,5.63-26.31,13.17-35.3,9.63-11.54,21.91-3.15,28.28,7.73,10.86,18.51,6,41.17,5.89,61.46,0,15.7,4.77,29.24,17.49,38.83,11.4,8.61,24.71,16.39,29.43,30.79,5.15,15.7-20.37,11.59-27.62,17.91-13.09,11.45,13.71,37.83,21.18,45.39,18.7,19,54.81,53.28,29.41,84.5-15.91,19.56-31.58,15.29-48.9,16l-9.32-.12a19,19,0,0,0-19.23,19"/><path class="cls-3" d="M74.82,946s-10.93-16.74-10.93-54.42,17-54.41,17-54.41C62.45,890.89,100.42,946,100.42,946c1.15-2.07,12.08-17.6,13.23-45.22,0,0,10.35,23.7,1.72,45.22"/><path class="cls-3" d="M371.87,946s7.26-8.37,7.26-27.21-11.27-27.21-11.27-27.21c12.22,26.88-13,54.42-13,54.42a37.87,37.87,0,0,1-8.78-22.61S339.23,935.22,345,946"/><path class="cls-4" d="M276.56,827a47.27,47.27,0,0,1-1.6,19.3c-6.64,22.55-28.12,36.08-48,30.24s-30.54-28.87-23.89-51.42,28.11-36.08,48-30.23a34.18,34.18,0,0,1,5.06,1.95l-20.71,35.87a4.7,4.7,0,0,0,8.13,4.7L263.94,802a39,39,0,0,1,11.62,19.64Z"/><path class="cls-4" d="M631.67,827a47.27,47.27,0,0,1-1.6,19.3c-6.64,22.55-28.12,36.08-48,30.24s-30.54-28.87-23.89-51.42,28.11-36.08,48-30.23a34.18,34.18,0,0,1,5.06,1.95l-20.71,35.87a4.7,4.7,0,0,0,8.13,4.7L619.05,802a39,39,0,0,1,11.62,19.64Z"/><path class="cls-2" d="M214.48,776.78c13.26-7.63,28.71-10.11,43.6-5.72a53.48,53.48,0,0,1,8,3.07L233.3,830.92a7.5,7.5,0,0,0-1,3.7,7.45,7.45,0,0,0,13.89,3.72l32.29-55.93a61.79,61.79,0,0,1,18.39,31.1"/><path class="cls-2" d="M220,900.28c-31.41-9.26-48.34-45.7-37.8-81.38a15,15,0,0,1,.48-1.48"/><path class="cls-2" d="M298.44,821.88a74.51,74.51,0,0,1-2.54,30.55"/><path class="cls-2" d="M569.59,776.78c13.26-7.63,28.71-10.11,43.6-5.72a53.48,53.48,0,0,1,8,3.07l-32.79,56.79a7.5,7.5,0,0,0-1,3.7,7.44,7.44,0,0,0,13.89,3.72l32.29-55.93"/><path class="cls-2" d="M575.07,900.28c-31.41-9.26-48.34-45.7-37.8-81.38a15,15,0,0,1,.48-1.48"/><path class="cls-2" d="M653.55,821.88A74.51,74.51,0,0,1,651,852.43"/><path class="cls-4" d="M631.67,827a47.27,47.27,0,0,1-1.6,19.3c-6.64,22.55-28.12,36.08-48,30.24s-30.54-28.87-23.89-51.42,28.11-36.08,48-30.23a34.18,34.18,0,0,1,5.06,1.95l-20.71,35.87a4.7,4.7,0,0,0,8.13,4.7L619.05,802a39,39,0,0,1,11.62,19.64Z"/><path d="M310.38,686.43l-12.19,21.11-31.89-60.1C276.51,666.64,291.46,678.8,310.38,686.43Z"/><line class="cls-5" x1="354.07" y1="812.89" x2="340.6" y2="787.46"/><path class="cls-6" d="M475.3,543.33c-.33.21-.66.45-1,.69a1.57,1.57,0,0,1-.17-.21Z"/><path class="cls-6" d="M334.59,693.56a136.56,136.56,0,0,1-24.21-7.13Z"/><path class="cls-6" d="M441.65,786.65l-14.31,26.24H325.57l8.16-13.81v0l6.87-11.59.47-.81Z"/><polygon class="cls-6" points="405.28 834.23 405.28 834.35 365.04 834.35 364.97 834.23 405.28 834.23"/><polygon class="cls-6" points="405.28 834.23 405.28 834.35 394.52 834.35 394.52 860.47 379.28 860.47 365.04 834.35 364.97 834.23 405.28 834.23"/><polygon class="cls-6" points="481.05 860.47 416.01 860.47 416.01 834.23 465.55 834.23 481.05 860.47"/><path class="cls-7" d="M459.54,860.47v7.47a14,14,0,0,1-14,14H416V860.47Z"/><path class="cls-7" d="M416,823.62v10.69h0l-10.71,0v0H365l.07.12a14,14,0,0,1-14-14v-7.44h54.26A10.73,10.73,0,0,1,416,823.62Z"/><polygon class="cls-6" points="416.01 834.31 416.01 834.33 405.28 834.31 394.52 834.28 364.97 834.23 405.28 834.23 405.28 834.26 415.99 834.31 416.01 834.31"/><polygon class="cls-6" points="430.51 834.35 394.52 834.35 394.52 834.23 405.28 834.26 415.99 834.31 416.01 834.31 430.51 834.35"/><polygon class="cls-6" points="686.88 696.81 686.88 699.19 685.5 699.19 686.88 696.81"/><path class="cls-6" d="M334.59,693.56l-22.83,39.55-8.42,14.59L250,840.1a12.27,12.27,0,1,1-21.25-12.28L282.9,734l15.29-26.47,12.19-21.11Z"/><path class="cls-6" d="M716.51,642.21a12.2,12.2,0,0,1-1.65,6.13l-3.67,6.4h0c-9.24,1.46-18.85,4.13-7.45,12.91l-16.83,29.16-1.38,2.38-27.69,48L604.15,840.1a12.28,12.28,0,0,1-21.26-12.28l54.36-94.16,19.92-34.47H506.88l18.2-34.34H677l16.63-28.79a12.27,12.27,0,0,1,22.9,6.15Z"/><path class="cls-6" d="M475.3,543.33c-.33.21-.66.45-1,.69a1.57,1.57,0,0,1-.17-.21Z"/><path d="M259.58,631.62c-14.19-2.86-32.42-5.51-41-18.69-1.22-1.84-2.75-4-3.08-6.25a4.45,4.45,0,0,1-.07-.79c-.14-4.41,5.13-4.13,8.51-3.6,8.07,1.24,16,3,23.95,4.89,2.36.55,4.7,1.12,7,1.69A97.9,97.9,0,0,0,259.58,631.62Z"/><path class="cls-6" d="M684.1,625.54c-6.35,17.13-19.23,17.2-19.44,17.2a606.62,606.62,0,0,1-72.32-21.94c-64.08-24.28-99-53-118-76.78a11.46,11.46,0,0,1,1-.69l-1.15.48a1.57,1.57,0,0,0,.17.21C456,556.66,446,575.74,440.58,593.34a25.9,25.9,0,0,1-1.17,3.2,1.22,1.22,0,0,1-.07.17l-1.12,2.36a.14.14,0,0,1-.05.09c-3.43,6.59-13.76,15.41-20.34,18.54l-120.23-.89-49.71-9.63C240,605.29,232,603.53,224,602.29c-3.39-.53-8.66-.81-8.52,3.6h0c0-5.75,3-9.68,6.46-13.86q5.55-6.72,11.12-13.42c20.77-24.79,41-50,61.86-74.7,5.13-6.09,10.36-12.05,15.94-17.7,19.53-19.85,42.12-37.28,66.87-50.16,43.65-22.66,76.61-29.62,103-26.07h0l.86.12c60,8.56,85.89,71.55,126.67,126.12,9.78,13.07,26.72,25.12,43.29,34.78,0,0,0,0,0,0a0,0,0,0,1,0,0l35,17.61a.75.75,0,0,0,0,.21C687.65,604.65,687,617.65,684.1,625.54Z"/><path class="cls-6" d="M475.3,543.33c-.33.21-.66.45-1,.69a1.57,1.57,0,0,1-.17-.21Z"/><line class="cls-8" x1="50" y1="945.98" x2="936.88" y2="945.98"/><path class="cls-8" d="M440.93,595.05h53.19c31.21,0,51.2,33.22,36.58,60.79l-69.34,130.8H341.91L392.48,699"/><polyline class="cls-8" points="458.89 786.65 485.75 834.23 466.38 834.23 416.84 834.23"/><line class="cls-8" x1="299.02" y1="707.54" x2="266.51" y2="646.27"/><line class="cls-8" x1="341.43" y1="787.46" x2="312.59" y2="733.11"/><path class="cls-8" d="M452.42,496.46s5,96.19,213.07,146.29c0,0,26.6.75,21-54.1"/><path class="cls-8" d="M448.45,699.19H415.84c-72.34,0-127.14-5-151-56.45a99,99,0,0,1-4.39-11.12,97.9,97.9,0,0,1-4.65-22.75"/><polygon class="cls-8" points="442.48 786.65 428.17 812.89 326.4 812.89 334.56 799.08 341.43 787.46 341.91 786.65 442.48 786.65"/><polygon class="cls-8" points="406.11 834.23 406.11 834.35 365.88 834.35 365.8 834.23 406.11 834.23"/><polygon class="cls-8" points="406.11 834.23 406.11 834.35 395.36 834.35 395.36 860.47 380.11 860.47 365.88 834.35 365.8 834.23 406.11 834.23"/><polygon class="cls-8" points="481.88 860.47 416.84 860.47 416.84 834.23 466.38 834.23 481.88 860.47"/><path class="cls-8" d="M460.37,860.47v7.47a14,14,0,0,1-14,14H416.84V860.47Z"/><path class="cls-8" d="M406.11,812.89h0a10.72,10.72,0,0,1,10.73,10.73V882H406.09a10.74,10.74,0,0,1-10.74-10.73V834.35h10.76"/><path class="cls-8" d="M406.11,812.89H351.85v7.44a14,14,0,0,0,14,14l-.08-.12,51,.1"/><polygon class="cls-8" points="431.36 834.34 433.74 834.35 395.36 834.35 395.36 834.23 431.36 834.34"/><path class="cls-8" d="M717.22,640.52v0a12.13,12.13,0,0,0-6-8.92,12.27,12.27,0,0,0-16.77,4.48l-16.62,28.79H525.94l-18.23,34.34H658L583.73,827.82A12.27,12.27,0,1,0,605,840.1l81.35-140.91,1.38-2.38,15.89-27.5"/><polygon class="cls-7" points="687.72 699.19 686.33 699.19 687.72 696.81 687.72 699.19"/><path class="cls-8" d="M335.42,693.56,304.17,747.7l-53.35,92.4a12.27,12.27,0,1,1-21.25-12.28L283.73,734l27.48-47.58"/><path class="cls-8" d="M333,863.36c-17.37,58.95-73.54,94.35-125.43,79.06S127.68,866.93,145.07,808,218.6,713.6,270.5,728.91a89.19,89.19,0,0,1,13.23,5.1l-54.16,93.81a12.27,12.27,0,1,0,21.25,12.28l53.35-92.4c14.74,13.15,25.26,31.11,30.39,51.38l-8.16,13.81h10.78A123.24,123.24,0,0,1,333,863.36Z"/><ellipse class="cls-8" cx="594.13" cy="835.66" rx="111.3" ry="97.96" transform="translate(-375.41 1169.31) rotate(-73.58)"/><path class="cls-8" d="M216.25,605.88c-.05-5.74,3-9.67,6.44-13.86l11.13-13.42c20.76-24.78,41.05-50,61.87-74.71,5.11-6.06,10.35-12,15.92-17.68,19.55-19.85,42.12-37.29,66.88-50.16C522.38,361.3,550.22,457.51,609,536.22c14.17,18.94,43.36,35.73,64.71,46.25,27.14,13.38,88,31.84,64.09,75-4.91,8.83-29.71,21.8-37.56,8.15-7.35-12.76,17-13.78,17-25.08,0-8.68-6-12.21-13-14.12-12.54-3.43-6.45-2.57-19.3-2.66"/><path class="cls-8" d="M260.41,631.62c-14.19-2.86-32.41-5.51-41-18.69-1.22-1.84-2.74-4-3.08-6.25-.81-5.23,4.87-4.94,8.45-4.39,23.77,3.62,46.6,12,70.55,14.14,6.67.6,13.4.88,20.1.88h93.78a33.78,33.78,0,0,0,32.2-24c5.56-17.91,15.81-37.37,34.73-50"/><line class="cls-8" x1="566.79" y1="456.97" x2="556.06" y2="459.89"/><path class="cls-8" d="M560.76,420.78c-.94,0-54.28-13.15-79.27-10.81"/><path class="cls-7" d="M628.18,461.16a38.54,38.54,0,0,1-2.86,3.18.44.44,0,0,1-.17.16c-1.74,1.77-1.28,1.05-3.38,2.58a.18.18,0,0,1-.1.09s0,0,0,0a1.66,1.66,0,0,1-.38.31h0a97.93,97.93,0,0,0,7-13.18c3.48-6.25,6.23-13.29,2.39-15.34-6.51-3.46-6.73-16.36-4.65-23.47,0,0,0,0,0-.05a15.2,15.2,0,0,1,.88-2.36s0-.07,0-.09a10.5,10.5,0,0,0,.83-2.56C639.78,427.13,639.51,447.28,628.18,461.16Z"/><path class="cls-8" d="M627.64,402.43c14.51,17.27,15,39.18,2.93,54a40.43,40.43,0,0,1-2.86,3.18.52.52,0,0,1-.17.16,45.56,45.56,0,0,1-5.77,5,.19.19,0,0,1-.1.1s0,0,0,0a2,2,0,0,1-.38.31h0c-1,.74-2.05,1.43-3.15,2.1-1.45.9-3,1.76-4.6,2.55-8.68,4.27-18.77,6.75-28,4-7.6-2.29-13.9-8-18-14.86a49.55,49.55,0,0,1-5.6-14.67"/><path class="cls-7" d="M626.92,413s0,.07,0,.09c-.26.81-.55,1.6-.88,2.36,0,0,0,0,0,.05a24.85,24.85,0,0,1-14.91,13.67c-.24.09-.5.16-.76.24a20.54,20.54,0,0,1-5.63.69c-.79,0-1.58-.07-2.36-.17a19.81,19.81,0,0,1-9.69-4,15.23,15.23,0,0,1-1.74-1.58,4,4,0,0,1-.45-.47c-2.29-2.53-4.18-5.94-7.54-6.61-2.36-.45-4.74.67-6.75,2-7,4.7-11.3,12.17-13.33,20.32-1.57-16.88,3.6-33.46,18.58-43A41.32,41.32,0,0,1,595.72,391l11.14-.6a40.57,40.57,0,0,1,5.56.84c5.68,1.26,11.33,4,14.74,8.66a17.13,17.13,0,0,1,.81,4.58c0,.11,0,.26,0,.4A22.92,22.92,0,0,1,626.92,413Z"/><path class="cls-9" d="M604.48,385.65a40.2,40.2,0,0,1,5.55.84c6.09,1.36,12.12,4.39,15.41,9.66a14.7,14.7,0,0,1,1.1,2.12.1.1,0,0,0,0,.05c0,.05.05.14.1.26a11.9,11.9,0,0,1,.5,1.34,17.13,17.13,0,0,1,.81,4.58c0,.11,0,.26,0,.4a22.92,22.92,0,0,1-1.1,8.09s0,.07,0,.09c-.26.81-.55,1.6-.88,2.36,0,0,0,0,0,.05a24.85,24.85,0,0,1-14.91,13.67c-.24.09-.5.16-.76.24a20.54,20.54,0,0,1-5.63.69c-.79,0-1.58-.07-2.36-.17a19.81,19.81,0,0,1-9.69-4,15.23,15.23,0,0,1-1.74-1.58,4,4,0,0,1-.45-.47c-2.29-2.53-4.18-5.94-7.54-6.61-2.36-.45-4.74.67-6.75,2-7,4.7-11.3,12.17-13.33,20.32a35.73,35.73,0,0,0-.93,4.58,65.14,65.14,0,0,1-1.34-8c-2-17.37,3.08-34.59,18.46-44.34a41.44,41.44,0,0,1,14.34-5.63"/><path class="cls-7" d="M604.48,385.65c-1-.07-2-.12-2.91-.12-.24-3.12-3.18.15-5.92-2.26,3.25-7.95-4.53-14.6-9.2-17.08-9.28-4.91-20.23-8.63-30.87-7.49-13.5,1.48-19.29,12.09-27.9,21-9.66,10-24.74,12.73-38.64,12.11-8.78-.4-18-2.12-24.69-7.82-.69-.59-1.33-1.22-2-1.86a29.77,29.77,0,0,1-2.77-12.09,38.24,38.24,0,0,1,7.3-22.33c6-8.58,14.88-15,24.64-18.86a83.13,83.13,0,0,1,30.81-5.42,110.08,110.08,0,0,1,62,19,74.63,74.63,0,0,1,16.29,15.34s0,.07.07.09C605.72,366.72,607.89,376.47,604.48,385.65Z"/><line class="cls-5" x1="625.27" y1="407.21" x2="625.25" y2="407.19"/><path class="cls-7" d="M624.15,403s0,0,0,0a32.19,32.19,0,0,1,1.07,4.1l0,0Z"/><path class="cls-8" d="M626.54,398.27a.1.1,0,0,0,0,.05A29,29,0,0,1,628,404.9a18.19,18.19,0,0,1-.27,5.53,10.36,10.36,0,0,1-.83,2.56s0,.07,0,.09a15.2,15.2,0,0,0-.88,2.36s0,0,0,.05c-2.08,7.11-1.86,20,4.65,23.47,3.84,2.05,1.09,9.09-2.39,15.34a107.89,107.89,0,0,1-7,10.8h0"/><path class="cls-8" d="M604.48,385.65c-1-.07-2-.12-2.91-.12a42.05,42.05,0,0,0-8.23.72c3.15-3.1,3.93-6.27,3.24-9.21-1.05-4.43-5.46-8.37-10.13-10.85-9.28-4.91-20.23-8.63-30.87-7.49-13.5,1.48-19.29,12.09-27.9,21-9.66,10-24.74,12.73-38.64,12.11-8.78-.4-18-2.12-24.69-7.82-.69-.59-1.33-1.22-2-1.86a28.88,28.88,0,0,1-7.54-19.25,38.21,38.21,0,0,1,7.3-22.32c6-8.59,14.88-15,24.64-18.87a83.33,83.33,0,0,1,30.81-5.41,110.07,110.07,0,0,1,62,19c8,5.49,16,13.5,21.06,22.5,0,0,0,.07.07.09C605.72,366.72,607.89,376.47,604.48,385.65Z"/><path class="cls-8" d="M606.12,445.59s-5,9.29-6.18,10.18-3-2.38-3-2.38"/><path class="cls-8" d="M601.15,464.77c-2.8,1.73-6.44,2.11-9.65,2.22-5.15.17-6.83-4.14-6.85-8.72a36.62,36.62,0,0,1,.94-7.35c1.75,3.31,3.55,6.66,6.17,9.34S597.54,463.79,601.15,464.77Z"/><path class="cls-8" d="M612.12,431.66s-4-12.57-15.73-12.35"/><ellipse class="cls-8" cx="593.94" cy="436.04" rx="12.34" ry="12.05"/><ellipse class="cls-8" cx="618.3" cy="455.14" rx="12.34" ry="12.05"/><path class="cls-10" d="M618.31,447h0a8.44,8.44,0,0,1,5.25,1.81,8,8,0,0,1,1.28,11.38,8.53,8.53,0,0,1-11.8,1.25,8,8,0,0,1-1.28-11.39,8.43,8.43,0,0,1,6.55-3.05m0-2a10.43,10.43,0,0,0-8.1,3.79A10,10,0,0,0,611.8,463a10.54,10.54,0,0,0,14.59-1.55,10,10,0,0,0-1.59-14.25,10.49,10.49,0,0,0-6.49-2.23Z"/><line class="cls-8" x1="603.56" y1="443.58" x2="608.68" y2="447.6"/><path class="cls-8" d="M591.3,433l.69.05a7.36,7.36,0,0,1,6.62,5.6h0"/><path class="cls-8" d="M614.64,453.1l.7,0a7.37,7.37,0,0,1,6.62,5.6h0"/><circle class="cls-7" cx="705.44" cy="639.17" r="17.29"/><circle class="cls-8" cx="705.44" cy="639.17" r="17.29"/><circle class="cls-8" cx="705.44" cy="639.17" r="17.29"/><path class="cls-8" d="M401.94,407.21s-65,14-116.27,84.34"/><path class="cls-8" d="M688.14,755.5s21.66,28.12,19.68,68.12"/><line class="cls-8" x1="214.6" y1="638.69" x2="162.13" y2="638.69"/><line class="cls-8" x1="199.39" y1="628.21" x2="217.78" y2="628.21"/></svg>