<svg id="Layer_2" data-name="Layer 2" xmlns="http://www.w3.org/2000/svg" viewBox="0 0 1000 1000"><defs><style>.cls-1,.cls-3,.cls-6{fill:none;stroke-width:4.23px;}.cls-1{stroke:#ccdde2;}.cls-1,.cls-3{stroke-miterlimit:10;}.cls-2{fill:#3fbdf1;}.cls-3{stroke:#000;}.cls-4{fill:#d7e8f0;}.cls-5{fill:#fff;}.cls-6{stroke:#fff;stroke-linecap:round;stroke-linejoin:round;}.cls-7{fill:#2e2e2e;}</style></defs><path class="cls-1" d="M101,960.85c-50.21-46.37-74.39-125.69-20.2-179,13.41-13.18,29.64-23,47-30h0c.69-.25,1.37-.53,2.06-.78"/><path class="cls-1" d="M422,567.45c50.46,4.3,69.72,27.15,93.87,57.19,2,2.49,3.93,5,5.83,7.51,21.6,28.49,37.77,73.37,81.44,67.79,34.12-4.37,63.33-25.93,93.9-39.89,50.39-23,111-45.72,165.17-21.35C920.27,664.81,948.88,736,950,796.05c1.09,60.37-24.53,137.56-83.28,164.8"/><path class="cls-2" d="M456.65,685.41a129.34,129.34,0,0,1-25.9,74.43.41.41,0,0,0-.09.12c-1.53,1.65-3.09,3.3-4.68,4.89A136.43,136.43,0,0,1,329.18,805h-.37c-20.76,0-41.51.07-62.24.07-16.36,0-32.91,1-49.11-1.37-5.21-.75-10.13-2.4-15.46-2.16-20.32.94-34.28,20.17-43.91,35.72a1.58,1.58,0,0,1-.5.5,1.37,1.37,0,0,1-.1-.56c1.28-23.44-3.8-47.68-15.49-68.1-.21-.4-.43-.78-.65-1.15-6.51-11-15.18-20.45-20.76-32a130,130,0,0,1,120.58-186.3l89.1,2.4A129.93,129.93,0,0,1,456.65,685.41Z"/><path class="cls-3" d="M466.06,668.09a136.34,136.34,0,0,1-35.31,91.75.41.41,0,0,0-.09.12c-1.53,1.65-3.09,3.3-4.68,4.89A136.43,136.43,0,0,1,329.18,805h-.37c-20.76,0-41.51.07-62.24.07-16.36,0-32.91,1-49.11-1.37-5.21-.75-10.13-2.4-15.46-2.16-20.32.94-34.28,20.17-43.91,35.72a1.58,1.58,0,0,1-.5.5,1.49,1.49,0,0,1-2.28-1.31c.69-24.75-5.36-50.11-18.26-71.31-.22-.4-.47-.81-.72-1.18-7.17-11.38-16.55-21.1-22.75-33.1A136.91,136.91,0,0,1,235.25,531.18h93.93A136.89,136.89,0,0,1,466.06,668.09Z"/><rect class="cls-4" x="282.22" y="595.23" width="125.32" height="152.6" rx="23.78"/><circle class="cls-5" cx="345.58" cy="627.93" r="9.64"/><path class="cls-5" d="M318.65,671.53a26.93,26.93,0,0,1,53.86,0Z"/><rect class="cls-2" x="308.83" y="694.52" width="72.09" height="30.51" rx="12.25"/><line class="cls-6" x1="243.14" y1="643.9" x2="167.45" y2="643.9"/><line class="cls-6" x1="243.14" y1="661.6" x2="167.45" y2="661.6"/><line class="cls-6" x1="243.14" y1="677.4" x2="167.45" y2="677.4"/><line class="cls-6" x1="243.14" y1="695.1" x2="167.45" y2="695.1"/><line class="cls-6" x1="243.14" y1="628.1" x2="167.45" y2="628.1"/><line class="cls-6" x1="243.14" y1="710.91" x2="167.45" y2="710.91"/><path class="cls-5" d="M264.29,825.78s-35.05-3.39-31.26-39,10.68-34,42.16-48.81c0,0,25.71-.12,32.88,7.59S319.4,738,319.4,738s33.5-42.14,75.32-33.28-32.64,42.4-32.64,42.4-48.05.66-35.62,18.49c0,0,7.23,13.41,3.07,24.58s-4.11,29.09-6.86,29.61-43.78,9.46-43.78,9.46Z"/><path class="cls-7" d="M591.79,960.86H494.43A122.68,122.68,0,0,1,407.57,925a34.88,34.88,0,0,1-.75,7.07V867.21c-32-37.37-69.28-18.36-74.29-15.55-2.22-21.23-4.18-38-4.18-38s-5.39-45.54,36.81-62.21c.34-.15.68-.28,1-.4,19.75-7.45,37.64-3.77,52.57,3.55.25.15.5.25.75.4,15.77,7.92,28.14,19.83,35.78,26.78.81.71,1.56,1.4,2.27,2,7.86,6.86,28.36,27.12,51.39,43.45l.38.28c16.92,11.93,35.18,21.75,50.77,22.59C560.1,850.16,599.58,889.87,591.79,960.86Z"/><path class="cls-2" d="M583.81,844.3h0c-9.07,3.59-16.86,5.61-24.43,5.86A45.36,45.36,0,0,1,547.6,849c-11.35-2.49-23.25-9.35-39-21.47l-.37-.28c-13.59-10.41-30-24.72-51.4-43.45-.71-.62-1.46-1.31-2.27-2-2.09-1.81-4.24-3.68-6.42-5.61A171.68,171.68,0,0,0,418.76,755c-.25-.15-.5-.25-.75-.4-1-.59-2.05-1.12-3.08-1.65a56.37,56.37,0,0,0-7.17-3.09A58.15,58.15,0,0,0,389,746.47l-3.93.1c-50.67,1.49-61.83,13.27-61.83,13.27a48.51,48.51,0,0,1,9.16,24c-4.18-.68-8.35.62-9.07,5.24-.87,5.67-2.18,10.87-7.45,14.21A14.93,14.93,0,0,1,305.23,805s-.07,0-.1,0c-1.06-.31-2.09-.56-3-.75a9,9,0,0,1-1.19-.37c-10.62-3.87-16.82-2.37-14.8,9,2.37,13.37-15.08,15.12-26.58,13.06-20.29-9.13-25.84-44.75-9.76-66.69.41-.56.87-1.15,1.34-1.75s1-1.15,1.47-1.71a43.46,43.46,0,0,1,3.83-3.68c.47-.4.94-.81,1.43-1.18s1.19-.91,1.78-1.34a16.25,16.25,0,0,1,1.81-1.25h0a48,48,0,0,1,37.3-6.64A52.65,52.65,0,0,1,313,749.4s.4-.62,1.21-1.74a52.67,52.67,0,0,1,5.42,3.68s30.45-46.44,74.61-45.91a48.92,48.92,0,0,1,10.57,1.25c34.44,12.18,57.81,56.06,78.88,62.79a49.56,49.56,0,0,0,4.86,1.28h0c16.3,3.49,34.53-.31,50.71-1.34,10.66-.68,21.6-.43,31.91,2.43,1.28.35,2.59.78,3.87,1.25h.06c14.4,5.17,28.58,16.64,32.1,31.88C611.15,821.86,598.3,837.66,583.81,844.3Z"/><path class="cls-2" d="M886.06,707a12.11,12.11,0,0,1-6.74,8.13l-28.05,13.37-62.48,22.91,6-20.85a16.16,16.16,0,0,1,7.61-6l54.27-20.79L870,698.57a12.24,12.24,0,0,1,14.61,5.08A11.9,11.9,0,0,1,886.06,707Z"/><path class="cls-3" d="M856.7,697.82l13.35-5.25a12.22,12.22,0,0,1,9.28,22.59l-28.05,13.36-41.7,202A41,41,0,0,1,770,960.86H493.68A122.69,122.69,0,0,1,406.82,925"/><path class="cls-3" d="M760.36,825.26l-.87,2.4c-15.83,42.29-17.64,67-17.64,67"/><path class="cls-3" d="M339.91,933.18,327.6,807.59a61.08,61.08,0,0,1,36.81-56.1,58.42,58.42,0,0,1,50.52,1.5c1,.53,2.05,1.06,3.08,1.65.25.16.5.25.75.4a171.68,171.68,0,0,1,29.36,21.17c2.18,1.93,4.33,3.8,6.42,5.61.81.71,1.56,1.4,2.27,2,21.38,18.73,37.81,33,51.4,43.45l.37.28c21.25,16.33,35.47,23.09,50.77,22.59,9.66-.31,19.73-3.55,32.25-9.1,46.75-20.76,125.32-7.2,152.31,44.75"/><path class="cls-3" d="M370.89,960.8c.66,0,1.28.06,1.9.06a34,34,0,0,0,34-34V830"/><path class="cls-3" d="M332.37,783.84c-3.65-36.87-46.93-57.75-77.54-37.52-.5.28-1,.62-1.46,1l-.38.28c-.59.44-1.18.88-1.77,1.34a46,46,0,0,0-5.27,4.87c-.5.56-1,1.15-1.47,1.71s-.93,1.19-1.34,1.75"/><path class="cls-3" d="M259.63,825.85a63.79,63.79,0,0,0,19.63,13.34c29.36,11.84,43.61-10.53,43.61-10.53"/><path class="cls-3" d="M575.68,847.33c.9-.32,1.81-.63,2.68-.91l.28-.09a6.37,6.37,0,0,0,.69-.25c.77-.25,1.52-.53,2.3-.84l1.47-.59c14.77-6.47,28.12-22.5,24.14-39.69-3.86-16.6-20.35-28.74-36-33.12-10.31-2.86-21.25-3.11-31.91-2.43-17.83,1.12-38.12,5.64-55.6.06-24.4-7.79-51.92-65.44-96.08-66S313,749.39,313,749.39"/><path class="cls-3" d="M323.23,759.86s9.14-12.38,63.17-13.38"/><path class="cls-3" d="M759.49,827.66l26.8-75.33,2.09-5.89,6.7-18.85a15.11,15.11,0,0,1,2.15-4,16.24,16.24,0,0,1,7.61-6l51.86-19.79"/><path class="cls-2" d="M734,703.47,719.85,727l-36.93,49.68L678,754.08a16.28,16.28,0,0,1,3.06-9.13l32.35-45.13,3.49-4.36a12.22,12.22,0,0,1,15-3.84,11.53,11.53,0,0,1,3.62,2.62A12.21,12.21,0,0,1,734,703.47Z"/><path class="cls-3" d="M764.73,813l-44.86-86L734,703.46a12.24,12.24,0,0,0-.19-13.24,12,12,0,0,0-5-4.3,12.26,12.26,0,0,0-15,3.8l-3.5,4.4"/><path class="cls-3" d="M710.28,694.12l-32.35,45.09a16.37,16.37,0,0,0-3,9.17,15.91,15.91,0,0,0,.43,4.55l4.8,19.41,1.5,6.08,16.24,65.7"/><path class="cls-3" d="M254.82,746.3c-29.44,18.26-26.07,67-1.73,77.72,9.3,4.1,36,5.1,33-11.24-2-11.33,4.19-12.83,14.82-9,18.39,6.66,22.28-11.14,22.28-12.37"/><line class="cls-3" x1="317.41" y1="834.59" x2="329.44" y2="838.17"/><path class="cls-3" d="M222.52,890.38v0L211,914.15a7.19,7.19,0,0,1-9.27,3.48h0a7.18,7.18,0,0,1-3.43-10.19l2.24-3.91a5,5,0,0,1,.25-.59l1.55-3.13,13.18-26.56a21.7,21.7,0,0,1,16.94-12l.3,0"/><path class="cls-3" d="M248,888.52l-17,4.92a7.6,7.6,0,0,1-9.42-5.19h0a7.6,7.6,0,0,1,5.19-9.42l24.12-7"/><path class="cls-3" d="M234.89,892.29a10.15,10.15,0,0,1-1.11,7.6c-3.18,5.21-11.23,7-17.52,5.94"/><path class="cls-3" d="M202.32,899.81c-6.58-4.49-7.92-12.78-5.89-20.07,8.26-30.17,42.73-23,65.6-17.7a282.29,282.29,0,0,1,40,12.71c10.76,4.3,21.29,10.07,32.88,11.66"/><path class="cls-3" d="M233.79,899.9s2.37.84,6.42,2.43a245.24,245.24,0,0,1,49.68,26.46c7.61,5.24,17.42,8.79,28.46,11.16"/><path class="cls-3" d="M337.72,917.34A16.36,16.36,0,0,0,320,926.88c-6.33,13,2.51,28.39,16.81,30.59a269.5,269.5,0,0,0,36,3.39"/><path class="cls-7" d="M332.56,852.12,332,852s.18-.12.56-.34C332.53,851.81,332.56,852,332.56,852.12Z"/><rect class="cls-3" x="137.34" y="931.95" width="157.39" height="16.44" rx="6.6" transform="translate(179.35 -23.8) rotate(10.76)"/><line class="cls-3" x1="161.03" y1="938.09" x2="161.03" y2="960.86"/><line class="cls-3" x1="55.53" y1="960.86" x2="905.35" y2="960.86"/></svg>